<svg xmlns="http://www.w3.org/2000/svg" width="412" height="847"><path fill="#daab7d" d="M0 0h412v847H0z"/><path fill="#fcfcfc" d="M0 0h412v847H0zm82.374 22.559c-3.091 3.848-3.088 7.292-3.046 12.085l-.037 2.64c-.037 2.953-.038 5.906-.041 8.86q-.03 3.234-.068 6.467-.078 7.212-.121 14.423c-.058 8.467-.173 16.934-.295 25.401l-.166 11.608a16247 16247 0 0 0-.412 31.657l-.25 20a78519 78519 0 0 1-.469 36.896c-.28 21.818-.62 43.632-1.159 65.445-.334 13.655-.434 27.3-.31 40.959l-1.677-.048C59.29 298.582 47.898 298.705 36 309c-6.728 7.21-9.41 14.224-9.328 23.93l.016 2.585.062 9.36.022 3.303c.096 14.117.223 28.232.425 42.347.714 50.08.929 100.156 1.043 150.24l.031 13.225q.123 50.694.21 101.389.041 23.199.102 46.397.037 14.183.054 28.364.011 9.63.042 19.263c.011 3.694.02 7.387.019 11.081 0 4.002.014 8.003.03 12.004l-.008 3.519c.098 15.388 6.02 29.759 16.874 40.817 12.086 10.929 24.203 16.321 40.397 16.33l3.075.013q5.106.019 10.213.026l7.318.025q10.988.034 21.974.052l6.214.011a38877 38877 0 0 0 49.825.071c11.985.013 23.97.046 35.955.088q18.485.063 36.969.071c6.911.004 13.822.015 20.734.048q9.763.045 19.526.025 3.57 0 7.141.025c20.701.145 35.792-2.63 51.628-16.922 6.227-6.396 9.869-13.591 13.437-21.687l1.129-2.543c2.325-6.559 2.02-13.303 2.022-20.17l.013-3.603q.016-4.944.022-9.887.01-5.343.029-10.686.027-9.287.045-18.573.029-13.578.07-27.156.064-22.232.118-44.463l.006-2.69.026-10.759a197844 197844 0 0 1 .253-95.725c.142-50.08.445-100.152 1.102-150.228.269-20.666.38-41.334.493-62.001l.022-3.01c.026-10.281-3.178-18.126-10.35-25.506-8.997-7.536-18.042-9.485-29.562-9.187l-3.057.04q-3.69.054-7.381.147l.007-1.944c.177-51.098-.172-102.189-.818-153.282q-.244-19.283-.41-38.567a5547 5547 0 0 0-.313-27.607c-.074-5.442-.137-10.883-.17-16.325q-.05-7.586-.185-15.171a418 418 0 0 1-.044-5.546c.345-9.385.345-9.385-2.62-17.966-1.766-1.551-3.329-2.596-5.447-3.592l-2.16-1.355C297.965 11.139 280.96 10.47 265 9l-3.409-.325C167.245-1.911 167.245-1.911 82.374 22.559"/><path fill="#cfa260" d="M195.938 26.813h2.075c32.38.007 64.97.283 96.83 6.742l2.093.422L302 35l1.136 68.141.428 25.767.166 10.07.033 2.01q.25 14.888.524 29.777c.53 29.101.856 58.188.782 87.294-.011 4.67-.015 9.34-.02 14.011q-.015 13.465-.049 26.93c-44.61.856-89.2 1.136-133.817 1.072q-12.353-.016-24.707-.022-25.237-.015-50.476-.05c-.052-14.81.043-29.61.34-44.418q.097-4.892.189-9.783.132-7.056.269-14.112c.82-42.721 1.482-85.44 1.837-128.167.093-11.174.21-22.347.365-33.52l.034-2.528q.098-7.355.258-14.709.048-2.249.08-4.497c.03-2.038.08-4.076.132-6.114l.07-3.472L100 36c8.772-5.848 23.166-5.555 33.375-6.625l3.54-.373c19.677-1.963 39.262-2.205 59.023-2.19"/><path fill="#030303" d="m265 9 3.67.325c38.635 3.486 38.635 3.486 51.419 13.274 2.602 3.269 2.506 6.147 2.506 10.156l.047 2.385c.048 2.643.068 5.286.087 7.93q.044 2.846.09 5.69c.083 5.178.14 10.356.192 15.534.06 5.487.142 10.974.22 16.462q.195 13.929.352 27.859c.147 12.83.32 25.658.499 38.487.7 50.634 1.137 101.26.918 151.898l1.92-.025c2.895-.032 5.79-.053 8.685-.073l3.02-.04c10.585-.054 18.18 2.298 26.367 9.15 6.465 6.402 10.022 13.61 10.25 22.723q0 2.793-.012 5.585l-.008 3.007c-.064 21.287-.162 42.572-.444 63.857-.633 48.498-.897 96.994-1.012 145.496l-.037 15.17c-.08 32.2-.153 64.4-.21 96.6q-.041 22.128-.102 44.256-.037 13.513-.054 27.028a8766 8766 0 0 1-.042 18.34q-.019 5.274-.019 10.547c0 3.809-.014 7.617-.03 11.426l.008 3.345c-.108 16.118-6.346 30.15-17.409 41.862-5.383 5.075-11.212 8.59-17.871 11.746l-2.333 1.125c-10.803 4.355-22.323 3.435-33.772 3.393q-3.666.008-7.331.02c-5.927.017-11.853.015-17.78.003q-7.23-.013-14.462-.006l-2.086.002-4.197.004c-13.092.011-26.184-.002-39.276-.023q-16.815-.026-33.63.003a15148 15148 0 0 1-43.321.014l-2.078-.002q-7.214-.003-14.427.012-9.728.018-19.456-.02-3.56-.007-7.119.006c-20.727.07-36.275-2.812-52.107-17.218-9.105-9.751-15.73-23.436-15.76-36.8l-.016-3.248v-3.536l-.013-3.785q-.016-5.194-.022-10.39-.01-5.612-.029-11.225-.027-9.753-.045-19.506-.029-14.246-.07-28.492-.064-23.307-.118-46.613l-.006-2.82-.026-11.282a211230 211230 0 0 0-.253-100.43c-.144-52.7-.423-105.393-1.207-158.088a15190 15190 0 0 1-.241-16.966l-.03-2.06-.13-9.264-.048-3.362a2620 2620 0 0 0-.106-6.56l-.055-3.138-.05-2.755c-.084-10.33 1.412-18.197 8.548-26.17 7.032-6.872 16.087-10.984 25.915-10.92l2.686.01 2.764.024 2.822.014q3.432.018 6.865.049l-.016-1.749c-.106-13.951.047-27.882.39-41.829.53-21.739.846-43.48 1.126-65.223l.031-2.405q.223-17.3.438-34.6l.312-24.93c.111-8.86.226-17.719.353-26.578l.033-2.34.131-9.176c.13-8.977.23-17.954.286-26.932.032-4.639.082-9.278.136-13.917q.03-3.132.033-6.264c.003-2.805.035-5.609.075-8.413l-.021-2.425C79.434 26.503 80.898 23.997 85 20 129.216-6.121 215.672 4.346 265 9M100 36a127 127 0 0 0-.301 6.054l-.12 3.976q-.059 2.2-.114 4.4l-.063 2.278c-.49 17.877-.643 35.757-.79 53.639-.36 42.983-1.057 85.958-1.883 128.934q-.134 6.95-.264 13.9-.09 4.712-.186 9.425c-.267 13.799-.327 27.592-.279 41.394q26.479.036 52.958.052 12.308.007 24.615.023a21685 21685 0 0 0 30.957.023c33.496-.002 66.98-.455 100.47-1.098.256-46.637-.028-93.245-.937-139.875l-.07-3.537q-.305-15.592-.617-31.183a9609 9609 0 0 1-1.001-61.28l-.062-4.506Q302.152 46.81 302 35c-34.2-7.083-68.582-8.18-103.404-8.245q-2.992-.008-5.984-.021C144.056 23.767 144.056 23.767 100 36M49 324c-11.14 18.85-1.968 69.023-1.597 91.028.594 35.364.712 70.72.679 106.09a20623 20623 0 0 0 .005 42.258l.01 11.057.023 30.748c.009 15.205-.004 30.41-.024 45.615q-.029 23.649.017 47.298.029 14.478-.016 28.956-.027 9.866.014 19.732c.015 3.782.018 7.563-.01 11.344-.126 18.654.356 31.42 12.899 45.874 2.145 1.806 2.145 1.806 4.375 3.188l2.148 1.417c6.84 3.852 11.795 4.833 19.584 4.783l3.039.016c3.352.014 6.704.007 10.056 0l7.22.02c5.855.017 11.71.019 17.565.014a7247 7247 0 0 1 16.342.005l4.136.004c12.924.014 25.847.009 38.77-.003 11.807-.01 23.613.003 35.42.027q18.206.037 36.413.027c6.808-.003 13.616 0 20.425.017q9.607.022 19.216-.008 3.52-.005 7.04.01c3.212.013 6.424.002 9.636-.016l2.79.03c10.661-.12 20.313-3.863 27.825-11.531 8.174-10.511 10.453-19.904 10.392-33.025l.018-3.92c.016-3.575.014-7.15.008-10.723-.003-3.867.012-7.734.025-11.6q.027-10.07.029-20.139c.002-9.8.021-19.6.045-29.401q.057-24.042.082-48.083c.035-33.03.097-66.062.163-99.092l.006-2.738.005-2.733q.019-9.537.035-19.075c.08-44.41.22-88.815.89-133.22q.125-8.419.217-16.838c.055-4.657.142-9.314.24-13.97.066-3.426.111-6.852.151-10.278q.036-2.46.099-4.919c.057-2.268.082-4.535.1-6.804l.07-3.923c-.74-4.532-2.281-6.365-5.575-9.519-5.442-3.888-11.132-3.426-17.563-3.394l-3.55-.019a1642 1642 0 0 0-9.73-.008c-3.501.002-7.002-.012-10.503-.025-6.856-.02-13.712-.025-20.568-.023a10669 10669 0 0 1-21.538-.017l-2.422-.003c-15.114-.019-30.229-.018-45.343-.01-13.823.005-27.646-.016-41.469-.05q-21.296-.05-42.593-.043c-7.97.002-15.938-.003-23.907-.028q-10.178-.033-20.354-.006c-3.46.01-6.92.01-10.38-.01-3.755-.019-7.508-.006-11.263.015l-3.3-.038c-6.558.076-11.637.994-16.517 5.659"/><path fill="#eeeeed" d="m68.684 318.485 3.552-.02c3.241-.016 6.482-.013 9.723-.003 3.5.007 7-.009 10.501-.022 6.853-.021 13.705-.021 20.558-.013q8.355.008 16.71-.001l2.405-.003 4.835-.006c15.107-.016 30.215-.007 45.323.01 13.816.014 27.632 0 41.449-.03a15516 15516 0 0 1 47.397-.027l2.395.001q8.342.002 16.685-.022 10.17-.027 20.342.005c3.459.012 6.917.015 10.375-.004 3.752-.016 7.503 0 11.255.022l3.3-.036c7.987.098 12.701 2.087 18.492 7.524 1.513 3.176 1.363 5.88 1.329 9.387l-.009 2.178c-.013 2.375-.048 4.75-.083 7.125q-.022 2.525-.039 5.05c-.034 4.317-.086 8.634-.146 12.951q-.046 3.402-.085 6.804-.126 10.593-.288 21.185c-.665 44.527-.765 89.053-.825 133.584q-.019 13.65-.042 27.301l-.041 24.99-.005 2.8q-.056 34.321-.074 68.642-.013 23.933-.068 47.865-.034 14.633-.026 29.266.004 9.95-.03 19.897c-.013 3.814-.02 7.627-.008 11.44.012 4.137-.007 8.273-.029 12.41l.026 3.614c-.12 12.38-4.059 22.536-12.538 31.651-8.942 7.156-16.913 9.302-28.1 9.28l-3.037.019c-3.35.017-6.7.02-10.05.023l-7.215.03c-6.529.027-13.058.04-19.587.048q-6.123.01-12.245.023-16.971.04-33.942.052l-2.192.001-2.197.002-4.406.002-2.208.002c-11.8.008-23.599.043-35.398.09q-18.198.07-36.397.074c-6.804.002-13.608.013-20.413.05-6.403.033-12.806.037-19.209.02q-3.516-.003-7.033.026c-22.736.18-22.736.18-32.371-6.742l-2.134-1.477C57.79 801.813 54.819 796.516 52 791l-1.56-2.872c-2.274-5.4-1.859-11.073-1.832-16.837l-.018-3.89c-.016-3.555-.014-7.11-.008-10.664.003-3.84-.012-7.682-.025-11.523q-.027-10.001-.029-20.003c-.002-9.717-.021-19.433-.045-29.15q-.057-23.8-.082-47.599a67825 67825 0 0 0-.063-45.71l-.005-2.817q-.027-15.363-.058-30.726l-.006-2.766-.022-10.983q-.034-15.81-.05-31.622c-.038-36.96-.222-73.91-.83-110.867-.403-24.533-.575-49.064-.695-73.6l-.023-3.418c-.017-9.37-.017-9.37 3.351-12.953 6.146-4.457 11.23-4.571 18.684-4.515M59 341c-.425 7.759.05 15.567.455 23.32.581 11.658.928 23.321 1.271 34.99.828 27.856 1.86 55.703 2.965 83.55l.114 2.877q.815 20.517 1.638 41.033.834 20.805 1.661 41.611.275 6.94.555 13.88c.785 19.46 1.512 38.919 2.018 58.39.194 7.39.446 14.771.858 22.154.368 6.714.59 13.417.711 20.14l.05 2.787c.066 3.736.129 7.473.18 11.21.141 9.673.38 19.294 1.391 28.921l.214 2.142C74.416 739.404 79.233 749.585 87 758l1.73 2.04c12.106 13.37 29.184 17.996 46.605 18.914a853 853 0 0 0 7.665.296l2.757.111c34.026 1.367 68.123 1.08 102.153 0q3.475-.109 6.95-.204c23.192-.654 43.337-3.53 60.14-21.157 9.021-10.327 13.873-22.971 14.265-36.662l.102-3.318.098-3.579.116-3.796c.162-5.324.315-10.647.469-15.97.458-15.694 1.06-31.365 1.907-47.042.795-14.773 1.407-29.546 1.902-44.332l.107-3.189q.279-8.366.552-16.73c.41-12.54.835-25.078 1.263-37.616l.07-2.027c.849-24.858 1.781-49.713 2.743-74.567l.103-2.683q1.025-26.528 2.07-53.055.394-10.02.784-20.04.271-6.95.549-13.899.169-4.272.335-8.545.111-2.861.229-5.722c.13-3.409.238-6.818.336-10.228l.135-3.648.083-3.537.092-3.169c-.09-2.663-.09-2.663-1.653-4.467-7.453-5.303-24.277-4.01-33.407-4.679l-2.593-.19C273.703 332.999 76.593 323.407 59 341"/><path fill="#ecc27a" d="M195.938 26.813h2.075c29.857.006 59.403.75 88.987 5.187l2.128.313c9.264 1.383 9.264 1.383 11.872 2.687v9l-2.534-.335c-16.733-2.18-33.422-3.988-50.279-4.852l-2.123-.111C231.05 37.939 216.022 37.518 201 37v262h-81c0-23.135 0-23.135.18-34.61l.039-2.556.04-2.646q.043-2.832.084-5.666.113-7.607.23-15.215.098-6.416.193-12.83l.46-30.383q.238-15.496.468-30.993.2-13.442.405-26.882l.24-15.932C122.736 94.52 123.272 67.76 124 41l-3.108.433-4.083.56c-1.011.14-1.011.14-2.043.285-4.653.633-9.08.913-13.766.722v-8c8.895-2.557 17.7-3.889 26.87-4.88 2.232-.243 4.462-.499 6.692-.757 20.45-2.319 40.807-2.566 61.375-2.55"/><path fill="#070605" d="M197.938 331.813h2.414c37.738.016 75.268 1.198 112.898 4.187l3.225.253q4.49.36 8.978.747l2.672.215c11.082.992 11.082.992 14.875 4.785.216 2.45.216 2.45.162 5.578l-.055 3.568q-.286 10.307-.702 20.609l-.192 4.947q-.207 5.313-.418 10.627-.338 8.565-.67 17.128-.774 19.878-1.556 39.755a94330 94330 0 0 0-1.861 47.636c-.906 23.28-1.773 46.56-2.538 69.846l-.1 3.061q-.479 14.51-.932 29.023c-.613 19.678-1.37 39.337-2.451 58.995-.547 9.985-.943 19.962-1.214 29.957l-.057 2.08c-.16 5.788-.312 11.576-.445 17.365-.092 3.894-.2 7.787-.31 11.68l-.067 3.485c-.532 17.439-6.399 33.439-19.125 45.676-13.312 10.7-28.498 15.027-45.324 15.617l-3.135.126c-3.4.133-6.798.25-10.197.366l-3.574.126c-35.072 1.22-70.17 1.413-105.239-.001l-2.642-.093c-21.138-.778-39.15-5.517-54.018-21.368-7.864-9.374-12.1-19.661-13.414-31.797l-.258-2.358c-.989-9.816-1.093-19.651-1.23-29.509q-.068-4.218-.143-8.435-.046-2.59-.08-5.177c-.097-5.852-.369-11.686-.678-17.529-.59-11.293-.926-22.591-1.263-33.895-.824-27.358-1.858-54.706-2.965-82.054l-.229-5.648q-.936-23.1-1.883-46.2-.654-15.978-1.301-31.958-.275-6.795-.555-13.591c-.837-20.245-1.552-40.486-2.015-60.743-.193-8.325-.447-16.64-.889-24.957C58.524 346.21 58.524 346.21 59 341c3.27-3.27 7.463-2.938 11.938-3.437l3.33-.379c12.734-1.337 25.514-2.064 38.295-2.809l3.233-.189c7.4-.427 14.801-.817 22.204-1.186l2.983-.153c18.982-.954 37.954-1.049 56.954-1.034m-99.875 14.75-2.084.175c-9.05.775-18.002 1.89-26.979 3.262-.137 9.753.295 19.453.805 29.188l.254 5.003q.267 5.244.54 10.49.34 6.544.672 13.087c.833 16.34 1.69 32.68 2.613 49.015 1.156 20.483 2.16 40.973 3.116 61.467l.132 2.821c1.142 24.39 2.17 48.773 2.868 73.179a8363 8363 0 0 0 2.496 74.804c.211 5.558.417 11.115.608 16.673q.271 7.878.587 15.754.112 2.918.206 5.837C84.402 722.82 85.582 736.648 96 749l1.55 1.922c10.166 11.4 24.415 14.231 38.878 15.249 19.013 1.049 38.053 1.017 57.087 1.014q5.268 0 10.536.02c17.805.069 35.6.01 53.387-.855q2.277-.11 4.554-.204c16.795-.72 32.081-4.739 44.008-17.146 11.928-13.588 11.833-31.857 12.188-48.875q.1-3.542.206-7.083.22-7.567.407-15.137a4683 4683 0 0 1 .729-26.069l.31-10.314q.126-4.178.248-8.355c.872-29.652 2.112-59.284 3.474-88.917q.164-3.572.327-7.144.972-21.19 1.981-42.38l.364-7.685q1.756-37.142 3.836-74.268l.14-2.507c.458-8.18.917-16.359 1.388-24.538q.257-4.495.512-8.991l.24-4.17c.441-7.531.772-15.022.65-22.567-38.222-4.406-76.519-7.322-115-8l-2.447-.044c-39.275-.66-78.359 1.298-117.49 4.606"/><path fill="#f9e6c1" d="M195.938 26.813h2.075c29.857.006 59.403.75 88.987 5.187l2.128.313c9.264 1.383 9.264 1.383 11.872 2.687v9l-2.534-.335c-31.806-4.143-63.266-5.835-95.341-5.852l-3.282-.004q-4.76.002-9.523.023l-2.73.004c-10.887.074-21.692.69-32.59 1.164v260h-35c-.025-13.274.055-26.54.26-39.812l.083-5.666q.113-7.607.23-15.215.098-6.416.193-12.83l.46-30.383q.238-15.496.468-30.993.2-13.442.405-26.882l.24-15.932C122.736 94.52 123.272 67.76 124 41l-3.108.433-4.083.56c-1.011.14-1.011.14-2.043.285-4.653.633-9.08.913-13.766.722v-8c8.895-2.557 17.7-3.889 26.87-4.88 2.232-.243 4.462-.499 6.692-.757 20.45-2.319 40.807-2.566 61.375-2.55"/><path fill="#c59958" d="M301 35h1l1.564 93.908.166 10.07.033 2.01q.25 14.888.524 29.777c.53 29.101.856 58.188.782 87.294-.011 4.67-.015 9.34-.02 14.011q-.016 13.465-.049 26.93h-25l-.07-5.767q-.327-27.322-.66-54.646-.172-14.037-.34-28.073a100411 100411 0 0 0-.428-35.198c-.317-25.777-.688-51.552-1.195-77.326-.368-18.998-.42-37.99-.307-56.99 5.417-.104 10.572.063 15.938.938l3.34.527C299 43 299 43 301 44z"/><path fill="#eac07a" d="M100 36h1v7l3.508-.437 4.617-.563c.76-.095 1.521-.19 2.305-.29 1.121-.134 1.121-.134 2.265-.273l2.063-.253c2.753-.226 5.481-.195 8.242-.184.093 27.799-.143 55.584-.573 83.38q-.099 6.419-.193 12.839-.227 15.147-.46 30.295-.24 15.514-.468 31.03-.198 13.466-.405 26.933-.122 7.98-.24 15.962-.11 7.482-.229 14.963-.042 2.715-.08 5.432c-.178 12.41-.68 24.772-1.352 37.166H97c-.191-75.447-.191-75.447.505-108.73.345-16.495.584-32.987.749-49.485l.031-3.123q.142-14.094.27-28.188C98.77 84.971 99.143 60.49 100 36"/><path fill="#110c0b" d="M201 523h6v32h-8l-2 1c-3.312.375-3.312.375-7 0-2.63-2.173-4.473-3.947-6-7-.425-4.62-.563-8.713 1.313-13 1.687-2 1.687-2 4.687-4 6.323-.452 6.323-.452 10 2z"/><path fill="#d1a47e" d="M238 526h7v6l2.5-1.187C251 530 251 530 259 533v23h-6c-1.968-1.968-1.662-5.348-2-8-2.473.344-2.473.344-5 1l-1 2h4l-1 5c-6.38.361-6.38.361-8.719-1-2.036-3.179-1.593-6.544-1.469-10.187l.042-2.272c.035-1.847.089-3.694.146-5.541h-4v-4h4z"/><path fill="#120e0c" d="M279 532c4.185 1.728 6.207 3.848 8 8 .78 6.013-.613 9.202-4 14-4.136 2.61-8.248 2.687-13 2-3.091-1.776-4.53-3.193-6.312-6.25-1.09-4.36-1.963-8.551.363-12.562 4.496-5.518 8.182-5.833 14.949-5.188"/><path fill="#0f0c09" d="M120 532c4.185 1.728 6.207 3.848 8 8 .568 5.206-.111 8.617-3 13-3.505 3.005-6.598 3.48-11.07 3.285-2.93-.433-4.686-1.371-6.93-3.285-2.622-4.245-2.58-9.157-2-14 3.185-7.129 7.846-7.806 15-7"/><path fill="#0f0c0a" d="m220.875 531.563 2.555-.06c3.593.694 5.142 1.75 7.57 4.497.372 2.967.48 5.319.313 8.25l-.069 2.258A272 272 0 0 1 231 552h2v4h-6l-1-3-2.125 1.5c-3.348 1.747-5.15 2.055-8.875 1.5-2.375-1.625-2.375-1.625-4-4-.562-3-.562-3 0-6 2.898-3.46 5.482-4.251 9.813-4.75 1.394-.1 2.79-.19 4.187-.25l-2-4c-2.756.498-2.756.498-5 2-2 .04-4 .043-6 0 .946-5.488 3.337-7.43 8.875-7.437"/><path fill="#1c1611" d="M171.25 531.625c3.75.375 3.75.375 6.465 2.285 3.202 4.33 2.851 7.673 2.597 12.903l-.068 2.677c-.059 2.17-.148 4.34-.244 6.51-2 .043-4 .04-6 0-2.12-2.12-1.418-6.62-1.562-9.562l-.131-2.444A1763 1763 0 0 1 172 538a100 100 0 0 0-5 0c-2.12 2.12-1.418 6.62-1.562 9.563l-.131 2.443A1763 1763 0 0 0 165 556h-6v-23h8c1-1 1-1 4.25-1.375"/><path fill="#100e0b" d="M291 532h6l1 2 3-2c3.674-.4 6.026-.61 9.207 1.383 2.794 4.078 2.218 8.052 2.043 12.867l-.055 2.836q-.07 3.458-.195 6.914h-6l-1-17-5-1c-2.934 2.934-2.462 6.183-2.625 10.125l-.117 2.285A763 763 0 0 0 297 556h-6z"/><path fill="#0f0c0a" d="M132 532h6l1 17 5 1c2.934-2.934 2.462-6.183 2.625-10.125l.117-2.285c.095-1.863.177-3.726.258-5.59h6v23h-8l-2 1c-3.375.375-3.375.375-7 0-2.501-2.16-3.837-3.871-4.316-7.192-.078-2.552-.033-5.07.066-7.62l.055-2.678c.047-2.17.118-4.34.195-6.51"/><path fill="#080706" d="M104 522v5l-5 1-1 5h5v4h-5v19h-6v-19h-4v-5h4l-.25-2.75C92 526 92 526 93.5 523.625c3.633-2.361 6.218-1.91 10.5-1.625"/><path fill="#0b0906" d="M238 527h6v6h5v4h-5l1 13 4 1-1 5c-6.38.361-6.38.361-8.719-1-2.036-3.179-1.593-6.544-1.469-10.187l.042-2.272c.035-1.847.089-3.694.146-5.541h-4v-4h4z"/><path fill="#0c0909" d="M201 523h6v32h-6v-2h-2l-1-3 2-3c.204-2.45.204-2.45.063-5.062-.16-4.743-.16-4.743.937-6.938.07-2.04.084-4.083.063-6.125l-.028-3.32z"/><path fill="#c99d78" d="M201 522h7l1 14h3v3l3.25-.937L219 537l2.313-.75L223 536c2 2 2 2 2 5l-2.336.586-3.039.789-3.023.773c-2.727.676-2.727.676-4.602 2.852l-.437 3.438C211 553 211 553 209.875 554.938c-2.906 1.646-5.613 1.247-8.875 1.062v-1h6v-32h-6z"/><path fill="#0c0a08" d="M159 533h13v2l-2.945 1.578c-3.126 2.009-3.126 2.009-3.644 4.338-.226 2.293-.294 4.53-.286 6.834l-.062 2.402A267 267 0 0 0 165 556h-6z"/><path fill="#17100e" d="M253 533h6v23h-6z"/><path fill="#d2a47a" d="M275 536.75c3 .25 3 .25 5 2.25.3 2.059.3 2.059.313 4.438l.05 2.37c-.448 2.705-1.152 3.605-3.363 5.192-3.125-.187-3.125-.187-6-1-1.177-2.353-1.166-3.88-1.187-6.5l-.043-2.406c.396-3.606 1.781-4.057 5.23-4.344"/><path fill="#d2a67d" d="M119 537c2 2 2 2 2.266 4.059l-.016 2.379.016 2.37C121 548 121 548 119 551c-2.766.426-4.35.358-6.812-1-1.898-3.196-1.738-6.383-1.188-10 2.013-3.39 4.236-3.483 8-3"/><path fill="#d1a881" d="M195.438 536.688c2.562.312 2.562.312 4.375 1.375 1.863 3.04 1.553 5.455 1.187 8.937-1.187 2.438-1.187 2.438-3 4-2.562.375-2.562.375-5 0-2-2-2-2-2.266-4.312v-5.375c.384-3.343 1.396-4.201 4.703-4.625"/><path fill="#c79c77" d="M234 537h4l1 17-5 1-1-3h-2v-13c3 0 3 0 5 1l1-2z"/><path fill="#1d1813" d="M197 532c2.938 2 2.938 2 5 4l-3 3-1-1c-2.5-.167-2.5-.167-5 0-1.497 1.497-1.332 2.988-1.562 5.063L191 547h-1v-11l-5 3c2.237-6.54 5.193-7.704 12-7"/><path fill="#090706" d="m218.227 531.855 2.398.332 2.414.293L225 533l1 2-3.437 1.438c-3.32 1.198-3.32 1.198-4.563 2.562-2 .04-4 .043-6 0 .677-3.927 1.897-6.863 6.227-7.145"/><path fill="#876b50" d="M238 526h7v6l2.563-1.125c4.157-1.058 6.457-.308 10.437 1.125v1h-5v22h-1v-22h-8v-6h-6z"/><path fill="#201b15" d="M120 533c2.886.398 3.822.79 5.75 3.063L127 538l-1 2h-4v6h-1l-1-7-5-2 1.938-.875c2.214-.953 2.214-.953 3.062-3.125"/><path fill="#c09470" d="M220 536c2.063.438 2.063.438 4 1l1 4-9 1v-2l-3-1 2.938-.937c2.903-.758 2.903-.758 4.062-2.063"/><path fill="#c69a75" d="M222.625 544.875 225 545c-.875 4.875-.875 4.875-2 6-1.666.04-3.334.043-5 0 0-4.405.034-5.906 4.625-6.125"/><path fill="#0d0b09" d="M255.563 522.938 258 523a88 88 0 0 1 1 5c-1 1-1 1-3.562 1.063L253 529a88 88 0 0 1-1-5c1-1 1-1 3.563-1.062"/><path fill="#dbaf8c" d="M230 532h4v6h3l-1 4-2-2-2 1c-1.562-2.812-1.562-2.812-3-6z"/><path fill="#b58e6b" d="m103 533 4 2-2 4-6-1v17h-1v-18h5z"/><path fill="#e1af89" d="m208 533 1 3h3l-2 10h-2z"/><path fill="#e7e6e6" d="M57.375 320.25 59 321l-2.687 1.688C53.157 324.778 50.6 327.246 48 330c.125-2.75.125-2.75 1-6 4.765-4.13 4.765-4.13 8.375-3.75"/><path fill="#bd9572" d="M169.625 536.875 172 537v3c-3.75 1.125-3.75 1.125-6 0v7h-1c-.195-6.055-.195-6.055 0-8 2-2 2-2 4.625-2.125"/><path fill="#d0a37d" d="m211 538 5 2v3l-4 2c-1.062-1.812-1.062-1.812-2-4z"/><path fill="#dbac85" d="M116.563 536.938 119 537v4l-3-1c-2.167.875-2.167.875-4 2 1.124-4.979 1.124-4.979 4.563-5.062"/><path fill="#9d795b" d="M101.563 526.938 104 527l-3 2-1 3 3 1h-5a100 100 0 0 1 0-5c1-1 1-1 3.563-1.062"/><path fill="#bf926e" d="m103 533 4 2-2 4-6-1 4-1z"/></svg>