<svg xmlns="http://www.w3.org/2000/svg" width="864" height="1184"><path fill="#fdfefd" d="M0 0h864v1184H0z"/><path fill="#030303" d="M422.078 49.87q4.944.006 9.887 0c31.024-.043 31.024-.043 44.285.388l2.377.041c6.602.288 12.806 2.022 17.47 6.89 2.273 3.358 2.404 5.112 2.405 9.134l.031 3.888-.027 4.265q.006 2.268.018 4.535a1796 1796 0 0 1-.005 12.468c-.009 4.481.005 8.963.017 13.444q.023 11.647.011 23.296c-.01 11.23.003 22.46.022 33.691a35582 35582 0 0 1 .05 57.98l.001 3.31q.004 23.238.022 46.476l.002 3.304q.022 27.238.061 54.475.024 16.81.02 33.62-.003 11.51.012 23.02.01 6.648.001 13.295-.009 6.08.007 12.157.003 2.205-.004 4.411c-.006 1.99 0 3.98.008 5.97v3.358c.054 2.934.054 2.934 2.251 5.714.254 2.808.254 2.808.259 6.26l.019 3.913-.012 4.233.005 4.338q.005 4.545-.01 9.089c-.012 3.884-.005 7.767.007 11.651q.009 4.478 0 8.956-.003 2.149.005 4.297a809 809 0 0 1-.014 6.003l-.005 3.452C501 494 501 494 499 497c-.297 2.054-.297 2.054-.248 4.343l-.013 2.71.016 2.987-.007 3.178c-.005 3.55.005 7.1.014 10.651q0 3.836-.005 7.67-.005 8.368.008 16.734.016 12.443.01 24.884-.003 19.645.01 39.291c.014 20.794.009 41.588-.002 62.381l-.012 23.992-.001 2.693q-.014 31.74-.019 63.483v2.806q-.006 32.407.008 64.813l.001 2.815.011 22.461a66099 66099 0 0 1-.027 105.671l-.003 2.6c-.01 13.81.001 27.62.021 41.431q.03 20.82-.006 41.641-.022 12.372.017 24.742c.018 6.157.006 12.314-.02 18.471q-.007 3.738.017 7.476c.02 3.386.004 6.77-.022 10.156l.045 2.936c-.114 7.224-2.34 12.297-6.793 17.984-4.469 4.119-8.673 6.111-14.742 6.16l-2.956.031-3.24.018-3.416.03c-3.738.03-7.477.05-11.216.07l-3.87.02q-8.052.04-16.105.064-11.517.031-23.034.133c-6.06.054-12.119.074-18.179.082q-3.857.014-7.714.057c-3.605.039-7.208.04-10.814.032l-3.203.06c-7.388-.072-12.165-1.572-17.511-6.757-8.511-10.624-6.833-24.113-6.753-36.936q-.008-3.844-.026-7.689c-.02-5.562-.017-11.125 0-16.687.025-8.272.015-16.543 0-24.814-.028-13.916-.027-27.832-.01-41.748q.025-20.664.006-41.326l-.002-2.598-.013-13.06c-.033-30.82-.038-61.638-.027-92.458.01-29.934.012-59.868-.002-89.802l-.001-2.797a450924 450924 0 0 0-.05-89.715q-.02-32.327-.013-64.653v-2.533l.001-2.521q.004-15.661 0-31.323-.001-12.333.007-24.668.007-9.183.001-18.367 0-3.735.005-7.468.005-5.04-.001-10.08l.008-2.991-.006-2.687v-2.332c.066-1.776.066-1.776-1.124-2.747-.1-2.137-.128-4.277-.13-6.416l-.005-2.03q-.004-3.338.002-6.675 0-2.311-.003-4.622-.001-4.851.006-9.703.006-6.225-.004-12.452a4902 4902 0 0 1 0-9.55q0-2.297-.002-4.593-.003-3.207.007-6.414l.002-3.692C348 427 348 427 349 425c.095-1.974.123-3.95.122-5.927l.005-3.852-.01-4.271.003-4.507a5804 5804 0 0 0-.004-9.83q-.009-7.995-.005-15.99.001-10.101-.002-20.204a28363 28363 0 0 1 .022-45.95l.013-12.646.03-32.534c0-1.089 0-2.177.002-3.299.013-17.64.008-35.278-.003-52.917q-.014-27.15.034-54.299.03-16.754-.002-33.507-.02-11.482.02-22.963c.014-4.419.018-8.836-.004-13.254q-.028-6.068.017-12.135.01-2.195-.014-4.389c-.12-12.283-.12-12.283 3.573-16.819 3.796-3.723 7.344-4.948 12.601-5.117l3.33-.115 3.647-.092 3.857-.114c15.279-.422 30.563-.42 45.846-.4"/><path fill="#f38893" d="M364 500h121c.08 71.379.08 71.379.103 93.46l.002 2.387q.039 39.754.064 79.51l.002 2.62A586201 586201 0 0 1 485.22 762l.001 2.778q.027 44.608.084 89.215a94644 94644 0 0 1 .075 107.17c.005 13.679.024 27.357.047 41.036q.036 20.614.027 41.228-.006 12.255.03 24.512c.016 6.092.012 12.185 0 18.278q-.003 3.707.016 7.413c.015 3.348.007 6.695-.008 10.043l.032 2.937c-.063 6.246-1.002 9.868-5.524 14.39-1.448.102-2.9.135-4.352.14l-2.847.018-3.148.003-3.296.015q-5.425.021-10.85.027l-7.507.017q-6.872.015-13.745.019-10.123.007-20.246.05c-5.84.025-11.68.033-17.519.035q-3.73.004-7.461.024c-3.475.017-6.949.015-10.423.008l-3.136.028c-.945-.005-1.89-.01-2.864-.017l-2.49.005c-2.65-.466-3.497-1.258-5.116-3.372-.929-2.787-1.125-4.44-1.124-7.316l-.007-2.692.008-2.966-.004-3.157q-.002-5.289.007-10.578l-.003-7.618q-.003-8.309.004-16.616.008-12.355.005-24.71-.001-20.78.008-41.56.01-20.581.011-41.164v-2.583l.001-12.986q.004-46.018.019-92.037.014-44.712.02-89.425v-2.784l.013-84.038v-2.618q.007-39.732.016-79.462v-2.28z"/><path fill="#f1f2f2" d="M364 501h5l.028 1.925q.344 23.186.702 46.37.175 11.213.34 22.425.144 9.771.298 19.544.082 5.175.156 10.349.083 5.775.179 11.55l.046 3.47.055 3.178.042 2.76c.145 2.28.575 4.228 1.154 6.429.084 2.404.107 4.81.098 7.216l-.005 2.196q-.005 2.37-.018 4.738-.019 3.813-.025 7.625-.014 5.46-.032 10.92a9720 9720 0 0 0-.047 31.327c-.003 16.58.139 33.15.466 49.728l.06 3.172c.279 14.37.82 28.721 1.503 43.078h4v4h-3c-.136 67.422.073 134.834.796 202.253.124 11.658.237 23.316.323 34.975q.082 10.986.187 21.971.062 6.162.097 12.324.031 5.572.1 11.145c.02 1.954.025 3.908.03 5.861.113 7.847.647 13.132 5.842 19.284 4.563 3.802 8.367 4.438 14.232 4.462l3.995.029 4.296-.003 4.435.013q4.642.01 9.285.002c3.953-.006 7.906.01 11.859.034 3.052.015 6.105.016 9.157.013q2.186 0 4.37.015c11.878.148 11.878.148 22.246-5.128 4.555-5.857 5.19-11.277 5.15-18.447l.022-2.748c.02-3.036.02-6.07.02-9.106q.015-3.279.037-6.558.041-7.098.06-14.195c.033-11.62.114-23.242.192-34.863q.027-4.088.052-8.177c.184-29.749.607-59.492 1.09-89.237l.194-12.18q.327-20.55.662-41.102a124858 124858 0 0 0 1.43-89.907c.702-44.576 1.33-89.152 1.841-133.73h-3v-3h3l-.016-1.982c-.178-26.614.407-53.213.943-79.82q.183-9.194.362-18.387.351-17.906.711-35.811h5c.068 58.562.132 117.123.17 175.685l.001 2.625a588374 588374 0 0 1 .05 86.956q.027 44.69.084 89.38a95007 95007 0 0 1 .075 104.788v2.576c.005 13.705.024 27.41.047 41.115q.036 20.65.027 41.302-.006 12.279.03 24.559c.016 6.102.012 12.205 0 18.308q-.003 3.714.016 7.43c.015 3.352.007 6.704-.008 10.056l.032 2.95c-.043 4.288-.14 6.642-2.415 10.37-2.485 2.238-3.519 2.524-6.822 2.521l-2.859.034-3.116-.04-3.297.017c-3.6.012-7.2-.012-10.8-.038q-3.747-.003-7.495 0a2704 2704 0 0 1-15.709-.052c-6.054-.037-12.108-.046-18.162-.039-5.825.007-11.65-.004-17.476-.024q-3.718-.01-7.436-.009c-3.46-.002-6.919-.023-10.379-.05l-3.122.009-2.85-.035-2.479-.01c-2.637-.48-3.492-1.279-5.107-3.384-.928-2.785-1.125-4.436-1.124-7.31l-.007-2.687.008-2.961-.004-3.152q-.002-5.28.007-10.56 0-3.804-.003-7.606-.003-8.295.004-16.59.008-12.334.005-24.669-.001-20.746.008-41.492a116695 116695 0 0 0 .012-56.641q.004-45.944.019-91.887.014-44.64.02-89.28v-2.78l.013-83.901v-2.614q.016-86.435.042-172.87"/><path fill="#3e3e3e" d="M373 64h25a203791 203791 0 0 1 .056 101.09q.005 14.66.018 29.32a63953 63953 0 0 1 .024 52.87c.002 58.244-.454 116.48-1.098 174.72h-25a201152 201152 0 0 1-.064-112.141c-.021-65.788-.038-131.574.564-197.359l.036-3.964Q372.741 86.27 373 64"/><path fill="#d8aa6b" d="M361 435h126v52H361z"/><path fill="#f8bbbf" d="M373 501h22l1 10 1 4-1 1c-.23 2.173-.393 4.354-.527 6.535l-.126 2.025c-.45 7.62-.688 15.247-.91 22.878l-.13 4.275Q394.15 556.856 394 562l3-1v3l-3 2c-.547 2.4-.547 2.4-.6 5.246l-.172 3.335-.142 3.642-.182 3.78q-.235 5.013-.442 10.027c-.141 3.3-.299 6.599-.454 9.898-.358 7.69-.687 15.38-1.008 23.072l-.154 3.63a8888 8888 0 0 0-.424 10.16l-.126 2.989a540 540 0 0 0-.421 18.534l-.014 2.198c.01 3.335.266 6.276 1.139 9.489l-1 1a80 80 0 0 0-.316 4.707l-.128 2.953-.118 3.153-.13 3.166c-.27 7.01-.444 14.005-.308 21.021l2.438-.062C394 708 394 708 395 709c.04 1.666.043 3.334 0 5l-7-1 .053 1.732c.097 6.08-.211 12.07-.71 18.123l-.201 2.47-.425 5.176C384.948 762.36 384.653 784.08 385 806l5-1v3h-5v2h-2l.07 3.863c.142 11.595-.33 23.014-1.286 34.57-.801 9.968-1.182 19.928-1.442 29.925l-.096 3.466-.072 3.034c-.169 3.049-.544 6.036-.942 9.061-.387 3.471-.448 6.94-.513 10.429l-.056 2.346q-.086 3.684-.163 7.369-.078 3.646-.163 7.293-.053 2.255-.097 4.509c-.111 4.749-.396 9.469-.738 14.207-.551 8.014-.722 16.019-.818 24.05l-.063 4.441q-.082 5.763-.153 11.526-.077 5.913-.161 11.827-.16 11.543-.307 23.084h-1q-.264-25.094-.5-50.187l-.036-3.82c-.379-40.54-.555-81.076-.526-121.618l.002-3.654q.016-21.86.06-43.721l4 1v-4l-1.937.563L374 790c-1.563-1.563-1.208-3.146-1.297-5.32l-.118-2.774-.112-3.031-.126-3.148c-.419-10.907-.703-21.815-.91-32.727-.02-1.08-.042-2.162-.064-3.275-.721-38.235-.46-76.486-.373-114.725h2zm24 57h4v3h-4z"/><path fill="#767675" d="M465 64h12v358h-12z"/><path fill="#f7e0b8" d="M361 435h126v52h-22l-.184-10.246q-.092-4.89-.188-9.78-.065-3.408-.125-6.818-.088-4.89-.187-9.777l-.05-3.1-.06-2.851-.048-2.523c.048-1.915.048-1.915-1.158-2.905a140 140 0 0 0-6.356-.205l-2.01-.03q-3.303-.047-6.607-.081l-4.57-.063q-6.023-.082-12.048-.153-7.222-.091-14.445-.19c-7.321-.099-14.642-.187-21.964-.278l-1 49h-33z"/><path fill="#f9bec1" d="M454 501h14l1 4h-2v41h3v4h-3l.007 2.378c.114 42.556.007 85.107-.413 127.661l-.091 9.804a9058 9058 0 0 1-.156 15.549q-.03 2.865-.056 5.732c-.247 26.832-.247 26.832-2.291 28.876-2.5.125-2.5.125-5 0-1.812-1.812-1.239-4.613-1.316-7.059l-.128-3.99q-.06-2.195-.118-4.389l-.065-2.226c-.561-19.775-.468-39.555-.373-59.336h-2l-1-59-5 1c-.562-1.937-.562-1.937-1-4l1-1h5l1-94-5 1 1-3h3z"/><path fill="#f6ddb2" d="M458.051 434.886q2.024 0 4.047.016l3.93.008 5.034.027L487 435v52h-22l-.184-10.246q-.092-4.89-.188-9.78-.065-3.408-.125-6.818-.088-4.89-.187-9.777l-.05-3.1-.06-2.851-.048-2.523c.048-1.915.048-1.915-1.158-2.905a136 136 0 0 0-6.264-.205l-1.98-.03q-3.255-.047-6.51-.081l-4.502-.063q-5.936-.082-11.871-.153-6.053-.077-12.105-.161-11.884-.162-23.768-.307v-1l2.195-.031q10.22-.147 20.44-.308 5.254-.084 10.51-.158 6.034-.087 12.07-.187l3.829-.05 3.518-.06 3.116-.048c3.03-.206 3.085-1.15 6.373-1.272"/><path fill="#d4a86a" d="m361 438 11 1v48h-11z"/><path fill="#d4a869" d="M477 438h10v49h-10z"/><path fill="#f2929d" d="M369 501h4v124h-3c-.77-30.42-1.095-60.822-1.062-91.25l.002-2.474q.017-15.138.06-30.276"/><path fill="#dc8289" d="M364 500h120v1h-5l.125 3.75c-.053 5.998-.053 5.998-2.125 8.25-3.5.688-3.5.688-7 1l-2 1v-13l-104-1z"/><path fill="#f3a4ac" d="M371 630h2q.2 13.788.391 27.575.09 6.408.182 12.817c.332 22.87.5 45.734.427 68.608h-1c-1.01-5.206-1.322-10.341-1.556-15.626l-.128-2.8c-.404-9.522-.443-19.033-.414-28.562l.005-5.426q.006-7.02.024-14.04.014-7.212.02-14.423.016-14.062.049-28.123"/><path fill="#f6a9ad" d="M455 519h1v144h-1l-1-59-5 1c-.562-1.937-.562-1.937-1-4l1-1h5z"/><path fill="#f28b97" d="M369 501h4c.206 35.683.206 35.683-1 51h-2c-1.22-2.44-1.12-3.999-1.114-6.725v-2.972l.016-3.217.005-3.287c.005-3.475.018-6.95.03-10.424q.009-3.528.014-7.055.017-8.66.049-17.32"/><path fill="#f3a3a7" d="M372 534h1v91h-1v-70h-2v18h-1v-23l1 2h2z"/><path fill="#eed6aa" d="M458.051 434.886q2.024 0 4.047.016l2.148.005c2.272.005 4.544.018 6.817.03q2.306.009 4.61.014 5.664.017 11.327.049l-1 3v-2c-3.813.138-7.625.287-11.437.438l-3.3.119-3.134.127-2.904.11c-2.196-.036-2.196-.036-3.225 1.206-2.056.094-4.114.117-6.172.114h-1.951c-2.138 0-4.275-.009-6.412-.016l-4.435-.005q-5.847-.006-11.694-.024-5.962-.014-11.924-.02-11.706-.016-23.412-.049v-1l2.195-.031q10.22-.147 20.44-.308 5.254-.084 10.51-.158 6.034-.087 12.07-.187l3.829-.05 3.518-.06 3.116-.048c3.03-.206 3.085-1.15 6.373-1.272"/><path fill="#f3bfc2" d="M432 1101h4v4l25-1c-4.176 2.088-5.998 2.253-10.557 2.259l-1.967.01c-2.14.01-4.278.003-6.417-.003l-4.468.005q-4.677.005-9.353-.01a2051 2051 0 0 0-11.992.007q-4.61.009-9.22 0-2.212-.003-4.423.005c-2.059.005-4.117-.003-6.176-.014l-3.55-.005C390 1106 390 1106 387 1104l45 1z"/><path fill="#efd3d3" d="M477 606h1v83h-1v-49h-3v-3h3z"/><path fill="#f7aaae" d="M465 683h1q.037 9.311.055 18.622.008 3.161.02 6.322c.013 3.046.018 6.092.023 9.138l.015 2.81c0 6.386-.18 12.782-1.113 19.108-1 1-1 1-3.5 1.125C459 740 459 740 458 739a153 153 0 0 1-.062-6.562l.027-3.63L458 726h1l1 11 4 1z"/><path fill="#f1a3ac" d="M468 795c2.375-.125 2.375-.125 5 0 2 2 2 2 2.24 4.139l-.013 2.678v3.033l-.032 3.283-.008 3.354c-.011 3.546-.037 7.092-.062 10.638q-.016 3.6-.027 7.2-.034 8.837-.098 17.675h-1l-1-48h-5z"/><path fill="#f5a9b1" d="M387 698h1l1 10h5c1 1 1 1 1.063 3.563L395 714l-7-1v11h-1z"/><path fill="#f7dde0" d="M373 789h5v4h-3l-1 41h-1z"/><path fill="#f3acb2" d="M372 534h1v25l-1-4h-2v18h-1v-23l1 2h2z"/><path fill="#f5c7ca" d="m454 816-1 4h-3l-1 5-4-1-1-4 5-1v-2c2-1 2-1 5-1"/><path fill="#f58e99" d="M454 584h1c.087 3.125.14 6.25.188 9.375l.076 2.695.029 2.578.048 2.38L455 603c-3 2-3 2-5.187 1.625L448 604l1-4h5z"/><path fill="#f297a0" d="M369 528h1l1 12h1v12h-2c-1.252-2.505-1.114-4.209-1.098-7.008l.01-2.988.026-3.129.013-3.152q.018-3.862.049-7.723"/><path fill="#f69ea6" d="M384 766h1v18h3v3h-3v13h-1z"/><path fill="#f5939e" d="m388 713 6 1v4h-2l1 5-5 1z"/><path fill="#f7eaeb" d="M383 929h5c.625 2.375.625 2.375 1 5l-2 2c-2.125-.375-2.125-.375-4-1z"/><path fill="#f8f3f1" d="M452 760h5a88 88 0 0 1 1 5c-1 1-1 1-3.562 1.063L452 766c-1.125-3.75-1.125-3.75 0-6"/><path fill="#f5e9e9" d="m395 779 5 1v5c-1.875.625-1.875.625-4 1l-2-2c.375-2.625.375-2.625 1-5"/><path fill="#f5a7ad" d="M393 551h1v11l3-1v3l-4 2zm4 7h4v3h-4z"/><path fill="#f2c1c2" d="M466 990c1.938.313 1.938.313 4 1l1 3c-1.25 1.5-1.25 1.5-3 3h-4c.875-4.75.875-4.75 2-7"/><path fill="#f4b1b3" d="M468 795c2.375-.125 2.375-.125 5 0 2 2 2 2 2.195 4.82l-.07 3.305-.055 3.32L475 809h-1l-1-10h-5z"/><path fill="#f7edec" d="M403 980h5l1 5a88 88 0 0 1-5 1c-1-1-1-1-1.062-3.562z"/><path fill="#f8e9e8" d="M456 914q2.514.428 5 1l-1 5h-5a100 100 0 0 1 0-5z"/><path fill="#f2cecf" d="m407 1092 3 1v3h-2l-1 3-4-1c.313-1.875.313-1.875 1-4z"/><path fill="#f8f1f1" d="m433 1036 5 1-1 5-5-1z"/><path fill="#eec3c6" d="m439 557 7 1 1 4-8-1z"/><path fill="#f7e1e5" d="m447 960 5 1-1 5-5-1z"/><path fill="#f8f0f0" d="M408 561h6v5h-6z"/><path fill="#f9efee" d="M426 1023c2.063.438 2.063.438 4 1v5h-5a100 100 0 0 1 0-5z"/><path fill="#f6e2e3" d="M391 708c2.063.438 2.063.438 4 1v5h-5a100 100 0 0 1 0-5z"/><path fill="#f4a6ae" d="M383 800h1l1 6 5-1v3h-5v2h-2z"/><path fill="#f6cece" d="M378 566h2v3l5-1-1 4c-2.375-.312-2.375-.312-5-1l-2-3z"/><path fill="#f9d5d8" d="M373 789h5v4h-3l-1 7h-1z"/><path fill="#f5c3c4" d="M420 721h5v5h-5z"/><path fill="#f3d6d7" d="m423 521 5 1v4l-5-1z"/><path fill="#f3cdcf" d="m418 1037 4 1-1 4h-4z"/><path fill="#f6919a" d="m393 574 1 4 7 1v2c-3.044.082-5.072-.024-8-1z"/><path fill="#f3cfcf" d="m415 570 4 1v4l-5-1z"/><path fill="#f5d4d6" d="m440 891 4 1-1 4-4-1z"/><path fill="#f3c0c3" d="M442 650h5l-1 5h-3z"/><path fill="#f3e4e3" d="m449 600 4 1-1 4-4-1z"/><path fill="#f0e0e3" d="M413 1051h4v5h-4z"/><path fill="#f4979e" d="m446 965 4 2c-1.25 1.5-1.25 1.5-3 3h-4l1-3h2z"/><path fill="#f2a5ad" d="M449 811h3l1 5-3 1c-1.062-1.875-1.062-1.875-2-4z"/><path fill="#f4b5b7" d="M392 655h4v5l-4-1z"/><path fill="#f4dfde" d="m418 598 3 1-1 4-4-1z"/><path fill="#f4bcbe" d="M443 877h4v4l-4 1z"/><path fill="#f6d7d6" d="M379 578h4l-1 4h-4z"/></svg>