<svg xmlns="http://www.w3.org/2000/svg" width="478" height="852"><path fill="#fdfdfd" d="M0 0h478v852H0z"/><path fill="#09090a" d="m231.75 11.688 2.71-.088c5.713-.055 9.082.482 13.54 4.4 3.57 3.543 4.463 6.101 4.554 11.13l-.015 2.347.036 2.445c.035 2.568.044 5.135.05 7.703q.023 3.863.072 7.724.03 2.4.027 4.798c.036 3.816.108 5.6 2.276 8.853.2 2.54.283 4.972.275 7.513l.015 2.312c.014 2.525.013 5.049.01 7.573l.014 5.265q.01 5.52.002 11.041c-.006 4.713.01 9.426.034 14.14.015 3.625.016 7.25.013 10.876q0 2.606.015 5.213a741 741 0 0 1-.006 7.295l.023 2.17c-.05 4.772-.963 8.17-4.395 11.602a129 129 0 0 0-.154 6.168l-.013 1.973q-.019 3.3-.026 6.597l-.025 4.71c-.026 5.17-.041 10.34-.055 15.509l-.017 5.331q-.033 11.085-.051 22.171-.023 15.907-.107 31.813-.056 11.174-.063 22.347c-.004 4.453-.016 8.905-.048 13.357q-.044 6.283-.025 12.566 0 2.307-.025 4.615a614833943045438.5 614833943045438.5 0 0 1-.009 9.855c.807 3.903 2.373 4.822 5.618 6.988 4.155 4.742 3.45 10.427 3.434 16.398l.015 3.359q.01 3.512-.003 7.025c-.008 3.573.02 7.145.052 10.718q.003 3.418-.002 6.836l.034 3.223c-.052 5.604-.46 8.607-3.63 13.346-2.259 5.258-1.374 11.78-1.29 17.435q.01 2.238.017 4.476c.015 3.908.054 7.816.098 11.723.041 3.996.06 7.991.08 11.986.042 7.826.11 15.65.195 23.475l3.586-1.023c4.795-1.36 9.603-2.675 14.414-3.977l2.756-.764c7.716-1.853 15.728-1.608 23.617-1.607a569 569 0 0 0 7.582-.078C337.552 432.338 367.784 444.1 391 464l1.533 1.3C406.223 477 416.16 490.357 425 506l1.063 1.863c16.218 28.868 19.43 64.286 10.562 95.962C430.015 626.817 419.797 646.89 404 665l-2.508 2.879c-6.827 7.673-14.006 14.109-22.18 20.308l-1.878 1.459c-4.643 3.451-9.212 5.65-14.673 7.561l-3.136 1.543-2.466 1.208c-2.985 1.78-4.986 3.314-7.159 6.042-1.322 5.34-1.233 10.483-1.102 15.953q0 2.19-.013 4.381c-.011 3.557.036 7.11.115 10.666l2.362-.02q11.077-.09 22.154-.135 5.692-.022 11.386-.071c3.67-.033 7.34-.05 11.01-.059a538 538 0 0 0 4.178-.032c10.831-.122 20.45.486 29.152 7.497 3.053 3.161 4.915 6.866 6.758 10.82l1 2c.07 1.54.085 3.083.063 4.625l-.028 2.477L437 766l2.875-.125C443 766 443 766 445 768c.195 3.04.195 3.04.125 6.625l-.055 3.602L445 781l1.84.395c4.113 1.152 6.556 3.649 8.797 7.199 1.7 4.249 1.736 7.698 1.613 12.218l-.016 2.35c-.08 5.683-.08 5.683-1.234 6.838-3.336.143-6.66.042-10 0v17l-4 1c-2-2-2-2-2.195-5.695q.02-2.216.07-4.43l.027-2.285c.024-1.864.06-3.727.098-5.59h-13v17h-6v-17l-4.937.063c-1.688.02-3.377.01-5.063-.063-2.311-2.311-1.37-8.198-1.387-11.415.097-5.2.64-8.949 3.88-13.187C415 784 415 784 418.25 782.312c3.043-2.06 3.043-2.06 3.316-5.406q.244-3.549.329-7.105C422 767 422 767 423 766q3.5-.062 7 0c-.845-7.089-1.492-12.195-7-17-7.527-4.817-15.433-4.604-24.098-4.61q-2.166-.021-4.333-.05c-3.773-.043-7.545-.063-11.319-.078-3.861-.02-7.723-.062-11.584-.102-7.555-.075-15.11-.125-22.666-.16l.016 1.712q.029 3.832.046 7.663l.026 2.695.01 2.578.016 2.38C349 763 349 763 348 765l1.688.008c6.645.337 10.63 2.281 15.312 6.992 1.89 2.277 3.53 4.584 5.125 7.078a83 83 0 0 0 4.313 6.094c7.582 10.347 7.657 20.078 7.045 32.614-.578 2.649-1.327 3.603-3.483 5.214-2.7.293-2.7.293-5.687.188l-3.012-.083L367 823l.125 3.375C367 830 367 830 365 832c-2.123.243-2.123.243-4.719.23l-2.824-.005-2.957-.038-2.957-.001c-7.262-.046-7.262-.046-9.543-1.186v-8H126v8c-2.487 2.487-9.096 1.234-12.437 1.25-1.614.03-1.614.03-3.26.063l-3.112.015-2.868.028L102 832c-2.29-3.435-2.178-4.985-2-9l-2.336.07-3.039.055-3.023.07C89 823 89 823 87 821c-.54-3.83-.463-7.698-.5-11.562l-.125-3.213c-.067-6.78.906-10.755 5.039-16.145 1.539-2.018 2.682-3.987 3.824-6.248 4.06-7.897 7.336-13.966 15.762-17.832l2-1c2.333-.04 4.667-.043 7 0l-1-3a70 70 0 0 1 .001-4.465l.067-2.733.073-2.954c.031-3.165.051-6.33.07-9.496q.039-3.265.142-6.531c.868-13.191.868-13.191-4.18-24.83-3.11-3.085-6.591-5.483-10.173-7.991-16.332-17.172-25.848-41.521-25.412-65.09.037-2.042.041-4.082.04-6.125.187-35.444 16.998-66.43 38.372-93.785.717-.924 1.433-1.849 2.172-2.8 6.448-7.955 13.614-15.198 20.828-22.45l1.54-1.557c7.624-7.684 15.42-15.166 24.46-21.193.437-2.816.437-2.816.438-6.062.352-6.163 1.427-10.636 4.562-15.938l1.246-2.117c5.067-7.607 12.856-12.079 21.754-13.883 2.986-.221 5.945-.192 8.938-.125l2.36.027c1.901.024 3.802.06 5.702.098a8673 8673 0 0 0-.236-30.746 3764 3764 0 0 1-.11-14.275q-.04-6.886-.117-13.772a880 880 0 0 1-.035-5.26c-.01-2.451-.037-4.903-.07-7.354l.005-2.206c-.004-3.83-.004-3.83-1.839-7.049L208 370c-1.669-3.398-2.258-6.172-2.306-9.939l-.049-2.893-.016-3.094c-.01-1.061-.018-2.123-.027-3.217q-.022-3.364-.028-6.73a907 907 0 0 0-.111-10.25q-.015-3.277-.022-6.553l-.059-3.075c.042-6.59 1.182-11.229 5.618-16.249l3-2c.458-2.86.458-2.86.381-6.288l.014-1.976c.012-2.196.003-4.391-.007-6.587q.006-2.355.016-4.71c.014-4.273.008-8.546-.001-12.819-.008-4.466 0-8.933.004-13.4.006-7.503-.002-15.007-.016-22.51-.016-8.679-.01-17.357.006-26.036q.02-11.167.007-22.334c-.004-4.449-.005-8.898.005-13.347q.013-6.276-.015-12.553-.006-2.305.004-4.61c.008-2.096-.002-4.192-.017-6.288l-.003-3.557c-.418-3.304-1.24-4.513-3.378-6.985-1.172-3.517-1.148-6.687-1.145-10.345l-.01-2.258q-.013-3.697-.013-7.393l-.01-5.138q-.009-5.385-.007-10.77c0-4.602-.014-9.203-.031-13.804q-.015-5.305-.013-10.611a1319 1319 0 0 0-.013-5.09c-.01-2.372-.007-4.744 0-7.116-.007-.701-.012-1.402-.018-2.124.024-3.699.448-6.145 2.26-9.351.154-2.767.206-5.44.168-8.203q.009-2.456.021-4.91c.005-2.566-.001-5.13-.034-7.695-.176-16.134-.176-16.134 4.27-21.301 4.892-4.438 8.958-4.136 15.325-4.203"/><path fill="#dfe0e0" d="M349 744c8.302-.113 16.604-.205 24.907-.26 3.856-.025 7.712-.06 11.568-.117a996 996 0 0 1 11.184-.097q2.123-.014 4.246-.055c9.423-.173 17.569.418 24.77 7.078 4.456 5.06 4.43 9.073 4.325 15.451l-7 1c.03 1.303.03 1.303.063 2.633-.168 9.345-.168 9.345-2.805 12.355-2.133 1.45-2.133 1.45-4.25 2.57-2.93 2.103-3.761 4.067-5.008 7.442-.331 2.974-.286 5.888-.187 8.875l.04 2.375c.036 1.917.09 3.834.147 5.75l10 1v17h6v-17h13l1 16 5 1v-17h9v1h-8v8l3.063-.11c8.81.245 17.617 3.23 24.937 8.11v5a522 522 0 0 1-4.437 2.313l-2.497 1.3c-8.007 3.622-16.187 5.371-24.816 6.887l-3.677.652c-12.42 2.12-24.89 3.397-37.432 4.548-3.336.319-6.66.7-9.988 1.098-29.53 3.425-59.284 3.519-88.967 3.504q-6.304-.001-12.608.008-14.93.016-29.859.006c-10.118-.006-20.236.006-30.355.027q-13.23.027-26.46.02c-5.209-.001-10.418.001-15.627.015-39.95.1-79.868-1.77-119.527-6.816l-3.031-.385C22.565 839.565 22.565 839.565 15 832a100 100 0 0 1 0-5c8.109-4.476 15.75-7.338 24.813-9.187 1.16-.248 2.322-.495 3.519-.749 14.057-2.9 28.282-5.327 42.668-5.064v-12h1l.076 1.912q.175 4.263.362 8.525l.119 3.01.127 2.862.11 2.65c-.012 2.034-.012 2.034 1.206 3.041 1.849.234 3.705.413 5.563.563l3.066.253L100 823l2 8h23l1-8h216v8c3.812.029 7.625.047 11.438.063l3.298.025 3.135.01 2.904.016c2.198.137 2.198.137 3.225-1.114q.553-3.492 1-7l2.336-.148 3.039-.227c.998-.07 1.995-.14 3.023-.21 2.757-.179 2.757-.179 4.602-2.415 2.806-13.586.196-25.006-7.204-36.439C365.535 772.976 360.983 767.885 348 765z"/><path fill="#fcfcfb" d="M346 472c.953.43 1.905.859 2.887 1.3 25.814 11.98 45.188 33.843 55.252 60.277 9.905 27.879 7.45 57.297-5.213 83.92C388.57 638.216 371.843 659.055 351 670h-2l-.043-3.727-.144-4.898-.018-2.45c-.22-6.006-1.39-8.782-5.795-12.925-2.925-1.75-5.37-2.327-8.75-2.625l-2.422-.227L330 643l-.004-3.689q-.026-17.299-.128-34.597c-.034-5.928-.06-11.855-.064-17.782-.004-5.732-.033-11.464-.077-17.196a812 812 0 0 1-.013-6.525c.029-17.703-1.674-32.618-12.714-47.211l-1.652-2.203c-2.463-3.037-4.372-5.35-7.977-7-3.445-1.627-5.126-2.663-7.371-5.797-.946-4.974-.919-9.982-.802-15.03.136-7.022-.805-11.817-4.198-17.97a727 727 0 0 1-2-4c15.971-4.688 38.631.654 53 8"/><path fill="#244b66" d="M274 497c15.59 2.939 30.471 12.118 39.813 24.938 6.112 9.24 9.505 18.715 9.454 29.86l.014 2.249c.013 2.464.011 4.929.01 7.394q.009 2.665.02 5.329c.018 4.81.022 9.62.024 14.43q.001 4.515.01 9.028.028 15.765.026 31.53c-.002 9.778.02 19.556.051 29.334q.038 12.618.036 25.234c0 5.017.005 10.033.026 15.05q.029 7.08.005 14.161-.003 2.588.015 5.177c.095 14.506-2.076 25.422-12.317 36.192-4.832 4.6-9.855 7.091-16.187 9.094l-1.816.594c-3.28.61-6.549.55-9.872.531l-2.087.012c-5.098-.01-5.098-.01-6.225-1.137-.27-1.58-.515-3.164-.75-4.75-.956-4.854-2.11-7.28-6.25-10.25-2.642-1.206-5.225-2.106-8-3l-.184-2.555-.253-3.32-.247-3.305c-.146-2.767-.146-2.767-1.316-4.82a190 190 0 0 1-.062-7.625l.013-2.14q.02-2.618.049-5.235l2.457-.078c9.79-.502 19.712-1.873 26.935-9.135 7.803-8.673 8.049-19 9.17-30.1q.306-2.803.617-5.606.63-5.73 1.23-11.465c.639-6.103 1.315-12.202 1.997-18.3l.268-2.393.261-2.337q.366-3.298.721-6.597c.74-6.823 1.52-13.64 2.395-20.446l.478-3.738C305 596 305 596 306 595h7v-28l-59-1v-27l12-3c3.375-2.633 5.424-5.055 7-9 .367-3.292.367-3.292.414-6.953l.059-2c.06-2.1.106-4.198.152-6.297l.117-4.281q.142-5.235.258-10.469"/><path fill="#366589" d="m193 498 .028 2.443c.054 3.687.138 7.371.222 11.057l.043 3.844c.19 7.286.628 12.527 4.707 18.656 4.64 3.753 7.801 4.114 14 5v27l-11.996.184q-5.724.092-11.448.188-3.99.066-7.982.125-5.722.088-11.445.187l-3.63.05-3.337.06-2.954.048c-2.182-.086-2.182-.086-3.208 1.158a115 115 0 0 0-.098 5.785l.01 3.545.025 3.732.014 3.745q.018 4.597.049 9.193l6 1c2.026 9.93 3.38 19.852 4.375 29.938a2142 2142 0 0 0 3.8 35.436q.322 2.789.633 5.577c1.69 19.643 1.69 19.643 12.067 35.736 5.724 4.236 10.556 5.816 17.5 6.5l2.23.249c1.798.198 3.596.382 5.395.564.222 2.103.427 4.207.625 6.313l.352 3.55C209 722 209 722 207 725c-.46 3.198-.46 3.198-.625 6.688l-.227 3.574L206 738l-3.687 1.125c-4.257 1.635-7.214 3.753-9.313 7.875-.944 3.305-1.55 6.595-2 10-14.261.604-23.976-1.887-34.75-11.437-10.427-11.875-11.848-23.854-11.768-39.15q-.008-2.618-.02-5.233c-.019-4.705-.012-9.41 0-14.114.01-4.944.001-9.888-.005-14.832q-.01-12.45.022-24.902c.021-9.57.014-19.138-.008-28.708a7117 7117 0 0 1-.01-24.732c.006-4.911.007-9.823-.006-14.734q-.017-6.93.02-13.861a603 603 0 0 0-.006-5.059c-.083-17.458 3.858-32.411 16.156-45.488 8.28-7.839 20.519-16.935 32.375-16.75"/><path fill="#c0d2dc" d="M219 376h28v294h-28z"/><path fill="#356286" d="M275 763c3.354 1.278 6.428 2.76 9.563 4.5 5.62 2.874 11.212 3.783 17.437 4.5l.184 2.809.253 3.629.247 3.62c-.007 2.828-.007 2.828 1.316 3.942 2.582.1 5.136.14 7.719.133l2.342.003q2.457 0 4.913-.006 3.772-.005 7.546.007 2.38 0 4.761-.004l2.295.006c3.504.306 3.504.306 6.424-1.139.235-2.183.414-4.372.563-6.562l.253-3.63L341 772c11.993-.576 11.993-.576 17 3 4.308 4.419 12 12.743 12 19H98c9.675-19.35 9.675-19.35 17-22 4.393-.548 8.746-.486 13.168-.434l7.834-.029q5.115.007 10.232.037c4.645.025 9.289.013 13.934-.008l3.657.05c8.437-.049 14.62-1.966 22.175-5.616 1.661-.68 3.327-1.35 5-2l.113 2.082.2 2.73.175 2.708c.599 2.9 1.174 3.712 3.512 5.48 10 5.714 21.56 8.354 33 9l2.656.16c13.982.432 29.33-2.735 41.688-9.43 2.394-2.501 2.26-4.513 2.406-7.918l.172-3.292z"/><path fill="#5a5b5b" d="M94 801h280v15H94z"/><path fill="#fcfcfb" d="M349 744c8.302-.113 16.604-.205 24.907-.26 3.856-.025 7.712-.06 11.568-.117a996 996 0 0 1 11.184-.097q2.123-.014 4.246-.055c9.423-.173 17.569.418 24.77 7.078 4.456 5.06 4.43 9.073 4.325 15.451l-7 1 .063 2.633c-.168 9.345-.168 9.345-2.805 12.355-2.133 1.45-2.133 1.45-4.25 2.57-2.926 2.101-3.758 4.073-5.008 7.442-.354 2.952-.331 5.843-.25 8.813l.016 2.35c-.285 3.723-.285 3.723 1.234 6.837 1.347.23 2.704.412 4.063.563L420 811v2a560 560 0 0 1-4.312.063l-2.426.035C411 813 411 813 408 812c-1.99-.217-3.984-.39-5.98-.535l-3.526-.264-3.682-.264-3.716-.275q-4.548-.336-9.096-.662l-.001-2.01c-.327-8.121-2.896-13.447-7.187-20.24l-1.712-2.852C366.74 774.23 366.74 774.23 357 767l-9-2z"/><path fill="#c2d4dc" d="M169 595h43v45l-9 2-3.437 1.688c-5.61 2.066-10.961 1.18-16.563-.688.342 2.97.342 2.97 1 6 4.818 2.41 12.371 1.718 17.46.328 1.857-.753 3.7-1.54 5.54-2.328 2.719-.094 2.719-.094 5 0 .087 3.937.14 7.874.188 11.813l.076 3.392.029 3.252.048 3C212 671 212 671 210.514 672.444c-2.352 2.415-1.951 4.674-2.026 7.973l-.107 3.799-.069 3.97q-.05 2.004-.103 4.006A1266 1266 0 0 0 208 702c-1.907.046-3.815.078-5.723.105l-3.219.06c-5.763-.31-9.45-2.849-13.808-6.415-5.344-6.532-6.893-12.781-7.625-21.062a3557 3557 0 0 0-.703-6.844l-.198-1.96c-.663-6.5-1.432-12.989-2.208-19.478l-.405-3.393q-.82-6.858-1.643-13.716-.584-4.892-1.163-9.785l-.354-2.928c-.848-7.198-1.394-14.34-1.951-21.584"/><path fill="#c3d3de" d="M222 149h21v157h-21z"/><path fill="#f8fbfc" d="M219 376h9v294h-9z"/><path fill="#336388" d="m193 499 .028 2.352c.054 3.55.138 7.098.222 10.648l.043 3.7c.194 7.174.721 12.253 4.707 18.3 4.636 3.755 7.806 4.115 14 5v27l-11.996.184q-5.724.092-11.448.188-3.99.066-7.982.125-5.722.088-11.445.187l-3.63.05-3.337.06-2.954.048c-2.182-.086-2.182-.086-3.208 1.158-.158 1.852-.251 3.71-.316 5.566l-.127 3.409-.12 3.587-.13 3.6q-.16 4.419-.307 8.838h-1c-.077-6.331-.129-12.662-.165-18.994q-.022-3.224-.061-6.447c-.248-20.944 1.985-37.489 16.883-53.371C185.592 499 185.592 499 193 499"/><path fill="#356088" d="m226.906 58.371 2.754-.006 2.84.072 2.84-.033c5.642.06 8.535.4 12.66 4.596.496 2.673.666 4.714.615 7.383l.017 2.234c.012 2.431-.012 4.861-.038 7.293q-.003 2.537 0 5.073-.004 5.313-.052 10.625c-.04 4.542-.044 9.083-.037 13.625.004 3.491-.009 6.982-.026 10.472q-.01 2.512-.009 5.025c-.002 2.34-.023 4.677-.05 7.016l.009 2.102c-.05 2.843-.125 4.723-1.794 7.08-3.905 2.56-9.636 1.537-14.135 1.51l-3.496.06-3.348-.002-3.068.006C220 142 220 142 218.365 140.417c-1.864-3.3-1.76-5.802-1.785-9.585l-.026-2.164a678 678 0 0 1-.023-7.07l-.023-4.925q-.019-5.158-.009-10.316c.006-4.403-.025-8.805-.065-13.208-.026-3.39-.029-6.78-.025-10.169a491 491 0 0 0-.03-4.87 389 389 0 0 1 .006-6.813l-.006-3.913c1.066-5.808 4.628-9.018 10.527-9.013"/><path fill="#346285" d="m216.438 744.273 3.978-.003q4.16.001 8.321.058c3.548.045 7.094.046 10.642.033 3.395-.009 6.789.015 10.184.037l3.85-.005 3.59.058 3.152.028c3.56.652 5.253 2.044 7.845 4.521 1.827 3.654 1.313 7.914 1.375 11.938l.113 2.787c.033 2.516-.006 4.805-.488 7.275-2.168 2-2.168 2-5 3l-2.762 1.098c-21.81 7.192-42.32 6.755-63.238-3.098a503 503 0 0 1-.312-10.125l-.127-2.883-.05-2.812c-.025-.849-.052-1.697-.079-2.571.643-2.954 1.59-5.155 3.644-7.407 4.477-2.798 10.267-2.002 15.362-1.929"/><path fill="#336287" d="M274 497c4.947.761 5.964 2.01 9 6a161 161 0 0 0 5.805 4.863c11.402 11.098 15.456 25.642 15.69 41.201-.077 5.648-.301 11.292-.495 16.936h-50v-27l12-3c3.375-2.633 5.424-5.055 7-9 .367-3.292.367-3.292.414-6.953l.059-2c.06-2.1.106-4.198.152-6.297l.117-4.281q.142-5.235.258-10.469"/><path fill="#becedb" d="m224.656 311.371 3.848-.006 3.996.072 3.996-.033c9.387.072 9.387.072 13.38 1.946 3.363 4.196 2.82 8.394 2.753 13.619l.007 3.25a644 644 0 0 1-.04 6.798c-.033 3.47-.02 6.938 0 10.409a2496 2496 0 0 1-.03 6.605l.015 3.148c-.115 7.047-.115 7.047-2.177 10.471-3.265 1.833-5.696 1.884-9.435 1.916l-2.04.02q-2.127.01-4.256-.01c-2.167-.013-4.33.02-6.497.059q-2.072 0-4.145-.006l-3.795.002C217 369 217 369 214.596 367.123c-2.33-4.56-2.188-8.662-2.162-13.717l-.02-3.104q-.01-3.242.01-6.485c.013-3.306-.02-6.609-.059-9.915q0-3.154.006-6.308l-.04-2.99c.061-4.523.2-6.914 2.792-10.727 3.46-2.257 5.422-2.508 9.533-2.506"/><path fill="#828382" d="m292 640 1 1c-.218 9.253-1.534 18.56-2.62 27.75q-.257 2.205-.5 4.412a777 777 0 0 1-.747 6.49l-.441 3.844c-1.036 5.246-2.913 9.333-7.067 12.754l-1.71 1.453c-4.78 3.238-9.077 3.563-14.728 3.422l-2.1-.027c-1.695-.024-3.391-.06-5.087-.098l-.044-2.323c-.075-3.476-.171-6.951-.269-10.427l-.068-3.656-.107-3.516-.08-3.237c-.198-2.868-.198-2.868-1.946-4.773-2.191-3.05-1.825-5.527-1.779-9.24l.013-2.068c.017-2.17.054-4.34.093-6.51q.022-2.212.04-4.426.053-5.412.147-10.824 2.623-1.225 5.25-2.437l2.953-1.372c10.995-4.683 19.714-1.19 29.797 3.809"/><path fill="#88aac8" d="M193 498c-3.28 2.72-6.586 5.018-10.25 7.188-14.102 8.927-23.562 22.854-27.335 39.055-1.703 8.204-1.839 16.217-1.803 24.562q-.006 2.454-.016 4.908c-.014 4.401-.009 8.802.001 13.202.008 4.63 0 9.261-.004 13.892-.006 7.77.002 15.541.016 23.312.016 8.955.01 17.91-.006 26.864q-.02 11.583-.007 23.166c.004 4.597.005 9.194-.005 13.792q-.012 6.484.015 12.97.006 2.364-.004 4.729c-.044 11.47.408 23.25 6.335 33.423l1.465 2.597c1.554 2.433 1.554 2.433 3.79 4.524C167 748 167 748 167 750l1.75.813c2.283 1.204 4.224 2.595 6.25 4.187-7.848-.334-13-4.341-18.75-9.437-10.427-11.875-11.848-23.854-11.768-39.15q-.008-2.618-.02-5.233c-.019-4.705-.012-9.41 0-14.114.01-4.944.001-9.888-.005-14.832q-.01-12.45.022-24.902c.021-9.57.014-19.138-.008-28.708a7117 7117 0 0 1-.01-24.732c.006-4.911.007-9.823-.006-14.734q-.017-6.93.02-13.861a603 603 0 0 0-.006-5.059c-.083-17.458 3.858-32.411 16.156-45.488 7.48-7.082 21.226-18.189 32.375-16.75"/><path fill="#346286" d="M304 625a481 481 0 0 1 1.238 32.234l.013 2.217q.03 5.79.044 11.577c.011 3.942.046 7.884.085 11.826.027 3.077.035 6.153.038 9.23q.008 2.179.035 4.358c.172 14.13-2.647 25.694-12.125 36.456-5.587 5.468-12.703 9.403-20.328 11.102-2.946-.754-4.73-1.76-7.133-3.598-1.977-1.485-3.456-1.968-5.867-2.402l-.184-2.555-.253-3.32-.247-3.305c-.146-2.767-.146-2.767-1.316-4.82a190 190 0 0 1-.062-7.625l.013-2.14q.02-2.618.049-5.235l2.457-.078c9.787-.501 19.721-1.87 26.936-9.139 7.988-8.863 8.135-19.68 9.295-31.033q.298-2.708.603-5.414c.825-7.44 1.594-14.882 2.227-22.342.085-.97.17-1.941.256-2.941q.241-2.801.457-5.605c.186-2.156.468-4.304.769-6.448 2-1 2-1 3-1"/><path fill="#f5f6f6" d="M137 564h1v79l-9 1c-4.486 2.326-6.793 4.491-9 9-.573 3.575-.573 3.575-.687 7.313l-.2 3.8L119 667c-9.604-12.119-9.022-29.366-8-44 2.614-20.444 12.689-43.165 26-59"/><path fill="#c4d7e0" d="M254 596h44c-1.168 16.349-1.168 16.349-2 24.125l-.25 2.453-.25 2.367-.219 2.079c-.29 2.041-.747 3.986-1.281 5.976-3.754-.65-7.122-1.734-10.687-3.062C271.6 626.053 266.337 628.255 254 633z"/><path fill="#59595a" d="M138 649q.257 17.469.5 34.938l.036 2.593c.361 26.157.625 52.309.464 78.469-1.603.108-3.207.186-4.812.25l-2.708.14c-2.48-.39-2.48-.39-4.11-2.135-1.529-2.517-1.749-3.814-1.758-6.727l-.03-2.697.014-2.936-.02-3.11c-.02-3.396-.015-6.792-.01-10.187q-.007-3.54-.015-7.077-.014-7.417.003-14.836c.011-6.34-.009-12.68-.038-19.02-.018-4.871-.018-9.743-.012-14.615q0-3.506-.019-7.013c-.014-3.268-.004-6.535.013-9.802l-.029-2.93c.047-4.298.132-6.661 2.437-10.382 3.418-3.139 5.54-3.022 10.094-2.923"/><path fill="#5c5d5d" d="M215 677h36v40c-6-1-6-1-8-2-3.39-.241-6.79-.185-10.187-.187l-2.83-.038-2.776-.005-2.516-.013c-3.466.228-3.466.228-9.691 2.243z"/><path fill="#5c5c5c" d="M331 650c3.654-.281 6.166-.468 9.41 1.352 2.512 4.182 2.113 8.228 2.044 13.016l.002 3.194c-.003 3.485-.034 6.969-.065 10.454q-.012 3.623-.018 7.247c-.015 6.359-.054 12.717-.098 19.076-.041 6.489-.06 12.977-.08 19.466Q342.13 742.902 342 762l-2 1-1-2c-2.356-.468-2.356-.468-5.062-.625l-2.786-.227L329 760q-.037-7.422-.055-14.844a2357 2357 0 0 0-.02-5.052 2282 2282 0 0 1-.023-7.252l-.015-2.29c0-5.334 0-5.334 1.113-7.562.121-2.307.178-4.618.205-6.928l.03-2.159q.047-3.539.081-7.077l.063-4.902q.082-6.455.153-12.911.077-6.585.161-13.171.162-12.927.307-25.852"/><path fill="#848586" d="M212 647c.087 3.937.14 7.874.188 11.813l.076 3.392.029 3.252.048 3C212 671 212 671 210.514 672.444c-2.352 2.415-1.951 4.674-2.026 7.973l-.107 3.799-.069 3.97q-.05 2.004-.103 4.006A1266 1266 0 0 0 208 702q-2.906.079-5.812.125l-3.27.07C196 702 196 702 193 700l2-1-2.312-2.812c-3.341-4.69-4.478-9.625-5.688-15.188l-.59-2.45c-2.014-9.364-2.055-19.01-2.41-28.55l3 .105c8.772.214 16.752-3.443 25-3.105"/><path fill="#7e7f80" d="M254 573h53v16h-53z"/><path fill="#5d5e60" d="M231.938 18.5c.703-.015 1.406-.03 2.13-.047 3.426.026 5.686.4 8.642 2.16C245 23 245 23 245.568 26.115l-.08 3.618-.049 3.926-.126 4.09a1231 1231 0 0 0-.069 4.137A933 933 0 0 1 245 52h-25c-.092-4.058-.172-8.112-.22-12.17q-.03-2.07-.082-4.138c-.048-1.986-.069-3.972-.089-5.958l-.063-3.618C220 23 220 23 221.792 20.612c3.22-2.351 6.313-2.196 10.145-2.112"/><path fill="#7a7c7c" d="M162 573h50v16h-50z"/><path fill="#fbfdfe" d="M223 150h5v155h-5z"/><path fill="#050608" d="m230.072 84.678 2.365.01 2.354-.05c5.67-.004 5.67-.004 7.93 1.531 1.782 2.552 1.667 4.392 1.677 7.487v13.688l-.01 3.068C244 113 244 113 242.74 114.835c-2.163 1.448-3.383 1.513-5.97 1.458l-2.432-.03-2.525-.076-2.561-.04c-2.084-.036-4.168-.09-6.252-.147-2.231-4.463-1.185-10.6-1.187-15.5l-.038-3.824-.005-3.645-.013-3.357c.488-5.372 3.639-4.952 8.315-4.996"/><path fill="#0b0b0e" d="m230.188 328.678 2.812.01 2.813-.05 2.687-.001 2.469-.01L243 329c2.98 4.471 2.368 8.74 2.375 14l.074 3.063.037 5.625C245 354 245 354 243.22 355.79c-2.334 1.271-3.598 1.585-6.225 1.573l-2.244-.002-2.315-.048-2.326.01c-3.87-.038-5.825-.132-9.111-2.323-.372-2.398-.372-2.398-.363-5.375l.002-3.234.048-3.391-.01-3.39c.059-8.73.532-10.86 9.51-10.932"/><path fill="#5c5d5c" d="m231.75 720.625 2.633-.074c6.037-.027 10.595 1.002 15.617 4.449l3 3v10h-40c0-10 0-10 2.25-13 5.634-4.098 9.674-4.365 16.5-4.375"/><path fill="#beced8" d="M254 459c21.135-.774 21.135-.774 28 4l1.719 1.133c4.982 3.687 8.09 8.797 9.281 14.867a64 64 0 0 1 .098 4.11l-.01 2.285-.026 2.355-.013 2.402q-.02 2.925-.049 5.848-2.47-.713-4.937-1.437l-2.778-.81C283 493 283 493 282 492c-.133-1.894-.23-3.79-.312-5.687-.406-5.172-1.004-8.43-4.688-12.313-4.976-3.092-9.185-3.519-14.875-3.687l-2.375-.104A555 555 0 0 0 254 470z"/><path fill="#85a5c3" d="M191 764v6q-2.871 1.475-5.75 2.938l-3.234 1.652c-4.27 1.997-7.629 2.534-12.332 2.552l-3.216.021-3.46.013-7.262.072c-3.814.035-7.628.065-11.442.078-3.682.015-7.364.056-11.046.1l-3.448-.006c-6.229.096-10.095.357-14.81 4.58-1.894 2.191-1.894 2.191-3.312 4.563l-1.489 2.316c-1.33 2.195-1.33 2.195-2.199 5.121H98c9.333-19.226 9.333-19.226 17-22 4.393-.548 8.746-.486 13.168-.434l7.834-.029q5.115.007 10.232.037c4.645.025 9.289.013 13.934-.008l3.657.05C173.732 771.56 182.53 764 191 764"/><path fill="#bbcfde" d="m198.23 458.902 2.432.01 2.525.026 2.561.013q3.126.02 6.252.049v11l-3.508.078q-2.309.084-4.617.172l-2.305.043c-5.264.227-8.395 1.23-12.57 4.707-2.425 3.637-2.387 5.857-2.625 10.188l-.227 3.855L186 492a875 875 0 0 1-4.375 2l-2.46 1.125C177 496 177 496 175 496a515 515 0 0 1-.25-8.5l-.102-2.398c-.118-7.219 2.233-11.848 6.102-17.79 4.78-4.911 10.515-8.46 17.48-8.41"/><path fill="#356189" d="m433.188 785.563 2.54-.14c4.414-.078 7.692.316 11.385 2.854C450 792 450 792 450 804h-33c0-11 0-11 2.375-14.625 4.474-4.048 8.005-3.686 13.813-3.812"/><path fill="#87a7c1" d="m216.473 744.309 3.985.004q4.168.008 8.334.07c3.557.05 7.112.062 10.67.06 3.4 0 6.799.027 10.198.053l3.867.01 3.59.058 3.158.035c3.087.454 4.508 1.231 6.725 3.401v2l-2.182.011q-10.174.056-20.35.173c-3.487.04-6.974.072-10.461.087-4.01.018-8.018.068-12.027.12l-3.797.003-3.518.06-3.102.027c-2.69.292-2.69.292-4.39 2.416-1.331 2.387-1.593 3.93-1.685 6.65l-.107 2.558-.069 2.645-.103 2.691A579 579 0 0 0 205 774c-4.75-.875-4.75-.875-7-2a503 503 0 0 1-.312-10.125l-.127-2.883-.05-2.812c-.025-.849-.052-1.697-.079-2.571.643-2.954 1.588-5.157 3.642-7.409 4.488-2.796 10.297-1.978 15.399-1.891"/><path fill="#89a4c2" d="M223.188 59.75 226 60l-.96 1.898c-1.424 4.248-1.513 8.272-1.665 12.727l-.113 2.9a661 661 0 0 0 .113 48.787l.093 2.711c.217 4.666.77 8.588 2.532 12.977-2.813.25-2.813.25-6 0-2.52-2.356-2.979-3.817-3.381-7.263l-.007-3.92-.016-2.17c-.013-2.362-.005-4.723.006-7.084q-.003-2.466-.01-4.932-.005-5.164.017-10.33c.017-4.411.007-8.823-.01-13.235-.012-3.393-.008-6.787 0-10.18q.004-2.44-.008-4.88c-.008-2.275.004-4.548.02-6.822l.008-3.92c.562-4.819 1.564-7.121 6.569-7.514"/><path fill="#cfd1d1" d="m175 641 10 1-2 1c1.802 18.938 1.802 18.938 4.938 37.688l.44 2.221c1.392 6.337 4.033 11.708 7.622 17.091-5.304-.416-8.341-1.052-12-5-4.75-7.416-6.006-14.53-6.75-23.187q-.335-3.398-.672-6.793l-.295-3.19c-.226-2.26-.529-4.512-.857-6.76-.423-3.048-.526-5.934-.488-9.008l.027-2.902z"/><path fill="#f6f8f8" d="M170 596h8l.351 3.042q.648 5.605 1.303 11.21l.562 4.844q.403 3.49.811 6.978l.25 2.176c.336 2.86.71 5.682 1.28 8.507.61 3.093.505 6.1.443 9.243l-8-1c-1.462-4.046-2.37-7.798-2.852-12.07l-.39-3.47-.383-3.585-.406-3.516A169 169 0 0 1 170 596"/><path fill="#787571" d="M309 766h25v14h-25z"/><path fill="#edeff0" d="m198.012 458.902 2.295.01 2.38.026 2.417.013q2.947.02 5.896.049v2l-2.055.262c-9.426 1.423-17.822 4.101-23.77 11.941-4.442 6.79-5.16 13.861-6.175 21.797l-4 1a515 515 0 0 1-.25-8.5l-.102-2.398c-.118-7.219 2.233-11.848 6.102-17.79 4.683-4.813 10.415-8.461 17.262-8.41"/><path fill="#a6a7a6" d="M215 677h7v38l-7 2z"/><path fill="#f0f1f2" d="m146 745 5 5c7.363 6.23 14.87 9.98 24 13-3.377 2.042-5.945 2.235-9.86 2.195l-3.378-.02-3.512-.05-3.559-.027c-2.897-.024-5.794-.06-8.691-.098z"/><path fill="#f2f4f6" d="M254 477c2.751-.108 5.498-.187 8.25-.25l2.355-.102c3.577-.06 5.793.008 8.942 1.805C275 481 275 481 275 490l-21-3z"/><path fill="#305e82" d="M254 494c12.875.875 12.875.875 14 2 .144 4.335.042 8.662 0 13h-14z"/><path fill="#bcced6" d="M254 516h14c.418 6.058.123 9.19-4 14-3.54 2.597-5.148 2-10 2z"/><path fill="#646463" d="M414 500c1.324 1.645 1.324 1.645 2.688 3.813l1.386 2.144C419 508 419 508 418 511a79 79 0 0 1-6.437 3.688l-1.815.97C405.289 518 405.289 518 403 518c-3.223-5.176-3.223-5.176-4-7 1.35-4.052 3.396-4.875 6.938-7.187l3.277-2.168C412 500 412 500 414 500"/><path fill="#5f5c5c" d="M402 485c3.662 3.373 5.09 5.223 7 10l-13 9-5-5c0-4 0-4 2.406-6.578a188 188 0 0 1 3.094-2.672l1.59-1.39A407 407 0 0 1 402 485"/><path fill="#5f5d5d" d="M423 516c3 6.625 3 6.625 3 10a587 587 0 0 1-6.25 2.563l-3.516 1.44c-3.088.952-4.35 1.337-7.234-.003-1.721-2.582-2-3.85-2-7q3.15-1.76 6.313-3.5l1.802-1.012c2.843-1.556 4.592-2.488 7.885-2.488"/><path fill="#2f5e85" d="M212 494v15h-12v-14c6-1 6-1 12-1"/><path fill="#bbccd5" d="M200 516h12v16c-6 0-6 0-8.812-2.375-3.876-4.651-3.273-7.7-3.188-13.625"/><path fill="#5c5b5b" d="M296 439h10v18h-9z"/><path fill="#5e5b5c" d="m429 532 2 10a982 982 0 0 1-7.312 2.063l-2.092.603c-5.256 1.447-5.256 1.447-8.596.334l-1-7 2.555-1.059 3.32-1.379 3.305-1.37C426.367 532 426.367 532 429 532"/><path fill="#616160" d="m111 664 2 7q-3.432 2.258-6.875 4.5l-1.973 1.3C99.227 680 99.227 680 97 680a652 652 0 0 1-2-3.875l-1.125-2.18C93 672 93 672 93 670q3.936-1.505 7.875-3l2.262-.867C108.773 664 108.773 664 111 664"/><path fill="#646263" d="M402 624c4.143.598 7.182 2.007 10.813 4.063l2.957 1.66L418 631c-1.059 3.403-2.009 6.014-4 9-5.803-1.488-10.176-4.591-15-8 1.875-5.75 1.875-5.75 3-8"/><path fill="#676666" d="M389 473c3.328 1.552 5.486 3.306 8 6-1.466 3.348-3.337 5.693-5.875 8.313l-2.055 2.175C387 491 387 491 384.883 490.828c-2.243-.986-3.994-2.277-5.883-3.828 1.564-3.522 3.695-6.271 6.125-9.25l2.195-2.703z"/><path fill="#5f5e5e" d="M376 462a120 120 0 0 1 9 5c-1.564 3.522-3.695 6.271-6.125 9.25l-2.195 2.703L375 481c-4.216-.602-4.571-1.571-8-5z"/><path fill="#616060" d="M289 440c1.586 3.172 1.379 6.635 1.563 10.125l.13 2.285q.158 2.795.307 5.59c-5.625.25-5.625.25-9-2-.95-2.46-.95-2.46-1.687-5.375l-.762-2.898C279 445 279 445 279 441c3.473-1.158 6.36-1.069 10-1"/><path fill="#9f9fa3" d="m229 20-1.457 2.164c-2.647 5.293-2.12 11.428-2.23 17.211l-.104 3.676Q225.086 47.525 225 52h-5q-.111-6.113-.165-12.225a529 529 0 0 0-.061-4.159 552 552 0 0 1-.067-5.98l-.048-3.633C220 23 220 23 221.32 21.097c2.522-1.646 4.752-1.292 7.681-1.097"/><path fill="#5e5d5d" d="M385 649c3.522 1.564 6.271 3.695 9.25 6.125l2.703 2.195L399 659c-1.552 3.328-3.306 5.486-6 8-3.562-1.496-5.726-3.528-8.312-6.375l-2.176-2.336C381 656 381 656 381.172 653.82c.952-2.093 2.102-3.319 3.828-4.82"/><path fill="#626161" d="M394 637c3.699 1.373 6.951 3.064 10.313 5.125l2.675 1.633L409 645c-.784 3.861-2.428 6.013-5 9-3.522-1.564-6.271-3.695-9.25-6.125l-2.703-2.195L390 644z"/><path fill="#5d5c5d" d="M87 621c6.415-.428 11.886 1.143 18 3v7q-4.47.04-8.937.063l-2.577.025-2.45.01-2.27.016C87 631 87 631 86 630c-.237-6.525-.237-6.525 1-9"/><path fill="#5e5e5e" d="M416 582q3.125-.04 6.25-.062l3.516-.036c2.644.08 4.732.312 7.234 1.098q.039 2.219.063 4.438l.035 2.496C433 592 433 592 432 593c-5.821-.166-11.408-1.475-17-3z"/><path fill="#5c5c5c" d="M363 669c4.54 4.14 7.718 8.824 11 14a483 483 0 0 1-3.375 3l-1.898 1.688C367 689 367 689 365 689q-2.007-3.433-4-6.875l-1.156-1.973C357 675.227 357 675.227 357 673a125 125 0 0 1 6-4"/><path fill="#636363" d="M346 447c4.617.525 6.1 1.075 10 4l-7 15-8-2c.538-6.182 2.546-11.327 5-17"/><path fill="#676666" d="M374 660c3.68 1.536 5.988 3.782 8.75 6.625l2.422 2.477L387 671c-1.526 3.326-2.933 4.956-6 7-3.557-1.467-5.442-3.37-7.812-6.375l-1.895-2.336C370 667 370 667 370.203 664.82c.925-2.112 2.067-3.316 3.797-4.82"/><path fill="#615f5f" d="m362 453 8 4c0 4.012-1.905 6.42-4 9.688l-1.156 1.837A811 811 0 0 1 362 473c-2.915-1.074-4.778-1.778-7-4 .336-4.14 2.04-7.24 4.063-10.812l1.66-2.958z"/><path fill="#1ae7eb" d="M228 92h9v18h-9z"/><path fill="#5d5d5c" d="m329 442 9 1c1.461 4.647.393 7.393-1.437 11.813-.474 1.16-.947 2.322-1.434 3.519L334 461l-7-1c-.276-6.201.771-11.932 2-18"/><path fill="#666565" d="M413 596q3.689.714 7.375 1.438l2.117.408c5.281 1.04 5.281 1.04 7.508 2.154l-2 9c-6.182-.538-11.327-2.546-17-5z"/><path fill="#5f6060" d="M313 440h10c-.676 6.082-1.736 12.013-3 18h-8z"/><path fill="#5c5a59" d="M102 574c3.998.583 6.813 1.833 10.25 3.938l2.64 1.59C117 581 117 581 118 583a101 101 0 0 1-3 6c-5.813-1.74-10.832-3.811-16-7 1.875-5.75 1.875-5.75 3-8"/><path fill="#676666" d="M433 549v10c-5.72.832-11.222 1.12-17 1v-8c11.522-3.444 11.522-3.444 17-3"/><path fill="#636363" d="M90 604q2.845.681 5.688 1.375l3.199.773c2.817.771 5.43 1.707 8.113 2.852.125 5.75.125 5.75-1 8q-4.222-.673-8.437-1.375l-2.432-.383c-2.056-.347-4.096-.788-6.131-1.242-1.274-2.547-.802-3.428-.062-6.125l.59-2.195z"/><path fill="#5b5a59" d="M95 589c4.598.539 7.868 1.766 11.875 4.063l2.93 1.66L112 596l-2 7c-5.525-.582-11.201-2.153-16-5-1.231-2.84-1.08-3.765-.062-6.75z"/><path fill="#5e5d5e" d="M118 678c.832 2.664.832 2.664 1 6-1.754 2.173-3.194 3.65-5.312 5.375l-1.553 1.363C108.333 694 108.333 694 106 694c-1.29-1.46-1.29-1.46-2.625-3.375l-1.352-1.898C101 687 101 687 101 685a794 794 0 0 1 6.813-4.062l1.947-1.182c4.9-2.87 4.9-2.87 8.24-1.756"/><path fill="#5c5a5a" d="m106 652 2 6a1658 1658 0 0 1-7.312 3l-2.092.867C95.585 663.09 93.28 664 90 664l-2-10c6.186-1.375 11.672-2.234 18-2"/><path fill="#5b5959" d="M120 546c3.522 1.564 6.271 3.695 9.25 6.125l2.703 2.195L134 556c-1.25 3.653-1.671 4.78-5 7l-13-8c.896-4.479 1.25-5.772 4-9"/><path fill="#5f5c5d" d="M408 611c6.182.538 11.327 2.546 17 5l-3 9c-5.685-1.646-10.767-4.29-16-7z"/><path fill="#656362" d="M111 559q2.66 1.65 5.313 3.313l2.988 1.863c2.2 1.487 3.932 2.864 5.699 4.824l-2 6c-4.657 0-6.326-1.111-10.25-3.5l-3.266-1.969L107 568c.53-3.821 1.497-6.062 4-9"/><path fill="#18e8f0" d="M227 336h11v14h-11z"/><path fill="#616061" d="M434 566v10c-5.817.08-11.27-.004-17-1v-8c5.695-.642 11.267-1.125 17-1"/><path fill="#5e5d5e" d="M86 638h19v7c-6.068 1.229-11.799 2.276-18 2z"/><path fill="#5a5859" d="M130 533c4.028 2.014 6.206 3.508 9 7 .395 3.823.213 6.362-1 10-3.283-1.49-5.93-3.386-8.75-5.625l-2.422-1.914L125 541z"/><path fill="#59595a" d="M349 678h3a70 70 0 0 1 4.188 6.375l1.115 1.828C360 690.707 360 690.707 360 693c-5.078 3.32-5.078 3.32-7 4l-4-2z"/><path fill="#e9ecef" d="M321 745h1v15h-18c3.008-2.406 5.948-4.702 9.063-6.937 3.196-2.371 5.567-4.84 7.937-8.063"/><path fill="#9fa09f" d="m225 722-1.937 2.375c-2.843 4.179-2.868 8.701-3.063 13.625h-7c-.785-8.987-.785-8.987 2.375-13.062 3.572-2.637 5.241-3.053 9.625-2.938"/><path fill="#c6d3df" d="m187 476-1 16-7 3q.212-3.157.438-6.312c.08-1.172.162-2.344.246-3.551.551-5.471.551-5.471 3.254-7.824C185 476 185 476 187 476"/><path fill="#5c5b5a" d="m273 443 1 10c-7.617-.39-7.617-.39-10-1-1.811-2.55-2-3.835-2-7 7.625-2 7.625-2 11-2"/><path fill="#81a7c1" d="M426 787c-1.875 4.75-1.875 4.75-3 7-.225 1.537-.408 3.08-.562 4.625l-.254 2.477L422 803l-5 1c-.86-10.74-.86-10.74 2.25-14.687C422 787 422 787 426 787"/><path fill="#5d5d5e" d="M144 521v2h2c-1.156 3.912-2.355 6.875-5 10l-5-4c1.517-3.54 3.753-8 8-8"/><path fill="#3a5d7f" d="M429 772h9v7h-9z"/><path fill="#989a9b" d="m175 641 10 1-2 1v6l-7-1-1 4z"/><path fill="#595858" d="M195 479c3.08 2.773 4.688 5.063 6 9-2.906 1.257-4.796 2-8 2a293 293 0 0 1-.125-4.375l-.07-2.46C193 481 193 481 195 479"/><path fill="#5f5f60" d="M203 477h9v10h-3c-1.605-2.187-1.605-2.187-3.187-5l-1.606-2.812z"/><path fill="#131114" d="M271.563 680.813C274 681 274 681 275 682c.188 2.438.188 2.438 0 5l-2 2c-2.625-.375-2.625-.375-5-1-.625-2.375-.625-2.375-1-5 2-2 2-2 4.563-2.187"/><path fill="#2b5776" d="M304 609h1v32h-1l-1-15h-1q.21-3.688.438-7.375l.119-2.117c.33-5.281.33-5.281 1.443-7.508"/><path fill="#f9fafd" d="M428 811h11v5l-11-1z"/><path fill="#626061" d="M119 694v12c-5.875-3.625-5.875-3.625-7-7 4.75-5 4.75-5 7-5"/><path fill="#121112" d="M197.063 668.938 200 669c.625 2.375.625 2.375 1 5-2 2-2 2-4.625 2.125L194 676a129 129 0 0 1-1-6c1-1 1-1 4.063-1.062"/><path fill="#0c0d0c" d="M269 653c1.938.75 1.938.75 4 2 .875 2 .875 2 1 4l-2 2c-2.625-.375-2.625-.375-5-1l-1-5z"/><path fill="#769fc1" d="M422 787h4c-1.074 2.915-1.778 4.778-4 7-2.125-.375-2.125-.375-4-1 1.152-2.468 2.048-4.048 4-6"/><path fill="#707478" d="m137 650-1.687.563c-2.958 1.838-4.366 4.1-6.262 6.976L128 659h-1c-.358-5.368-.358-5.368 1.063-7.875 2.94-1.707 5.616-1.313 8.937-1.125"/><path fill="#dddddf" d="m304 761-2 4h-9l-1-2q2.434-.794 4.875-1.562l2.742-.88C302 760 302 760 304 761"/><path fill="#b1c5d4" d="m188 469 2 4c-2.21 3.488-4.086 4.73-8 6 1.37-3.995 3.257-6.8 6-10"/><path fill="#f3fafc" d="M200 459h11v2l-12 2z"/><path fill="#7d9fb9" d="M193 498c-5.538 4.77-5.538 4.77-9 5l-3-2c7.286-3.429 7.286-3.429 12-3"/><path fill="#b2c0c8" d="M292 479h1v17l-4-2 2-1c.47-3.276.47-3.276.625-7.062l.227-3.91z"/><path fill="#d0dbe6" d="M214 362h2l1 5h7v1c-6.055.195-6.055.195-8 0l-2-2z"/><path fill="#4a484c" d="M87 621h7c-2.332 1.206-4.496 2.165-7 3v6h-1c-.125-6.75-.125-6.75 1-9"/><path fill="#595759" d="m413 596 4 2h-2l-.312 1.875C414 602 414 602 411 604z"/></svg>