<svg xmlns="http://www.w3.org/2000/svg" width="649" height="817"><path fill="#212120" d="M0 0h649v817H0z"/><path fill="#fdfefd" d="M0 0h649v817H0zm324 126-.937 2.438C322 131 322 131 321 132c-3.25.375-3.25.375-7 0l-2.02-2.516c-4.568-3.808-8.674-2.977-14.418-2.609l-3.49.176c-10.845.657-21.615 1.98-32.385 3.386-.835.11-1.671.218-2.532.33q-3.605.478-7.206.98c-.714.095-1.429.19-2.165.29-4.114.59-7.884 1.527-11.784 2.963v2q-2.218.29-4.437.563l-2.497.316L229 138l-1-1c-7.58.111-14.88 1.68-22.187 3.563l-3.114.793C181.747 146.834 159.81 153.287 142 166l-1.945 1.281c-24.167 17.773-38.043 76.188-45.442 103.466a899 899 0 0 1-1.355 4.92C83.413 311.221 77.687 347.335 74 384l-.31 3.025q-.413 4.08-.815 8.163l-.229 2.275c-.705 7.381-1.109 14.782-1.516 22.184q-.193 3.475-.397 6.949c-3.536 62.625-3.265 125.948-.358 188.592l.096 2.092c.579 12.523 1.245 25.036 2.521 37.51l.226 2.205C75.886 680.812 85.838 704.273 102 722l1.992 2.203A74.4 74.4 0 0 0 120 737h2l.078 1.688c.531 7.146 2.202 12.725 7.484 17.75 4.26 2.73 7.717 2.725 12.688 2.75l3.89.042c6.798-.338 6.798-.338 12.326-3.831L160 754c2.949.347 5.575.846 8.438 1.563q2.278.536 4.558 1.066l2.704.63a475 475 0 0 0 41.838 7.441c2.644.353 5.285.725 7.927 1.099 33.194 4.55 66.409 5.671 99.871 5.465 3.796-.02 7.591-.023 11.387-.026q6.861-.01 13.722-.035l2.587-.006q3.605-.01 7.21-.036l2.125-.003A62.6 62.6 0 0 0 374 770l-.25 2.625c.315 4.248 1.563 6.107 4.25 9.375 4.617 3.754 9.195 3.483 14.875 3.438l2.645.06c6.01-.004 9.576-.98 14.48-4.498 3.273-4.691 3.599-9.456 4-15l2.208-.142c7.352-.534 14.45-1.56 21.667-3.045l3.293-.676c16.532-3.47 32.49-8.23 48.457-13.7l2.053-.701q2.963-1.018 5.924-2.052l1.907-.665c5.138-1.823 10.087-3.986 15.016-6.312 2.475-.707 2.475-.707 4.68.103L521 740c3.73 1.865 8.145 1.314 12.25 1.375l2.855.113c6.076.08 6.076.08 11.395-2.543 2.797-3.295 4.123-6.35 5.25-10.445q.584-1.954 1.172-3.906a286 286 0 0 0 1.777-6.13c2.034-3.854 5.202-6.45 8.364-9.402 6.98-6.76 12.268-13.56 16.937-22.062l1.664-3.027c3.247-6.469 5.477-13.177 7.524-20.098l.72-2.399c4.317-15.392 5.632-31.293 6.268-47.199l.12-2.758c.93-21.62.98-43.234.902-64.87q-.014-4.718-.023-9.437c-.054-30.53-.125-61.064-1.093-91.582q-.121-3.93-.229-7.859C595.255 382.576 589.543 326.404 575 273l-.759-2.842C566.888 242.867 557.06 216.55 545 191l-1.389-2.96c-6.397-13.925-6.397-13.925-15.611-26.04l-1.902-2.02c-16.78-16.343-42.055-21.506-64.25-25.469-2.508-.45-5.01-.925-7.512-1.413-14.302-2.745-29.759-5.31-44.336-4.098l-1 1c-5.38.478-5.38.478-7.92-1.484-2.4-1.75-3.605-1.927-6.537-2.026l-2.677-.106-2.901-.068-3.059-.1c-12.445-.366-24.895-.325-37.344-.278q-3.6.008-7.2.013-8.682.017-17.362.049"/><path fill="#545353" d="m322 131 1 2 3.936-.048c154.839-1.696 154.839-1.696 192.95 30.486 6.74 6.602 6.74 6.602 7.614 11.187-.794 5.363-3.356 7.99-7.5 11.375-34.601 22.625-82.081 27.078-122.273 30.773l-2.172.2q-5.302.49-10.608.938c-20.568 1.803-34.695 8.368-48.342 23.796-19.384 24.273-27.71 56.437-33.043 86.418-1.586 8.827-3.68 17.296-6.5 25.813l-.945 2.885c-6.074 17.559-16.868 32.75-33.555 41.427-24.706 11.921-59.223 11.397-84.991 2.75-14.78-5.349-26.72-13.667-33.946-27.812l-.975-1.9c-5.84-12.222-6.177-24.4-6.088-37.663l.007-2.757c.086-23.865 2.332-47.776 6.48-71.287 2.183-12.761 2.159-25.924 2.191-38.84.01-2.4.041-4.798.072-7.198q.01-2.322.016-4.645l.038-2.14c-.028-6.086-1.99-9.856-5.491-14.696-2.22-3.626-2.95-5.802-2.875-10.062 8.259-15.948 31.67-22.6 47.525-27.776 19.49-6.178 39.169-10.343 59.323-13.695q2.98-.499 5.954-1.04c8.706-1.558 17.463-2.433 26.26-3.294 2.604-.255 5.207-.519 7.811-.783 8.857-.884 17.69-1.672 26.589-1.98 4.163-.185 7.65-.94 11.538-2.432"/><path fill="#292828" d="M530 179c12.5 15.793 19.1 38.314 26 57l1.01 2.73c14.202 38.977 21.296 80.267 26.553 121.27l.326 2.539c1.77 13.879 3.24 27.733 3.951 41.712.15 2.578.377 5.136.625 7.706.748 9.462.748 9.462-2.207 13.313-2.642 1.988-5.26 3.336-8.258 4.73l-2.973 1.645c-33.558 18.063-73.202 28.187-110.652 34.168l-2.35.375c-3.703.56-7.278.953-11.025.812l-1.102-2.23c-4.024-7.813-7.38-12.67-15.728-16.155-4.462-1.265-9.07-.96-13.67-.865l-3.05.016c-4.038.042-7.921.155-11.919.75-3.323.455-6.403.532-9.752.514l-3.278-.013L390 449c-.198-132.084-.198-132.084.406-187.483q.047-4.44.091-8.88.069-6.85.156-13.7.03-2.466.056-4.933.037-3.301.086-6.603c.015-1.222.03-2.444.047-3.703C391 221 391 221 392 220c1.854-.23 3.716-.398 5.578-.543l3.653-.306 1.978-.165c26.103-2.22 52.521-5.955 77.791-12.986l2.16-.588c16.865-4.663 36.452-11.65 46.84-26.412"/><path fill="#292929" d="M589 427c1.26 36.241 2.207 72.464 2.188 108.73q0 3.521.002 7.043c.004 18.634-.263 37.246-.871 55.87-.23 7.226-.364 14.414-.066 21.643.215 8.641.215 8.641-2.412 12.351-3.697 3.782-8.148 6.042-12.841 8.363q-1.825 1.001-3.645 2.016c-4.034 2.186-8.168 4.108-12.355 5.984l-2.649 1.188C541.225 656.883 525.853 662.304 510 667l-2.754.827c-11.663 3.47-23.448 6.156-35.371 8.548l-2.011.405C458.754 679 458.754 679 454 679q.182-6.1.372-12.2.094-3.056.185-6.11c.198-6.439.44-12.869.82-19.3.585-10.068.771-20.099.756-30.183l.003-4.935q.002-5.136-.006-10.273-.006-6.424.004-12.85c.033-28.979-.41-57.87-2.697-86.774q-.313-4.078-.621-8.157-.187-2.478-.384-4.955c-.316-4.1-.497-8.147-.432-12.263q4.343-.877 8.688-1.75l2.728-.55q8.206-1.64 16.435-3.157c31.03-5.76 60.955-14.701 89.524-28.23l2.9-1.369c4.15-2.01 8.04-4.046 11.764-6.776C587 427 587 427 589 427"/><path fill="#1d1c1c" d="m150 199 3.242 1.32c13.615 5.369 27.446 8.722 41.758 11.68l2.285.483c24.58 5.12 50 6.988 75.03 8.283 2.094.133 4.188.281 6.276.478 7.92.74 15.755.886 23.706.854l3.984-.005q5.178-.006 10.357-.024 5.31-.014 10.62-.02 10.371-.016 20.742-.049c-2.494 2.527-4.932 4.798-7.812 6.875q-2.096 1.56-4.188 3.125l-1.793 1.332c-23.812 18.908-32.13 55.395-37.644 83.606-4.928 25.107-11.615 54.846-33.438 70.937-23.055 14.803-50.686 13.227-76.55 7.715-14.61-3.347-27.487-9.923-35.927-22.707-7.345-12.846-9.043-25.631-9.023-40.258l.005-3.893c.128-14.517 1.81-28.872 3.504-43.275 1.006-8.563 1.903-17.136 2.794-25.712q.5-4.788 1.006-9.575.339-3.217.673-6.436.35-3.33.723-6.656c.647-5.873.821-11.67.795-17.578l.012-2.645c-.01-6.005-.434-11.892-1.137-17.855"/><path fill="#d2d2d2" d="M93 711a161 161 0 0 1 9.188 9.813c5.069 5.67 10.698 11.065 17.507 14.578 2.957 2.064 3.208 3.44 3.93 6.922 1.758 7.497 1.758 7.497 6.375 13.5 4.07 2.416 7.606 2.351 12.25 2.375l3.89.042c6.798-.338 6.798-.338 12.326-3.831L160 753c2.949.347 5.575.846 8.438 1.563q2.278.536 4.558 1.066l2.704.63a475 475 0 0 0 41.838 7.441c2.644.353 5.285.725 7.927 1.099 34.257 4.696 68.472 5.641 103.002 5.407 5.165-.031 10.33-.045 15.494-.06q15.02-.048 30.039-.146l.914 3.324c1.696 5.768 1.696 5.768 5.903 9.794 3.893 1.573 7.91 1.21 12.058 1.194l2.684.05c5.22.003 8.958-.385 13.441-3.362 2.284-3.426 3.224-6.738 4.078-10.71l.528-2.44L414 766l2.281-.364c24.194-3.901 47.26-9.267 70.469-17.198.818-.28 1.635-.56 2.478-.847q3.57-1.226 7.131-2.47l2.28-.795c5.464-1.936 10.75-4.164 15.987-6.654 2.374-.672 2.374-.672 4.568.142L521 739c3.738 1.87 8.198 1.271 12.313 1.313l2.88.087c4.19.038 7.046-.006 10.807-1.955 2.5-3.056 3.624-6.145 4.688-9.883 3.84-12.637 3.84-12.637 10.312-17.562l3.5 1.625c3.647 1.635 7.332 3.053 11.096 4.396 13.009 4.675 28.083 10.411 35.904 22.479 2 4.665 2.467 7.814.723 12.66-7.608 15.783-27.884 22.373-43.338 27.906-32.008 11.013-65.763 15.75-99.169 20.403a356 356 0 0 0-6.96 1.06c-11.6 1.846-23.29 2.364-35.006 3.034q-4.84.282-9.68.57-2.989.178-5.978.348c-4.339.253-8.654.56-12.976 1.028-5.977.62-11.956.84-17.96 1.038l-3.795.126c-16.284.497-32.57.569-48.861.577l-2.501.003c-23.99.022-47.914-.39-71.874-1.628l-3.718-.191c-15.5-.82-30.955-1.974-46.407-3.434l-2.325-.216a992 992 0 0 1-14.613-1.471l-2.233-.242c-17.689-1.95-35.164-5.024-52.65-8.294a790 790 0 0 0-10.234-1.836c-12.674-2.264-24.833-6.059-37.071-10.019a388 388 0 0 0-7.335-2.27c-13.361-4.131-29.934-11.004-38.164-22.965-2.11-5.66-2.909-11.254-.375-16.925C51.279 722.26 75.087 716.636 93 711"/><path fill="#292929" d="M587 636h1c-2.002 25.46-10.552 49.79-29 68l-5.375 4.188c-5.419 4.681-6.197 9.577-7.027 16.359-.611 3.53-1.483 5.59-3.598 8.453-3.188 1.594-6.629 1.102-10.125 1.063l-2.285-.014q-2.795-.02-5.59-.049v-6c-8.664 3.002-17.288 6.089-25.864 9.337A2514 2514 0 0 1 484 743l-2.345.876C459.198 752.164 432.025 760 408 760l-.148 1.723c-.481 4.966-.959 9.639-2.852 14.277-4.161 2.34-8.46 2.4-13.125 2.438l-2.168.1c-2.09.02-2.09.02-5.707-.538-2.72-3.113-3.491-6.295-4.187-10.312-.16-.884-.318-1.767-.481-2.676L379 763l-3.492.49c-4.213.524-8.39.664-12.632.671l-2.336.015q-3.807.021-7.614.027l-2.68.009q-7.066.022-14.133.028-5.722.007-11.445.041c-25.391.15-50.4-.775-75.668-3.281l-7.774-.739c-24.888-2.368-49.428-6.314-73.761-12.027-4.149-.967-8.236-1.73-12.465-2.234l-.312 1.875C154 750 154 750 151 752c-3.398.336-3.398.336-7.375.375l-3.96.086c-4.244-.534-5.866-1.246-8.665-4.461-.582-3.031-.582-3.031-.812-6.5-1.081-6.146-2.82-8.66-7.769-12.426a255 255 0 0 0-6.34-4.258c-6.563-4.33-11.576-9.987-16.079-16.379l-1.27-1.794C94.495 700.512 90.64 693.983 88 687l1-3 1.555 1.031c14.925 9.448 30.537 14.5 47.676 18.342 2.378.538 4.742 1.111 7.105 1.709 15.632 3.86 31.727 5.752 47.664 7.918l3.42.465c12.765 1.702 25.568 2.962 38.393 4.097l3.85.349c27.628 2.4 55.255 3.432 82.978 3.35 3.928-.012 7.856-.005 11.784.007 16.544.04 32.911-.246 49.38-2.036 2.954-.312 5.912-.54 8.875-.76 27.96-1.359 27.96-1.359 51.015-15.359 3.972-5.079 7.669-10.703 8.864-17.109C453 683 453 683 456.442 681.68q2.231-.442 4.476-.805l2.428-.463q2.578-.488 5.16-.94c4.477-.788 8.937-1.66 13.4-2.519l2.663-.503a290 290 0 0 0 20.618-4.7l2.558-.672C550.352 659.59 550.352 659.59 587 636"/><path fill="#535252" d="m322 131 1 2 3.936-.048c154.839-1.696 154.839-1.696 192.95 30.486 6.74 6.602 6.74 6.602 7.614 11.187-.794 5.363-3.356 7.99-7.5 11.375-34.601 22.625-82.081 27.078-122.273 30.773l-2.172.2q-5.302.49-10.608.938c-20.568 1.803-34.695 8.368-48.342 23.796-19.384 24.273-27.71 56.437-33.043 86.418-1.586 8.827-3.68 17.296-6.5 25.813l-.945 2.885c-6.074 17.559-16.868 32.75-33.555 41.427-24.706 11.921-59.223 11.397-84.991 2.75-14.78-5.349-26.72-13.667-33.946-27.812l-.975-1.9c-5.84-12.222-6.177-24.4-6.088-37.663l.007-2.757c.086-23.865 2.332-47.776 6.48-71.287 2.183-12.761 2.159-25.924 2.191-38.84.01-2.4.041-4.798.072-7.198q.01-2.322.016-4.645l.038-2.14c-.028-6.086-1.99-9.856-5.491-14.696-2.22-3.626-2.95-5.802-2.875-10.062 8.259-15.948 31.67-22.6 47.525-27.776 19.49-6.178 39.169-10.343 59.323-13.695q2.98-.499 5.954-1.04c8.706-1.558 17.463-2.433 26.26-3.294 2.604-.255 5.207-.519 7.811-.783 8.857-.884 17.69-1.672 26.589-1.98 4.163-.185 7.65-.94 11.538-2.432m-74 12-3.194.621C228.979 146.705 213.372 150.106 198 155l-2.326.734c-18.389 5.621-18.389 5.621-32.842 17.504-1.078 1.994-1.078 1.994-1.02 5.45 1.884 5.253 5.216 6.945 10.047 9.238 5.932 2.594 12.062 3.82 18.391 5.074l3.89.78c29.42 5.793 59.332 8.246 89.158 10.97q3.476.322 6.95.666C351.873 211.427 422.253 209.706 481 188l2.034-.75c8.47-3.199 15.786-6.48 20.966-14.25-.197-5.313-1.19-8.288-5-12-7.927-5.865-16.891-9.313-26.437-11.5l-2.731-.632c-20.548-4.596-41.426-6.69-62.363-8.552q-4.457-.406-8.906-.875C348.74 134.231 297.308 133.12 248 143m-98 56 .208 1.886c3.36 31.777-2.433 64.37-6.142 95.93q-.34 2.897-.674 5.796a971 971 0 0 1-.718 6.056c-2.713 23.817-3.2 50.311 12.013 70.207 15.767 16.474 41.065 20.042 62.794 20.55 18.316.076 36.34-2.853 50.519-15.425 12.037-12.556 18.204-27.56 23-44l.724-2.45c1.682-5.905 2.984-11.841 4.173-17.865 5.575-28.25 12.85-55.76 31.103-78.685l1.41-1.906c3.867-4.96 8.818-8.434 13.883-12.078A45 45 0 0 0 348 222l-2.123.013q-10.077.061-20.154.09-5.176.014-10.353.048c-15.27.1-30.366-.093-45.565-1.687-4.602-.48-9.182-.664-13.805-.776-35.457-1.407-73.134-7.198-106-20.688"/><path fill="#565656" d="M136 459c10.28.765 20.51 1.907 30.75 3.063l5.04.564q6.105.684 12.21 1.373c1.313 3.822.861 7.215.477 11.195l-.198 2.125q-.21 2.244-.429 4.487c-.375 3.863-.73 7.727-1.084 11.591-.07.754-.14 1.508-.21 2.284-.636 6.99-1.052 13.978-1.345 20.99C181 520 181 520 180.53 522.526c-.731 4.78-.974 9.558-1.25 14.384l-.19 3.167c-.268 4.456-.528 8.912-.789 13.368q-.288 4.889-.583 9.778l-.174 3.046-.172 2.852-.146 2.496C177 574 177 574 176.51 576.397c-.596 3.043-.832 6.022-1.05 9.115l-.284 3.936-.147 2.091q-.23 3.27-.468 6.54-.672 9.294-1.329 18.59-.404 5.698-.82 11.396-.156 2.153-.305 4.305c-2.47 35.594-2.47 35.594-14.728 48.642-5.76 4.814-10.795 5.648-18.121 5.465-5.187-.76-8.44-2.998-12.258-6.477l-1.742-1.57c-8.498-8.751-8.878-20.193-8.71-31.684.223-8.798.955-17.442 1.999-26.178.469-3.933.914-7.869 1.361-11.805l.28-2.454c.958-8.48 1.79-16.97 2.593-25.465l.214-2.262q.648-6.866 1.286-13.733l.903-9.637c1.9-20.215 3.778-40.433 5.574-60.657q.5-5.63 1.028-11.256.226-2.441.448-4.883c.24-2.63.492-5.26.746-7.889l.22-2.454c.372-3.734.683-5.897 2.8-9.073"/><path fill="#444343" d="M431 451c.712 52.894 1.14 105.789 1.228 158.687l.004 2.259.004 2.253q.016 7.839.047 15.679.04 9.668.04 19.335 0 4.972.025 9.946c.084 17.872-.298 34.875-6.348 51.841-15.166 2.953-29.546 4.58-45 4l.813-4.875.55-3.352c.436-2.583.89-5.158 1.367-7.734 6.557-36.01 5.428-73.251 5.371-109.723-.006-4.816-.006-9.633-.008-14.449q-.005-13.593-.021-27.186-.016-15.512-.022-31.024-.016-31.83-.05-63.657c4.415-.51 8.833-1.007 13.25-1.5l3.742-.434c20.59-2.275 20.59-2.275 25.008-.066"/><path fill="#292928" d="m88 684 11.719 5.86 2.146 1.069q2.117 1.062 4.22 2.148C131.937 706.339 164.5 709.265 193 713l3.364.452c12.783 1.707 25.604 2.973 38.448 4.11l3.852.349c4.775.415 9.555.756 14.336 1.089l3.567.255c25.398 1.769 50.71 1.998 76.162 1.882 5.13-.02 10.261-.03 15.392-.04q14.94-.031 29.879-.097c-5.366 16.381-16.14 33.575-31 43-2.548.381-2.548.381-5.467.388l-3.342.028-3.625-.018-3.783.013a1376 1376 0 0 1-10.125-.025q-3.145-.016-6.29-.022c-20.601-.057-41.042-.709-61.534-2.95-3.718-.401-7.438-.76-11.162-1.105-25.041-2.398-49.722-6.326-74.207-12.075-4.149-.967-8.236-1.73-12.465-2.234l-.312 1.875C154 750 154 750 151 752c-3.398.336-3.398.336-7.375.375l-3.96.086c-4.244-.534-5.866-1.246-8.665-4.461-.582-3.031-.582-3.031-.812-6.5-1.081-6.146-2.82-8.66-7.769-12.426a255 255 0 0 0-6.34-4.258c-6.563-4.33-11.575-9.987-16.079-16.379l-1.273-1.794C88 691.125 88 691.125 88 684"/><path fill="#4d4d4c" d="M202 217c2.804.338 5.562.836 8.336 1.363 9.722 1.732 19.47 2.817 29.289 3.825l5.102.537q6.135.645 12.273 1.275c-1.216 3.648-3.289 5.423-6 8-5.245 5.016-9.949 10.259-14.492 15.918-3.397 4.175-6.911 8.243-10.435 12.311a407 407 0 0 0-2.852 3.34 102 102 0 0 1-2.963 3.302c-1.985 3.36-2.4 6.937-3.008 10.754l-.418 2.352c-.87 4.108-.87 4.108.168 8.023a174 174 0 0 1-2 4 256 256 0 0 0-2 7h-3v3l-14-1a729 729 0 0 0-5.5 8.063l-1.59 2.279c-3.192 4.789-4.424 7.734-3.91 13.658-1.25 1.938-1.25 1.938-3 3h-4l-.781 2.105c-1.357 3.223-3.004 6.16-4.719 9.207-5.755 10.468-10.046 21.623-14.5 32.688h-3a366 366 0 0 1-2.812-5.25l-1.583-2.953c-4.521-9.927-5.06-20.052-4.941-30.777.023-2.253.02-4.505.014-6.758.017-8.705.654-17.132 1.852-25.752.382-2.851.66-5.648.822-8.518.643-10.648 3.558-18.232 9.648-26.992.512-.755 1.024-1.51 1.55-2.29a634 634 0 0 1 21.708-30.054 124 124 0 0 0 5.172-7.312l1.163-1.717c1.014-1.508 2-3.035 2.981-4.565 3.593-3.054 6.867-2.355 11.426-2.062"/><path fill="#424241" d="M395.379 219.902q2.091.01 4.183.036l2.155.013q2.64.02 5.283.049l.445 3.512c1.142 8.763 2.362 17.505 3.844 26.218 4.444 26.211 7.754 52.526 10.94 78.917q.993 8.2 2.033 16.396c1.877 14.901 3.475 29.786 4.511 44.771.245 3.434.516 6.864.79 10.295 1.211 15.66 1.709 31.187 1.437 46.891l-1.908.076q-4.328.178-8.654.361l-3.002.12c-4.015.173-7.926.364-11.9.978-3.32.437-6.414.51-9.757.494l-3.278-.013L390 449c-.198-132.084-.198-132.084.406-187.483q.047-4.44.091-8.88.069-6.85.156-13.7.03-2.466.056-4.933.037-3.301.086-6.603c.015-1.222.03-2.444.047-3.703.234-4 .42-3.677 4.537-3.796"/><path fill="#292928" d="M431 451c7.538 3.066 11.822 6.817 16 14 .854 2.838 1.284 5.683 1.68 8.617l.365 2.513c1.275 9.302 1.717 18.622 2.08 27.995q.11 2.487.223 4.973c.248 5.633.453 11.267.652 16.902l.132 3.626c.735 20.63 1.069 41.241 1.057 61.884q-.002 3.423 0 6.848c-.002 21.377-.272 42.69-1.931 64.014a250 250 0 0 0-.435 7.808c-.308 7.245-.695 13.795-4.01 20.383-.317.664-.633 1.33-.958 2.014-4.602 9.363-9.308 13.329-18.855 17.423q.436-3.094.875-6.187.391-2.765.775-5.53.368-2.385.841-4.75c2.05-11.056 1.775-22.101 1.736-33.306v-6.863c.002-6.176-.01-12.353-.024-18.53-.013-6.467-.014-12.935-.016-19.402q-.009-16.268-.036-32.534-.029-16.745-.041-33.491l-.002-2.09-.007-10.379Q431.068 493.969 431 451"/><path fill="#4a4a4a" d="M530 179c12.5 15.793 19.1 38.314 26 57l1.01 2.73c14.202 38.977 21.296 80.267 26.553 121.27l.326 2.539c1.77 13.879 3.24 27.733 3.951 41.712.15 2.578.377 5.136.625 7.706.298 3.82.417 7.276-.465 11.043-2.891 3.377-5.982 5.186-10 7l-2.14 1.164C574 432 574 432 571 432l-.104-2.515c-1.497-34.163-4.724-68.249-11.375-101.82a292 292 0 0 1-1.255-6.86c-3.52-20.22-8.49-40.27-14.661-59.835-1.074-3.496-1.981-7.035-2.867-10.583-.753-2.584-.753-2.584-2.172-5.73-1.531-3.576-2.758-7.141-3.941-10.845-2.211-6.761-4.761-13.296-7.625-19.812l-.968-2.205a2474 2474 0 0 0-5.262-11.889l-.888-1.99A176 176 0 0 0 517 192l1.574-1.066c4.935-3.494 8.167-6.842 11.426-11.934"/><path fill="#070707" d="m150 199 3.242 1.32c13.615 5.369 27.446 8.722 41.758 11.68l2.285.483c24.58 5.12 50 6.988 75.03 8.283 2.094.133 4.188.281 6.276.478 7.92.74 15.755.886 23.706.854l3.984-.005q5.178-.006 10.357-.024 5.31-.014 10.62-.02 10.371-.016 20.742-.049c-2.494 2.527-4.932 4.798-7.812 6.875q-2.096 1.56-4.188 3.125l-1.793 1.332c-23.812 18.908-32.13 55.395-37.644 83.606-4.928 25.107-11.615 54.846-33.438 70.937-23.055 14.803-50.686 13.227-76.55 7.715-14.61-3.347-27.487-9.923-35.927-22.707-7.345-12.846-9.043-25.631-9.023-40.258l.005-3.893c.128-14.517 1.81-28.872 3.504-43.275 1.006-8.563 1.903-17.136 2.794-25.712q.5-4.788 1.006-9.575.339-3.217.673-6.436.35-3.33.723-6.656c.647-5.873.821-11.67.795-17.578l.012-2.645c-.01-6.005-.434-11.892-1.137-17.855m34.447 28.903c-1.538 2.23-3.142 4.395-4.771 6.558-5.912 7.853-11.646 15.808-17.113 23.976l-1.393 2.073a244 244 0 0 0-2.7 4.179 157 157 0 0 1-3.307 4.97c-5.293 8.128-6.455 15.261-7.038 24.841a976 976 0 0 1-.312 4.07 588 588 0 0 0-.535 7.412C147 309 147 309 146.48 310.932c-.744 3.2-.664 6.423-.684 9.693l-.017 2.25q-.014 2.361-.02 4.721c-.01 2.368-.04 4.735-.072 7.103-.11 15.266 2.553 29.781 12.464 41.942 16.137 15.787 38.773 17.69 60.16 17.859l2.167.032c15.73.18 32.737-2.529 44.74-13.626 17.267-18.478 23.185-43.724 27.92-67.915 6.1-30.737 15.934-61.266 39.209-83.346L334 228v-1l-3.787-.044c-39.088-.49-77.45-2.932-116.225-7.87l-2.28-.287c-3.293-.428-6.512-.882-9.708-1.799-9.4-2.597-12.792 3.868-17.553 10.903"/><path fill="#4d4d4d" d="m79 424 13 5c.084 7.89-.004 15.727-.354 23.61-.672 15.206-.793 30.386-.779 45.605q0 3.955-.003 7.91-.003 8.232.006 16.465.006 8.323 0 16.647C87.67 611.52 87.67 611.52 99 682v4c-6.041-1.7-11.233-5.907-14.332-11.332-3.985-9.477-4.991-19.42-5.509-29.599l-.19-3.511c-.204-3.849-.391-7.697-.574-11.546l-.1-2.028c-1.618-33.348-1.724-66.678-1.624-100.058.018-6.395.017-12.79.011-19.186q-.007-10.639.011-21.278.007-4.418.004-8.834c-.008-18.3.675-36.394 2.303-54.628"/><path fill="#4b4a4b" d="M589 427c1.26 36.241 2.207 72.464 2.188 108.73q0 3.521.002 7.043c.004 18.634-.263 37.246-.871 55.87-.23 7.227-.364 14.416-.07 21.646.235 8.791.235 8.791-2.602 12.461-4.711 4.54-10.238 7.81-16.647 9.25l.182-1.82c2.664-27.825 3.133-55.712 3.015-83.643q-.014-3.975-.02-7.948c-.033-20.222-.15-40.436-.677-60.652l-.066-2.567A11778 11778 0 0 0 573 469l-.064-2.385c-.123-4.66-.22-9.32-.278-13.983q-.033-2.093-.092-4.185a290 290 0 0 1-.09-5.603l-.06-3.15c.799-3.686 2.511-4.649 5.584-6.694l2.387-1.703 2.3-1.547 2.325-1.578C587 427 587 427 589 427"/><path fill="#4d4c4c" d="M133 191h2c1.508 1.758 1.508 1.758 3.125 4.125l1.633 2.32c1.59 3.27 1.725 4.933 1.242 8.555-1.169 3.226-2.636 6.286-4.125 9.375-5.934 12.748-10.695 25.634-14.79 39.078-.844 2.761-1.72 5.5-2.647 8.234-3.74 11.127-6.786 22.326-9.438 33.75l-.53 2.272c-2.873 12.374-5.566 24.726-7.47 37.291l-.58 3.8c-4.256 28.272-6.415 56.693-8.42 85.2-3.846-.523-6.95-1.232-10.375-3.062l-2.086-1.098L79 420c.582-34.765 5.417-68.912 12-103l.676-3.518C96.678 287.941 103.712 262.33 113 238l1.233-3.277C125.768 204.125 125.768 204.125 133 191"/><path fill="#090909" d="m461 147 2.838.545C477.335 150.217 495 153.82 503.375 166c.848 2.713 1.154 4.156.625 7-7.396 11.747-23.33 15.519-36 19l-3.312.926c-8.875 2.433-17.767 4.424-26.813 6.137l-2.04.387c-53.28 10.098-107.98 9.801-161.835 4.55l-5.797-.552c-28.516-2.74-57.157-5.617-85.14-11.948l-2.438-.537c-7.12-1.74-14.642-4.469-18.625-10.963-.202-3.57.141-5.864 2.332-8.762C192.62 143.813 255.08 140.29 292 137l2.408-.218c54.17-4.596 113.38-.197 166.592 10.218m-293.336 26.02c-1.927 1.93-1.927 1.93-2.039 4.917 2.187 4.872 6.602 6.068 11.375 8.063 3.275 1.077 6.565 1.854 9.938 2.563l2.86.62c11.98 2.514 24.068 4.243 36.202 5.817l3.924.512c19.966 2.57 39.948 4.26 60.037 5.537l2.699.174q2.499.16 4.998.308l2.269.144 1.955.118c1.68.164 3.352.424 5.015.717 2.997.473 5.797.63 8.828.651l3.361.029 3.613.013 3.792.021q6.098.025 12.197.026l2.091.002c21.873.013 43.497-.488 65.221-3.252l3.669-.454c14.711-1.87 29.203-4.515 43.636-7.914 2.654-.622 5.312-1.22 7.972-1.816 8.26-1.9 16.23-4.143 24.098-7.316l2.072-.826c4.55-1.936 7.96-4.259 11.553-7.674 1.405-2.93 1.405-2.93 1-6-7.267-10.767-25.7-14.574-37.673-16.927l-3.14-.573-3.424-.63c-16.105-2.804-32.403-4.192-48.672-5.678-2.87-.264-5.738-.539-8.607-.813-5.49-.514-10.985-.955-16.484-1.379l-3.38-.273c-58.347-4.645-163.518-9.72-210.956 31.293"/><path fill="#838383" d="M136 459c10.28.765 20.51 1.907 30.75 3.063l5.04.564q6.105.684 12.21 1.373l1 4c-4.23.06-8.458.094-12.687.125l-3.573.05c-8.1.045-15.776-.701-23.74-2.175a6289 6289 0 0 0-2.27 25.438l-.748 8.526-.196 2.223c-2.98 33.93-5.979 67.857-9.349 101.75l-.357 3.597c-.601 5.97-1.241 11.932-1.932 17.892C126.02 655.79 126.02 655.79 136 684c-5.872-.807-9.074-3.72-13-8-1.68-2.561-2.92-5.139-4-8l-1.078-2.52c-3.706-13.99-1.102-30.677.615-44.935.472-3.929.919-7.86 1.367-11.793l.28-2.452c.964-8.476 1.795-16.963 2.597-25.456l.214-2.262q.647-6.866 1.286-13.733l.903-9.637c1.9-20.215 3.778-40.433 5.574-60.657q.5-5.63 1.028-11.256.226-2.441.448-4.883c.24-2.63.492-5.26.746-7.889l.22-2.454c.372-3.734.683-5.897 2.8-9.073"/><path fill="#4d4c4d" d="M353 226c-2.48 2.584-5.085 4.935-7.812 7.25-26.993 23.705-35.633 63.216-42.204 96.883C298.29 354.119 290.838 379.069 270 394c-23.51 14.849-55.208 15.579-81.91 10.04-15.194-3.646-30.38-10.329-40.09-23.04-8-13.3-8-13.3-8-18h2l-.254-1.941c-.623-5.29-.77-9.83.254-15.059h1l.41 2.79c2.224 13.076 6.598 25.623 17.211 34.37 21.714 14.667 52.507 18.421 78.086 13.856 4.89-.997 9.578-2.388 14.293-4.016v2c19.365-9.308 29.527-24.173 37-44l1.371-3.617c3.324-9.332 5.158-18.611 6.629-28.383h2l.122-1.989c.534-7.181 1.83-13.92 3.628-20.886l.819-3.2c1.982-7.57 4.178-14.79 7.431-21.925l.834-1.855C319.2 255.168 334.824 224.269 353 226"/><path fill="#414141" d="M426 715c-1.153 16.914-13.154 31.096-25.25 41.938-10.786 9.38-25.05 7.205-38.562 7.125q-2.224-.008-4.448-.014-5.37-.017-10.74-.049c2.41-2.421 4.815-4.83 7.324-7.148 4.959-4.672 9.106-9.476 12.926-15.102l1.175-1.693c4.087-6.237 6.754-13.185 9.575-20.057l3.194-.351q5.901-.65 11.802-1.303l5.095-.562 7.35-.811 2.277-.25c3.389-.376 6.758-.792 10.133-1.28A47 47 0 0 1 426 715"/><path fill="#797877" d="M525 173h2c.077 3.695-.209 5.911-2.402 8.93-12.15 11.98-32.04 17.934-48.223 21.945l-3.06.759c-24.844 5.975-50.16 9.801-75.588 12.14l-2.172.2c-3.535.324-7.07.639-10.608.937-13.214 1.156-13.214 1.156-25.572 5.651-3.278 1.58-5.339 2.434-9 2.813-9.554 1.77-18.307 12.57-23.812 20.125-2.978 4.422-5.671 8.997-8.313 13.625l-1.142 1.99c-2.516 4.504-4.391 9.03-6.108 13.885l-.961 2.482c-2.735 7.153-4.573 14.36-6.226 21.83l-.788 3.456c-1.144 5.064-2.205 10.104-3.025 15.232h-2l-.113 1.95C296.099 345.526 285.95 369.931 268 387c-4.64 3.747-9.17 6.505-15 8 1.253-3.76 2.44-4.131 5.813-6.062l2.644-1.536C264 386 264 386 266.199 385.066c2.286-1.353 2.734-2.673 3.801-5.066l2.625-2.812C281.727 366.708 286.178 353.1 290 340l.724-2.45c1.682-5.905 2.984-11.841 4.173-17.865 5.564-28.197 12.79-55.85 31.103-78.685l1.633-2.129c4.178-5.157 9.135-8.919 14.5-12.793 2.834-1.968 2.834-1.968 5.047-4.094 7.308-5.142 16.127-6.67 24.82-7.859 1.093-.16 2.185-.322 3.311-.488 6.279-.913 12.566-1.756 18.857-2.575C429.095 206.506 464.523 201.333 498 190l2.074-.686c10.283-3.45 18.2-7.755 24.926-16.314"/><path fill="#484848" d="M195 463a202 202 0 0 1-.734 20.094l-.485 5.972-.262 3.168c-1.691 20.515-3.193 41.04-4.582 61.579-1.196 17.64-2.409 35.277-3.867 52.899l-.363 4.39-.18 2.168c-.39 4.808-.725 9.617-1.033 14.43-.224 3.473-.463 6.945-.702 10.417q-.165 2.459-.305 4.919C181.75 655.894 179.502 668.498 170 678c-2.888 2.206-5.866 4.161-9 6l-2-1 1.32-1.223c7.986-8.141 11.668-18.478 12.72-29.663l.236-2.317c1.114-11.23 1.931-22.49 2.783-33.742l.575-7.505q.678-8.847 1.349-17.694.822-10.815 1.652-21.63a27116 27116 0 0 0 4.487-59.272q.473-6.34.94-12.681c.796-10.777 1.737-21.533 2.938-32.273 5.875-2 5.875-2 7-2"/><path fill="#1c1c1c" d="M155 206c10.112 2.751 10.112 2.751 14.793 4.063 9.002 2.486 18.01 4.342 27.207 5.937l-1.758.691c-2.862 1.67-4.178 3.556-6.117 6.246l-2.379 3.27-1.317 1.827a541 541 0 0 1-4.706 6.353c-9.892 13.232-19.537 26.694-27.735 41.058L152 277h-1l.164-1.782q.42-4.609.836-9.218l.178-1.953c1.757-19.371 3.373-38.573 2.822-58.047"/><path fill="#4e4c4d" d="M587 636h1c-2.024 25.735-10.717 49.4-29 68l-2.645 2.719c-5.69 5.543-11.586 9.961-18.418 14.031l-2.238 1.342c-1.852 1.058-3.772 1.994-5.699 2.908l-3-1 1.512-1.371C540.796 710.962 550.359 697.059 558 682l1.484-2.918c3.703-7.737 7.673-16.809 8.82-25.353.842-5.877.842-5.877 3.336-8.364 2.083-1.44 4.19-2.67 6.423-3.865l4.41-2.531 1.976-1.08c1.545-.796 1.545-.796 2.551-1.889"/><path fill="#292929" d="M230 452q2.438-.04 4.875-.062l2.742-.036C240 452 240 452 242 453q.149 7.546.22 15.094.03 2.56.082 5.117c.282 14.12-.462 27.618-10.302 38.789-9.411 8.94-17.254 10.4-29.781 10.105L199 522c.832-5.76 1.843-9.796 6-14 3.024-1.939 6.217-3.535 9.479-5.035 4.588-2.167 7.742-4.641 10.521-8.965l1.167-1.787c4.073-7.494 3.507-15.983 3.583-24.276q.042-2.322.09-4.646c.073-3.764.123-7.527.16-11.291"/><path fill="#2d2d2d" d="M226 455c.55 32.006.55 32.006-6 40-2.574 1.354-4.656 2.274-7.375 3.125-6.812 2.239-11.812 4.672-15.5 11.188L196 512h-1c.74-16.71 2.434-33.351 4-50 5.41-1.831 10.826-3.595 16.313-5.187l3.55-1.043C222 455 222 455 226 455"/><path fill="#656667" d="M139 179h2l.297 1.758c1.18 6.164 3.238 10.245 7.258 15.133 15.433 22.524-1.07 80.573-4.138 106.411L144 306l-.263 2.276c-.69 6.331-.944 12.616-1.053 18.982l-.063 3.118q-.096 4.875-.184 9.749l-.13 6.656q-.16 8.11-.307 16.219h-2c-3.998-9.424-3.505-19.217-3.437-29.25l.006-2.772c.086-23.904 2.325-47.848 6.48-71.397 2.183-12.761 2.159-25.924 2.191-38.84.01-2.4.041-4.798.072-7.198q.01-2.322.016-4.645l.038-2.14c-.028-6.086-1.99-9.856-5.491-14.696-2.142-3.498-2.721-5.98-2.875-10.062z"/><path fill="#101111" d="m315 1-1.812 2.125c-5.478 7.2-6.354 14.083-5.533 22.916 1.387 7.882 7.793 13.662 13.357 18.924C324.554 48.59 327.267 52.749 330 57l1.938 2.875c2.274 6.69 2.153 13.64-.875 20.063-2.935 5.213-6.454 10.059-9.977 14.886-3.638 5.539-5.502 10.146-5.399 16.801l.012 3.29c.3 3.074 1.1 5.266 2.301 8.085-.375 2.313-.375 2.313-1 4-6.028-6.82-7.643-11.938-7.508-21.168 1.281-9.668 7.248-18.017 13.028-25.648 2.94-4.338 4.122-8.472 3.976-13.668-1.73-8.77-9.252-15.55-15.125-21.817-6.671-7.594-10.937-16.038-10.691-26.297.869-6.519 3.747-12.677 8.32-17.402 2.49-1.245 3.41-.777 6 0"/><path fill="#737271" d="M343 228v2c-1.469 1.41-1.469 1.41-3.5 3.063-24.814 21.275-34.49 54.781-39.5 85.937h-2l-.113 1.95C296.099 345.526 285.95 369.931 268 387c-4.64 3.747-9.17 6.505-15 8 1.253-3.76 2.44-4.131 5.813-6.062l2.644-1.536C264 386 264 386 266.199 385.066c2.286-1.353 2.734-2.673 3.801-5.066l2.625-2.812C281.727 366.708 286.178 353.1 290 340l.724-2.45c1.682-5.905 2.984-11.841 4.173-17.865C299.16 298.082 313.017 228 343 228"/><path fill="#5d5d5c" d="M191.938 448.438c10.019 1.395 19.957 2.196 30.062 2.562v2l-2.383.61q-5.372 1.38-10.742 2.765l-3.75.96-3.633.938-3.332.857c-3.177.83-3.177.83-6.264 1.994-2.941.89-4.714.993-7.732.622l-2.882-.332L178 461q-2.964-.332-5.93-.663c-2.84-.322-5.679-.666-8.517-1.012q-2.205-.265-4.41-.52a950 950 0 0 1-6.432-.77l-3.835-.457L146 457l-1-2 1.833-.519q4.146-1.176 8.292-2.356l2.883-.816 2.812-.801 2.751-.78c1.875-.562 3.72-1.223 5.546-1.923 7.466-2.084 15.292-.469 22.82.632"/><path fill="#272624" d="M230 270c4.824-.193 8.496.243 13 2v2h2c-.76 9.43-2.387 18.686-4 28l-3 1v2c-5.073.207-9.209-.275-14-2-1.232-2.464-1.167-4.19-1.187-6.937l-.043-2.653C223 291 223 291 225 288l3-2-1.562-1c-2.028-2.82-1.388-4.744-.86-8.062C226 275 226 275 227 272h2z"/><path fill="#111212" d="M404 29c-.985 2.651-1.97 4.953-3.54 7.316-2.569 4.721-2.266 9.465-1.46 14.684 2.29 5.291 6.223 9.282 10.063 13.5 4.74 5.24 9.015 10.617 9.687 17.875-.393 6.829-5.26 12.44-9.328 17.645-4.358 5.948-4.065 11.81-3.422 18.98a117 117 0 0 0 1 5h-3c-3.999-5.373-4.782-9.907-4.59-16.582 1.031-5.974 4.206-10.491 7.59-15.418 3.895-6.008 3.895-6.008 4-13-2.917-6.493-8.062-11.761-12.695-17.07-4.836-6.148-5.956-10.953-5.797-18.657.759-5.047 3.029-8.59 6.492-12.273 3-2 3-2 5-2"/><path fill="#141414" d="M229 52c-1.125 2.972-2.223 5.334-4 8-.79 5.767-.741 11.279 2.594 16.258 2.384 2.954 4.952 5.74 7.5 8.555 4.037 4.632 6.848 9.163 6.644 15.488-1.212 4.432-3.992 8.016-6.516 11.805-4.149 6.61-4.189 12.149-3.222 19.894-3-1-3-1-4.687-3.562-1.945-5.093-2.323-8.938-.293-13.961A158 158 0 0 1 231 107c2.38-4.268 3.884-7.088 3-12-1.731-2.891-3.844-5.417-6-8a642 642 0 0 1-3.75-4.687l-1.734-2.137C218.405 74.274 217.933 67.998 219 61c2.07-4.103 4.932-9 10-9"/><path fill="#676668" d="M139 179h2l.297 1.758c1.18 6.164 3.238 10.245 7.258 15.133 11.82 17.252 1.536 55.573-.555 75.109h-1l-2-8-2 1 .184-1.844c1.319-13.802 2.022-27.553 2.056-41.414.01-2.4.041-4.8.072-7.199q.01-2.322.016-4.645l.038-2.14c-.028-6.086-1.99-9.856-5.491-14.696-2.142-3.498-2.721-5.98-2.875-10.062z"/><path fill="#585654" d="M202 267c4.814-.094 9.287-.109 14 1h3a347 347 0 0 1-.75 6.375l-.422 3.586C217 281 217 281 214.922 282.414L213 283l-2-4-1.426 1.969-1.887 2.531-1.863 2.531L204 288h-3l-.77 1.715-1.042 2.223-1.02 2.214C197 296 197 296 194 297c-.533-6.259 1.182-10.451 4-16l-1-1c.09-1.858.246-3.712.438-5.562l.308-3.067L198 269h4z"/><path fill="#4d4a4a" d="M88 684c9.367 4.067 14.848 7.673 18.738 17.29q.765 1.947 1.517 3.898c3.587 8.726 9.969 15.567 16.39 22.28C127 730 127 730 129 733c-18.885-6.537-31.44-26.088-39.82-43.137C88 687 88 687 88 684"/><path fill="#2a2a28" d="m211 278 2 4h3c.965 4.244 1.159 6.251-1 10a256 256 0 0 0-2 7h-3v3l-12-1v-4l2-1 .309-2.137c.966-4.003 3.193-6.516 5.754-9.675l1.431-1.811A624 624 0 0 1 211 278"/><path fill="#dbdbda" d="M204 349c-.57 3.311-1.546 4.75-4 7-1.61 3.22-1.454 6.51-1 10 1.235 3.147 1.235 3.147 4 5 3.121.647 5.878.637 9 0 2.502-1.876 3.62-3.239 5-6 .52-5.472.52-5.472-1.5-10.312L214 353v-3c1.75.125 1.75.125 4 1 2.682 3.13 3.894 5.283 4.5 9.375-.706 5.12-2.108 9.511-6.078 13.02-4.138 2.637-7.624 3.303-12.422 2.605-3.917-2.109-6.676-4.21-9-8-.887-4.877-1.124-9.882 1.242-14.34C200.073 349 200.073 349 204 349"/><path fill="#6f6f70" d="M138 307h1c2.595 18.716 3.163 37.11 3 56h-2c-2.395-6.818-3.432-12.814-3.328-20.023l.006-2.754q.01-2.85.04-5.702c.032-2.91.042-5.818.048-8.728q.014-2.784.03-5.566l.014-2.627.029-2.45.02-2.142c.148-2.101.571-3.984 1.141-6.008"/><path fill="#c6c5c3" d="m178.375 262.75 3.523-.078c3.102.328 3.102.328 5.032 1.68 1.07 1.648 1.07 1.648.82 4.273C187 271 187 271 186 272c-2.121.152-4.249.222-6.375.25l-3.523.078C173 272 173 272 171.07 270.648 170 269 170 269 170.25 266.375c1.421-4.5 3.696-3.566 8.125-3.625"/><path fill="#e1e1e0" d="m252.938 325.813 3.84-.043C260 326 260 326 262 328c.25 2.5.25 2.5 0 5-2 2-2 2-5.187 2.082l-3.813-.27-3.812-.23L246 334c-2-3-2-3-1.687-5.125 1.527-4.166 4.58-3.042 8.625-3.062"/><path fill="#d4d4d4" d="m264.938 271.813 3.84-.043C272 272 272 272 274 274c-.375 3.625-.375 3.625-1 7-5.129.09-9.93-.069-15-1-1-1-1-1-1.125-4 .23-5.52 3.178-4.163 8.063-4.187"/><path fill="#d0d1d0" d="m172.188 317.918 3.812.27 3.813.23L183 319c2 3 2 3 1.688 5.125C184 326 184 326 183 327c-2.31.126-4.624.176-6.937.188l-3.84.042C169 327 169 327 167 325c-.25-2.5-.25-2.5 0-5 2-2 2-2 5.188-2.082"/><path fill="#7e7c7e" d="M139 179h2l.297 1.758c1.215 6.35 3.546 10.392 7.453 15.554 1.803 3.877 1.497 7.482 1.25 11.688h-2v23h-1l-.044-2.136a1478 1478 0 0 0-.268-9.739l-.069-3.36c-.311-9.616-1.54-17.442-7.537-25.105-1.813-2.782-2.02-5.405-2.082-8.66z"/><path fill="#e0e0df" d="M253 302c2.5.012 4.945.098 7.438.25l2.103.082c2.018.121 2.018.121 5.459.668 2 3 2 3 1.688 5.125C269 310 269 310 268 311c-5.702.526-10.61-.165-16-2-.043-2-.04-4 0-6z"/><path fill="#d8d7d4" d="m171.223 292.988 3.84.325 3.847.3C182 294 182 294 183 295c.04 2 .043 4 0 6-2.711 1.356-4.913 1.17-7.937 1.188l-3.215.042C169 302 169 302 166 300c-.312-2.5-.312-2.5 0-5 2-2 2-2 5.223-2.012"/><path fill="#5b5b5d" d="M143 292h2l-.168 1.822A802 802 0 0 0 142 340h-1c-2.181-28.152-2.181-28.152-3-40l2 2c1.489-1.489 1.293-2.934 1.5-5 .389-3.889.389-3.889 1.5-5"/><path fill="#484747" d="m319 135-8 1v1l-3.734.184c-9.104.457-18.189.964-27.266 1.816l-2-3c10.197-1.032 20.4-2.039 30.625-2.75l2.13-.172c3.738-.237 5.022-.227 8.245 1.922"/><path fill="#1f1e1f" d="M310 102h1l1 8 3-2 .148 2.012c.403 4.756 1.028 8.558 2.852 12.988-.375 2.313-.375 2.313-1 4-5.35-6.054-7.28-9.99-7.125-18.312l.055-3.801z"/><path fill="#706f6d" d="M343 228c0 2 0 2-1.61 3.621l-2.14 1.816-2.11 1.81A150 150 0 0 1 331 240l-2-1-.75 1.688c-1.466 2.712-3.28 4.948-5.25 7.312l-2-1c15.589-19 15.589-19 22-19"/><path fill="#656666" d="M140 340h2v23h-2a357 357 0 0 1-1.562-4.75l-.88-2.672c-.575-2.656-.45-4.048.442-6.578l1 1z"/><path fill="#606163" d="M150 246c-.964 16.708-.964 16.708-2 25h-1l-2-8-2 1v-6l4 2-1-13c2-1 2-1 4-1"/><path fill="#575757" d="M142 346h1c3.1 16.603 3.1 16.603 1 25-2.9-2.395-3.502-4.312-4-8h2l-.254-1.941c-.623-5.29-.77-9.83.254-15.059"/><path fill="#e4e5e5" d="M216 367h4c-.954 3.818-1.94 4.956-5.187 7.313-3.634 1.9-6.718 2.021-10.813 1.687l-1-2 2.336-.77 3.039-1.043 3.023-1.019c2.887-1.019 2.887-1.019 4.602-4.168"/><path fill="#ebeceb" d="M264 273q2.219-.04 4.438-.062l2.496-.036C273 273 273 273 274 274a177 177 0 0 1-1 7c-4.516.077-8.59.102-13-1v-2h11l-1-3-6-1z"/><path fill="#e4e2df" d="M204 349c-.403 2.34-.662 3.677-2.406 5.344-1.894 1.968-2.726 3.833-3.781 6.344l-1.043 2.449L196 365h-1c-.494-4.033-.834-7.539 1.23-11.156C200.25 349 200.25 349 204 349"/><path fill="#6d6c6a" d="m297 310 1 2h2l1-2-1 9h-2v6l-2-1-2 3c.515-5.853 1.454-11.33 3-17"/><path fill="#dad8d6" d="M230 270c4.824-.193 8.496.243 13 2l-2 3c-7.149.567-7.149.567-11-2z"/><path fill="#eae7e4" d="M202 267q2.125-.04 4.25-.062l2.39-.036c2.267.094 4.189.466 6.36 1.098l-1 3c-6.23 1.344-6.23 1.344-9.937-.312L202 269z"/><path fill="#e1e0de" d="m231 299.813 2.125-.043C235 300 235 300 237 302v3l-11-1-1-3c2.229-1.114 3.53-1.165 6-1.187"/><path fill="#e9e7e3" d="m198 269 4 1c.286 7.429.286 7.429-2 11l-3-1z"/><path fill="#e9e9ea" d="M177 320c2.875-.125 2.875-.125 6 0l2 2c-.536 3.536-.536 3.536-2 5-2.353.073-4.708.084-7.062.063l-3.91-.028L169 327v-2h13c-.669-3.113-.669-3.113-3.062-4.187z"/><path fill="#e4e3e0" d="m239 290 3 1-1 11h-3l-1-1c.086-1.996.086-1.996.375-4.437l.273-2.434C238 292 238 292 239 290"/><path fill="#d0cfcc" d="M209 345h2q.039 3.188.063 6.375l.035 3.586C211 358 211 358 210 360h-3q.21-3.47.438-6.937c.08-1.288.162-2.576.246-3.903C208 346 208 346 209 345"/><path fill="#eae8e2" d="M196 285h3c.367 7.333.367 7.333-1.375 10.5C196 297 196 297 194 297c-.178-4.548.002-7.88 2-12"/><path fill="#e6e3df" d="M198 297h10l1 4h-11z"/><path fill="#e4e1dc" d="m212 287 3 1-1 10h-4c-.286-7.429-.286-7.429 2-11"/><path fill="#dddad6" d="m227 272 3 1c.125 7.625.125 7.625-1 11l-4-1c.875-7.625.875-7.625 2-11"/><path fill="#e1dfdd" d="m225 288 3 1c-.06 1.46-.149 2.918-.25 4.375l-.14 2.46C227 298 227 298 224.952 299.29L223 300a280 280 0 0 1-.125-4.312l-.07-2.426C223 291 223 291 225 288"/><path fill="#353533" d="M254 305h12v4l-11-1z"/><path fill="#eae9e6" d="M215 271h2v10l-4 2a280 280 0 0 1-.125-4.312l-.07-2.426C213 274 213 274 215 271"/><path fill="#e8e8e8" d="M252 304h2l1 3 2.371.367 3.067.508 3.058.492L266 309l1 2c-5.527.194-9.756-.252-15-2z"/><path fill="#333332" d="M247 328c8.571-.143 8.571-.143 12 1v3l-12-1z"/><path fill="#5a5a5a" d="M353 226c-5.205 5.39-5.205 5.39-8 7-2.75-.312-2.75-.312-5-1 4.307-4.455 6.678-6.281 13-6"/><path fill="#eae8e6" d="M243 274h2c-.087 1.626-.195 3.25-.312 4.875l-.176 2.742C244 284 244 284 241 286c-1.602-4.004-.34-7.053 1-11z"/><path fill="#2d2d2b" d="m260 274 11 1v3h-11z"/><path fill="#7b7979" d="M296 323h1l-1 13h-3c-.316-5.26.334-8.446 3-13"/><path fill="#5a5a58" d="M169 296h11l1 3h-12z"/><path fill="#eceae9" d="M173 264q3.188-.079 6.375-.125l3.586-.07C186 264 186 264 188 266c-.25 2.563-.25 2.563-1 5l-2 1-1-5-11-2z"/><path fill="#575554" d="M173 266h11l1 3h-12z"/><path fill="#222324" d="M315 1c-1.926 2.44-3.8 4.8-6 7V6l-4 1c4.821-7.554 4.821-7.554 10-6"/><path fill="#6f6e6d" d="M179 464h5l1 4h-14v-1h8z"/><path fill="#6f7072" d="M145 262c1.278 3.834.911 7.13 0 11-1.562 2.5-1.562 2.5-3 4-.18-5.198-.026-9.113 2-14z"/><path fill="#565657" d="M148 257h1l-1 14h-1l-2-8-2 1v-6l4 2z"/><path fill="#4f4f4e" d="m170 321 12 1v3l-12-1z"/><path fill="#424141" d="M213 459c-2.035 2.035-3.234 2.638-5.875 3.625l-2.055.79C203 464 203 464 199 464l1-3c4.438-1.405 8.321-2.292 13-2"/><path fill="#edebe8" d="M169 294q3.219-.04 6.438-.062l3.62-.036C182 294 182 294 183 295c.04 1.666.043 3.334 0 5l-1.145-1.426c-2.44-2.07-4.4-2.28-7.542-2.762l-3.012-.48L169 295z"/><path fill="#d5d3d3" d="m260 327 2 1c.125 2.375.125 2.375 0 5-2 2-2 2-5.125 2.125L254 335l2-3h3z"/><path fill="#525253" d="M143 302c1.031 3.27.964 5.86.563 9.25l-.31 2.703L143 316c-2.4-4.246-2.311-7.177-2-12z"/><path fill="#68686b" d="M146 249h1v11l-3 1c-.286-8.571-.286-8.571 2-12"/><path fill="#474546" d="M212 451h10v2l-9 1z"/><path fill="#d8d9d8" d="m198 370 2.063.438c3.3.631 6.608 1.105 9.937 1.562v1c-7.347 2.327-7.347 2.327-10.5.75C198 372 198 372 198 370"/><path fill="#4a4a4a" d="M404 109h1l2 15h-3z"/><path fill="#656464" d="m154 454-1 3h-7l-1-2c3.196-1.065 5.657-1.074 9-1"/><path fill="#eeeceb" d="M209 351h1v9h-3c.875-7.875.875-7.875 2-9"/><path fill="#eaeae8" d="M201 349h3l-1 4-6 1c1.813-2.5 1.813-2.5 4-5"/><path fill="#1c1d1f" d="M404 29c-1.186 3.375-2.276 5.647-5 8l-1-5c3.75-3 3.75-3 6-3"/><path fill="#656566" d="m276 375 1 2c-2.167 2.275-4.456 4.158-7 6l-2-1z"/><path fill="#f0eeec" d="m171 268 13 2v1h-12z"/><path fill="#e4e1dd" d="M202 267h9c-2.222 2.222-4.085 2.926-7 4z"/><path fill="#c8c8c8" d="M167 321h2v3h10v1l-11 1z"/><path fill="#222223" d="m105 239 5 1c-4.75 4.875-4.75 4.875-7 6z"/><path fill="#d1d1cf" d="m253 302 7 1-1 2-7-1z"/><path fill="#b9baba" d="m271 276 1 2 2 1-1 2h-2v-2h-8v-1h8z"/></svg>