<svg xmlns="http://www.w3.org/2000/svg" width="420" height="470"><path fill="#fcfcfc" d="M0 0h420v470H0z"/><path fill="#98c9d6" d="M103 16c2.836 6.95 4.593 14.015 6.313 21.313l.919 3.853c2.307 9.703 4.49 19.433 6.625 29.175a963 963 0 0 0 5.67 24.304c.293 1.196.293 1.196.59 2.418l.52 2.097C124 101 124 101 124 104l2.117.81c5.645 2.33 11.023 5.261 16.445 8.065l1.965 1.016c21.245 11.015 41.127 23.746 60.465 37.84 2.364 1.494 4.298 2.523 7.008 3.269 2.531-1.017 2.531-1.017 4.922-2.918l2.83-2.036 2.998-2.233q3.127-2.252 6.258-4.497l3.102-2.245c9.643-6.91 19.743-13.085 30.015-19.008l2.62-1.53c4.756-2.728 9.51-5.125 14.564-7.256 10.246-4.003 10.246-4.003 17.984-11.353 1.811-4.895 2.098-9.931 2.432-15.102.49-5.018 1.834-9.824 3.087-14.697q.775-3.155 1.54-6.312l.805-3.31c.912-3.788 1.8-7.582 2.679-11.378l.468-2.019q1.128-4.87 2.248-9.742c1.286-5.555 2.599-11.102 4.03-16.622l.683-2.637C316 18 316 18 318 16c3.807-.52 5.728-.138 9.174 1.617C330 20 330 20 330.636 22.973l-.171 3.535c-.025.649-.05 1.298-.074 1.967-.095 2.178-.24 4.35-.391 6.525l-.142 2.335c-.357 5.853-.817 11.696-1.296 17.54l-.408 5.203-.4 5.04-.183 2.3c-.372 4.54-.829 9.062-1.355 13.585-.315 2.918-.462 5.813-.529 8.747l-.113 3.234c.671 11.404 6.535 21.88 11.676 31.829q1.015 1.993 2.027 3.989 1.968 3.879 3.954 7.75c17.733 34.57 15.357 59.474 6.32 96.937-4.176 17.606-6.14 34.795-6.051 52.886l.004 2.882c.063 17.028 1.651 33.111 5.496 49.743l.713 3.098c2.035 8.612 4.42 17.107 7.014 25.566C372.19 418.374 372.19 418.374 369 433c-2.153 2.702-4.841 3.73-8 5l-2.852 1.195c-18.322 6.823-38.381 9.939-57.794 11.598-18.039 1.583-35.644 4.866-53.378 8.426l-2.636.529q-2.454.494-4.909.996c-27.15 5.494-54.008 1.176-80.723-4.542-13.239-2.808-26.498-4.67-39.974-5.86C64.49 445.49 64.49 445.49 52 433c-.78-7.973.782-15.761 2.25-23.562l.691-3.756c3.157-16.889 7.369-33.418 12.313-49.87 2.71-9.159 4.744-18.358 6.496-27.75l.639-3.41c6.987-38.762.372-76.466-8.333-114.318C61.5 190.38 58.946 172.879 68 154l1.203-2.527a554 554 0 0 1 12.555-24.575c11.412-21.014 13.17-38.086 10.805-61.523q-.408-4.176-.81-8.352c-.064-.675-.13-1.35-.197-2.045-.912-9.53-1.683-19.093-1.931-28.665l-.113-2.045C89.477 22.3 89.477 22.3 90 19c4.22-3.643 7.71-3.269 13-3"/><path fill="#121313" d="M103 16c2.836 6.95 4.593 14.015 6.313 21.313l.919 3.853c2.307 9.703 4.49 19.433 6.625 29.175a963 963 0 0 0 5.67 24.304c.293 1.196.293 1.196.59 2.418l.52 2.097C124 101 124 101 124 104l2.117.81c5.645 2.33 11.023 5.261 16.445 8.065l1.965 1.016c21.245 11.015 41.127 23.746 60.465 37.84 2.364 1.494 4.298 2.523 7.008 3.269 2.531-1.017 2.531-1.017 4.922-2.918l2.83-2.036 2.998-2.233q3.127-2.252 6.258-4.497l3.102-2.245c9.643-6.91 19.743-13.085 30.015-19.008l2.62-1.53c4.756-2.728 9.51-5.125 14.564-7.256 10.246-4.003 10.246-4.003 17.984-11.353 1.811-4.895 2.098-9.931 2.432-15.102.49-5.018 1.834-9.824 3.087-14.697q.775-3.155 1.54-6.312l.805-3.31c.912-3.788 1.8-7.582 2.679-11.378l.468-2.019q1.128-4.87 2.248-9.742c1.286-5.555 2.599-11.102 4.03-16.622l.683-2.637C316 18 316 18 318 16c3.807-.52 5.728-.138 9.174 1.617C330 20 330 20 330.636 22.973l-.171 3.535c-.025.649-.05 1.298-.074 1.967-.095 2.178-.24 4.35-.391 6.525l-.142 2.335c-.357 5.853-.817 11.696-1.296 17.54l-.408 5.203-.4 5.04-.183 2.3c-.372 4.54-.829 9.062-1.355 13.585-.315 2.918-.462 5.813-.529 8.747l-.113 3.234c.671 11.404 6.535 21.88 11.676 31.829q1.015 1.993 2.027 3.989 1.968 3.879 3.954 7.75c17.733 34.57 15.357 59.474 6.32 96.937-4.176 17.606-6.14 34.795-6.051 52.886l.004 2.882c.063 17.028 1.651 33.111 5.496 49.743l.713 3.098c2.035 8.612 4.42 17.107 7.014 25.566C372.19 418.374 372.19 418.374 369 433c-2.153 2.702-4.841 3.73-8 5l-2.852 1.195c-18.322 6.823-38.381 9.939-57.794 11.598-18.039 1.583-35.644 4.866-53.378 8.426l-2.636.529q-2.454.494-4.909.996c-27.15 5.494-54.008 1.176-80.723-4.542-13.239-2.808-26.498-4.67-39.974-5.86C64.49 445.49 64.49 445.49 52 433c-.78-7.973.782-15.761 2.25-23.562l.691-3.756c3.157-16.889 7.369-33.418 12.313-49.87 2.71-9.159 4.744-18.358 6.496-27.75l.639-3.41c6.987-38.762.372-76.466-8.333-114.318C61.5 190.38 58.946 172.879 68 154l1.203-2.527a554 554 0 0 1 12.555-24.575c11.412-21.014 13.17-38.086 10.805-61.523q-.408-4.176-.81-8.352c-.064-.675-.13-1.35-.197-2.045-.912-9.53-1.683-19.093-1.931-28.665l-.113-2.045C89.477 22.3 89.477 22.3 90 19c4.22-3.643 7.71-3.269 13-3m-9 6c-.373 1.863-.373 1.863-.18 4.031l.12 2.594c.06.949.122 1.898.185 2.875l.16 3.03c.447 7.726 1.146 15.426 1.867 23.13 2.182 23.307 2.182 23.307 2.41 33.465.04.784.078 1.568.118 2.375.076 15.481-10.248 30.902-17.243 44.125C67.04 164.851 64.91 181.4 70.814 211.75l.791 4.098c1.226 6.315 2.48 12.62 3.83 18.91l.674 3.15q.61 2.82 1.243 5.638c3.122 14.398 4.003 28.705 3.899 43.392l-.01 2.386c-.052 11.322-.253 22.501-2.24 33.676l-.407 2.335c-2.732 15.303-6.432 30.414-10.829 45.32-3.366 11.424-5.946 22.914-8.228 34.6-.493 2.527-1.001 5.05-1.513 7.573-1.216 6.138-2.175 11.88-2.023 18.172 19.859 11.408 44.886 12.995 67.189 15.183 13.5 1.335 26.691 3.353 39.964 6.206 3.763.808 7.533 1.576 11.305 2.336q2.485.5 4.966 1.02c26.974 5.536 53.536 2.228 80.104-3.414 6.87-1.448 13.771-2.58 20.722-3.581l3.277-.476a496 496 0 0 1 15.703-1.97c11.312-1.231 22.385-2.862 33.52-5.241l3.424-.73c9.933-2.205 19.776-4.586 28.826-9.333a168 168 0 0 0-3.25-23.937l-.672-3.275c-2.83-13.624-5.87-27.124-10.015-40.413-2.496-8.023-4.489-16.112-6.313-24.312l-.746-3.337c-8.323-38.285-5.076-75.167 3.223-113.15 1.25-5.785 2.422-11.585 3.586-17.388l.626-3.071c1.49-7.41 2.687-14.728 2.873-22.304l.114-2.981c-1.147-10.321-5.488-19.741-10.051-28.957l-1.586-3.263c-3.653-7.464-7.527-14.794-11.47-22.107-3.514-6.627-6.083-13.349-8.319-20.505l-1-3c-.235-3.087-.19-6.182-.187-9.277l.002-2.82c.09-10.548 1.11-20.98 2.185-31.466 2.026-16.686 2.026-16.686 2-33.437-1.066-1.296-1.066-1.296-3.562-1.062L320 21l-.183 2.255a55491 55491 0 0 1-1.72 21.139q-.444 5.432-.885 10.865-.427 5.252-.856 10.504-.24 2.958-.48 5.917-.423 5.16-.876 10.32l-.24 2.735c-.803 8.233-3.227 13.424-9.565 18.683-4.307 3.104-9.078 5.347-13.82 7.707a3074 3074 0 0 0-6.79 3.48l-3.395 1.744c-16.63 8.605-32.121 18.746-47.617 29.214a2913 2913 0 0 1-7.792 5.239 948 948 0 0 0-5.042 3.422l-2.919 1.944-2.484 1.676c-2.728 1.35-4.329 1.547-7.336 1.156-1.843-.911-1.843-.911-3.574-2.203l-1.994-1.453-2.12-1.594a2299 2299 0 0 0-4.582-3.324l-2.373-1.728c-12.613-9.085-25.8-17.114-39.357-24.698l-2.558-1.435c-8.285-4.636-16.574-9.195-25.13-13.315-8.03-3.973-16.117-8.44-19.312-17.25-1.728-8.006-2.46-16.11-3.035-24.266l-.253-3.388a4604 4604 0 0 1-.775-10.596q-.389-5.32-.784-10.639-.244-3.292-.481-6.584C101.265 30.99 100.747 25.502 100 20c-3.185-.277-3.185-.277-6 2"/><path fill="#0f1010" d="M103 16c2.836 6.95 4.593 14.015 6.313 21.313l.919 3.853c2.307 9.703 4.49 19.433 6.625 29.175a963 963 0 0 0 5.67 24.304c.293 1.196.293 1.196.59 2.418l.52 2.097C124 101 124 101 124 104l2.188.813c2.827 1.193 5.313 2.402 7.812 4.187v3c-9.751-1.23-18.355-6.88-25-14-5.697-8.166-5.362-20.619-6.07-30.266l-.26-3.388q-.27-3.514-.53-7.029c-.265-3.572-.54-7.144-.816-10.715l-.52-6.868-.245-3.207c-.407-5.528-.644-10.985-.559-16.527l-5 2a578 578 0 0 0 2.355 37.859c1.975 20.94 1.975 20.94 2.207 31.266.04.784.078 1.568.118 2.375.076 15.481-10.248 30.902-17.243 44.125-14.028 26.526-16.72 42.791-10.95 72.447q.594 3.05 1.181 6.1c1.16 5.988 2.343 11.97 3.648 17.93l.581 2.652q.524 2.36 1.073 4.713c1.445 6.471 1.445 6.471.03 9.533q-1.471 1.529-3 3l-.364-1.958c-2.607-13.962-5.394-27.86-8.58-41.703C61.504 190.382 58.945 172.882 68 154l1.203-2.527a554 554 0 0 1 12.555-24.575c11.412-21.014 13.17-38.086 10.805-61.523q-.408-4.176-.81-8.352c-.064-.675-.13-1.35-.197-2.045-.912-9.53-1.683-19.093-1.931-28.665l-.113-2.045C89.477 22.3 89.477 22.3 90 19c4.22-3.643 7.71-3.269 13-3"/><path fill="#101112" d="M78 250c2.797 2.797 2.706 5.733 3.11 9.504l.254 2.292c.86 8.379.945 16.726.886 25.142l-.01 2.386c-.052 11.322-.253 22.501-2.24 33.676l-.407 2.335c-2.732 15.303-6.43 30.413-10.828 45.32C62.937 390.44 59.38 410.674 56 431c13.027 5.545 27.063 8.781 41 11l1 5c-6.806-.516-13.265-1.557-19.875-3.25l-2.625-.666C58.134 438.532 58.134 438.532 52 433c-1.735-7.4.876-16.263 2.25-23.562l.691-3.756c3.157-16.889 7.369-33.418 12.313-49.87 2.71-9.159 4.744-18.358 6.496-27.75l.639-3.41c2.146-11.907 2.776-23.434 2.736-35.527v-2.04c-.004-9.69-.226-19.35-.945-29.016-.133-2.02-.167-4.045-.18-6.069z"/><path fill="#0f1010" d="M134 109a929 929 0 0 1 16 8l2.286 1.168c18.446 9.538 35.703 21.222 52.49 33.413 2.36 1.506 4.557 2.57 7.224 3.419 2.286-.766 2.286-.766 4-2l2 4c-3.547 2.432-5.7 3.647-10 3-2.742-1.507-5.19-3.373-7.687-5.25a2299 2299 0 0 0-4.583-3.324l-2.373-1.728c-16.83-12.123-34.755-22.269-52.948-32.17L138 116.214c-.701-.38-1.403-.76-2.125-1.153-1.67-.946-3.278-1.998-4.875-3.062h3z"/><path fill="#b1d3de" d="M100 20c1.254 11.411 2.204 22.764 2.25 34.25l.027 2.866-.011 2.65-.007 2.337C102 64 102 64 100 66a89 89 0 0 0-2 4c-1.182-3.919-1.423-7.926-1.754-11.984l-.197-2.347q-.206-2.456-.406-4.912-.307-3.727-.625-7.452l-.397-4.79-.19-2.222C94.264 34.196 94.124 32.1 94 30l-.144-2.238c-.082-2.17-.082-2.17.144-5.762 3-2 3-2 6-2"/><path fill="#79a1b0" d="M106 48c2.049 3.073 2.583 4.966 3.332 8.531l.724 3.371.757 3.598c2.012 9.353 4.157 18.63 6.714 27.85.818 2.979 1.473 5.543 1.473 8.65-3.826-1.503-5.7-3.628-8-7-1.745-4.45-2.419-8.592-2.852-13.34l-.193-2.076a934 934 0 0 1-.388-4.324c-.191-2.188-.394-4.376-.598-6.563-.57-6.25-1.045-12.415-.969-18.697"/><path fill="#85afbf" d="M312 53h1c.45 8.532-.266 16.843-1.25 25.313l-.331 3.107c-.733 5.92-1.64 11.764-5.419 16.58-2.134 1.212-2.134 1.212-4 2 .64-8.058 2.482-15.67 4.438-23.5q.937-3.796 1.87-7.594l.887-3.59A502 502 0 0 0 312 53"/><path fill="#91b7c5" d="M312 53h1c.266 8.902.545 18.391-2 27-2.052 1.175-2.052 1.175-4 2-.284-6.976.677-12.845 2.5-19.562l.723-2.768A794 794 0 0 1 312 53"/><path fill="#9dbeca" d="M320 21a100 100 0 0 1 5 0c1 1 1 1 1.098 3.723l-.036 3.34-.027 3.347L326 34h-2v-6l-4 1z"/><path fill="#7dafbe" d="m164 448.813 2.563.019c2.27.156 4.257.537 6.437 1.168v2h2v2c-6.746-.664-13.344-1.719-20-3 3.128-1.832 5.39-2.248 9-2.187"/><path fill="#95b9c2" d="M81 305h2q.118 3.938.188 7.875l.076 2.262c.029 2.168.029 2.168-.264 5.863l-3 2z"/><path fill="#9bbbc3" d="M64 387h1c.25 7.625.25 7.625-2 11-1.263-4.293-.63-6.878 1-11"/><path fill="#c2c2c3" d="M420 465v5h-6c4.875-5 4.875-5 6-5"/><path fill="#aecdd5" d="m315 90 2 2-3 6h-2c1.875-6.875 1.875-6.875 3-8"/></svg>