<svg xmlns="http://www.w3.org/2000/svg" width="805" height="822"><path fill="#111112" d="M0 0h805v822H0z"/><path fill="#f9fafa" d="M0 0h805v822H0zm332.311 20.827-2.48.21c-7.316.752-14.242 2.7-20.565 6.53l-2.454 1.455-2.562 1.54c-16.48 9.63-33.584 17.175-51.348 24.114C210.467 71.287 168.41 90.76 148.91 134.44c-2.67 6.681-5.004 13.471-7.194 20.323a377 377 0 0 1-1.6 4.872c-3.053 9.404-5.122 18.963-7.153 28.63-.588 2.796-1.185 5.59-1.783 8.384-2.579 12.105-4.965 24.147-6.18 36.475-.488 4.674-.983 9.28-2 13.875-.974 4.426-1.469 8.873-1.937 13.375a360 360 0 0 1-2.438 18.688 466 466 0 0 0-2.566 18.84l-.245 2.113-.499 4.307c-1.423 12.26-3.17 24.325-5.824 36.387-.862 4.02-1.609 8.062-2.366 12.103a1923 1923 0 0 1-3.57 18.492c-6.043 28.459-6.043 28.459-8.868 57.32-.465 9.781-3.915 18.966-6.754 28.265-4.783 15.943-7.934 31.973-10.285 48.424l-.57 3.944-.487 3.504C76 515.992 75.079 518.903 74 522q-.631 2.48-1.184 4.977c-.205.919-.41 1.838-.623 2.785l-.63 2.863c-1.247 5.623-2.512 11.236-3.921 16.82a2910 2910 0 0 0-4.739 19.22q-1.546 6.33-3.097 12.657-1.344 5.49-2.682 10.982c-3.458 14.197-6.914 28.374-11.024 42.4-2.79 9.55-5.157 19.2-7.538 28.859l-1.437 5.79q-1.417 5.702-2.828 11.407a10963 10963 0 0 1-5.234 21.053l-.782 3.148a933 933 0 0 1-4.117 15.926c-2.428 9.062-4.777 18.144-7.11 27.232q-.747 2.903-1.499 5.805-1.1 4.255-2.192 8.514l-.675 2.598c-1.186 4.647-2.11 9.201-2.688 13.964 22.554 17.733 53.254 25.373 81 30l3.086.605c4.202.57 8.365.62 12.602.645l2.587.063 2.487.015 2.248.028c2.672-.478 3.43-1.133 4.99-3.356.85-2.981.85-2.981 1.379-6.469a252 252 0 0 1 3.96-18l.637-2.476q.977-3.779 1.962-7.555l1.302-5.05a2603 2603 0 0 1 12.848-47.82c1.557-5.615 3.076-11.23 4.455-16.892 1.327-5.378 2.962-10.608 4.707-15.863 2.689-8.25 5.052-16.545 7.25-24.937 2.777-10.555 6.025-20.854 9.564-31.173 4.327-12.785 8.447-25.658 12.061-38.663 1.523-5.398 3.203-10.749 4.875-16.102-1.23 9.66-2.597 19.3-4 28.938l-.503 3.516-.497 3.386-.437 3.011c-.548 3.065-1.299 6.042-2.072 9.057-.823 3.508-1.302 7.054-1.78 10.623l-.328 2.407q-.34 2.511-.67 5.022c-.334 2.507-.683 5.012-1.033 7.517-2.199 15.23-2.199 15.23-1.68 30.523 2.516 3.223 5.293 4.384 9 6q2.547 1.438 5.083 2.893c18.73 10.547 39.465 15.91 60.23 20.794l3.829.903c6.644 1.534 13.271 2.884 20.006 3.952 2.838.456 5.66.964 8.485 1.493l2.754.514q2.75.516 5.5 1.039c10.899 2.023 21.466 2.594 32.55 2.6l3.776.037c13.85.52 13.85.52 25.787-5.225.805-2.383.805-2.383 1-5l.265-2.45.2-2.593.236-3.014.236-3.13.225-2.885q.423-5.464.838-10.928l2-26 100 1 2 30c.142 13.388.142 13.388 4.344 26.721 6.035 4.66 15.486 3.625 22.656 3.591l3.735-.012c17.507-.212 34.5-2.96 51.628-6.398 3.824-.762 7.648-1.37 11.512-1.902 6.392-.951 12.519-2.57 18.731-4.33 2.823-.79 5.653-1.55 8.484-2.31 15.785-4.245 15.785-4.245 30.91-10.36q2.306-1.05 4.613-2.098c4.13-1.889 8.22-3.846 12.29-5.863a354 354 0 0 1 5.316-2.566c2.427-1.325 3.978-2.392 5.781-4.473 1.867-9.424-1.029-20.863-2.25-30.312l-.343-2.706c-1.485-11.686-3.184-23.28-5.442-34.845-1.17-6.039-2.059-12.117-2.965-18.2a659 659 0 0 0-5.05-29.046c-1.427-7.277-2.686-14.584-3.95-21.891l.516 1.974c5.49 20.928 11.775 41.558 18.331 62.172 2.09 6.594 4.069 13.219 6.038 19.85a350 350 0 0 0 4.303 13.504 118 118 0 0 1 3.183 11.09c1.543 6.264 3.478 12.35 5.504 18.472 2.639 8.11 5.097 16.212 7.189 24.479 1.841 7.241 3.919 14.408 5.999 21.584 2.423 8.387 4.73 16.76 6.643 25.279a196 196 0 0 0 3.231 12.346c1.953 6.658 3.55 13.375 5.13 20.128a696 696 0 0 0 4.62 18.497l.614 2.321a836 836 0 0 0 1.154 4.291q.545 2.013 1.063 4.034c1.022 3.871 1.022 3.871 3.482 6.979 8.074.845 16.277-.313 24.25-1.562l3.395-.533C742.646 804.06 778.838 796.162 796 779c.566-6.617-.889-12.183-2.75-18.5-2.384-8.295-4.567-16.625-6.634-25.004-2.053-8.314-4.127-16.622-6.197-24.931q-.856-3.435-1.707-6.87c-2.828-11.393-5.68-22.768-8.876-34.064-2.709-9.632-5.059-19.357-7.461-29.068q-1.589-6.404-3.184-12.805l-.808-3.247q-2.602-10.428-5.293-20.831l-.704-2.724-1.388-5.367a1671 1671 0 0 1-12.007-49.505l-.514-2.275-.998-4.416c-1.123-4.94-2.348-9.85-3.608-14.756a172 172 0 0 1-3.334-16.393c-1.193-7.208-2.777-14.347-4.287-21.494l-.533-2.528c-4.872-23.32-4.872-23.32-11.322-46.234-1.521-5.005-2.036-9.85-2.395-15.05-1.207-14.471-4.083-28.401-7.093-42.59-1.674-7.99-3.085-16.003-4.385-24.06a978 978 0 0 0-3.429-19.824 705 705 0 0 1-5.798-37.19A615 615 0 0 0 690 290a2422 2422 0 0 1-5.127-37.781c-1.056-8.233-2.161-16.454-3.436-24.656l-.347-2.275c-.536-3.368-1.17-6.585-2.055-9.886-.99-3.771-1.463-7.533-1.933-11.402-1.04-8.15-2.759-16.03-4.727-24l-.529-2.16C665.748 153.06 657.723 128.442 642 108l-1.512-2.031c-19.597-24.708-55.07-37.538-83.573-48.749-3.048-1.276-5.967-2.73-8.915-4.22q-2.956-1.16-5.937-2.25c-10.357-3.935-20.285-8.672-29.965-14.047l-2-1.104a688 688 0 0 1-8.043-4.494C492.109 25.452 483.4 22.423 472 21l-3.508-.52c-5.355-.664-10.694-.628-16.083-.625l-3.448-.01q-5.627-.013-11.254-.013l-7.886-.01q-8.27-.009-16.54-.007-9.476-.001-18.953-.026-8.196-.019-16.394-.018-4.868.001-9.735-.013c-11.991-.033-23.935.006-35.888 1.069"/><path fill="#a59bb3" d="m343.313 45.741 4.072-.01c3.639-.01 7.277-.006 10.916 0 3.846.005 7.692 0 11.538-.002q9.69-.005 19.38.01 11.118.015 22.234-.003 9.624-.014 19.248-.006 5.712.007 11.425-.003c16.39-.025 32.587.255 48.874 2.273q.73 2.409 1.458 4.819l.82 2.71c1.952 6.677 1.883 13.184 1.89 20.088l.01 3.424q.007 3.588.007 7.177c.002 3.61.02 7.22.04 10.829.03 12.181-.314 23.918-2.225 35.953q-.508 3.812-1 7.625-.499 3.688-1 7.375l-.5 3.77c-.847 6.21-1.878 12.179-3.5 18.23q-.476 2.745-.875 5.5c-.756 4.727-1.777 9.322-2.957 13.96l-.533 2.108q-.548 2.163-1.098 4.324-1.222 4.807-2.432 9.616l-.946 3.756a2004 2004 0 0 0-9.9 41.078C466.97 255.944 465.605 261.48 464 267a711 711 0 0 0-2.437 10.125l-.62 2.61c-.892 3.769-1.778 7.54-2.635 11.317a510 510 0 0 1-4.175 17.1c-7.425 28.509-11.11 57.336-12.923 86.725a425 425 0 0 1-.769 9.482c-3.542 41.492-1.643 83.284 1.353 124.741.33 4.65.63 9.303.933 13.955 1.461 22.14 3.484 44.196 5.787 66.263.7 6.722 1.376 13.446 2.037 20.171q.29 2.912.586 5.822l.347 3.533.304 3.037c.251 3.698.212 7.412.212 11.119l-97-1c0-13.141.13-25.485 1.6-38.435.28-2.488.542-4.977.802-7.467q.262-2.42.528-4.84l.234-2.21c.522-4.526 1.578-8.68 2.836-13.048.338-2.753.338-2.753.379-5.434l.103-2.966.08-3.038q.091-2.997.192-5.996l.072-2.658c.13-2.186.369-4.367.658-6.538.687-5.268.834-10.545 1.016-15.85l.123-3.303q.192-5.202.377-10.404.186-5.176.377-10.351.12-3.21.23-6.419c.19-5.109.474-10.186.912-15.28.616-7.7.663-15.391.684-23.11l.021-4.698c.02-5.006.024-10.012.026-15.017l.002-2.58c.433-60.176.433-60.176-9.252-119.358q-.476-2.681-.875-5.375c-.833-5.168-1.866-10.267-3-15.375l-.453-2.052c-1.543-6.859-3.277-13.67-4.991-20.488-1.41-5.61-2.81-11.223-4.212-16.835l-2.96-11.838-.504-2.017-2.017-8.067-3.409-13.638a7170 7170 0 0 0-3.868-15.432c-1.676-6.649-3.293-13.299-4.711-20.008-1.113-5.166-2.359-10.203-3.937-15.25C314.295 160.203 311.503 131.46 311 104l-.04-1.98c-.367-18.241-.47-36.028 3.04-54.02 9.842-1.518 19.34-2.292 29.313-2.259"/><path fill="#c2b8d1" d="m275 54-.484 3.836c-.816 8.243-.759 16.514-.766 24.789l-.004 2.655c.007 22 1.464 43.94 5.823 65.544.44 2.222.856 4.448 1.265 6.676 2.337 12.665 5.045 25.221 7.948 37.768a3798 3798 0 0 1 2.152 9.377c2.246 9.786 4.569 19.533 7.212 29.22 1.188 4.362 2.275 8.746 3.354 13.135 1.412 5.708 2.87 11.395 4.438 17.063 2.207 8.167 3.99 16.425 5.78 24.693A513 513 0 0 0 316 306.88c1.986 7.816 3.578 15.683 5 23.621l.383 2.122a649 649 0 0 1 4.867 31.503l.457 3.447c2.976 24.439 3.673 49.039 3.61 73.632q-.007 3.222-.006 6.444c-.02 29.02-.07 58.6-4.311 87.352a334 334 0 0 0-.24 5.548c-.336 9.91-1.386 19.73-2.51 29.577l-.533 4.732q-.709 6.286-1.425 12.573-.58 5.101-1.158 10.202l-1.165 10.272-.881 7.766-.295 2.598-.59 5.2q-.749 6.6-1.502 13.198-.75 6.569-1.492 13.138-.277 2.447-.559 4.895c-1.159 10.092-2.074 20.157-2.65 30.301-17.495.71-34.483-2.724-51.5-6.437l-2.024-.44a358 358 0 0 1-24.35-6.238c-2.59-.733-5.154-1.37-7.786-1.924-5.352-1.13-10.55-2.735-15.778-4.336l-2.947-.883c-9.273-2.825-18.009-6.28-26.615-10.742.451-15.492 1.837-30.57 4.973-45.762 1.466-7.212 2.462-14.5 3.527-21.781 1.399-9.344 1.399-9.344 2.512-13.508 1.403-5.256 2.044-10.632 2.8-16.011 1.421-9.838 2.906-19.663 4.487-29.476q.476-2.964.95-5.929c.968-5.986 2.007-11.938 3.229-17.877 1.153-5.862 2.101-11.763 3.084-17.656l.67-3.945c1.07-6.398 2.039-12.722 2.44-19.2C209 461 209 461 211 459c1.455 7.477 2.323 14.919 3 22.5.91 10.083 2.129 19.762 5 29.5-.248-10.421-1.108-20.534-2.875-30.812-3.475-20.433-5.1-41.045-6.336-61.72a394 394 0 0 0-1.928-21.573c-2.082-18.168-2.288-36.184-2.184-54.452.014-3.17.009-6.34.004-9.51-.026-21.8.063-43.853 2.878-65.507.347-2.695.56-5.217.539-7.926l-.01-2.246-.025-2.254-.014-2.348q-.02-2.826-.049-5.652l-1 8h-2l-.288-1.806c-3.143-19.597-6.314-39.279-11.685-58.409-1.483-5.466-2.752-10.98-4.013-16.5-3.562-15.31-8.194-30.23-13.264-45.097q-1.222-3.592-2.436-7.187-.745-2.206-1.5-4.407c-2.51-7.423-2.51-7.423-2.814-10.594 10.783-16.338 33.104-26.657 50-35.25l2.265-1.16c3.555-1.757 5.7-2.59 9.735-2.59v-2c6.34-2.658 12.687-5.296 19.082-7.82 2.404-.972 4.793-1.97 7.18-2.985l2.3-.969q2.279-.962 4.55-1.94l2.13-.895 1.902-.812C271 54 271 54 275 54"/><path fill="#c3b9d2" d="M532 55c3.507.518 6.688 1.1 9.953 2.488l2.129.893 2.168.931q2.133.902 4.266 1.801l2.218.942c2.292.956 4.598 1.862 6.91 2.765 6.706 2.673 13.252 5.696 19.793 8.743l1.997.929C597.242 81.884 612.446 89.892 626 101l2.691 2.16c6.734 5.638 6.734 5.638 7.309 10.84-.586 2.45-.586 2.45-1.59 5.043l-1.116 2.964-1.231 3.18c-7.077 18.973-12.974 38.157-17.4 57.917-.73 3.185-1.5 6.359-2.276 9.533-4.927 20.318-8.755 40.78-12.387 61.363h-2l-.184-2.738-.254-3.575c-.08-1.171-.162-2.343-.246-3.55-.203-3.163-.203-3.163-1.316-6.137-.172 9.227.29 18.154 1.375 27.313 5.093 46.902 4.826 93.456.142 140.376a802 802 0 0 0-1.31 14.8c-.06.74-.12 1.48-.18 2.243-.06.729-.118 1.457-.178 2.207-1.9 23.613-4.255 47.274-7.986 70.674-.753 4.857-.974 9.47-.863 14.387 2.693-12.237 4.692-24.388 5.96-36.86l.33-3.081.271-2.74C594 465 594 465 596 462c2.221 2.221 1.825 7.276 2.188 10.375 1.26 10.179 2.869 20.273 4.625 30.375l.386 2.23q1.192 6.853 2.395 13.705 1.81 10.311 3.593 20.628l.384 2.215c1.733 10.03 3.312 20.068 4.58 30.169.407 3.23.816 6.204 1.849 9.303.176 1.914.318 3.831.438 5.75.358 4.695 1.236 8.727 2.562 13.25.554 3.499 1.026 7.005 1.5 10.516.413 2.88.905 5.7 1.5 8.547 2.164 10.36 4.082 21.09 4.023 31.703l-.01 2.415L626 655q-7.193 2.435-14.392 4.852-2.436.819-4.87 1.644A545 545 0 0 1 572 672l-3.584.964c-13.068 3.47-26.167 6.529-39.479 8.911l-3.437.615c-10.19 1.75-20.157 2.712-30.5 2.51l-.228-2.693c-1.445-16.98-2.972-33.937-4.918-50.868l-.415-3.617q-.44-3.833-.882-7.664c-2.544-22.122-4.77-44.26-6.74-66.441q-.442-4.978-.895-9.955c-2.941-32.296-5.281-64.416-5.183-96.863.012-3.775.005-7.55-.007-11.325-.067-26.302.974-52.377 4.818-78.44.396-2.693.775-5.388 1.151-8.083 1.389-9.79 3.086-19.41 5.299-29.051q.575-2.67 1.14-5.344c4.98-23.204 10.139-46.442 16.41-69.336 4.257-15.554 8.079-31.158 11.665-46.878a4630 4630 0 0 1 3.097-13.48c.719-3.094 1.453-6.184 2.188-9.274 2.699-11.737 4.708-23.578 6.498-35.481.484-3.175.984-6.154 2.002-9.207.204-2.649.372-5.285.5-7.937.368-7.576.368-7.576 1.01-9.95.607-2.618.61-5.02.604-7.708v-3.396l-.016-3.65-.005-3.75q-.007-4.92-.024-9.843-.014-5.028-.02-10.055Q532.032 64.856 532 55"/><path fill="#c1b7d0" d="M167 115h2q2.064 5.862 4.108 11.731.693 1.988 1.393 3.974c2.652 7.529 5.08 15.013 6.83 22.816.644 2.388 1.554 4.283 2.669 6.479q.658 2.264 1.184 4.563l.617 2.644.637 2.793q.668 2.88 1.34 5.758l.643 2.778a368 368 0 0 0 2.079 8.339c5.075 20.13 9.021 40.607 13.065 60.966.34 1.686.7 3.369 1.068 5.05 2.871 13.765 1.045 27.767-.098 41.644l-.266 3.28a371 371 0 0 1-.552 5.989c-1.004 10.743-.903 21.514-.902 32.295-.002 3.431-.02 6.862-.04 10.294-.031 12.665.534 25.04 2.007 37.617.45 4.11.627 8.234.78 12.365q.091 2.293.192 4.586l.072 1.931c.153 2.248.153 2.248.679 4.999.832 5.226.68 10.452.683 15.734l.037 3.313c.03 17.459-2.61 34.552-5.725 51.687l-.934 5.254Q199.308 490.944 198 498l-.528 2.857c-1.379 7.162-3.107 14.249-4.821 21.337q-.782 3.254-1.553 6.51C185.67 551.328 185.67 551.328 183 554a100 100 0 0 0-.828 4.254c-1.224 6.358-3.05 12.49-4.922 18.683l-1.071 3.576c-2.126 7.07-4.281 14.13-6.492 21.174l-.696 2.225a192 192 0 0 1-3.471 10.045c-3.17 8.358-5.647 16.866-8.02 25.48-5.349 19.351-5.349 19.351-8.437 28.313-4.148 12.348-7.366 24.993-10.724 37.574q-1.82 6.819-3.648 13.637l-.716 2.675a3919 3919 0 0 1-6.115 22.55c-1.357 4.951-2.68 9.91-3.985 14.876A299 299 0 0 1 119.813 773c-1.372 4.36-2.39 8.451-2.813 13h-2v3c-14.193.861-28.264-1.972-41.559-6.766-3.106-1.114-6.202-2.034-9.379-2.922C49.606 774.93 35.7 768.309 22 762c-.274-6.338.67-11.623 2.344-17.719l.741-2.796c.796-2.998 1.606-5.991 2.415-8.985q1.252-4.698 2.496-9.4l1.666-6.267c2.28-8.57 4.46-17.161 6.588-25.77a3564 3564 0 0 1 7.813-30.938l.885-3.449a1456 1456 0 0 1 4.593-17.362c4.176-15.379 8.158-30.799 12.011-46.262q1.417-5.68 2.843-11.357c3.228-12.907 6.38-25.83 9.41-38.785l.857-3.656c2.976-12.81 5.495-25.703 7.986-38.615q.984-5.07 1.977-10.139l.588-3.093c1.022-5.216 2.31-10.115 4.083-15.121.78-2.535 1.239-5.026 1.673-7.641.813-4.837 2.1-9.362 3.594-14.027 3.755-11.75 5.422-22.78 6.229-35.038 1.067-13.23 4.07-26.377 6.593-39.389a4330 4330 0 0 0 3.677-19.378l.396-2.102c1.746-9.29 3.418-18.586 4.901-27.922.477-2.822 1.012-5.6 1.598-8.398 1.292-6.381 2.134-12.813 2.98-19.266l.526-3.95a835 835 0 0 0 3.41-30.335c.66-6.643 1.689-13.152 2.965-19.7 1.288-6.645 2.273-13.323 3.239-20.021C146.009 135.99 146.009 135.99 167 115M638 115c19.888 18.29 28.477 60.124 31.508 85.95.408 3.07.408 3.07 1.484 5.968 1.171 3.58 1.595 6.964 2.008 10.707a297 297 0 0 0 2.434 16.91c.909 5.562 1.665 11.146 2.425 16.73.578 4.154 1.229 8.249 2.118 12.348 1.339 6.497 1.955 13.083 2.655 19.672 1.637 15.326 3.682 30.534 6.368 45.715l.386 2.182c1.01 5.636 2.111 11.254 3.213 16.873q.673 3.437 1.343 6.875.667 3.426 1.345 6.85c1.058 5.428 1.945 10.792 2.489 16.295.31 2.664.93 5.205 1.599 7.8 3.514 14.77 5.2 29.953 7.18 44.986 1.171 8.738 2.494 16.899 5.727 25.111 1.278 3.608 1.938 7.339 2.655 11.09 1.101 5.7 2.41 11.282 3.958 16.88 2.206 8.055 3.8 16.2 5.369 24.4 3.432 17.878 7.453 35.55 11.878 53.205.96 3.864 1.878 7.736 2.783 11.613 2.319 9.936 4.862 19.808 7.435 29.682a2752 2752 0 0 1 7.14 28.193l.947 3.81 1.452 5.84c5.099 20.517 10.264 41.005 15.87 61.39a721 721 0 0 1 7.345 29.047c1.004 4.34 2.092 8.57 3.484 12.804 1.748 5.608 2.11 11.232 2.402 17.074-20.072 8.891-40.014 16.558-61 23l-2.152.666C711.99 787.692 702.35 790.068 692 790l-.607-2.37c-3.827-14.912-7.682-29.816-11.643-44.692l-.959-3.61a911 911 0 0 0-4.9-17.668c-1.446-5.028-2.758-10.053-3.891-15.16-2.8-12.633-2.8-12.633-6.972-24.842-1.043-2.698-1.748-5.324-2.41-8.138-1.628-6.675-3.528-13.25-5.493-19.832l-1.067-3.59c-2.195-7.337-4.49-14.619-6.968-21.864-1.499-4.446-2.851-8.934-4.195-13.43-.848-2.783-.848-2.783-1.926-5.331-1.026-2.619-1.662-5.169-2.282-7.91-1.082-4.459-2.402-8.7-4-13-2.47-6.724-4.466-13.529-6.388-20.427-1.193-4.279-2.406-8.54-3.768-12.769-3.852-12.042-6.558-24.22-9.083-36.595l-.835-4.085-.407-1.998a262 262 0 0 0-2.85-12.251C610.293 496.3 609.5 492.249 609 488c-1.303-9.72-3.778-18.81-7.133-28.016-2.303-7.927-2.023-16.044-1.997-24.228q.005-3.08-.007-6.16c-.003-6.608.2-13.112.887-19.685.605-7.055.63-14.163.802-21.24q.08-3.138.167-6.276l.092-3.724c.189-3.671.189-3.671.694-7.434.681-5.133.676-10.253.698-15.425l.02-3.272c.018-3.513.024-7.027.027-10.54l.007-3.629c.014-18.531-.723-36.866-2.4-55.318q-.451-5.024-.857-10.053l-.212-2.609c-.33-8.085 1.58-16.095 3.093-23.996.495-2.585.976-5.172 1.455-7.76l.937-4.99.433-2.315c.87-4.526 1.996-8.903 3.294-13.33q.7-3.773 1.313-7.562c2.74-16.118 6.667-31.893 11.273-47.57 1.61-5.484 3.048-11.006 4.457-16.544.901-3.13 1.958-6.117 3.125-9.153.9-2.349 1.763-4.71 2.621-7.073l.914-2.506a2502 2502 0 0 0 1.867-5.14l.907-2.48c.268-.74.537-1.479.815-2.241C637 116 637 116 638 115"/><path fill="#c6bcd3" d="M310 34h2l-.55 1.8a809 809 0 0 0-4.075 13.825l-.727 2.54c-1.618 7.075-1.85 14.146-1.957 21.374l-.046 3.085c-.49 40.373 4.289 79.085 13.355 118.376l.83 3.62c2.49 10.792 5.148 21.535 8.049 32.224a1435 1435 0 0 1 11.78 46.471c1.66 6.997 3.457 13.949 5.305 20.897 6.633 24.998 11.555 50.028 13.696 75.846.23 2.674.476 5.34.75 8.01 5.045 49.114 3.7 99.187 0 148.348a1150 1150 0 0 0-1.066 16.104c-2.064 33.35-5.501 66.598-9.145 99.81-1.585 14.47-2.93 28.923-3.931 43.445q-.253 3.607-.522 7.213l-.139 2.143c-.342 4.56-1.23 8.54-2.607 12.869-3.79.886-7.287 1.117-11.176 1.098l-3.506-.01-3.63-.025-3.69-.014q-4.5-.018-8.998-.049c2.153-31.11 5.636-62.14 9.405-93.091 2.112-17.601 3.765-35.256 5.49-52.898q.367-3.76.738-7.519l.36-3.676c.597-6.005 1.264-11.982 2.085-17.96 1.48-11.418 1.956-22.928 2.547-34.418l.198-3.81c3.9-76.728-1.642-148.816-20.246-223.25-1.24-4.976-2.43-9.962-3.597-14.956a1427 1427 0 0 0-5.48-22.552q-.752-3.003-1.5-6.007a878 878 0 0 0-4.96-19.047c-2.553-9.51-4.591-19.13-6.665-28.754l-1.784-8.224a2770 2770 0 0 1-1.095-5.065c-.785-3.626-1.605-7.23-2.544-10.819-1.042-4.114-1.656-8.238-2.206-12.442l-.32-2.376q-.333-2.47-.658-4.943c-.328-2.49-.664-4.977-1-7.464l-.647-4.842-.297-2.205c-1.267-9.67-1.977-19.22-1.957-28.975l-.003-3.124q0-3.24.006-6.481.005-4.936-.007-9.873 0-3.168.004-6.334l-.006-2.952c.05-14.74.05-14.74 2.74-17.713l2.024-1.042 1.977-1.083c1.851-.853 3.73-1.65 5.617-2.421 4.443-1.884 8.52-4.335 12.656-6.809l2.336-1.379C306.807 36.52 306.807 36.52 310 34"/><path fill="#c5bcd3" d="M494 34c14.766 7.748 14.766 7.748 19.438 10.813 2.539 1.66 4.942 2.763 7.812 3.75 3.45 1.233 5.633 2.305 7.75 5.437.933 5.722 1.184 11.351 1.238 17.14l.03 2.628C530.605 111.23 525.826 146.42 518 183c-.24 1.117-.24 1.117-.483 2.258-4.554 21.198-9.435 42.359-15.529 63.172-1.98 7.15-3.601 14.392-5.29 21.616-.736 3.114-1.488 6.224-2.245 9.333-2.465 10.14-4.85 20.254-6.812 30.504-.583 2.836-1.283 5.584-2.079 8.367-3.708 13.234-5.932 26.399-7.062 40.082-.615 7.354-1.532 14.674-2.448 21.996-2.202 18.283-2.217 36.51-2.18 54.899l.007 6.306c.015 16.7.09 33.397.558 50.092l.06 2.21c.221 8.642.221 8.642 1.503 17.165.153 2.207.274 4.415.375 6.625.385 7.207 1.141 14.351 1.969 21.52q1.681 14.84 3.164 29.703l.39 3.901.807 8.1c2.147 21.546 4.372 43.082 6.752 64.604l.313 2.834q1.529 13.85 3.086 27.697.578 5.148 1.15 10.296.268 2.394.54 4.789.374 3.294.739 6.59l.42 3.73c.319 3.9.344 7.7.295 11.611-4.583.058-9.166.094-13.75.125l-3.945.05-3.79.02-3.49.032c-2.995-.225-4.68-.352-7.025-2.227-.606-2.296-.606-2.296-.758-5.18l-.203-3.225-.164-3.47a4656 4656 0 0 0-.445-7.133l-.212-3.587c-.303-4.73-.735-9.44-1.218-14.155l-.25-2.488c-.465-4.465-1.05-8.889-1.75-13.324-1.001-6.646-1.473-13.298-1.937-20a772 772 0 0 0-2.5-28.563 1946 1946 0 0 1-6.473-74.977l-.172-2.55q-.173-2.582-.343-5.165c-.318-4.754-.682-9.5-1.103-14.246-1.44-16.526-1.753-32.916-1.66-49.5l.022-5.998c.029-8.147.092-16.293.166-24.439l.022-2.815c.181-22.47 2.142-44.62 4.72-66.925.264-2.315.514-4.631.762-6.947l.5-4.532.214-2.063c.497-4.412 1.505-8.473 2.782-12.718.449-2.646.862-5.283 1.25-7.937 1.652-10.56 4.347-20.82 7.012-31.161 1.07-4.205 2.062-8.427 3.05-12.652 2.28-9.69 4.701-19.345 7.125-29 3.103-12.363 6.155-24.735 9.102-37.137 1.037-4.362 2.098-8.717 3.172-13.07 6.037-24.539 11.5-48.84 13.94-74.023q.344-2.98.86-5.937c1.983-11.41 1.826-22.836 1.805-34.386-.003-3.623.02-7.245.045-10.867.042-15.116-.325-28.962-6.591-42.975C494 36 494 36 494 34"/><path fill="#121213" d="m257 53 2 1-2 4h5c-8.7 5.8-19.707 10.155-30 12v2l-1.83.695c-6.325 2.458-12.355 5.27-18.357 8.43l-2.76 1.453C187.633 93.964 187.633 93.964 171 111c.48 4.323 2.066 8.39 3.477 12.484L176 127.97l.804 2.363c7.892 23.244 14.381 46.514 19.511 70.529a602 602 0 0 0 2.158 9.444c1.582 6.817 2.98 13.667 4.317 20.536.401 2.054.813 4.107 1.224 6.159l.779 3.992.704 3.574c.517 3.528.59 6.874.503 10.434h2l-.125-3.812c-.114-3.479.066-4.1 2.125-7.188.03 3.167.047 6.333.063 9.5l.025 2.688.01 2.656.016 2.412c-.116 2.798-.465 5.528-.83 8.303-2.541 21.79-2.634 43.841-2.6 65.748q.007 4.758-.02 9.516c-.113 19.868.693 39.208 2.982 58.962.51 4.63.873 9.264 1.198 13.91l.17 2.396.323 4.669c1.919 29.706 1.919 29.706 6.288 59.115 1.923 9.956 2.12 20.009 2.375 30.125-6.717-10.076-6.328-26.332-7.531-38.203l-.27-2.638q-.258-2.564-.502-5.128c-.045-3.833-.045-3.833-1.697-7.031l-.352 2.487a3143 3143 0 0 1-3.77 25.79q-.315 2.092-.625 4.186c-1.213 8.171-2.546 16.301-4.101 24.414-1.546 8.1-2.874 16.237-4.214 24.373l-.776 4.68q-.745 4.492-1.486 8.985-1.12 6.768-2.256 13.535-.454 2.76-.882 5.522c-1.002 6.432-2.885 12.09-5.538 18.028-2-2-2-2-2.195-5.477q.02-2.074.07-4.148l.027-2.14c.024-1.746.06-3.49.098-5.235a4369 4369 0 0 0-8.875 28.625c-2.472 8.058-4.984 16.1-7.562 24.125a1420 1420 0 0 0-17.268 58.095c-1.174 4.27-2.382 8.503-3.815 12.694-1.683 4.945-2.997 9.965-4.292 15.024l-.778 3.002a2424 2424 0 0 0-5.472 21.747c-1.681 6.778-3.41 13.532-5.313 20.25-2.21 7.813-4.286 15.66-6.327 23.518q-.543 2.088-1.09 4.174-.773 2.956-1.536 5.914l-.903 3.477c-.845 3.396-.845 3.396-1.186 7.095-.583 3.26-.583 3.26-1.907 5.173-3.061 1.986-6.708 1.522-10.239 1.462l-2.557-.026c-8.81-.2-17.275-1.532-25.88-3.349l-3.77-.773C52.802 801.107 28.303 793.39 10 779c.647-5.11 1.656-10.039 2.926-15.031l.572-2.284q.6-2.385 1.203-4.77.903-3.57 1.797-7.142c2.098-8.35 4.263-16.677 6.494-24.992 1.904-7.144 3.735-14.307 5.57-21.468l.64-2.491c2.6-10.128 5.166-20.264 7.685-30.412l.726-2.923q1.736-6.986 3.456-13.974c2.095-8.48 4.3-16.903 6.755-25.286 4.007-13.746 7.323-27.67 10.714-41.576q1.049-4.297 2.104-8.592a6169 6169 0 0 0 9.249-38.098l.587-2.457a565 565 0 0 0 3.846-17.496C75 517 75 517 75.988 513.805c1.04-3.907 1.586-7.685 2.102-11.686 1.73-13.16 4.643-25.85 7.972-38.682l.666-2.572a1712 1712 0 0 1 1.932-7.369l.578-2.194a145 145 0 0 1 3.376-10.895c1.305-3.855 1.784-7.322 1.906-11.41.425-8.445 1.722-16.613 3.168-24.935l.802-4.715c2.648-15.484 5.55-30.92 8.51-46.347l1.16-6.098q.939-4.935 1.883-9.87l.441-2.341c.39-2.035.795-4.066 1.206-6.097 2.207-11.182 3.594-22.397 4.873-33.719q.623-5.442 1.253-10.883l.304-2.63c.721-6.18 1.55-12.336 2.458-18.492.52-3.535.973-7.075 1.422-10.62.536-4.082 1.127-8.102 2-12.125.75-3.485 1.216-6.939 1.573-10.484 1.078-10.496 3.094-20.745 5.258-31.063.61-2.903 1.207-5.808 1.804-8.713 5.203-25.203 5.203-25.203 9.365-36.865l.902-2.578c14.895-41.872 39.919-63.617 78.945-82.404 9.9-4.68 19.937-9.072 30.153-13.018l2.637-1.164zm-90 62c-5.2 7.013-8.913 14.513-11.797 22.734a110 110 0 0 1-3.164 7.633C144.838 161.392 141.543 178.891 138 196l-.586 2.773c-2.638 12.56-4.444 25.195-6.02 37.925l-.464 3.697-.4 3.276a74 74 0 0 1-1.53 7.267c-1.002 3.868-1.519 7.684-1.93 11.664l-.227 2.142q-.24 2.267-.475 4.534c-.415 4.01-.852 8.019-1.29 12.027l-.268 2.458c-.88 8.009-1.88 16-2.935 23.987l-.48 3.706c-.804 5.99-1.87 11.701-3.395 17.544-.644 3.344-1.193 6.703-1.75 10.063-1.586 9.363-3.352 18.682-5.187 28-5.688 28.389-5.688 28.389-8.876 57.125-.716 11.127-4.005 21.333-7.41 31.898-1.08 3.402-1.984 6.587-2.336 10.14-.357 3.058-.849 5.213-1.855 8.055-1.872 5.309-2.91 10.698-3.961 16.219l-.647 3.306Q84.982 498.902 84 504c-2.508 12.986-5.15 25.922-8.168 38.8l-.452 1.932c-3.303 14.109-6.779 28.173-10.305 42.227q-1.265 5.05-2.523 10.101a2910 2910 0 0 1-13.694 52.752c-1.86 6.913-3.703 13.832-5.545 20.75l-.53 1.975a801 801 0 0 0-6.158 24.502 773 773 0 0 1-5.738 22.793l-.795 2.986c-1.074 4.028-2.15 8.055-3.24 12.079-.81 2.997-1.607 5.997-2.403 8.998l-.748 2.724C22.31 751.914 21.751 756.524 22 762c24.508 11.455 49.214 21.56 76 26l3.09.574c2.975.436 5.78.525 8.785.489l2.93-.028L115 789v-3h2l.75-3.562c.926-4.173 1.992-8.295 3.102-12.422l1.078-4.022.545-2.033c.778-2.906 1.546-5.814 2.314-8.723A3550 3550 0 0 1 136.25 713l.631-2.271c2.4-8.631 4.83-17.253 7.313-25.861a161 161 0 0 0 1.806-6.993c.767-3.17 1.764-6.224 2.813-9.312 3.93-11.601 7.202-23.415 10.4-35.235 1.414-5.176 3.054-10.25 4.787-15.328l1.36-4.043.682-2.03c9.53-27.496 9.53-27.496 16.466-55.697.626-2.839 1.592-5.45 2.672-8.145 3.264-8.3 5.326-16.858 7.382-25.523l.92-3.814c2.975-12.424 5.32-24.919 7.55-37.494q.463-2.603.936-5.205c3.164-17.411 5.418-34.698 5.22-52.424l-.002-3.477c-.028-5.199-.324-10.02-1.186-15.148q-.292-3.667-.5-7.34l-.123-2.076q-.192-3.261-.377-6.522-.245-4.294-.5-8.59l-.219-3.835c-.228-3.589-.228-3.589-.802-6.918-.632-4.91-.641-9.744-.647-14.688l-.012-3.216q-.013-5.158-.007-10.315l-.002-3.535c.008-19.795.16-39.682 2.74-59.344 1.15-9.27.694-17.781-1.64-26.805-1.132-4.741-1.925-9.509-2.724-14.316-1.59-9.413-3.393-18.774-5.312-28.125l-.769-3.791-.739-3.56-.653-3.16c-.688-2.76-1.65-5.232-2.714-7.864a86 86 0 0 1-.941-4.555c-1.123-5.911-2.54-11.733-3.996-17.57l-.764-3.129A137 137 0 0 0 180 149q-.915-3.114-1.75-6.25c-2.623-9.405-5.954-18.564-9.25-27.75z"/><path fill="#161617" d="M548 54c3.68.607 6.705 1.645 10.07 3.242a395 395 0 0 0 11.735 5.266C630.664 88.676 630.664 88.676 647 115l1.977 3.133c5.715 9.511 10.037 19.526 14.023 29.867l.82 2.122c7.529 19.932 12.028 41.45 14.575 62.558.434 3.45 1.186 6.73 2.076 10.095 1.138 4.789 1.794 9.674 2.529 14.537l.53 3.472a446 446 0 0 1 2.822 22.855c.535 5.47 1.276 10.88 2.156 16.306.495 3.077.937 6.156 1.367 9.243 3.033 21.325 6.527 42.576 10.125 63.812l.531 3.161a948 948 0 0 0 6.032 32.527c2.581 12.67 4.815 25.398 6.057 38.277.714 6.22 1.81 11.925 3.696 17.902 2.718 8.932 4.783 17.948 6.746 27.07q.493 2.258.987 4.514.74 3.376 1.47 6.753c.838 3.878 1.695 7.75 2.582 11.617l.549 2.408q.513 2.25 1.04 4.499c.821 3.61 1.442 7.147 1.81 10.833.413 4.087 1.26 7.927 2.313 11.904q.545 2.103 1.085 4.206l.558 2.166c.886 3.522 1.685 7.062 2.481 10.604l1.003 4.437.52 2.3c3.93 17.345 8.217 34.584 12.66 51.803a4090 4090 0 0 1 9.816 38.81q1.988 7.985 3.962 15.971c4.4 17.854 4.4 17.854 9.407 35.543 2.099 6.948 3.86 13.955 5.57 21.008l.969 3.857.898 3.693.808 3.29c.432 2.731.37 4.277-.55 6.847v-3c-1.985.267-1.985.267-4 1l-1 3-.66-2.711a914 914 0 0 0-6.223-23.91l-.781-2.849-1.622-5.908c-5.714-20.842-11.036-41.751-16.068-62.767a2519 2519 0 0 0-5.521-22.543l-.794-3.215a428 428 0 0 0-4.296-15.91c-2.147-7.446-3.968-14.953-5.722-22.5l-.506-2.162c-5.993-25.634-11.635-51.357-16.868-77.157-2.063-10.147-4.3-20.246-7.001-30.243l-.973-3.617q-.97-3.53-2-7.043c-3.49-12.53-4.811-25.557-6.477-38.421C701.217 394.14 701.217 394.14 697 380a202 202 0 0 1-.812-5.812c-1.086-7.9-2.566-15.7-4.09-23.524-2.393-12.319-4.662-24.628-6.535-37.039l-.32-2.098c-1.802-11.878-3.268-23.78-4.615-35.717-1.033-9.134-2.241-18.168-3.976-27.197-.844-4.676-1.4-9.367-1.953-14.086a139 139 0 0 0-2.199-12.96c-.85-4.36-1.374-8.768-1.937-13.172-.593-3.575-1.557-6.916-2.563-10.395a350 350 0 0 1-1.375-7.437c-4.24-23.146-11.228-46.673-22.812-67.25l-1.047-1.86c-1.807-3.295-1.807-3.295-4.766-5.453a2830 2830 0 0 0-3.75 9.688l-1.055 2.705c-4.386 11.413-7.676 23.08-10.695 34.92l-.92 3.58A6683 6683 0 0 0 619 177l-1.2 4.672c-3.236 12.685-6.27 25.418-8.274 38.36-.508 2.865-1.174 5.625-1.917 8.437-1.734 6.835-3.052 13.717-4.297 20.656l-.681 3.629c-2.02 11.21-1.586 21.335-.564 32.61 1.693 18.89 2.22 37.672 2.183 56.636l-.003 3.598q-.01 5.108-.044 10.214l-.013 3.07c-.055 5.468-.458 10.702-1.19 16.118a225 225 0 0 0-.246 6.727l-.096 3.836c-.015.662-.03 1.325-.047 2.007-.392 16.516-1.38 32.956-2.611 49.43h-1l-2-10-1 7h-1c.378-11.283.85-22.533 1.973-33.77l.267-2.69.271-2.733c4.39-44.242 3.426-88.492-1.539-132.639-1.122-10.417-1.28-20.704-.972-31.168h1c1.954 7.729 2.224 15.05 2 23h2l.111-1.804c.67-8.893 2.278-17.575 3.952-26.321l.46-2.427c4.092-21.463 8.87-42.91 15.348-63.792a277 277 0 0 0 2.227-7.562c2.825-10.082 6.276-19.858 10.044-29.63l1.163-3.105 1.062-2.766c.722-2.956.533-4.705-.367-7.593-19.513-23.373-56.17-35.697-83.492-46.964A643 643 0 0 1 541 58c2.647-1.46 3.894-2 7-2z"/><path fill="#151516" d="m257 53 2 1-2 4h5c-8.7 5.8-19.707 10.155-30 12v2l-1.83.695c-6.325 2.458-12.355 5.27-18.357 8.43l-2.76 1.453C195.685 89.728 180.028 98.518 171 111c-.79 2.685-.79 2.685-1 5h-3a884 884 0 0 0-3.687 6.25l-1.03 1.719C149.666 145.666 143.873 171.647 139 196q-.555 2.655-1.113 5.309c-2.403 11.72-4.024 23.522-5.493 35.39l-.464 3.696-.4 3.276a74 74 0 0 1-1.53 7.267c-1.002 3.868-1.519 7.684-1.93 11.664l-.227 2.142q-.24 2.267-.475 4.534c-.415 4.01-.852 8.019-1.29 12.027l-.268 2.458c-.88 8.009-1.88 16-2.935 23.987l-.48 3.706c-.804 5.99-1.87 11.701-3.395 17.544-.644 3.344-1.193 6.703-1.75 10.063-1.586 9.363-3.352 18.682-5.187 28-5.688 28.389-5.688 28.389-8.876 57.125-.716 11.127-4.005 21.333-7.41 31.898-1.08 3.402-1.984 6.587-2.336 10.14-.357 3.058-.849 5.213-1.855 8.055-1.872 5.309-2.91 10.698-3.961 16.219l-.647 3.306Q85.982 498.902 85 504c-2.508 12.986-5.15 25.922-8.168 38.8l-.452 1.932c-3.303 14.109-6.779 28.173-10.305 42.227q-1.265 5.05-2.523 10.101a2748 2748 0 0 1-12.744 49.196c-2.662 9.9-5.236 19.821-7.808 29.744l-2-2-5 5c.655-7.343 2.411-14.404 4.164-21.55q.764-3.13 1.514-6.264a499 499 0 0 1 6.088-22.737c4.022-13.82 7.363-27.817 10.772-41.798q1.049-4.297 2.104-8.592a6169 6169 0 0 0 9.249-38.098l.587-2.457a565 565 0 0 0 3.846-17.496C75 517 75 517 75.988 513.805c1.04-3.907 1.586-7.685 2.102-11.686 1.73-13.16 4.643-25.85 7.972-38.682l.666-2.572a1712 1712 0 0 1 1.932-7.369l.578-2.194a145 145 0 0 1 3.376-10.895c1.305-3.855 1.784-7.322 1.906-11.41.425-8.445 1.722-16.613 3.168-24.935l.802-4.715c2.648-15.484 5.55-30.92 8.51-46.347l1.16-6.098q.939-4.935 1.883-9.87l.441-2.341c.39-2.035.795-4.066 1.206-6.097 2.207-11.182 3.594-22.397 4.873-33.719q.623-5.442 1.253-10.883l.304-2.63c.721-6.18 1.55-12.336 2.458-18.492.52-3.535.973-7.075 1.422-10.62.536-4.082 1.127-8.102 2-12.125.75-3.485 1.216-6.939 1.573-10.484 1.078-10.496 3.094-20.745 5.258-31.063.61-2.903 1.207-5.808 1.804-8.713 5.203-25.203 5.203-25.203 9.365-36.865l.902-2.578c14.895-41.872 39.919-63.617 78.945-82.404 9.9-4.68 19.937-9.072 30.153-13.018l2.637-1.164z"/><path fill="#121212" d="m670 714 3 1a71 71 0 0 1 2.375 7.375l.645 2.31A801 801 0 0 1 678 732l.618 2.279c3.4 12.552 6.53 25.175 9.653 37.799q.776 3.106 1.576 6.208l.833 3.25.765 2.953C692 787 692 787 692 790l3.75-.875c3.6-.808 7.191-1.438 10.84-1.988 6.232-1.028 12.182-2.624 18.222-4.45l3.188-.951c3.003-.903 6.002-1.818 9-2.736l2.17-.652c13.75-4.157 27.57-9.61 40.357-16.153C782 761 782 761 785 761c-1.996-10.55-1.996-10.55-4.687-20.937-1.302-4.529-1.579-8.367-1.313-13.063l4-1v3h2a316 316 0 0 1 6.56 25.583c.885 4.09 1.885 8.06 3.19 12.042 1.364 4.51 2.19 7.675 1.25 12.375-2.512 2.818-5.67 4.296-9 6l-1.856.987C760.603 798.937 720.62 815.232 692 810c-2.661-2.15-3.49-3.912-4.21-7.219l-.577-2.546-.588-2.735q-.648-2.868-1.3-5.734c-.22-.967-.438-1.933-.663-2.928-.984-4.22-2.097-8.404-3.225-12.588-1.607-6-3.11-12.01-4.5-18.062-1.463-6.364-3.164-12.627-4.988-18.899-4.618-16.002-4.618-16.002-3.949-22.289z"/><path fill="#c5bcd3" d="M179 656a131 131 0 0 1 10.313 3.75c20.618 8.29 41.749 13.664 63.402 18.514 3.18.712 6.357 1.435 9.535 2.158 15.919 3.585 31.453 5.713 47.75 6.578l-2 25c-12.948 0-12.948 0-19.5-.812l-2.225-.268c-4.9-.633-9.484-1.697-14.212-3.139-4.108-1.047-8.246-1.613-12.438-2.218-6.662-.98-12.848-2.379-19.246-4.528-4.126-1.264-8.284-2.148-12.504-3.035-6.886-1.478-13.365-3.266-19.875-6l-1.803-.746c-23.872-9.93-23.872-9.93-28.197-14.254-.352-7.059-.095-14.022 1-21"/><path fill="#c8bfd6" d="M628 658v19c-11.426 6.284-22.66 11.784-35 16l-3.273 1.227c-25.01 9.036-59.366 18.203-86.164 17.836l-2.622-.028L499 712q-.51-3.468-1-6.937l-.562-3.903c-.548-4.4-.507-8.73-.438-13.16l2.468-.304q4.681-.583 9.36-1.185c1.975-.252 3.95-.495 5.926-.738 16.272-2.104 32.104-6.145 47.996-10.148l2.355-.592Q573.057 673.03 581 671l3.527-.9c18.897-4.544 18.897-4.544 36.59-12.334C623 657 623 657 628 658"/><path fill="#a79db5" d="m371.273 26.833 6.331-.006q11.074-.014 22.148-.012 10.279-.001 20.557-.026 8.875-.019 17.749-.018 5.28.002 10.559-.013c3.919-.012 7.838-.007 11.758 0 1.725-.01 1.725-.01 3.485-.018 15.42.06 15.42.06 21.077 4.635C488.09 35.387 489.42 37.817 489 43c-1.889 1.889-5.178 1.146-7.688 1.158l-2.143.015q-3.582.022-7.163.032l-5.114.03q-6.963.04-13.927.068-7.269.035-14.538.076-13.776.074-27.55.138-15.678.076-31.356.16-32.26.17-64.521.323c.907-5.823 2.25-10.354 6-15 3.081-1.37 4.741-1.751 8-2l2.7-.262c13.171-1.049 26.37-.903 39.573-.905"/><path fill="#141414" d="M690 307c2.15 3.69 2.981 7.62 3.875 11.75l.52 2.37c2.037 9.553 3.55 19.195 5.11 28.835 2.11 12.962 4.427 25.867 7.058 38.733 2.582 12.67 4.815 25.398 6.057 38.277.714 6.22 1.81 11.925 3.696 17.902 2.718 8.932 4.783 17.948 6.746 27.07q.493 2.258.987 4.514.74 3.376 1.47 6.753c.838 3.878 1.695 7.75 2.582 11.617l.549 2.408q.513 2.25 1.04 4.499c.821 3.61 1.442 7.147 1.81 10.833.413 4.087 1.26 7.927 2.313 11.904q.545 2.103 1.085 4.206l.558 2.166c.886 3.522 1.685 7.062 2.481 10.604l1.523 6.738c3.93 17.344 8.217 34.583 12.66 51.802a4090 4090 0 0 1 9.816 38.81q1.988 7.985 3.962 15.971c4.4 17.854 4.4 17.854 9.407 35.543 2.099 6.948 3.86 13.955 5.57 21.008l.969 3.857.898 3.693.808 3.29c.432 2.731.37 4.277-.55 6.847v-3c-1.985.267-1.985.267-4 1l-1 3-.66-2.711a914 914 0 0 0-6.223-23.91l-.781-2.849-1.622-5.908c-5.714-20.842-11.036-41.751-16.068-62.767a2519 2519 0 0 0-5.521-22.543l-.794-3.215a428 428 0 0 0-4.296-15.91c-2.147-7.446-3.968-14.953-5.722-22.5l-.506-2.162c-5.993-25.634-11.635-51.357-16.868-77.157-2.063-10.147-4.3-20.246-7.001-30.243l-.973-3.617q-.97-3.53-2-7.043c-3.49-12.53-4.811-25.557-6.477-38.421C701.217 394.14 701.217 394.14 697 380a202 202 0 0 1-.812-5.812c-.857-6.23-1.935-12.39-3.125-18.563l-.522-2.735c-.78-4.063-1.58-8.118-2.467-12.16-1.545-7.22-2.348-14.1-2.386-21.48l-.017-2.313c.05-3.78.213-6.734 2.329-9.937"/><path fill="#0f0e0f" d="M597 424h1c1.015 5.918 1.934 11.802 2.402 17.79.755 9.532 2.062 17.703 5.368 26.718 3.331 9.455 4.55 19.45 6.037 29.323.904 5.81 2.146 11.447 3.649 17.127 1.109 4.213 2.05 8.428 2.893 12.701 4.355 21.996 11.563 43.501 18.815 64.694 1.856 5.428 3.323 10.677 4.313 16.323.752 3.342 2.046 6.383 3.425 9.511 1.284 3.29 2.265 6.625 3.261 10.012 1.488 4.98 3.113 9.917 4.712 14.864 7.674 23.868 7.674 23.868 10.133 34.09.852 3.656.852 3.656 1.976 6.274.996 2.522 1.665 4.944 2.27 7.585.215.922.43 1.844.65 2.795l.659 2.88q.654 2.85 1.316 5.7l.58 2.538c.475 2.116.475 2.116 1.541 4.075.04 2 .043 4 0 6h-2c-1.637 1.96-1.637 1.96-3 4q-1.564-5.344-3.125-10.687l-.96-3.288c-2.042-7-4.052-14.009-6.04-21.025-1.704-6.01-3.473-11.988-5.375-17.937-2.015-6.308-3.782-12.668-5.5-19.063-2.922-10.855-5.944-21.67-9.937-32.187-2.18-5.856-3.816-11.843-5.496-17.855-2.245-7.973-4.706-15.87-7.192-23.77-3.139-9.996-6.073-19.965-8.375-30.188q.213 3.844.438 7.688l.119 2.185c.184 3.098.414 5.992 1.068 9.033L617 564c-1.437 1.813-1.437 1.813-3 3l-.375-2.125c-.552-2.848-.552-2.848-1.538-5.38-1.462-4.7-2.267-9.444-3.11-14.288l-.565-3.186q-.899-5.103-1.787-10.208l-.613-3.497C603.079 511.578 600.27 494.842 598 478l-.346-2.527c-.57-4.155-1.124-8.312-1.654-12.473-1.49 5.746-2.293 11.412-2.875 17.313-.709 6.969-1.773 13.813-3.125 20.687l-.503 2.626-.497 2.437-.437 2.16C588 510 588 510 586 512c-.302-8.276.738-16.163 1.966-24.317C590.644 469.838 592.51 451.98 594 434h2l-.062-3.312C596 427 596 427 597 424"/><path fill="#9990a9" d="M357 613h1q.039 2.625.063 5.25l.035 2.953C358 624 358 624 357 628h92l-1-5a88 88 0 0 1-.062-4.812l.027-2.395L448 614h1q.649 6.402 1.282 12.805.217 2.174.436 4.347.317 3.143.626 6.285l.38 3.81c.287 3.908.276 7.834.276 11.753l-97-1c0-13.44.198-25.825 2-39"/><path fill="#2f2d34" d="M273 53h4l-.02 1.938c-.793 41.16-.793 41.16 3.02 82.062q.441 3.035.879 6.07c1.911 12.691 4.66 25.147 7.637 37.625a487 487 0 0 1 3.126 14.122c2.936 14.114 6.6 28.039 10.2 41.994 3.583 13.895 7.048 27.811 10.347 41.777.837 3.52 1.69 7.034 2.545 10.549 22.045 91.388 22.662 184.416 11.26 277.53-1.212 9.962-2.225 19.942-3.241 29.925-1.512 14.838-3.092 29.663-4.878 44.47a1308 1308 0 0 0-3.5 32.25l-.37 3.863c-.544 5.76-1.069 11.521-1.564 17.286l-.26 2.96q-.236 2.67-.447 5.34c-.334 3.792-.628 6.997-2.734 10.239-.861-2.935-1.078-5.393-.914-8.441l.133-2.518.156-2.604.133-2.615c.197-3.524.369-6.452 1.492-9.822l-2.762.105c-29.59.619-59.863-7.882-87.997-16.43a468 468 0 0 0-6.792-1.98C187.794 661.653 187.794 661.653 179 656c-.077-4.516-.102-8.59 1-13h1v11q5.503 2.13 11.015 4.238 1.998.766 3.994 1.54 3.056 1.18 6.116 2.347l1.877.731c5.563 2.113 11.246 3.634 16.998 5.144l2.957.796c28.627 7.7 57.372 14.449 87.043 16.204l-.082-2.48c-.211-11.886 1.075-23.501 2.418-35.297l.725-6.547q.953-8.565 1.922-17.13.78-6.945 1.55-13.894c4.261-38.379 4.261-38.379 6.087-52.474.49-4.101.74-8.178.88-12.303.289-6.651.787-13.25 1.438-19.875.37-3.999.72-7.999 1.062-12l.287-3.314c1.725-21.055 1.928-42.122 1.959-63.236q.006-3.237.02-6.473c.089-26.715-.98-53.286-4.579-79.79l-.325-2.461c-2.9-21.907-7.325-43.323-12.634-64.767-1.148-4.667-2.249-9.344-3.353-14.022a1517 1517 0 0 0-5.21-21.242c-.97-3.874-1.901-7.756-2.83-11.64-.3-1.262-.603-2.523-.914-3.823q-.896-3.75-1.784-7.503c-1.408-5.892-2.902-11.73-4.61-17.542-2.353-8.11-4.168-16.314-5.964-24.562l-1.052-4.793q-1.283-5.86-2.552-11.723c-.654-3.007-1.32-6.01-1.982-9.015-2.825-12.964-4.988-25.91-6.477-39.094l-.316-2.647c-1.633-14.058-1.89-28.092-1.934-42.228l-.016-2.647C272.692 71.411 272.713 62.84 275 54z"/><path fill="#2e2d32" d="M532 61h1q.037 10.572.055 21.143.008 3.596.02 7.193c.013 3.445.018 6.89.023 10.336l.015 3.252v3.032l.007 2.665c-.115 2.276-.536 4.186-1.12 6.379a364 364 0 0 0-.375 7.438c-.322 6.323-1.298 12.136-2.871 18.285-.825 3.584-1.31 7.126-1.754 10.777-.867 6.98-2.314 13.68-4 20.5a1755 1755 0 0 0-1.562 6.688l-.692 2.949a277 277 0 0 0-1.566 7.601c-1.448 7.296-3.187 14.526-4.901 21.763a3193 3193 0 0 0-1.738 7.397 652 652 0 0 1-7.429 28.642c-6.544 23.09-11.556 46.741-16.52 70.212a436 436 0 0 1-1.291 5.793c-2.144 9.517-3.632 19.077-4.98 28.735-.375 2.662-.767 5.322-1.159 7.982-3.904 27.213-4.544 54.489-4.474 81.926l.006 4.724c.045 23.901.798 47.585 3.014 71.39.332 3.639.647 7.278.959 10.918l.177 2.075.364 4.264c2.352 27.444 4.823 54.87 8.016 82.231a3689 3689 0 0 1 3.18 28.427q.34 3.106.689 6.208c1.243 11.073 2.293 21.917 1.907 33.075 38.857-2.818 76.992-12.366 113.705-25.153l2.175-.755q2.887-1.01 5.769-2.036c3.126-.985 6.109-1.61 9.351-2.056l1-4v6l-2.71.953-3.665 1.297-3.586 1.266c-2.978 1.068-5.894 2.248-8.816 3.46-5.37 2.16-10.815 3.694-16.41 5.149l-3.317.872q-3.685.967-7.372 1.924c-3.714.968-7.42 1.96-11.126 2.956C545.929 681.328 522.037 687.174 497 688l.184 1.665q.411 3.76.816 7.523c.095.864.19 1.728.29 2.619.437 4.08.846 8.08.71 12.193h8v1h-11c-4.29-38.317-8.579-76.634-12.659-114.974l-.636-5.948a2451 2451 0 0 1-4.71-48.344l-.351-3.984-.305-3.516c-.326-3.108-.818-6.153-1.339-9.234a469 469 0 0 1-.605-10.166c-.153-2.773-.317-5.464-.893-8.186-1.06-5.59-.913-11.347-1.065-17.023l-.062-2.264c-.434-16.47-.517-32.944-.556-49.42q-.01-3.051-.027-6.104c-.104-22.184.844-44.146 3.77-66.15.783-6.014 1.474-11.984 1.848-18.039.514-7.06 1.91-13.815 3.465-20.71l.777-3.565a629 629 0 0 1 4.611-19.374c1.315-5.35 2.448-10.74 3.612-16.124 1.883-8.608 3.92-17.118 6.37-25.58a194 194 0 0 0 3.206-12.744L501 249l.423-1.991c1.128-5.209 2.461-10.322 3.932-15.443 2.581-9.152 4.835-18.36 6.957-27.629l.573-2.497C522.32 160.138 529.425 119.45 530 77h1z"/><path fill="#c0b7d0" d="m787 762 3 14c-11.523 5.762-11.523 5.762-13.73 6.855a198 198 0 0 0-4.55 2.37c-6.963 3.673-14.137 6.057-21.658 8.337l-1.92.59c-15.494 4.743-31.377 9.098-47.705 8.91l-3.128-.027L695 803c-1.138-4.266-2-7.565-2-12l2.063-.078c16.856-.986 33.005-6.945 48.994-11.995a946 946 0 0 1 7.455-2.31c7.518-2.372 14.335-5.347 21.308-8.969C783.716 762 783.716 762 787 762"/><path fill="#bdb4cd" d="M21 764c3.709.38 6.787 1.668 10.148 3.223l3.012 1.37 3.215 1.47C54.437 777.704 71.743 783.928 90 788l2.45.61c7.076 1.726 14.33 2.496 21.55 3.39.286 7.429.286 7.429-2 11-22.32.628-43.183-4.106-64-12l-2.029-.751C36.19 786.604 27.104 782.089 18 777q.172-2.688.375-5.375l.21-3.023C19 766 19 766 21 764"/><path fill="#302f34" d="M273 53h4l-.02 1.938c-.793 41.16-.793 41.16 3.02 82.062q.441 3.035.879 6.07c1.911 12.691 4.66 25.147 7.637 37.625a487 487 0 0 1 3.126 14.122c2.936 14.114 6.6 28.039 10.2 41.994 3.583 13.895 7.048 27.811 10.347 41.777.837 3.52 1.69 7.034 2.545 10.549 9.65 40 17.498 80.703 17.364 121.976l-.005 5.124q-.006 6.675-.024 13.35-.014 6.839-.02 13.677-.016 13.368-.049 26.736h-1l-.044-3.74c-.745-58.771-5.068-116.104-19.228-173.301-1.148-4.667-2.249-9.344-3.353-14.022a1517 1517 0 0 0-5.21-21.242c-.97-3.874-1.901-7.756-2.83-11.64l-.914-3.823q-.896-3.75-1.784-7.503c-1.408-5.892-2.902-11.73-4.61-17.542-2.353-8.11-4.168-16.314-5.964-24.562l-1.052-4.793q-1.283-5.86-2.552-11.723c-.654-3.007-1.32-6.01-1.982-9.015-2.825-12.964-4.988-25.91-6.477-39.094l-.316-2.647c-1.633-14.058-1.89-28.092-1.934-42.228l-.016-2.647C272.692 71.411 272.713 62.84 275 54z"/><path fill="#1f1f24" d="M635 110h2v4l2 1-1.316 2.527c-1.752 3.612-3.225 7.277-4.621 11.035l-.725 1.9c-4.013 10.727-7.01 21.763-9.838 32.85l-.92 3.58A6683 6683 0 0 0 619 177l-1.2 4.672c-3.236 12.685-6.27 25.418-8.274 38.36-.508 2.865-1.174 5.625-1.917 8.437-1.734 6.835-3.052 13.717-4.297 20.656l-.681 3.629c-2.02 11.21-1.586 21.335-.564 32.61 1.693 18.89 2.22 37.672 2.183 56.636l-.003 3.598q-.01 5.108-.044 10.214l-.013 3.07c-.055 5.468-.458 10.702-1.19 16.118a225 225 0 0 0-.246 6.727l-.096 3.836c-.015.662-.03 1.325-.047 2.007-.392 16.516-1.38 32.956-2.611 49.43h-1l-2-10-1 7h-1c.378-11.283.85-22.533 1.973-33.77l.267-2.69.271-2.733c4.39-44.242 3.426-88.492-1.539-132.639-1.122-10.417-1.28-20.704-.972-31.168h1c1.954 7.729 2.224 15.05 2 23h2l.111-1.804c.67-8.893 2.278-17.575 3.952-26.321l.46-2.427c4.092-21.463 8.87-42.91 15.348-63.792a277 277 0 0 0 2.227-7.562c2.827-10.094 6.276-19.901 9.956-29.717l1.153-3.115 1.046-2.783c.94-2.686.94-2.686.747-6.479"/><path fill="#323137" d="M532 61h1q.037 10.572.055 21.143.008 3.596.02 7.193c.013 3.445.018 6.89.023 10.336l.015 3.252v3.032l.007 2.665c-.115 2.276-.536 4.186-1.12 6.379a364 364 0 0 0-.375 7.438c-.322 6.323-1.298 12.136-2.871 18.285-.825 3.584-1.31 7.126-1.754 10.777-.867 6.98-2.314 13.68-4 20.5a1755 1755 0 0 0-1.562 6.688l-.692 2.949a277 277 0 0 0-1.566 7.601c-1.448 7.296-3.187 14.526-4.901 21.763a3193 3193 0 0 0-1.738 7.397 652 652 0 0 1-7.429 28.642c-6.544 23.09-11.556 46.741-16.52 70.212a436 436 0 0 1-1.291 5.793c-2.345 10.41-3.899 20.89-5.363 31.455l-.4 2.856A535 535 0 0 0 477 407l-.297 5.574c-.961 18.79-1.259 37.618-1.703 56.426h-1q-.106-14.776-.155-29.554c-.016-4.577-.037-9.155-.071-13.732-.147-19.915.002-39.352 2.883-59.103.464-3.53.739-7.062.987-10.613 1.133-15.948 4.952-31.553 8.868-47.018 1.602-6.337 2.981-12.716 4.363-19.105 1.883-8.608 3.92-17.118 6.37-25.58a194 194 0 0 0 3.206-12.744L501 249l.423-1.991c1.128-5.209 2.461-10.322 3.932-15.443 2.581-9.152 4.835-18.36 6.957-27.629l.573-2.497C522.32 160.138 529.425 119.45 530 77h1z"/><path fill="#3f3d44" d="M170 114c2.666 2.666 3.42 5.689 4.574 9.191l.742 2.207q1.195 3.58 2.371 7.165l.818 2.472c7.166 21.702 13.035 43.472 17.81 65.826a602 602 0 0 0 2.158 9.444c1.582 6.817 2.98 13.667 4.317 20.536.401 2.054.813 4.107 1.224 6.159l.779 3.992.704 3.574c.517 3.528.59 6.874.503 10.434h2l-.125-3.812c-.114-3.479.066-4.1 2.125-7.188.03 3.167.047 6.333.063 9.5l.025 2.688c.017 4.625-.159 9.074-.805 13.664-4.08 30.965-2.92 62.965-3.283 94.148h-1v-55h-2q.212-6.25.438-12.5l.119-3.555c.22-6.05.637-11.949 1.443-17.945.486-8.1-.06-15.34-2.09-23.184-1.13-4.741-1.924-9.509-2.722-14.316-1.591-9.413-3.394-18.774-5.313-28.125l-.769-3.791-.739-3.56-.653-3.16c-.688-2.76-1.65-5.232-2.714-7.864a86 86 0 0 1-.941-4.555c-1.123-5.911-2.54-11.733-3.996-17.57l-.764-3.129A137 137 0 0 0 179 149a270 270 0 0 1-1.812-6.437c-1.78-6.428-3.944-12.655-6.345-18.877-1.375-3.7-2.046-5.923-.843-9.686"/><path fill="#b5abc4" d="M356 368h1c5.413 51.757 5.955 104.097 2 156h-1v-31h-1l-1-5h-1q-.07-16.667-.104-33.333-.014-7.743-.047-15.485-.032-7.499-.039-14.998-.005-2.833-.021-5.666c-.074-13.292.731-26.308 2.211-39.518h-2c-.125-7.625-.125-7.625 1-11"/><path fill="#45424c" d="M489 40c2.4 3.6 4.322 6.961 3.625 11.375L492 53l-1-5c-17.034-1.055-34.047-1.15-51.107-1.134q-5.774.002-11.546-.002-9.675-.003-19.349.006-11.123.007-22.244-.002-9.631-.007-19.263-.003-5.718.003-11.434-.001-5.37-.004-10.742.005-2.867.002-5.734-.005c-8.568.021-17.041.478-25.581 1.136l.027 3.322c-.025 3.352-.407 6.246-1.02 9.53-1.668 11.103-1.218 22.324-1.132 33.523q.016 3.446.027 6.89.033 8.368.098 16.735h-1c-.974-5.732-1.176-11.305-1.203-17.113l-.017-2.935q-.014-3.072-.02-6.145c-.01-3.072-.04-6.143-.072-9.215C309.524 52.22 309.524 52.22 315 43v2l2.064-.49c3.353-.582 6.51-.65 9.915-.668l2.092-.015q3.459-.022 6.919-.032l4.967-.03q6.737-.04 13.474-.068 7.042-.035 14.086-.076 13.333-.074 26.667-.138 15.181-.076 30.363-.16Q456.773 43.153 488 43z"/><path fill="#3a373f" d="M635 110h2v4l2 1-1.316 2.527c-1.752 3.612-3.225 7.277-4.621 11.035l-.725 1.9c-4.013 10.727-7.01 21.763-9.838 32.85l-.92 3.58A6683 6683 0 0 0 619 177l-1.2 4.672c-3.236 12.685-6.274 25.42-8.273 38.363-.507 2.855-1.178 5.598-1.925 8.399-2.106 8.28-3.417 16.685-4.795 25.11l-.623 3.655-.546 3.308L601 263l-2 1c-.465 1.895-.465 1.895-.625 4.063L598 272h-1c-1.652-13.729-2.25-27.175-2-41h1c1.954 7.729 2.224 15.05 2 23h2l.111-1.804c.67-8.893 2.278-17.575 3.952-26.321l.46-2.427c4.092-21.463 8.87-42.91 15.348-63.792a277 277 0 0 0 2.227-7.562c2.827-10.094 6.276-19.901 9.956-29.717l1.153-3.115 1.046-2.783c.94-2.686.94-2.686.747-6.479"/><path fill="#3a393c" d="M307 267h2c4.48 17.215 8.65 34.468 12.313 51.875l.498 2.35c3.26 15.432 6.005 30.913 7.814 46.587l.367 3.038c1.589 13.46 2.15 26.727 2.106 40.263l-.005 5.124q-.006 6.675-.024 13.35-.014 6.839-.02 13.677-.016 13.368-.049 26.736h-1l-.044-3.74c-.746-58.85-5.182-116.11-19.258-173.395a834 834 0 0 1-3.073-13.115l-.508-2.184c-.804-3.584-1.302-6.89-1.117-10.566"/><path fill="#9991a7" d="M565 337c-.382 20.042-5.964 40.544-13.015 59.21-.904 2.56-1.611 5.084-2.27 7.716-1.715 6.387-3.995 12.52-6.366 18.69q-1.081 2.82-2.146 5.646c-2.426 6.361-4.975 12.617-7.846 18.79a468 468 0 0 0-3.87 8.68c-1.2 2.748-2.413 5.49-3.626 8.233a744 744 0 0 0-1.852 4.244 709 709 0 0 1-2.732 6.201l-.818 1.92c-1.238 2.745-2.092 4.435-4.664 6.082L514 483c2.012-6.504 4.52-12.637 7.375-18.812q1.208-2.65 2.414-5.301l1.161-2.554c2.129-4.731 4.088-9.53 6.05-14.333q1.155-2.75 2.313-5.5c2.318-5.564 4.57-11.154 6.812-16.75l1.02-2.545q1.439-3.598 2.855-7.205l.878-2.235c1.295-3.36 2.438-6.58 2.997-10.14.932-5.061 2.25-9.982 3.625-14.937l.648-2.355c.856-3.055 1.72-6.01 2.918-8.95 1.184-3.022 1.76-6.008 2.371-9.195l.381-1.944a556 556 0 0 0 1.971-10.748l.393-2.214q.375-2.13.728-4.266c.298-1.685.686-3.353 1.09-5.016 2-1 2-1 3-1"/><path fill="#948da3" d="m241 338 3 1 .332 2.203c.97 6.15 2.176 12.148 3.746 18.172a461 461 0 0 1 2.156 8.875c.22.935.438 1.87.663 2.834q.655 2.808 1.301 5.619c1.002 4.274 2.131 8.232 3.802 12.297.61 2.431 1.19 4.87 1.75 7.313 1.725 7.222 4.112 14.027 6.809 20.937 1.286 3.299 2.42 6.629 3.503 10 1.984 6.065 4.432 11.886 6.938 17.75l2.5 6.125c1.878 4.511 3.949 8.87 6.164 13.223a457 457 0 0 1 4.649 9.527l1.55 3.242C291 480 291 480 291 484h-2q-2.627-5.468-5.25-10.937l-1.488-3.096c-3.851-8.036-7.616-16.062-10.762-24.404-1.454-3.824-2.915-7.641-4.437-11.438l-.977-2.441a684 684 0 0 0-2.422-5.899c-6.188-15.078-11.464-30.48-15.104-46.379-.678-2.912-1.39-5.814-2.1-8.719l-1.648-6.875-.795-3.239c-1.768-7.517-2.63-14.863-3.017-22.573"/><path fill="#544f57" d="M180 643h1v11q5.503 2.13 11.015 4.238 1.998.766 3.994 1.54 3.056 1.18 6.116 2.347l1.877.731c5.563 2.113 11.246 3.634 16.998 5.144l2.957.796c28.258 7.6 56.748 14.412 86.043 16.204l-1 2c-30.11 1.249-61.158-7.635-89.76-16.325a468 468 0 0 0-6.79-1.98c-24.656-7.042-24.656-7.042-33.45-12.695-.077-4.516-.102-8.59 1-13"/><path fill="#514c53" d="M626 651h1v6l-2.71.953-3.665 1.297-3.586 1.266c-2.978 1.068-5.894 2.248-8.816 3.46-5.37 2.16-10.815 3.694-16.41 5.149l-3.317.872q-3.685.967-7.372 1.924c-3.714.968-7.42 1.96-11.126 2.956C517.404 688.975 517.404 688.975 496 686v-1l1.93-.212c38.015-4.229 74.638-12.355 110.774-24.94l2.175-.756q2.888-1.01 5.77-2.036c3.126-.985 6.109-1.61 9.351-2.056z"/><path fill="#2a292e" d="M332 417h1c.343 28.87.155 57.606-1.375 86.438l-.192 3.7c-.686 13.026-1.52 25.953-3.433 38.862-1.485-1.275-1.485-1.275-3-3-.39-5.82.278-11.524.875-17.312C329.134 491.187 329.551 456.63 330 422h1z"/><path fill="#6b6376" d="M365 384h1l.1 1.695q.52 8.712 1.072 17.421.203 3.254.395 6.507c.185 3.113.382 6.226.581 9.338l.168 2.951.182 2.73.148 2.41c.205 2.178.205 2.178 2.354 3.948.247 1.96.247 1.96.243 4.386l.01 2.751-.023 2.98v3.057q-.006 3.206-.024 6.41c-.018 3.27-.02 6.54-.02 9.81q-.007 3.112-.018 6.223l-.003 2.968-.02 2.77-.011 2.431C371 477 371 477 370.428 479.166c-.653 1.916-.653 1.916.572 3.834l-2 3c-.426 2.927-.426 2.927-.562 6.188-.204 3.503-.455 6.935-.934 10.414-.761 5.834-.828 11.71-1.004 17.586-.273 8.963-.738 17.876-1.5 26.812h-1c-.137-9.908.078-19.786.438-29.687l.118-3.379.128-3.32.11-2.914c.12-2.133.256-4.267.444-6.396.808-9.246.908-18.435.895-27.706l.003-4.956q.002-5.162-.006-10.324-.006-6.558.004-13.114.005-5.108 0-10.216 0-2.415.002-4.83c.01-8.781-.18-17.46-.912-26.215-.313-4.111-.336-8.198-.286-12.318l.013-2.266q.02-2.68.049-5.359"/><path fill="#56505c" d="M357 613h1q.039 2.625.063 5.25l.035 2.953C358 624 358 624 357 628h92l-1-5a88 88 0 0 1-.062-4.812l.027-2.395L448 614h1c.856 5.886 1 10.877 1 17h-94c0-6.383.084-11.815 1-18"/><path fill="#333139" d="M532 61h1q.037 10.572.055 21.143.008 3.596.02 7.193c.013 3.445.018 6.89.023 10.336l.015 3.252v3.032l.007 2.665c-.115 2.276-.536 4.186-1.12 6.379a364 364 0 0 0-.375 7.438c-.322 6.323-1.298 12.136-2.871 18.285-.825 3.584-1.31 7.126-1.754 10.777-.734 5.94-1.852 11.656-3.27 17.469-1.04 4.318-1.893 8.67-2.73 13.031h-3c.575-6.448 1.696-12.649 3.019-18.983C526.91 134.591 529.607 106.013 530 77h1z"/><path fill="#3e3c44" d="M284 165c2.186 3.713 2.923 7.679 3.777 11.848l1.04 4.902.552 2.62a1125 1125 0 0 0 11.506 49.005l.71 2.755c2.234 8.643 4.476 17.28 6.939 25.86C309 264 309 264 309 267h-2l-1 2a1713 1713 0 0 1-5.684-23.027l-.906-3.787q-.89-3.725-1.772-7.452c-1.403-5.871-2.89-11.69-4.595-17.48-2.235-7.699-3.994-15.479-5.708-23.306-.527-2.408-1.063-4.814-1.599-7.22l-1.029-4.662-.477-2.143c-.935-4.29-1.854-8.545-2.23-12.923z"/><path fill="#413e49" d="M473 407h1l1 23h1l.044 3.724c.313 24.632 1.026 49.15 2.94 73.715l.201 2.595q.185 2.365.383 4.73c1.06 13.188 1.06 13.188-1.068 16.736L477 533c-1.01-5.374-1.332-10.719-1.605-16.166-.153-2.773-.317-5.464-.893-8.186-1.06-5.59-.911-11.347-1.065-17.023-.02-.738-.042-1.477-.064-2.237-.76-27.448-.459-54.933-.373-82.388"/><path fill="#111214" d="m598 263 2 1a91 91 0 0 1 1 7.688l.242 2.535c.268 2.924.515 5.85.758 8.777l.282 3.26a541 541 0 0 1 1.905 45.678l.003 2.259c0 7.777-.144 15.54-.577 23.307l-.206 3.717L603 364l-2 1-.025-1.714c-.505-35.924-.505-35.924-2.31-71.8-.649-9.513-.906-18.954-.665-28.486"/><path fill="#1a1c1e" d="M481 343h1c.275 8.882-.601 17.285-1.875 26.063C475.609 402.08 475.69 435.727 475 469h-1q-.106-14.776-.155-29.554c-.016-4.577-.037-9.155-.071-13.732-.153-20.816.108-41.082 3.226-61.714q.437-3.086.866-6.173c1.9-13.594 1.9-13.594 3.134-14.827"/><path fill="#5b5562" d="m21 759 1 3c1.928.816 1.928.816 4.313 1.313 3.968 1.08 7.37 2.445 11 4.375C61.639 780.258 87.983 786.158 115 789l1-3-1 9-1-3-2.754-.113C95.056 791.04 80.28 787.215 65 782l-2.344-.797c-10.785-3.71-21.154-8.09-31.448-13.003l-2.673-1.259-2.363-1.134c-2.41-1.04-2.41-1.04-6.172-.807z"/><path fill="#28272b" d="M326 357c2.326 2.326 2.377 3.158 2.816 6.332.125.882.25 1.765.377 2.674l.37 2.807.38 2.677c1.816 13.22 2.198 26.307 2.155 39.623l-.005 5.124q-.006 6.675-.024 13.35-.014 6.839-.02 13.677-.016 13.368-.049 26.736h-1l-.044-3.74c-.286-22.603-.77-45.15-2.456-67.697-.066-.882-.131-1.763-.2-2.67-.576-7.628-1.19-15.238-2.097-22.834-.316-3.21-.297-6.399-.265-9.622l.027-3.69z"/><path fill="#3e3d44" d="M170 114c2.666 2.666 3.42 5.689 4.574 9.191l3.113 9.371.814 2.454C183.101 148.898 187.3 162.85 191 177l.633 2.281c1.39 5.144 1.288 8.563.367 13.719-2.313-2.313-2.403-3.218-2.941-6.367-1.102-5.982-2.523-11.858-3.996-17.758l-.764-3.129A137 137 0 0 0 179 149a270 270 0 0 1-1.812-6.437c-1.78-6.428-3.944-12.655-6.345-18.877-1.375-3.7-2.046-5.923-.843-9.686"/><path fill="#625c67" d="m785 758 1 4c-11.719 5.86-11.719 5.86-13.903 6.941a115 115 0 0 0-3.844 2.026c-7.068 3.824-14.816 6.033-22.44 8.47l-2.279.736c-10.878 3.505-21.762 6.606-32.94 9.022-3.409.612-3.409.612-5.594 1.805-2 .04-4 .043-6 0l-1-2 2.438-.41c12.45-2.28 24.468-5.891 36.562-9.59l2.156-.648c13.754-4.158 27.58-9.612 40.371-16.157C782 761 782 761 785 761z"/><path fill="#8f8797" d="M318 35h1c.125 4.75.125 4.75-1 7l163 1v1l-166 1c1.125-6.75 1.125-6.75 3-10"/><path fill="#ded8e5" d="M465 630q.037 8.16.055 16.32.008 2.768.02 5.534c.05 10.77-.077 21.413-1.075 32.146-2.605-3.908-3.12-6.814-3.161-11.446l-.03-2.639-.012-2.825-.017-2.92q-.014-3.053-.02-6.106c-.01-3.118-.041-6.236-.072-9.355q-.01-2.965-.016-5.932l-.038-2.831.01-2.63-.011-2.312c.414-2.261 1.701-5.004 4.367-5.004"/><path fill="#212023" d="M212 447h1l.228 2.3c1.627 17.368 1.627 17.368 4.397 34.575 1.923 9.956 2.12 20.009 2.375 30.125-6.7-10.05-6.38-26.35-7.496-38.203l-.256-2.638a486 486 0 0 1-.463-5.128c-.192-2.019-.48-4.027-.785-6.031l-2-1v-5h2z"/><path fill="#2e2d34" d="m592 454 2 3h3c.125 2.875.125 2.875 0 6l-2 2c-.492 2.284-.492 2.284-.71 4.96-.11 1.021-.218 2.041-.33 3.092-.11 1.097-.22 2.193-.335 3.323-.93 8.423-2.034 16.75-3.687 25.063l-.492 2.542c-1.19 5.765-1.19 5.765-3.446 8.02-.372-9.47 1.051-18.538 2.438-27.875q.692-4.714 1.37-9.43l.328-2.274C591 466.297 591.601 460.17 592 454"/><path fill="#a59baf" d="m312 34-.55 1.8a809 809 0 0 0-4.075 13.825l-.727 2.54c-1.608 7.033-1.834 14.058-1.964 21.241l-.063 2.925q-.096 4.585-.183 9.169l-.131 6.25q-.16 7.625-.307 15.25h-1l.013-1.817q.066-9.443.097-18.886.015-3.514.04-7.03c.025-3.386.037-6.771.045-10.158l.032-3.126c0-6.267-.6-12.141-1.796-18.295-.425-2.648-.644-5.015-.431-7.688 1.898-1.8 1.898-1.8 4.375-3.312l2.46-1.551C310 34 310 34 312 34"/><path fill="#857d91" d="M136 458c4.098 1.863 7.3 4.53 10.781 7.344 3.55 2.649 6.846 3.889 11.114 5.053 4.394 1.258 8.711 2.771 13.042 4.228l2.94.984Q177.44 476.803 181 478v3c-12.273.8-22.534-5.352-32.605-11.633-2.375-1.432-2.375-1.432-5.02-2.394-3.267-1.338-5.102-3.31-7.375-5.973z"/><path fill="#8d8599" d="M585 507c1.563 1.063 1.563 1.063 3 3-.25 2.344-.599 4.677-1 7l-.54 3.47q-.774 4.8-1.562 9.6-.336 2.06-.666 4.12-.481 3.004-.978 6.005l-.584 3.595c-.615 2.948-1.502 5.447-2.67 8.21-.445 2.662-.445 2.662-.625 5.313l-.227 2.675L579 562l-3 1c-.136-5.55.27-10.57 1.375-16l.416-2.132c.672-3.396 1.392-6.77 2.271-10.118 1.3-5.202 2.095-10.458 2.938-15.75q.56-3.375 1.125-6.75l.508-3.047z"/><path fill="#302f33" d="M519 179h1c-.155 8.751-1.436 16.402-3.916 24.74-2.115 7.144-3.748 14.362-5.296 21.649-1.183 5.431-2.708 10.453-4.788 15.611h-1c-.365-6.294 1.002-11.693 2.625-17.75 2.72-10.453 5.131-20.948 7.37-31.515l.708-3.282.614-2.901c.644-2.406 1.48-4.38 2.683-6.552"/><path fill="#242229" d="M595 231h1c1.954 7.729 2.224 15.05 2 23h2l.148-2.125c1.126-14.286 1.126-14.286 4.852-19.875.246 6.836-.683 13.214-1.875 19.938l-.527 3.189-.528 3.025-.476 2.75L601 263l-2 1c-.465 1.895-.465 1.895-.625 4.063L598 272h-1c-1.652-13.729-2.25-27.175-2-41"/><path fill="#27272a" d="M493 663h1l2 22 8 1-1 2h-6a4513.313 4513.313 0 0 1 1 9.188c.095.864.19 1.728.29 2.619.437 4.08.846 8.08.71 12.193h8v1h-11q-.865-7.015-1.709-14.032-.288-2.381-.582-4.763c-1.3-10.538-2.506-20.647-.709-31.205"/><path fill="#54505c" d="M532 61h1q.114 10.159.165 20.319.022 3.442.061 6.885c.157 14.05.25 28.083-3.226 41.796l-2 1q-.04-3.437-.062-6.875l-.036-3.867c.025-2.972.239-5.867.567-8.82.739-6.837.886-13.693 1.093-20.563l.131-4.055q.159-4.91.307-9.82h1z"/><path fill="#777182" d="M219 500h1l.427 2.842q.794 5.25 1.6 10.5.345 2.267.686 4.533.493 3.27.998 6.54l.3 2.026c.63 4.03 1.656 7.711 2.989 11.559.437 2.676.817 5.31 1.125 8l.262 2.078c.48 3.996.701 7.899.613 11.922-3.793-3.847-4.128-8.58-5-13.687l-.507-2.817c-.507-2.83-1-5.663-1.493-8.496q-.441-2.46-.887-4.918A994 994 0 0 1 219 518l-.645-3.79C218 511 218 511 219 508c.067-1.394.085-2.792.063-4.187z"/><path fill="#d5cce1" d="M301 45c6.052 9.077 3.009 26.584 2.758 37.172-.071 3.113-.125 6.226-.178 9.34q-.063 2.97-.13 5.941l-.045 2.819-.07 2.592-.05 2.281C303 107 303 107 301 109q-.231-11.409-.443-22.819-.097-5.298-.205-10.596c-.083-4.064-.157-8.127-.23-12.19l-.083-3.833-.06-3.578-.061-3.143c.079-2.734.459-5.183 1.082-7.841"/><path fill="#8c8399" d="m669 458 3 1c-14.39 14-14.39 14-22 14v2c-3.76 2.174-7.819 3.102-12 4.125l-2.156.55c-3.415.848-6.302 1.325-9.844 1.325v-2l1.665-.61 7.523-2.765 2.619-.96q3.599-1.327 7.193-2.665c.86-.313 1.72-.626 2.605-.95 3.637-1.595 7.063-3.538 10.52-5.488l2.168-1.197c.69-.387 1.38-.774 2.09-1.174l1.887-1.056c1.83-1.2 3.24-2.54 4.73-4.135"/><path fill="#494751" d="m204 283 2 3 2-3-.199 3.259c-.885 15.455-1.113 30.916-1.333 46.392q-.078 5.321-.161 10.642-.159 10.353-.307 20.707h-1v-55h-2z"/><path fill="#413d49" d="M601 390h1c.415 15.72-.842 31.335-2 47h-1l-2-10-1 7h-1c.987-24.776.987-24.776 2-36h1v11h2z"/><path fill="#474550" d="M332 417h1q.038 11.117.055 22.235.008 3.765.02 7.531c.055 16.108-.19 32.149-1.075 48.234h-1c-.96-16.115-1.122-32.173-1.062-48.312q.008-3.615.013-7.229.017-8.73.049-17.459h1z"/><path fill="#35363a" d="m488 303 3 1c-3.794 22.804-3.794 22.804-6.406 32.473-.97 4.13-1.323 8.3-1.594 12.527h-1l-1-5-2 4c1.813-15.259 5.337-30.097 9-45"/><path fill="#dad2e2" d="M453 535h2c1.733 5.546 1.186 11.506 1.185 17.26.002 2.14.02 4.278.04 6.418.034 8.62-.605 16.822-2.225 25.322h-1c-1.527-16.416-.84-32.57 0-49"/><path fill="#8f879b" d="M355 631h95v6h-1v-5h-91l-2 11h-1z"/><path fill="#656069" d="M626 651h1v6l-2.71.953c-8.204 2.9-8.204 2.9-16.29 6.11-17.135 6.933-17.135 6.933-24 4.937 2.424-2.424 4.186-2.827 7.46-3.805l3.372-1.02 3.543-1.05q3.42-1.025 6.836-2.055l3.401-1.022c4.379-1.354 8.715-2.823 13.047-4.318C624 655 624 655 626 655z"/><path fill="#232426" d="M488 625c3.225 4.838 3.49 9.367 4.063 15l.27 2.657c.856 9.122.853 18.191.667 27.343h-2c-3.582-31.32-3.582-31.32-3-45"/><path fill="#4d474f" d="M260 679c6.156.496 12.172 1.357 18.25 2.438 10.518 1.85 21.11 2.728 31.75 3.562l-1 2c-15.558.645-33.288-.469-48-6z"/><path fill="#131619" d="M209 244h1c.194 10.216.175 20.326-.875 30.5l-.238 2.406c-.42 3.72-.862 6.895-2.887 10.094h-1c-.123-7.08.044-14.12.438-21.187l.118-2.287c.323-5.405.323-5.405 1.444-6.526.397-2.18.743-4.37 1.063-6.562l.535-3.63z"/><path fill="#d1d1d0" d="M184 574h1c-.453 7.227-1.525 14.24-2.836 21.35-1.366 7.513-2.296 15.065-3.164 22.65h-1q-.04-3.625-.062-7.25l-.026-2.066c-.016-3.377.032-6.457 1.088-9.684h-1l-2 6c-2.704-5.408 3.148-16.528 5.072-22.345Q182.52 578.322 184 574"/><path fill="#2d2d2f" d="M307 267h2q1.727 6.611 3.418 13.232.577 2.248 1.164 4.493a982 982 0 0 1 1.668 6.494l.53 1.996c1.186 4.74 1.37 8.941 1.22 13.785h-2l-2.875-12.437-.816-3.53Q310.15 286.017 309 281l-.637-2.748c-.874-3.825-1.617-7.314-1.363-11.252"/><path fill="#a79db7" d="M211 428h1q.727 2.06 1.438 4.125l.808 2.32c2.192 7.427 1.817 14.75 1.715 22.412-.042 5.173.211 10.022 1.039 15.143.06 1.645.088 3.292.063 4.938l-.028 2.34L217 481h-1q-1.104-9.525-2.2-19.05-.708-6.186-1.445-12.368l-.542-4.644-.254-2.064c-.573-4.977-.644-9.874-.559-14.874"/><path fill="#cec3da" d="M106 401h1c.995 7.387 1.118 14.616 1.063 22.063l-.014 3.49q-.018 4.223-.049 8.447l-2 1c-1.695-9.822-2.25-19.056-2-29h2z"/><path fill="#9b93a9" d="M565 337c-.37 11.346-2.472 21.97-5 33-3.016-3.562-3.016-3.562-2.875-7.5.771-4.593 2.003-9.08 3.184-13.582a56 56 0 0 0 1.254-7.606L562 338c2-1 2-1 3-1"/><path fill="#9991a8" d="m241 338 3 1 .332 2.203c1.03 6.533 2.375 12.84 4.18 19.203.796 4.228-.144 6.042-2.512 9.594-.843-4.207-1.672-8.415-2.5-12.625l-.723-3.605-.683-3.497-.635-3.205c-.46-3.072-.54-5.967-.459-9.068"/><path fill="#968ea4" d="M636 486c3.378.405 6.523.837 9.75 1.938 8.16 2.667 16.725 3.435 25.25 4.062v2c-12.148.575-24.053.015-35-6z"/><path fill="#424249" d="M623 148c2.265 8.557-.616 16.735-3.184 24.934-1.253 4.011-2.238 7.887-2.816 12.066h-3c.636-7.92 2.904-15.39 5.063-23l1.142-4.082q1.39-4.961 2.795-9.918"/><path fill="#746d7e" d="M318 35h1c.125 4.75.125 4.75-1 7l66 1v1l-69 1c1.125-6.75 1.125-6.75 3-10"/><path fill="#2f2e32" d="M312 674h1c.255 8.442-.11 16.72-.875 25.125l-.238 2.764-.254 2.619-.222 2.332c-.444 2.336-1.256 4.093-2.411 6.16-.983-3.234-1.06-6.018-.914-9.387l.133-3.092.156-3.208.133-3.245c.362-7.938.362-7.938 1.492-9.068.395-1.846.742-3.702 1.063-5.562l.535-3.067z"/><path fill="#191a1c" d="M530 53c2.063.438 2.063.438 4 1l-2 1v49h-1q-.43-8.752-.854-17.505l-.292-5.947-.417-8.58-.132-2.658C529.06 64.2 528.866 59.115 529 54z"/><path fill="#948ca2" d="M170 487c-.55 1.89-.55 1.89-2 4a43.5 43.5 0 0 1-7.187 1.75l-2.133.372c-7.24 1.158-14.366 1.162-21.68.878v-2l3.332-.332c7.67-.808 14.994-1.709 22.371-4.082 2.511-.64 4.716-.687 7.297-.586"/><path fill="#c0c1be" d="M614 540c2.03 3.046 2.755 5.261 3.691 8.77l.924 3.443.947 3.6.96 3.564c1.383 5.197 2.659 10.303 3.478 15.623l-1-2h-2v5h-1l-.335-2.06q-.767-4.689-1.54-9.378l-.527-3.24c-.916-5.544-1.91-11.031-3.223-16.496-.472-2.3-.526-4.487-.375-6.826"/><path fill="#857c90" d="M595 208h1l.148 3.805c.417 11.762.417 11.762 2.645 23.285.27 2.496-.52 3.796-1.793 5.91l-1-3-1 8h-1q-.037-7.877-.055-15.753-.008-2.682-.02-5.363c-.013-2.565-.018-5.129-.023-7.693l-.015-2.436c0-1.919.051-3.837.113-5.755z"/><path fill="#8f879b" d="M210 210h1v43h-1l-1-6h-1q.177-7.663.372-15.326.066-2.609.125-5.218.088-3.741.187-7.483l.05-2.37c.152-5.49.152-5.49 1.266-6.603"/><path fill="#938aa1" d="m595 462 2 1a85 85 0 0 1 1.125 7.125l.508 3.945c.343 3.673.434 7.244.367 10.93h-1l-1-5c-3.01 2.007-3.63 2.839-5 6 .447-8.155 1.112-16.043 3-24"/><path fill="#a79eb6" d="m525 456 3 1c-1.756 6.145-4.196 11.775-7 17.5l-1.043 2.178c-.907 1.815-1.925 3.574-2.957 5.322l-3 1c1.993-6.393 4.415-12.47 7.188-18.562l1.115-2.479q1.343-2.982 2.697-5.959"/><path fill="#d6cdde" d="m337 280 1 3h2c1.698 5.838 2.253 10.931 2 17l-1-2-5 2c-.13-6.742.202-13.304 1-20"/><path fill="#3c3a3f" d="M302 241c1.48 2.772 2.49 5.405 3.29 8.441l.663 2.518.672 2.603.695 2.616C309 263.612 309 263.612 309 267h-2l-1 2c-3.87-15.14-3.87-15.14-5.375-21.875l-.523-2.305L300 243z"/><path fill="#38363f" d="M519 179h1c-.294 9.66-1.181 19.007-5 28l-3 1c.708-5.467 1.744-10.807 2.938-16.187l.513-2.405.514-2.326.457-2.087c.626-2.16 1.518-4.017 2.578-5.995"/><path fill="#181719" d="m598 263 2 1c.41 1.73.41 1.73.633 3.973l.254 2.478.238 2.611.262 2.53c.507 5.16.697 10.223.613 15.408h-1l-1 5h-1c-.91-11.024-1.114-21.943-1-33"/><path fill="#54515a" d="M733 782c-2.195 2.195-3.169 2.48-6.105 3.219l-2.483.636-2.6.645-5.042 1.281-2.457.618a178 178 0 0 0-6.211 1.75c-3.176.871-5.826 1.01-9.102.851l-1-2 2.754-.516c8.123-1.566 16.051-3.431 24.004-5.714 2.905-.69 5.277-.932 8.242-.77"/><path fill="#9e96ad" d="M535 433c2.085 3.414 2.085 3.414 1.715 5.973l-.778 2.09-.867 2.343c-1.894 4.592-3.947 9.104-6.07 13.594h-3c1.922-8.33 5.412-16.27 9-24"/><path fill="#48454e" d="M496 687h7v1h-6l.184 1.665q.411 3.76.816 7.523c.095.864.19 1.728.29 2.619.437 4.08.846 8.08.71 12.193h8v1h-11c-.775-8.84-1.194-17.168 0-26"/><path fill="#9c93ac" d="M155 470c3.472.634 6.739 1.5 10.082 2.629l2.822.947 2.909.986 2.966.999q3.612 1.215 7.221 2.439v3c-6.166.402-11.177-1.032-17-3l4-1c-1.876-1.876-4.644-2.57-7.062-3.562l-3.348-1.38L155 471z"/><path fill="#c1b8cf" d="M312 34c-.779 3.433-1.63 6.752-3 10-2.562 1.5-2.562 1.5-5 2l-2 2-1-8a783 783 0 0 1 4.375-3l2.46-1.687C310 34 310 34 312 34"/><path fill="#867d97" d="M619 530c2.716 2.716 3.122 5.753 4 9.375 1.162 4.992 1.162 4.992 3.063 9.73 1.267 2.56 1.539 5.011 1.937 7.832.564 3.987 1.37 7.375 3 11.063l-2 2q-1.656-5.76-3.308-11.523l-1.672-5.82C619 535.133 619 535.133 619 530"/><path fill="#c9c0d3" d="M71 572c1.441 2.882.928 5.18.688 8.375-.08 1.142-.158 2.284-.239 3.46-.413 2.914-.782 4.764-2.449 7.165l-3 1c-.313-6.57.221-11.97 3-18z"/><path fill="#313236" d="M295 217c3.39 3.672 4.142 7.638 5.188 12.375l.537 2.25c.962 4.204 1.475 8.033 1.275 12.375-3.565-3.16-4.197-6.742-5.187-11.25l-.538-2.238C295.222 225.9 294.82 221.727 295 217"/><path fill="#1a1a1f" d="M590 482h1c.4 6.845-.209 13.33-1.375 20.063l-.382 2.273c-.991 5.412-.991 5.412-3.243 7.664-.474-9.957.837-20.51 4-30"/><path fill="#a39ab9" d="M691 765h2c1.254 7.524 1.254 7.524 0 9.875-1.39 2.955-.975 5.158-.625 8.375l.336 3.266L693 789l3-2c2.688.375 2.688.375 5 1-3.435 2.29-4.985 2.178-9 2q-1.048-3.62-2.062-7.25l-.604-2.066c-1.734-6.267-1.734-6.267-.334-9.684l1 3z"/><path fill="#8d839e" d="M604 516h1q1.111 5.869 2.191 11.743.37 1.997.748 3.992c.363 1.915.714 3.832 1.065 5.75l.65 3.49c.316 2.765.26 4.435-.654 7.025-1.97-4.927-2.18-8.78-2-14l-3 4z"/><path fill="#625c6a" d="m785 758 1 4c-11.719 5.86-11.719 5.86-13.848 6.916q-2.211 1.115-4.398 2.277c-1.89.993-3.82 1.907-5.754 2.807-2-1-2-1-3-3l1.68-.703q3.786-1.585 7.57-3.172l2.645-1.105 2.558-1.075 2.349-.984c2.208-.931 2.208-.931 4.295-2.083C782 761 782 761 785 761z"/><path fill="#938ba1" d="M650 474c-3.536 3.214-7.464 4.132-12 5.188l-2.156.537c-3.406.822-6.32 1.275-9.844 1.275v-2a656 656 0 0 1 8.063-3.062l2.279-.893c5.06-1.862 8.388-2.27 13.658-1.045"/><path fill="#a29bb1" d="M281 460c2.05 2.05 2.753 3.434 3.875 6.063 1.064 2.479 2.13 4.947 3.273 7.39l1.102 2.36 1.016 2.144C291 480 291 480 291 484h-2a859 859 0 0 1-4.562-9.187l-1.327-2.62-1.24-2.548-1.158-2.333c-.862-2.795-.49-4.528.287-7.312"/><path fill="#3c3a42" d="M324 337h1q.794 4.373 1.563 8.75l.458 2.5.42 2.422.397 2.222c.177 2.297-.19 3.908-.838 6.106a447 447 0 0 0-1 6h-1c-1.347-9.494-2.529-18.435-1-28"/><path fill="#cdc4db" d="M301 45c3.57 5.354 3.596 13.182 2.613 19.477-.55 1.898-.55 1.898-1.613 4.523-2.408-3.74-2.235-7.072-2.187-11.437l.019-3.934c.14-3.016.463-5.704 1.168-8.629"/><path fill="#7d748b" d="M210 459c2.425 3.637 2.387 5.857 2.625 10.188l.227 3.855L213 476l-2-3c-2.29 2.815-2.29 2.815-1.937 6-.063 3-.063 3-1.567 4.688L206 485c1.91-21.821 1.91-21.821 4-26"/><path fill="#4a4750" d="m607 212 3 2c-.603 7.236-2.115 13.994-4 21h-3c.793-7.768 2.419-15.363 4-23"/><path fill="#90889d" d="M579 539c1.516 1.246 1.516 1.246 3 3 .11 1.973.11 1.973-.25 4.063l-.328 2.097C581 550 581 550 580 552a121 121 0 0 0-.562 5.125l-.254 2.758L579 562l-3 1c-.155-5.731.348-10.893 1.5-16.5l.434-2.203A863 863 0 0 1 579 539"/><path fill="#e3e3e2" d="M97 407q.04 2.094.063 4.188l.035 2.355C97 416 97 416 96.53 418.313c-.688 3.482-.887 6.964-1.094 10.5l-.13 2.1Q95.149 433.454 95 436h-1c-.556-7.263-1.073-14.53-1.25-21.812l-.078-2.895L93 409c3-2 3-2 4-2"/><path fill="#48444f" d="M313 652h1c1.333 19.968 1.333 19.968 0 29-1.516-1.027-1.516-1.027-3-3a56 56 0 0 1 .25-7.562l.176-2.159c.174-2.095.37-4.187.574-6.279l.3-3.277q.322-3.365.7-6.723"/><path fill="#55505c" d="M180 643h1v11l2.738 1.023 3.575 1.352 3.55 1.336C194 659 194 659 197 661c-5.181 1.361-7.719.598-12.375-1.937l-3.21-1.715L179 656c-.077-4.516-.102-8.59 1-13"/><path fill="#312e35" d="M217 487h1c.766 3.46 1.171 6.76 1.316 10.3l.127 2.96.12 3.053.13 3.11q.159 3.788.307 7.577c-2.252-3.378-2.837-5.982-3.687-9.937l-.825-3.715c-.445-3.05-.477-4.524.512-7.348a447 447 0 0 0 1-6"/><path fill="#e0e1e0" d="m178 598 2 1-.184 1.8A1658 1658 0 0 0 178 620h-1v-9l-5 3q.423-2.222.875-4.437l.492-2.497L174 605l2-1c.727-1.979 1.398-3.98 2-6"/><path fill="#1c1d1f" d="M326 540h1c.227 21.711.227 21.711-1 27l-2 2c-.27-22.191-.27-22.191 2-29"/><path fill="#877e9b" d="M197 492h1c-.352 8.414-1.092 16.062-4 24h-1l-1-15 4-1z"/><path fill="#aca2bc" d="m120 448 4 2v2l3 1a173 173 0 0 1 5 6l2 2c-1.777.664-1.777.664-4 1-4.361-2.495-7.911-6.453-10-11z"/><path fill="#a89db3" d="M208 224h1c.105 10.397.025 20.643-1 31h-2c-.81-5.956-1.332-11.032.453-16.809 1.153-4.62 1.247-9.451 1.547-14.191"/><path fill="#635c70" d="M489 40c2.4 3.6 4.322 6.961 3.625 11.375L492 53l-1-5-21-1v-1l2.922-.148 3.828-.227c1.253-.07 2.506-.14 3.797-.21 3.078-.37 4.954-.632 7.453-2.415z"/><path fill="#d5ccdf" d="M87 499c3.082 4.623 3.128 8.315 3.063 13.688l-.014 2.126q-.02 2.594-.049 5.186c-3.353-3.515-3.563-6.98-3.75-11.625l-.129-2.062c-.268-5.02-.268-5.02.879-7.313"/><path fill="#48464c" d="M188 170c3.748 5.623 5.556 13.01 4.688 19.75L192 193c-3.249-3.249-3.245-7.582-4-12l-.687-3.875c-.28-2.787-.25-4.522.687-7.125"/><path fill="#d3cbdd" d="M461 660h1l.375 2.938L463 666l2 1-1 17c-2.535-3.802-3.132-6.6-3.098-11.11l.01-2.285.026-2.355.013-2.402q.02-2.925.049-5.848"/><path fill="#e3e3e3" d="M621 573h2c4.408 9.41 4.408 9.41 5 14l-3-2-3 2c-.953-4.763-1.083-9.167-1-14"/><path fill="#b6acbf" d="M459 311c3 2 3 2 3.469 3.953.06 4.37-.086 7.178-2.969 10.61L457 328c-1.447-3.872-.544-6.823.438-10.75l.87-3.547z"/><path fill="#d6cddf" d="M463 302h1a144 144 0 0 1 1 20h-3l-.684-5.957c-.288-2.237-.288-2.237-1.316-5.043h2l-.062-3.375C462 304 462 304 463 302"/><path fill="#a098ae" d="m209 207 3 1v45h-1l-.076-3.792q-.142-6.966-.296-13.933-.066-3.015-.125-6.029-.088-4.335-.187-8.668l-.05-2.721-.06-2.547-.048-2.234c-.162-2.123-.582-4.03-1.158-6.076"/><path fill="#d2cbdf" d="M250 701h26c-3.9 1.95-5.766 2.125-9.992 2-2.188-.062-2.188-.062-5.008.563-3.891.567-7.12.04-11-.563z"/><path fill="#0a0a0c" d="M600 387h1q.04 3.813.063 7.625l.025 2.16c.02 4.188-.261 8.088-1.088 12.215h-2c-.191-15.31-.191-15.31 1-21z"/><path fill="#a098b1" d="M123 755c1.71 3.419-.044 7.061-.937 10.625l-.592 2.43c-.484 1.983-.977 3.964-1.471 5.945h-2c-.339-6.208.42-11.296 3-17z"/><path fill="#8c869a" d="M225 534c2.293 3.718 2.65 7.624 3.125 11.875l.262 2.105c.478 4.028.702 7.966.613 12.02-2.79-3.196-3.599-5.772-4.25-9.937l-.516-3.09c-.231-2.94.083-5.126.766-7.973a99 99 0 0 0 0-5"/><path fill="#8e849a" d="M448 309c1.43 2.354 2.087 3.48 1.625 6.25L449 317h2l1-7c1.38 3.767.596 6.448-.437 10.25l-.872 3.266L450 326c-2.31-1.799-2.954-2.636-3.328-5.594l.078-2.906c.015-.96.03-1.918.047-2.906C447 312 447 312 448 309"/><path fill="#cdc2d9" d="M133 233c2.405 3.607 2.513 6.559 2.75 10.75l.168 2.094c.3 4.84-.356 8.566-1.918 13.156h-1c-.775-8.84-1.194-17.168 0-26"/><path fill="#d1c9dd" d="m33 720 1 4 .531 1.844c.515 2.367.567 4.487.532 6.906l-.028 2.422L35 737l-2 1-1.465-5.957c-.445-1.7-.98-3.376-1.535-5.043a110 110 0 0 1 3-7"/><path fill="#aaa1b0" d="M87 488h3l-1 14-2-1-1 7h-2c.664-6.746 1.719-13.344 3-20"/><path fill="#c8bfd6" d="M703 433h2c1.591 4.177 2.213 7.532 2 12h-2l-1 2-2 1z"/><path fill="#d2cade" d="m713 469 2 1q.079 2.593.125 5.188l.07 2.917c-.204 3.023-.926 5.163-2.195 7.895-2.344-3.663-2.295-6.726-2-11 1-3.437 1-3.437 2-6"/><path fill="#595563" d="M585 507c1.563 1.063 1.563 1.063 3 3-.11 2.525-.443 4.551-1 7l-.746 3.348A895 895 0 0 1 584 530h-1q.214-3.782.438-7.562l.119-2.135c.268-4.483.75-8.866 1.443-13.303"/><path fill="#3d3c46" d="M475 381h1c1.167 8.67 1.097 17.274 1 26h-3c-.185-17.856-.185-17.856 1-26"/><path fill="#2d2e30" d="M320 323h2c1.788 6.817 2.237 12.965 2 20-3.63-3.63-3.869-9.445-4.125-14.437 0-1.855.056-3.71.125-5.563"/><path fill="#2c2b31" d="M530 108h1q.04 3.53.063 7.063l.035 3.972c-.093 3.761-.351 7.278-1.098 10.965l-2 1c-.369-15.745-.369-15.745 2-23"/><path fill="#c8c1d2" d="M749 625h3l1 10-5 2c-.143-8.571-.143-8.571 1-12"/><path fill="#39383d" d="M182 153c2 1 2 1 3.07 3.695 3.485 11.334 3.485 11.334 2.93 17.305-2.716-2.716-3.2-5.76-4.125-9.375-.182-.673-.364-1.346-.55-2.04-.876-3.343-1.325-6.1-1.325-9.585"/><path fill="#d5cedf" d="M767 697h2l2 10h-2l-1 3h-2a701 701 0 0 1-.062-4.812l-.036-2.708C766 700 766 700 767 697"/><path fill="#4e4951" d="M520 684c-5.295 3.53-10.15 3.042-16.312 2.563l-2.245-.159q-2.722-.195-5.443-.404v-1c8.017-1.125 15.921-1.096 24-1"/><path fill="#a198b4" d="M589 472h1c.285 8.135-.816 15.976-2 24h-1c-2.443-10.861-2.443-10.861-.687-15.375L588 478c.708-3.237.708-3.237 1-6"/><path fill="#938aa0" d="M351 332h1q.762 3.998 1.5 8l.434 2.254c.912 4.998 1.205 9.665 1.066 14.746h-1c-.982-4.053-1.082-7.839-1-12l-3-1-1-5h1z"/><path fill="#423f48" d="M292 202c3.791 6.77 4.254 12.527 3 20-3.632-6.928-4.353-12.423-3-20"/><path fill="#bdb3cb" d="M277 111h1l.375 2.375c.416 2.766.416 2.766 2.625 4.625.195 2.82.195 2.82.125 6.125l-.055 3.32L281 130l-2 1c-1.42-6.783-2.227-13.067-2-20"/><path fill="#e4e0eb" d="M463 648h1v18l-2 1a577 577 0 0 1-.625-6.687l-.352-3.762c-.023-3.48.436-5.476 1.977-8.551"/><path fill="#3a3840" d="M323 560h1c.815 9.178 1.111 17.818 0 27h-1c-1.578-9.074-1.086-17.887 0-27"/><path fill="#d5cddd" d="M731 553h2c.592 3.013 1.058 5.924 1 9-1.937 2.563-1.937 2.563-4 4-1.16-4.255-.829-7.689 0-12z"/><path fill="#d1cadb" d="M347 323c2.703 4.054 3.491 6.09 3 11-2.02 2.195-2.02 2.195-4 4q-.04-3.469-.062-6.937l-.036-3.903C346 324 346 324 347 323"/><path fill="#9e95ad" d="M624 637h1a125 125 0 0 1 1 18l-4 1q.214-3.345.438-6.687c.08-1.242.162-2.483.246-3.762.26-2.933.664-5.685 1.316-8.551"/><path fill="#d8d1e1" d="M465 630v12h-2l-1 5h-1c-.081-2.27-.14-4.541-.187-6.812l-.106-3.833C461 633 461 633 462.449 631.051 464 630 464 630 465 630"/><path fill="#252424" d="M735 533h1a311 311 0 0 1 1.063 4.25l.597 2.39c.355 2.464.109 4.016-.66 6.36v-3h-2l-2 6c-1.46-2.647-2-3.894-2-7h2z"/><path fill="#817793" d="M602 457c2.503 2.938 3.47 5.179 4 9h2q.255 2.343.5 4.688l.281 2.636c.21 2.573.256 5.096.219 7.676-3.93-7.242-6.238-15.813-7-24"/><path fill="#a096ab" d="M703 412h1c.533 3.748 1.05 7.499 1.563 11.25l.458 3.223c.14 1.024.278 2.05.42 3.105l.397 2.857c.156 2.474-.083 4.222-.838 6.565l-1-6h-2z"/><path fill="#9085a3" d="M204 449h1c.214 6.644-.488 12.532-2 19l-1-3h-2c-.187-3.375-.187-3.375 0-7l3-2c.736-3.568.736-3.568 1-7"/><path fill="#9b93a9" d="M275 446c1.42 2.814 2.802 5.64 4.125 8.5l1.07 2.281C281 459 281 459 281 463h-2q-1.225-2.623-2.437-5.25l-1.372-2.953c-1.91-4.484-1.91-4.484-2.191-6.797z"/><path fill="#aea6b7" d="M99 447c1.66 3.318-.053 6.586-1 10l-.937 3.875C96 464 96 464 93 466c1.585-14.585 1.585-14.585 6-19"/><path fill="#323037" d="M196 208c4.659 5.469 4.134 11.159 4 18-2-1-2-1-2.633-2.785-1.122-5.195-1.56-9.902-1.367-15.215"/><path fill="#4e4a53" d="M626 651h1v6a804 804 0 0 1-6.812 2.563l-1.948.748c-4.9 1.802-4.9 1.802-8.24.689 4.506-3.052 10.435-6 16-6z"/><path fill="#0d0d0e" d="M56 607h3c.25 6.625.25 6.625-2 10l-2-3-3 3c.562-3.936 1.617-6.792 4-10"/><path fill="#ada3bc" d="M670 457h3c-.82 5.785-5.63 9.535-10 13-2.601.972-4.189 1.06-7 1 3.67-2.982 7.426-5.825 11.23-8.633 1.88-1.392 1.88-1.392 3.77-3.367z"/><path fill="#d6cde0" d="M97 457c2.26 3.595 2.209 6.566 2.125 10.75l-.055 3.547L99 474l-2 1q-.29-4.219-.562-8.437l-.17-2.432c-.13-2.042-.203-4.086-.268-6.131z"/><path fill="#28272c" d="M310 693h1q.08 3.875.125 7.75l.05 2.21c.036 3.844 0 6.786-2.175 10.04-2.171-6.785-.7-13.308 1-20"/><path fill="#8c859a" d="M551 390h2c-1.3 6.715-3.3 12.72-6 19h-1c.607-6.677 2.776-12.701 5-19"/><path fill="#313034" d="M288 189c3.249 4.097 4.13 6.984 4.063 12.188l-.028 2.73L292 206l-2-1c-1.585-5.194-2.285-10.579-2-16"/><path fill="#544f5a" d="M77 784c6.575.62 12.667 2.149 19 4v1c-6.578-.41-12.74-.866-19-3z"/><path fill="#4b4952" d="M326 528h1l1 5h1c.077 4.516.102 8.59-1 13-1.5-1-1.5-1-3-3-.343-5.15.154-9.923 1-15"/><path fill="#313237" d="M481 343h1c.185 12.67.185 12.67-1 18h-1c-1.552-6.21-1.914-12.172 1-18"/><path fill="#aca4bc" d="M208 483c2.786 4.18 1.796 6.147 1 11l-3 1a365 365 0 0 1-.125-4.875l-.07-2.742C206 485 206 485 208 483"/><path fill="#312e37" d="M212 447h1l1 16-5-2v-5h2z"/><path fill="#28282b" d="M491 289h2c.333 6.21-.55 10.283-3 16h-1c-.24-5.633.615-10.545 2-16"/><path fill="#2c2d30" d="M203 242c3.011 4.517 3.1 7.664 3 13h2l-2 6h-1c-1.324-6.43-2.248-12.43-2-19"/><path fill="#9990a8" d="M601 238h1c-.499 5.369-1.022 10.692-2 16h-2v-13l3 1z"/><path fill="#3f3c46" d="M504 238c2 3 2 3 1.75 5.938-1.137 4.642-2.33 6.641-5.75 10.062z"/><path fill="#7c7289" d="M489 148h1c-.403 7.547-.822 14.74-3 22h-1l-1-11h3l-.035-1.898c-.01-.818-.018-1.635-.027-2.477l-.036-2.46C488 150 488 150 489 148"/><path fill="#36333a" d="M478 524h1c1.494 5.76 2.523 11.038 2 17l-3 2z"/><path fill="#443f46" d="M586 669c-2.401 2.401-4.055 2.752-7.312 3.625-1.418.39-1.418.39-2.864.79-2.703.56-5.074.695-7.824.585 4.99-4.575 11.446-5.328 18-5"/><path fill="#aca3bb" d="m241 338 3 1c1.125 7.625 1.125 7.625 0 11a100 100 0 0 0 0 5c-2.15-3.532-2.38-6.663-2.625-10.75l-.227-3.547z"/><path fill="#4b4651" d="m204 283 2 3 2-3-1 20h-1l-1-12h-1z"/><path fill="#544d5e" d="M595 231h1q.508 2.342 1 4.688l.563 2.636c.427 2.613.513 5.034.437 7.676h-2v6h-1z"/><path fill="#8d829a" d="M466 235h5l-2 12c-2.024-3.035-2.321-4.194-2.625-7.687l-.227-2.45z"/><path fill="#65616c" d="M530 123h1c.233 6.283-.595 11.88-2 18h-1l-.437-2.25c-.487-2.637-.487-2.637-1.188-4.687-.516-2.84.051-5.26.625-8.063l2 4z"/><path fill="#938aa0" d="M558 365h1q.079 2.124.125 4.25l.07 2.39c-.212 2.567-.908 4.152-2.195 6.36h-2c.115-1.418.243-2.834.375-4.25.07-.789.14-1.578.21-2.39.43-2.446 1.201-4.208 2.415-6.36"/><path fill="#5f5963" d="m528 682 2 2a311 311 0 0 1-4.25 1.063l-2.39.597c-2.498.36-4.016.248-6.36-.66l-1-2c4.056-.983 7.83-1.236 12-1"/><path fill="#a096af" d="M170 487c-.5 1.938-.5 1.938-2 4-2.697.688-5.202.82-8 1l-2-3c4.12-1.292 7.668-2.263 12-2"/><path fill="#696574" d="M482 330c1.266 3.867 1.112 7.732 1.063 11.75l-.014 2.113q-.02 2.57-.049 5.137h-1l-1-5-2 4c.676-6.082 1.736-12.013 3-18"/><path fill="#9287a0" d="m475 198 2 1-.062 2.688c-.048 3.21-.048 3.21.625 5.875.496 2.764.131 4.737-.563 7.437h-1l-1-8h-1c-.098-6.152-.098-6.152 0-8z"/><path fill="#1f2023" d="M527 134h1c.22 6.098.012 11.216-2 17h-1c-.253-6.069.302-11.162 2-17"/><path fill="#a69fb4" d="m182 99 2 1-14 14c.645-5.593 5.215-9.448 9.313-12.875z"/><path fill="#9387a6" d="M690 778c2.398 2.398 2.343 3.333 2.625 6.625l.227 2.477L693 789l3-2c2.688.375 2.688.375 5 1-3.435 2.29-4.985 2.178-9 2-1.292-4.12-2.263-7.668-2-12"/><path fill="#55515c" d="M761 773c-5.041 2.815-9.226 4.519-15 5v-2q2.618-1.048 5.25-2.062l2.953-1.16c2.837-.79 4.091-.802 6.797.222"/><path fill="#d8d1e1" d="M758 663h2c1.125 6.625 1.125 6.625 0 10h-2l-1 2c-.082-4.161.018-7.947 1-12"/><path fill="#55515e" d="M219 500h1c1.327 6.968 1.088 13.93 1 21-2.324-3.486-2.63-5.865-3-10l1-3c.067-1.394.085-2.792.063-4.187z"/><path fill="#615c6b" d="M210 231h1v22h-1l-1-6h-1l.438-2.937c.622-4.344 1.097-8.7 1.562-13.063"/><path fill="#a69db8" d="M672 697h1l.375 2.438L674 702l2 1-1 2h-2v4h-2l-2-8 3 1z"/><path fill="#a599b3" d="m203 684-1 4 3 1-2 1c-2.164-.777-2.164-.777-4.625-1.937l-2.477-1.153L194 686c3.216-1.746 5.32-2.204 9-2"/><path fill="#3f3d44" d="M490 631h1l1 20h-3z"/><path fill="#756d83" d="M355 631h13v1h-10l-2 11h-1z"/><path fill="#877e9c" d="M614 508c1.984 1.05 1.984 1.05 4 3 .39 3.355.39 3.355.25 7.188l-.11 3.855L618 525c-1.517-2.805-2.453-5.386-3.125-8.5l-.508-2.281C614 512 614 512 614 508"/><path fill="#a499b1" d="M595 417h1c.12 5.778-.168 11.28-1 17h-1l-1-6h-1v-6h2z"/><path fill="#a99fb9" d="M480 367h1c.89 4.632 1.122 6.881-1 11-.448 2.356-.448 2.356-.625 4.75l-.227 2.422L479 387h-1c-.266-6.95.388-13.235 2-20"/><path fill="#4c4a52" d="M180 142c1.903 2.855 2.462 4.42 3.125 7.688l.508 2.449L184 154l-3 2c-1.792-5.166-2.12-8.51-1-14"/><path fill="#08090b" d="m104 386 2 1-1 8-4-2c.375-2.937.375-2.937 1-6z"/><path fill="#625d6a" d="M185 656q2.159.68 4.313 1.375l2.425.773C194 659 194 659 197 661c-3.891 1.02-5.606 1.168-9.375-.437L185 659z"/><path fill="#c1b9ca" d="M348 630h1c.103 5.126.036 9.95-1 15h-2q-.079-2.625-.125-5.25l-.07-2.953c.196-2.817.75-4.406 2.195-6.797"/><path fill="#b2a8c1" d="m518 472 1 2 2 1c-3.625 6.875-3.625 6.875-7 8q.716-2.188 1.438-4.375l.808-2.46C517 474 517 474 518 472"/><path fill="#afa5bf" d="m687 448-1 5-1.812.313c-2.47.776-3.51 1.758-5.188 3.687l-2-1c1.093-1.342 2.2-2.673 3.313-4l1.863-2.25C684 448 684 448 687 448"/><path fill="#8b8499" d="M254 392c2.042 1.692 2.918 2.637 3.512 5.262l.175 2.425.2 2.45L258 404c-2.976-3.068-3.965-4.462-4.25-8.812z"/><path fill="#3c3940" d="M493 663h1l1 16h-3c-.111-5.458.083-10.615 1-16"/><path fill="#59555c" d="M596 666c-2.006 2.714-3.173 3.04-6.562 3.813L586 670l-2-2c4.177-1.591 7.532-2.213 12-2"/><path fill="#5f586b" d="M359 593h1q.252 2.656.5 5.313l.281 2.988C361 604 361 604 361 607l-3 2z"/><path fill="#aca1bd" d="M203 250c1.125 3.75 1.125 3.75 0 6-.225 1.537-.408 3.08-.562 4.625l-.254 2.477L202 265h-1l-1-14z"/><path fill="#56515c" d="M277 120h1l1 11h-1l-1 5h-1a434 434 0 0 1-.625-5.75l-.352-3.234c-.023-3.054.363-4.478 1.977-7.016"/><path fill="#938b9e" d="m312 34-3 10-1-4c-1.984-1.284-1.984-1.284-4-2 5.75-4 5.75-4 8-4"/><path fill="#675f6e" d="m21 759 1 3c2.329 1.027 2.329 1.027 5.063 1.688.919.25 1.838.502 2.785.761L32 765c-1.875 1.055-1.875 1.055-4 2-2-.875-2-.875-4-2h-4z"/><path fill="#cfc6d9" d="M62 616c-.25 2.875-.25 2.875-1 6-2.062 1.375-2.062 1.375-4 2-.366-4.517-.366-4.517 1.375-6.812C60 616 60 616 62 616"/><path fill="#302f2e" d="M183 585h1c.417 1.431.808 2.87 1.188 4.313l.667 2.425c.145 2.262.145 2.262-1.18 3.867L183 597l-2 3c.525-5.03 1.106-10.019 2-15"/><path fill="#ada5bc" d="m565 337-1 14h-1l-1-13c2-1 2-1 3-1"/><path fill="#4b484e" d="M306 257c2.296 3.445 2.54 5.938 3 10h-2l-1 2c-1.286-8.571-1.286-8.571 0-12"/><path fill="#5b555e" d="M30 766c4.389.665 7.981 2.188 12 4l-1 2c-3.724-1.213-7.378-2.509-11-4z"/><path fill="#7e7988" d="M582 532h1c.473 8.193.473 8.193-1.5 11.563L580 545c-.167-4.921-.248-8.503 2-13"/><path fill="#7b7086" d="M359 336c2.13 3.552 2.5 6.927 3 11l.688 2.75C363 352 363 352 361 355q-.506-3.343-1-6.687l-.562-3.762c-.359-2.91-.527-5.628-.438-8.551"/><path fill="#3f3c44" d="m514 197 2 2c-.033 2.729-.564 5.297-1 8l-3 1c1-7.429 1-7.429 2-11"/><path fill="#4f4b56" d="M623 148c1.031 3.27.964 5.86.563 9.25l-.31 2.703L623 162h-3c.715-4.764 1.795-9.342 3-14"/><path fill="#877f9b" d="M678 733c2 1.313 2 1.313 4 4 .36 3.689.23 7.305 0 11-1.743-2.615-2.416-4.005-3.125-6.937l-.508-2.028C678 737 678 737 678 733"/><path fill="#454148" d="M217 668c4.318.508 8.033 1.197 12 3v1a853 853 0 0 1-4.312-.437l-2.426-.247C220 671 220 671 217 670z"/><path fill="#f8f9f8" d="m178 598 2 1-3 10h-2c.672-3.806 1.727-7.352 3-11"/><path fill="#ada5bc" d="M287 473c4 6 4 6 4 11h-2c-3.077-5.292-3.077-5.292-2.687-8.875z"/><path fill="#3d3642" d="M635 110h2v4l2 1-3 6h-2z"/><path fill="#686072" d="m785 758 1 4-8 4-2-2c5.625-3 5.625-3 9-3z"/><path fill="#d1cade" d="M229 692v2l-2.312-.062c-2.79-.067-2.79-.067-5.688 1.062l-2-1v-2c3.695-.95 6.305-.95 10 0"/><path fill="#81798d" d="M190 577h1c1.272 6.474.689 9.977-2 16-1.268-3.654-.757-6.49-.062-10.25l.59-3.266z"/><path fill="#d0d0cd" d="m620 567 1 2h2l1 6-1-2h-2v5h-1z"/><path fill="#867e91" d="M655 471c-1.264.7-2.537 1.384-3.812 2.063l-2.145 1.16C647 475 647 475 644 474c1-2 1-2 4.375-3.187C652 470 652 470 655 471"/><path fill="#1c1b1e" d="M203 360c3.292 4.39 3.587 5.72 3 11l-3 2z"/><path fill="#6d6177" d="M445 346c1.336 3.774.724 6.858.063 10.75l-.59 3.547L444 363h-1q-.079-3.406-.125-6.812l-.07-3.833C443 349 443 349 445 346"/><path fill="#45414b" d="M530 53c2.063.438 2.063.438 4 1l-2 1v6l-3 1c-.098-6.152-.098-6.152 0-8z"/><path fill="#9991aa" d="M129 726c2 3 2 3 1.758 5.7l-.633 2.987-.617 3.012L129 740h-1q-.04-3.22-.062-6.437l-.036-3.622C128 727 128 727 129 726"/><path fill="#5a535e" d="m571 673-1 2c-6.043 1.368-6.043 1.368-9.437.063L559 674c8.036-2.277 8.036-2.277 12-1"/><path fill="#9488a4" d="m632 576 1 4h2c1.478 2.957 1.06 5.742 1 9-2.916-4.374-4.303-7.705-4-13"/><path fill="#343532" d="m613 535 1 2h2l1 10-2-4-2-1z"/><path fill="#9c91aa" d="m593 472 1 4h2c-.787 3.41-1.871 6.689-3 10h-1z"/><path fill="#968ba4" d="M136 458c4.206 1.502 5.739 4.286 8 8-3 0-3 0-5.687-2.312C136 461 136 461 136 458"/><path fill="#9389a3" d="M202 302h1v12c-2.62-2.62-2.708-4.352-3-8 .938-2.375.938-2.375 2-4"/><path fill="#2b2b2e" d="M295 217c2.603 2.712 2.995 3.891 3.188 7.75L298 228l-2-1c-1.158-3.473-1.069-6.36-1-10"/><path fill="#7c7486" d="M329 29c-2 2-2 2-4.562 3-2.586.749-2.586.749-3.438 3h-2c2.167-6.036 3.715-6.137 10-6"/><path fill="#d9d2e3" d="M582 691v3c-2.875.125-2.875.125-6 0l-2-2c2.709-1.354 5.01-1.065 8-1"/><path fill="#a39cac" d="M43 679c1 2 1 2 .223 4.383l-1.16 2.742-1.153 2.758L40 691c-1.3-4.174-.472-6.894 1-11z"/><path fill="#6d6873" d="m611 661 1 2-8 2-1-3c5.75-2.125 5.75-2.125 8-1"/><path fill="#a198b1" d="M558 358c1.563 1.5 1.563 1.5 3 4-.032 2.774-.496 5.253-1 8-1.562-1.5-1.562-1.5-3-4 .032-2.774.496-5.253 1-8"/><path fill="#232329" d="M506 230h2c-.114 1.46-.242 2.917-.375 4.375-.07.812-.14 1.624-.21 2.46C507 239 507 239 505 241c-.143-7.429-.143-7.429 1-11"/><path fill="#958ba4" d="M596 227h1c.392 1.58.763 3.164 1.125 4.75l.633 2.672c.273 2.907-.223 4.145-1.758 6.578-1.05-3.15-1.101-5.388-1.062-8.687l.027-3.012z"/><path fill="#544f5c" d="m524 148 3 1-1 10c-3-3-3-3-3.074-5.043z"/><path fill="#9087a2" d="M693 791h8v1h-5l-1 7c-1.765-3.088-2-4.233-2-8"/><path fill="#d1cadb" d="m24 773 2 3-1 3h-4l-1-3z"/><path fill="#202024" d="M203 301c1.5 1 1.5 1 3 3 .273 2.718.135 5.257 0 8l-1-3h-2z"/><path fill="#1e1f22" d="M519 179h1a402 402 0 0 1-.375 4.938c-.07.916-.14 1.833-.21 2.777-.138.754-.274 1.508-.415 2.285l-2 1c-.286-7.429-.286-7.429 2-11"/><path fill="#afa2bc" d="M534 55q2.19.676 4.375 1.375l2.46.773C543 58 543 58 545 60h-6v-2l-5-1z"/><path fill="#9e94ae" d="M703 785h2v2l8-1c-3.204 2.136-4.02 2.231-7.687 2.125l-2.45-.055L701 788z"/><path fill="#aca3b8" d="M26 739c1.125 1.688 1.125 1.688 2 4-.917 3.132-2.18 5.27-4 8 1-8.571 1-8.571 2-12"/><path fill="#a8a0b1" d="M758 654c2.566 3.85 2.551 6.435 3 11l-1-2h-2z"/><path fill="#aaa0b3" d="M60 607c.91 3.071 1.337 5.799 1 9l-3 2c.875-7.625.875-7.625 2-11"/><path fill="#9a90a7" d="M333 227h3v8h-2z"/><path fill="#a39bb0" d="m228 73-2 5-6-1c5.217-4 5.217-4 8-4"/><path fill="#524c56" d="M49 774c5.538.615 5.538.615 7.875 2.563L58 778c-3.375-.312-3.375-.312-7-1z"/><path fill="#a8a0af" d="M787 766c2.296 3.445 2.54 5.938 3 10l-4 2 .781-5.86c.287-2.445.287-2.445.219-6.14"/><path fill="#5e5764" d="m219 667-2 2c-2.729-.033-5.297-.564-8-1 3.85-2.567 5.586-1.833 10-1"/><path fill="#aaa1ba" d="m179 656 6 2a283 283 0 0 1-5 5h-1z"/><path fill="#948ba4" d="m175 573 2 1c-.75 6.625-.75 6.625-3 10-.125-7.625-.125-7.625 1-11"/><path fill="#73716a" d="M185 567h2l-1 10c-2.567-3.85-1.833-5.586-1-10"/><path fill="#9f95af" d="m576 555 3 1v6l-3 1z"/><path fill="#a098b1" d="M229 555c1.43 2.354 2.087 3.48 1.625 6.25L230 563h-2c-.625-2.875-.625-2.875-1-6z"/><path fill="#9f97b1" d="M208 483c2.152 3.228 2.2 4.284 2 8l-4-2c.875-4.875.875-4.875 2-6"/><path fill="#70677e" d="M208 471h1c.081 1.77.14 3.541.188 5.313l.105 2.988C209 482 209 482 207.488 483.855L206 485q.214-2.376.438-4.75c.08-.882.162-1.763.246-2.672A44 44 0 0 1 208 471"/><path fill="#8a8498" d="m249 374 1 3h2v7l-2-1c-.414-2.066-.414-2.066-.625-4.562l-.227-2.504z"/><path fill="#d1c7dd" d="M202 87h7l-1 3-7-1z"/><path fill="#a198ae" d="m494 34 8 4v1l-6 1z"/><path fill="#9389a5" d="M111 792h3c.125 3.375.125 3.375 0 7l-2 2-1-6h2v-2z"/><path fill="#222" d="M781 721h2l1 8-1-3-3 1z"/><path fill="#45434c" d="M324 337h1l1 9-3 2z"/><path fill="#454544" d="M656 133c2.686 2.686 3.06 5.376 4 9h-3z"/></svg>