<svg xmlns="http://www.w3.org/2000/svg" width="864" height="1184"><path fill="#fdfefd" d="M0 0h864v1184H0z"/><path fill="#030303" d="m413 183.75 3.142-.003c13.89.009 27.7.344 41.546 1.503.698.055 1.396.11 2.115.165 11.695.947 25.145 2.137 33.197 11.585 4.744 6.635 4.562 13.382 4.5 21.284q.006 2.029.017 4.058c.015 3.718.005 7.435-.01 11.154-.01 4.044.002 8.088.011 12.133.013 7.089.01 14.177 0 21.266-.018 10.541-.013 21.083-.003 31.624.018 18.826.012 37.651-.003 56.477a52157 52157 0 0 0-.015 52.733l.002 13.299c.007 41.599-.009 83.198-.035 124.797q-.034 55.457-.018 110.914l.009 31.932a155334 155334 0 0 1-.016 109.212q-.007 24.697 0 49.396.01 28.08-.02 56.157-.018 15.721-.005 31.442.007 10.494-.015 20.989c-.008 3.989-.012 7.978-.002 11.967q.014 5.444-.012 10.887c-.004 1.92.005 3.84.016 5.76-.057 8.42-.755 15.599-7.026 21.832l-1.852 1.925c-7.37 5.145-15.524 5.204-24.228 5.182l-3.768.026q-5.079.027-10.16.023-4.256.002-8.512.017-10.05.027-20.1.015c-6.888-.007-13.776.016-20.665.053q-8.905.045-17.81.038c-3.536-.002-7.072.004-10.608.028-3.946.027-7.891.013-11.838-.005l-3.503.04c-8.205-.084-15.06-1.735-21.244-7.41-7.201-7.65-7.523-15.285-7.47-25.37l-.015-4.041c-.013-3.709-.008-7.417 0-11.125.006-4.032-.006-8.064-.015-12.096q-.02-10.604-.012-21.207c.007-10.512-.003-21.024-.017-31.536-.025-19.865-.03-39.73-.027-59.596a79691 79691 0 0 0-.013-52.623l-.002-3.313-.002-3.319-.001-3.324a148819 148819 0 0 1-.015-113.813v-3.55l.002-7.108q.007-55.306-.042-110.611a125428 125428 0 0 1-.05-137.47l.001-3.293q0-24.63-.03-49.257-.032-28.005-.005-56.01c.01-10.452.007-20.903-.017-31.354q-.02-10.47.009-20.938c.01-3.978.012-7.956-.007-11.933q-.026-5.432.01-10.864c.007-1.91-.01-3.822-.03-5.733.092-8.782 1.99-15.423 7.724-22.198L338 193l1.938-1.625c5.597-3.732 11.67-4.157 18.187-4.937l2.918-.381c17.236-2.124 34.613-2.295 51.957-2.307"/><path fill="#c46d6f" d="M360 615h106c0 24.77-.027 49.404-.869 74.138q-.138 4.166-.267 8.333c-.665 21.275-.665 21.275-1.097 30.688-.615 13.384-1.036 26.762-1.337 40.157-.11 4.898-.226 9.796-.34 14.695l-.183 7.818c-.507 21.81-1.059 43.619-1.61 65.428q-.241 9.521-.477 19.042a7347 7347 0 0 1-.945 35.644c-.141 4.793-.274 9.586-.387 14.38q-.157 6.642-.375 13.282a452 452 0 0 0-.12 4.78c-.3 14.833-.3 14.833-4.44 20.131-6.815 6.51-14.608 6.072-23.615 6.015q-2.04.005-4.079.012-4.257.008-8.512-.022c-3.618-.022-7.235-.01-10.853.015-2.804.014-5.607.01-8.411 0-1.976-.005-3.953.007-5.929.02-6.78-.07-12.681-.187-18.154-4.556-4.07-4.509-4.622-8.612-4.723-14.48l-.092-2.652c-.1-3.018-.174-6.036-.248-9.056q-.103-3.333-.21-6.666-.248-7.845-.462-15.692c-.303-10.998-.643-21.996-.98-32.993l-.389-12.723-.098-3.238q-.35-11.516-.69-23.03c-.641-21.599-1.32-43.192-2.17-64.783-1.05-26.704-1.611-53.421-2.182-80.14l-.291-13.422-.057-2.613c-.188-8.573-.384-17.14-.818-25.705-.7-14.38-.59-28.257-.59-42.807"/><path fill="#f6f6f5" d="M343 615h4l.062 2.676c.887 37.868 1.773 75.737 2.938 113.598l.184 6.037c.353 11.585.714 23.165 1.32 34.74.67 13.07.902 26.155 1.198 39.237.351 15.531.75 31.06 1.144 46.59q.158 6.253.312 12.505c.298 11.994.609 23.988.95 35.98.15 5.3.294 10.6.422 15.901q.182 7.51.413 15.02.08 2.766.14 5.531c.244 11.09.823 19.985 7.104 29.497 6.902 6.595 13.858 8.783 23.265 8.865l3.895.039q2.096.013 4.192.022l2.151.013q5.64.03 11.281.044c3.857.011 7.712.046 11.569.085 2.989.027 5.978.035 8.967.038q2.13.008 4.26.035c10.323.128 18.687-1 27.546-6.515 10.195-11.145 9.783-23.022 10.082-37.352q.047-2.073.096-4.145.108-4.575.21-9.15c.2-8.856.418-17.712.635-26.568l.073-3.01c.762-31.175 1.606-62.348 2.463-93.52l.13-4.762c1.13-41.108 2.297-82.21 4.047-123.297l.086-2.037.411-9.613c.648-15.49 1.048-30.987 1.454-46.484h4a186673 186673 0 0 1 .165 160.797l.002 3.413q.021 27.372.064 54.745.042 28.074.051 56.15.005 17.331.042 34.662.023 11.875.017 23.752c-.002 4.571 0 9.143.017 13.714q.02 6.274.005 12.549-.003 2.273.012 4.547a117547329167441.97 117547329167441.97 0 0 0-.002 9.633c-.422 3.438-1.305 5.282-3.373 8.038-3.322 2.214-4.355 2.254-8.224 2.267l-3.28.026-3.599-.002-3.79.02q-5.147.023-10.295.024c-2.866.001-5.73.009-8.596.016q-10.141.023-20.282.02c-6.973-.002-13.946.02-20.918.051q-8.982.038-17.962.036c-3.576 0-7.151.005-10.727.026-3.988.023-7.977.014-11.965.002l-3.587.034c-8.003-.062-8.003-.062-11.985-2.425-3.01-3.523-2.915-5.665-2.913-10.244l-.004-1.941q-.002-3.25.007-6.5 0-2.343-.003-4.684-.002-6.457.007-12.915.005-6.956.002-13.91 0-12.06.008-24.117.011-17.433.012-34.868.004-28.282.019-56.566.014-27.48.02-54.96v-3.42l.005-16.985q.016-70.493.05-140.985"/><path fill="#e9bf8b" d="M342 545h142v57H342z"/><path fill="#565656" d="M461 200c17.333 1.333 17.333 1.333 22 6 .248 2.339.248 2.339.246 5.337l.012 3.454-.017 3.826q0 2.02.005 4.039c.004 3.712-.004 7.425-.014 11.137-.008 3.999-.006 7.997-.004 11.996q.001 10.398-.017 20.796c-.016 10.023-.021 20.046-.024 30.069q-.007 24.39-.036 48.78-.028 23.696-.041 47.394l-.002 2.949-.007 14.647Q483.068 471.21 483 532h-22z"/><path fill="#555" d="M373 199v333h-21V201c13-2 13-2 21-2"/><path fill="#f8e6d1" d="M352 545h22v56h-22z"/><path fill="#f9e8d3" d="M461 545h22v56h-22z"/><path fill="#c5a176" d="M342 545h10v56h131v-56h1v57H342z"/><path fill="#f6f6f5" d="M396 333h34c0 7 0 7-1.836 9.188L425.625 344l-2.734 2-2.891 2-2.89 2.063A563 563 0 0 1 410 355l21 1v7h-35c0-8 0-8 2.633-10.828a94 94 0 0 1 3.492-2.422l1.727-1.234A204 204 0 0 1 409 345l6-4-19-1z"/><path fill="#f0efee" d="M431 369v8l-7 3v16l7 4v8c-5.343-1.612-10.236-3.9-15.25-6.312l-2.544-1.215A807 807 0 0 1 396 392v-9q6.75-3 13.507-5.981 2.299-1.016 4.595-2.038 3.3-1.466 6.605-2.918l2.074-.928c2.916-1.277 5-2.135 8.219-2.135"/><path fill="#f0f1f1" d="M396 413h34v7h-14v16h15v8h-35v-8h13v-16h-13z"/><path fill="#f4f5f5" d="M424 296h7v26h-35v-25h7v18h7v-16h7v16h7z"/><path fill="#f2f1f0" d="M406 451c1.25 2.688 1.25 2.688 2 6a524 524 0 0 1-4 5c-.885 4.092-.353 7.192 1.313 11 3.696 2.75 6.59 2.706 11.113 2.477 2.773-.318 2.773-.318 5.262-2.477 1.668-3.813 2.188-6.903 1.312-11-1.3-1.693-2.63-3.364-4-5 .25-2.812.25-2.812 1-5l4-1a1126 1126 0 0 1 2.938 3.375l1.652 1.898c3.532 4.325 2.921 9.393 2.41 14.727-1.36 4.702-3.23 7.387-7.062 10.438-5.573 2.963-10.723 3.444-16.938 2.562-4.61-2.106-7.327-4.928-10-9.187-1.69-6.442-2.308-12.287.813-18.313L400 454l1.563-1.875C403 451 403 451 406 451"/><path fill="#f5f6f6" d="M424 262h7v25h-35v-7h28z"/><path fill="#0e0f0e" d="M416 383v10c-8.75-2.625-8.75-2.625-11-6a2379 2379 0 0 1 4.938-2l2.777-1.125C415 383 415 383 416 383"/><path fill="#101110" d="m415 350 2 1-3 3 15 1v1h-21c4-4 4-4 7-6"/><path fill="#20201e" d="M396 340h20l-5 5-1-4h-14z"/></svg>