<svg xmlns="http://www.w3.org/2000/svg" width="755" height="526"><path fill="#111" d="M0 0h755v526H0z"/><path fill="#fcfcfc" d="M0 0h755v526H0zm436.32 21.696c-4.445 4.475-7.543 6.106-13.854 6.224l-2.79-.053-2.976.03c-3.13.025-6.258.003-9.387-.022q-3.075.007-6.15.023c-3.055.017-6.108.032-9.162.035a458 458 0 0 0-40.626 1.88l-2.792.252q-4.794.452-9.583.935l-3.852.386C267.548 38.265 158.07 49.508 107 100c-.807 2.563-.807 2.563-.812 5.25l-.145 2.703L106 110l-2-.5c-5.546-.924-9.362-1.436-14.273 1.371q-1.577 1.253-3.102 2.567l-1.687 1.377A274 274 0 0 0 80 119l-2.672 2.281C74.835 123.472 72.411 125.72 70 128c-.895.83-1.79 1.66-2.71 2.516C51.795 145.358 40.365 163.899 36 185l-.531 2.366c-.481 2.704-.606 5.204-.623 7.949l-.026 3.189-.013 3.468-.025 3.678q-.035 6.029-.055 12.057l-.017 4.171a9723 9723 0 0 0-.051 17.38q-.023 12.392-.107 24.784-.057 8.745-.063 17.489c-.004 3.47-.015 6.94-.048 10.41-.197 21.91 1.74 41.848 16.059 59.622 2.507 3.112 2.507 3.112 2.438 6.25L52 360l-1 3c-3.988 3.133-7.214 3.388-12.2 3.441l-2.048.04c-2.147.041-4.293.063-6.44.082a866 866 0 0 0-6.47.091c-1.95.036-3.9.056-5.849.075-3.108-.04-3.108-.04-4.993 2.271-.311 4.823-.4 7.754 2 12 7.148.34 13.595-.53 20.58-1.856 6.119-1.145 12.202-1.797 18.42-2.144l.563 2.563C58.01 387.808 65.06 391.64 73 395c3.162 1.054 5.87 1.313 9.188 1.563l3.292.253L88 397l-.275 2.703q-.509 5.024-1.007 10.047-.216 2.164-.436 4.326C84.957 425.521 84.957 425.521 85 437c3.25 2.167 4.292 2.272 8.063 2.25l2.66.016c2.475-.05 2.475-.05 4.277-2.266.15-2.547.183-4.984.125-7.527l-.023-2.257c-.033-3.191-.089-6.382-.143-9.573-.036-2.328-.06-4.655-.084-6.983l-.05-2.188c-.037-3.736.044-5.275 2.175-8.472l2.473 1.547c63.24 39.031 136.932 56.43 210.287 63.149 2.91.273 5.815.576 8.72.894 19.43 2.026 39.003 2.065 58.52 2.41l-1.5 1.375c-1.726 1.501-1.726 1.501-1.5 3.625l-2.128.769c-3.186 1.366-5.917 3.045-8.829 4.926l-1.66 1.068a1753 1753 0 0 0-5.195 3.362l-3.545 2.285Q353.317 488.2 349 491c.54 5.366.54 5.366 3.25 9.938 2.503 2.2 2.503 2.2 5.09 2.476 3.752-.584 5.269-2.351 7.973-4.976q1.452-1.387 2.906-2.77L371 493a385 385 0 0 1 4.313-3.75 95 95 0 0 0 6.875-6.562c3.987-3.81 6.337-4.688 11.812-4.688l2.125 1.75c8.12 6.355 16.798 7.261 26.875 6.25 3.143-.74 6.014-1.794 9-3 1.328-.354 2.66-.693 4-1l.875 1.938c.953 2.214.953 2.214 3.125 3.062.79 1.867.79 1.867 1.55 4.305l.862 2.694.9 2.876c3.286 12.384 3.286 12.384 9.688 23.125 4.219.414 6.6.196 10.438-1.687 2.713-1.993 2.713-1.993 3.011-4.446-.67-4.277-2.812-7.413-5.074-11.054l-1.383-2.293a670 670 0 0 0-5.887-9.54c-3.216-5.17-5.513-10.092-7.105-15.98l-.633-2.133c-.498-2.532.445-3.63 1.633-5.867v-4l2.105.105c10.832.289 21.229-1.396 31.895-3.105l2.906-.454a673 673 0 0 0 37.605-6.971l2.887-.622 2.553-.557C530 451 530 451 532 451l1.25 2.816c3.946 8.586 7.507 15.677 16.727 19.38 3.317 1.068 6.644 1.951 10.023 2.804l2.906.906c9.77 2.899 22.05 4.494 31.594.094 19.884-12.065 30.633-35.281 36.5-57 .711-2.991 1.374-5.99 2-9l2.719.281c10.527.61 17.423-1.869 26.431-7.195 1.742-1.022 3.522-1.979 5.303-2.93 2.77-1.562 5.211-2.999 7.547-5.156.923-3.803.923-3.803 0-7l3.875.938c5.492.583 8.277-1.41 12.516-4.708 3.744-3.2 7.415-6.465 11.015-9.828 2.189-2.027 4.422-3.94 6.719-5.84 7.938-6.915 14.082-15.837 19.875-24.562l1.52-2.18c9.14-13.94 13.784-30.803 13.77-47.3l.02-3.734q.024-5.043.025-10.086.001-3.165.01-6.329.028-11.077.026-22.155c-.002-6.84.02-13.68.051-20.52q.038-8.859.036-17.717c0-3.512.005-7.024.026-10.536.209-36.694-9.688-62.57-35.547-88.88C682.013 88.743 646.224 72.064 611 59l-4.312-1.687c-3.507-1.48-3.507-1.48-6.688-1.313l.105-2.09c.344-11.918-2.972-19.214-10.933-27.906-4.51-4.415-9.395-7.43-14.985-10.254l-1.9-.96c-33.9-16.313-106.45-22.912-135.966 6.906"/><path fill="#2c2c2c" d="M612 88c15.019 4.34 29.44 13.845 42 23l1.783 1.295c19.5 14.345 38.91 33.566 42.822 58.576 2.324 21.715-2.87 41.3-16.401 58.538-2.66 3.264-5.408 6.443-8.204 9.591l-2.016 2.324c-54.582 58.64-155.587 76.975-231.359 84.051-1.27.12-1.27.12-2.566.24-20.123 1.854-40.229 2.65-60.434 2.697l-3.243.008c-23.28.006-46.257-1.761-69.382-4.32l-2.355-.256c-16.749-1.82-33.255-4.315-49.685-8.073a729 729 0 0 0-9.202-2.007C200.966 304.384 160.124 288.918 124 264c3.135-2.09 5.828-3.062 9.398-4.242l1.912-.635q2.01-.667 4.02-1.327 3.007-.988 6.01-1.987a937 937 0 0 1 21.597-6.862c2.99-.924 5.963-1.888 8.934-2.869l2.799-.918a941 941 0 0 0 5.617-1.867c4.703-1.531 8.697-2.728 13.713-2.293v-2l2.66-.885a6774 6774 0 0 0 18.792-6.283c30.091-10.117 30.091-10.117 43.486-14.025 4.846-1.418 9.564-3.042 14.289-4.83 3.406-1.2 6.863-2.18 10.336-3.165 7.58-2.16 15.002-4.7 22.437-7.312 7.836-2.752 15.657-5.366 23.651-7.615 6.116-1.75 12.1-3.836 18.099-5.947 8.036-2.83 16.075-5.532 24.25-7.938 14.336-4.184 14.336-4.184 28.441-9.07 5.116-1.86 10.349-3.36 15.559-4.93l7.125-2.187 3.195-.981q2.85-.887 5.68-1.832a96 96 0 0 1 7.078 1.809l2.154.612q2.307.656 4.61 1.322c3.25.937 6.507 1.85 9.765 2.764q3.76 1.056 7.519 2.117l2.473.697q2.332.66 4.665 1.322C497.245 179.42 497.245 179.42 521 180l3.172-.336c10.806-1.582 18.759-5.963 27.164-12.738 2.58-1.865 3.601-2.537 6.664-2.926 3.05.557 3.05.557 6.602 1.512l1.928.513q2.022.542 4.04 1.098c2.024.556 4.053 1.096 6.082 1.633 24.584 6.596 24.584 6.596 32.348 17.244 2.205 6.881 1.526 13.427-1.707 19.828-5.789 9.724-15.272 15.7-24.293 22.172l-1.96 1.42c-4.966 3.597-9.989 7.105-15.04 10.58l-3.127 2.153C543.937 255.155 525.773 265.5 504 273l-2.204.792c-5.627 1.975-11.244 3.219-17.108 4.27l-2.797.515q-3.944.721-7.891 1.423l-3.645.664c-10.857 1.907-21.59 2.53-32.605 2.524l-3.575.001c-8.547-.051-16.771-.612-25.175-2.189l1 2c9.537 2.507 19.581 2.363 29.375 2.313l2.25-.006c12.975-.053 25.599-.923 38.375-3.307l2.76-.504c35.178-6.64 63.53-24.027 92.24-44.496l2.466-1.75A944 944 0 0 0 593 224l1.748-1.292C603.436 216.204 610.36 208.805 613 198c.622-7.093-.616-12.64-5.125-18.187-3.573-3.816-7.042-5.924-11.875-7.813l-2.355-.984c-6.112-2.404-12.341-3.951-18.732-5.389-5.39-1.227-10.676-2.682-15.976-4.252-12.413-3.653-24.986-6.685-37.549-9.772-9.523-2.346-18.982-4.816-28.388-7.603 2.552-2.552 4.512-2.83 8-3.75 8.783-2.41 17.38-5.318 26-8.25v-1l2.762-.043c26.233-.966 56.527-9.223 75.05-28.77C608.406 97.936 610.27 93.246 612 88"/><path fill="#2d2c2c" d="M41 224c2.721 2.721 3.995 6.004 5.625 9.438C68.659 278.513 120.642 305.796 166 322l2.865 1.049c13.053 4.778 26.194 8.769 39.641 12.275 2.602.705 5.178 1.473 7.756 2.258 6.17 1.872 12.42 3.152 18.738 4.418l2.8.571c13.557 2.755 27.076 5.11 40.813 6.753 3.859.462 7.684 1.037 11.52 1.66 7.067 1.105 14.153 1.785 21.275 2.394q3.193.275 6.383.565c18.26 1.616 36.506 2.294 54.834 2.307l3.012.003C399.819 356.237 423.9 354.93 448 353l2.485-.199c43.235-3.532 87.64-11.902 128.723-25.858a856 856 0 0 1 8.874-2.927c28.56-9.444 55.94-21.862 81.918-37.016v105c-22 12-22 12-23 12l-.044-2.165c.115-27.682.115-27.682-12.144-51.647-8.376-7.754-17.912-9.632-28.984-9.528-17.06 1.515-32.09 13.007-42.86 25.742C546.51 388.884 542.378 413.96 540 441c-5.14 2.164-10.324 3.343-15.75 4.563l-2.883.67A132 132 0 0 1 504 449l-.812-3.687c-1.333-5.175-2.811-8.205-7.063-11.625-9.01-4.657-21.872-1.299-31.593-.092-28.415 3.477-56.593 4.591-85.192 4.649q-3.168.008-6.334.021c-24.705.085-49.218-1.218-73.756-4.141l-2.223-.261C260.83 429.587 224.666 422.369 190 411l-2.97-.963C166.394 403.283 146.184 395.202 127 385l-2.097-1.09C106.301 374.202 89.392 362.255 74 348l-2.535-2.32C64.902 339.406 59.42 332.257 54 325l-1.855-2.477c-4.07-5.755-6.619-11.97-9.145-18.523l-1.053-2.209c-1.173-3.456-1.212-6.64-1.174-10.243v-2.22c0-2.407.016-4.815.032-7.223l.008-5.023c.008-4.397.028-8.795.05-13.192.02-4.492.03-8.983.04-13.474Q40.934 237.209 41 224"/><path fill="#fcfcfc" d="M42 338a110 110 0 0 1 7.688 10.563l1.824 2.816c1.32 2.325 2.171 3.986 2.488 6.621-1.744 4.747-3.461 6.845-8 9-3.397.417-3.397.417-7.234.477l-2.057.047a654 654 0 0 1-6.459.101q-3.251.054-6.502.123c-1.956.04-3.912.067-5.868.094-2.775-.169-2.775-.169-3.88 1.158-.213 5.605-.213 5.605 1 11 6.39.304 12.13-.294 18.375-1.5 15.414-2.843 15.414-2.843 20.625-1.5 1.828 1.81 2.764 3.526 3.883 5.836 3.095 5.996 9.16 9.145 15.273 11.418 5.2 1.364 10.49 1.578 15.844 1.746l-.168 1.753q-.663 6.937-1.32 13.876-.42 4.45-.867 8.898C86.098 426.05 85.909 431.45 86 437c2.501 1.25 4.274 1.133 7.063 1.125l2.722.008c2.189.114 2.189.114 3.215-1.133.051-2.474.042-4.922-.008-7.395l-.05-4.584c-.032-2.416-.067-4.832-.113-7.248a746 746 0 0 1-.087-6.98l-.056-2.182c-.022-4.171.348-6.587 3.314-9.611l2.473 1.547c63.24 39.032 136.935 56.43 210.292 63.149a551 551 0 0 1 8.68.894c19.769 2.074 39.697 2.068 59.555 2.41-2.381 3.859-4.334 6.649-8.23 9l-2.436 1.5-2.522 1.5q-2.46 1.499-4.917 3l-2.443 1.477c-3.282 2.039-6.46 4.217-9.633 6.421C351 491 351 491 349 491c.424 1.462.865 2.92 1.313 4.375l.738 2.46c.863 2.497.863 2.497 3.949 4.165 2.401.548 2.401.548 5 0 2.727-1.937 2.727-1.937 5.313-4.562q1.452-1.387 2.906-2.77L371 492a385 385 0 0 1 4.313-3.75 95 95 0 0 0 6.875-6.562c3.987-3.81 6.337-4.688 11.812-4.688l2.125 1.75c8.12 6.355 16.798 7.261 26.875 6.25 3.143-.74 6.014-1.794 9-3 1.328-.354 2.66-.693 4-1l.813 2.438L438 486l3 1c.904 1.867.904 1.867 1.648 4.305l.852 2.694.875 2.876c2.427 7.653 4.98 14.954 8.625 22.125 4.884.287 8.217.325 12-3 1.033-5.195-2.001-8.963-4.625-13.187l-1.383-2.293a670 670 0 0 0-5.887-9.54c-3.216-5.17-5.513-10.092-7.105-15.98l-.624-1.86c-.461-2.625.045-3.95 1.062-6.39l.87-2.14L448 463l3.8-.227c23.965-1.65 47.775-6.074 71.182-11.388l2.706-.6 2.324-.535C530 450 530 450 533 451a100 100 0 0 1 3.25 6.688c3.403 7.108 6.178 11.538 13.66 14.44 3.34 1.08 6.692 1.995 10.09 2.872l3.016.875c7.62 2.119 15.098 2.787 22.984 3.125v1l-1.773.262c-8.591 1.406-16.918 3.694-25.257 6.16-1.64.481-3.292.923-4.947 1.355-4.462 1.805-8.166 4.52-12.086 7.286l-2.555 1.776a1713 1713 0 0 0-5.069 3.54c-2.99 2.096-5.995 4.17-9 6.246l-3.047 2.113a4587 4587 0 0 1-11.703 8.075l-2.009 1.383-1.925 1.324-1.685 1.159L503 522l-2.59 2.052c-4.089 2.336-7.335 2.502-11.91 2.44l-2.564.014c-2.842.01-5.683-.007-8.526-.025q-3.082.003-6.165.01c-5.653.01-11.306-.007-16.96-.027-6.093-.017-12.187-.011-18.281-.008q-15.84.002-31.68-.033-16.614-.037-33.228-.043l-2.086-.001-10.492-.004c-24.77-.008-49.541-.035-74.312-.073a87849 87849 0 0 0-74.442-.084l-22.347-.015-47.638-.035C93.186 526.13 46.593 526.068 0 526a7989 7989 0 0 1-.674-62.56c-.067-9.685-.158-19.367-.307-29.05q-.197-12.66-.242-25.323c-.017-4.47-.057-8.936-.151-13.405-.089-4.21-.116-8.416-.096-12.627q-.006-2.312-.08-4.624c-.145-4.706-.06-8.92 1.55-13.411 3.97-3.706 8.03-5.784 13-8a182 182 0 0 0 3.923-2.222l3.182-1.7 3.538-1.918a980 980 0 0 1 5.385-2.889c1.78-.95 3.554-1.915 5.327-2.88l3.146-1.687c2.565-1.75 3.457-2.826 4.499-5.704"/><path fill="#555" d="M351.75 105.297c7.148 1.958 14.321 3.82 21.5 5.667a555 555 0 0 1 17.688 4.911c9.59 2.795 19.268 5.193 28.966 7.577a602 602 0 0 1 29.198 7.967c8.91 2.649 17.903 4.904 26.934 7.097 6.77 1.65 13.468 3.464 20.16 5.402 7.427 2.113 14.899 4.058 22.366 6.02l2.532.666c10.432 2.745 20.872 5.407 31.38 7.845 5.702 1.329 11.32 2.857 16.932 4.528 2.745.781 5.478 1.498 8.25 2.171C591.2 168.462 603.81 171.758 612 184c2.919 7.054 2.658 12.813 0 19.875-5.76 12.718-16.458 19.481-27.513 27.346a537 537 0 0 0-6.917 5.04C560.978 248.497 543.954 260.702 525 269l-1.871.821C507.624 276.518 491.624 281.073 475 284l-2.048.364c-11.013 1.838-22.13 1.84-33.264 1.886l-2.205.016c-9.322.052-18.294-.52-27.483-2.266l-1-3 2.332.219c18.855 1.523 37.957 1.753 56.668-1.219l4.504-.66c44.5-6.737 78.278-28.8 113.933-54.902l2.273-1.658c9.979-7.006 9.979-7.006 17.227-16.53l1.153-2.234c2.703-5.987 2.656-11.53.785-17.766-6.06-10.506-18.62-12.972-29.56-15.915a845 845 0 0 1-5.83-1.599c-8.64-2.38-8.64-2.38-17.485-3.736-2.616 1.409-2.616 1.409-4.812 3.625-12.807 11.15-28.057 13.472-44.572 12.63-8.66-.843-17.08-3.542-25.428-5.88q-2.934-.795-5.87-1.582c-7.786-2.104-15.556-4.24-23.269-6.6l-2.896-.873a362 362 0 0 1-5.427-1.687c-4.756-1.478-4.756-1.478-9.6-.857L431 165a428 428 0 0 1-7.25 2.313l-2.111.656A1005 1005 0 0 1 406.5 172.5c-10.564 3.089-21.096 6.222-31.437 10-4.96 1.804-9.929 3.372-15 4.813-6.95 1.978-13.753 4.277-20.563 6.687-6.563 2.322-13.11 4.553-19.812 6.438-8.558 2.407-16.906 5.379-25.291 8.324-6.799 2.376-13.579 4.531-20.53 6.418-2.788.797-5.467 1.735-8.18 2.757-4.281 1.606-8.604 2.939-13 4.188-10.963 3.134-21.744 6.84-32.55 10.473-1.195.4-2.39.802-3.62 1.215q-3.502 1.182-6.999 2.386l-3.248 1.11-2.868.99C201 239 201 239 198 239v2l-2.214.52c-7.302 1.763-14.374 3.909-21.473 6.355-7.854 2.667-15.718 5.187-23.692 7.466-4.86 1.4-9.587 3.042-14.324 4.807-9.065 3.361-9.065 3.361-14.297 1.852-19.132-11.99-34.878-33.148-40.508-54.941-.964-5.99-.712-12.01-.492-18.059l3.734-.953c8.127-2.094 16.157-4.245 24.086-7.008 4.933-1.612 9.94-2.947 14.952-4.289 3.095-.837 6.044-1.674 9.013-2.898C135 173 135 173 139 173c1.46-1.914 1.46-1.914 2.625-4.437C148.83 155.94 161.925 149.307 174 142l2.48-1.513c11.872-7.24 23.887-14.221 35.995-21.06q2.48-1.401 4.957-2.811c46.639-26.545 83.773-25.168 134.317-11.319"/><path fill="#050504" d="M87.336 292.516c4.23.559 5.943 1.635 9.289 4.234 19.819 14.63 43.003 25.908 66.367 33.548 2.312.808 4.569 1.721 6.836 2.647 5.132 2.078 10.33 3.83 15.61 5.493l2.892.913c9.15 2.855 18.367 5.347 27.67 7.649l2.461.616c14.42 3.594 28.931 6.662 43.539 9.384l2.9.543c17.604 3.223 35.354 4.933 53.155 6.625l2.397.228c3.354.316 6.706.616 10.065.88l2.963.232 2.45.172c4.727.73 7.323 3.388 10.2 6.976 2.157 3.857 2.436 6.857 2.366 11.156l.005 2.219q-.004 2.31-.034 4.618c-.03 2.345-.021 4.686-.008 7.03q-.01 2.255-.025 4.509l.008 2.102c-.11 5.753-1.698 9.693-5.442 14.022-6.347 5.356-19.507 2.94-27.317 2.28-5.757-.542-11.501-1.185-17.245-1.842l-3.08-.344c-13.969-1.563-27.883-3.23-41.691-5.892-2.861-.551-5.727-1.071-8.593-1.592C193.753 401.365 119.754 382.734 83 342c-2.466-4.583-2.306-9.026-2.3-14.098l-.014-2.64a1004 1004 0 0 1-.002-5.51c.003-2.809-.02-5.617-.045-8.426q-.004-2.68-.002-5.361l-.028-2.541c.028-3.49.078-5.822 1.705-8.954C84 293 84 293 87.336 292.516"/><path fill="#2c2c2c" d="M351.75 105.297c7.148 1.958 14.321 3.82 21.5 5.667a555 555 0 0 1 17.688 4.911c9.59 2.795 19.268 5.193 28.966 7.577a602 602 0 0 1 29.198 7.967c8.91 2.649 17.903 4.904 26.934 7.097 6.77 1.65 13.468 3.464 20.16 5.402 7.427 2.113 14.899 4.058 22.366 6.02l2.532.666c10.432 2.745 20.872 5.407 31.38 7.845 5.702 1.329 11.32 2.857 16.932 4.528 2.745.781 5.478 1.498 8.25 2.171C591.2 168.462 603.81 171.758 612 184c2.919 7.054 2.658 12.813 0 19.875-5.76 12.718-16.458 19.481-27.513 27.346a537 537 0 0 0-6.917 5.04C560.978 248.497 543.954 260.702 525 269l-1.871.821C507.624 276.518 491.624 281.073 475 284l-2.048.364c-11.013 1.838-22.13 1.84-33.264 1.886l-2.205.016c-9.322.052-18.294-.52-27.483-2.266l-1-3 2.332.219c18.855 1.523 37.957 1.753 56.668-1.219l4.504-.66c44.5-6.737 78.278-28.8 113.933-54.902l2.273-1.658c9.979-7.006 9.979-7.006 17.227-16.53l1.153-2.234c2.703-5.987 2.656-11.53.785-17.766-6.06-10.506-18.62-12.972-29.56-15.915a845 845 0 0 1-5.83-1.599c-8.64-2.38-8.64-2.38-17.485-3.736-2.616 1.409-2.616 1.409-4.812 3.625-12.844 11.182-28.074 13.436-44.623 12.617-8.31-.783-16.373-3.366-24.377-5.617q-3.025-.824-6.052-1.64a2171 2171 0 0 1-12.238-3.356 1911 1911 0 0 0-16.488-4.477 3723 3723 0 0 1-35.879-9.785c-5.915-1.647-11.836-3.267-17.781-4.804a1643 1643 0 0 1-23.037-6.192 671 671 0 0 0-15.572-4.098l-3.506-.895a539 539 0 0 0-6.717-1.667c-7.816-2.014-14.663-4.865-19.98-11.149-1.195-3.264-.999-6.11-.938-9.562l-3.715 1.285c-10.946 3.741-21.943 7.092-33.098 10.152a483 483 0 0 0-21.473 6.434c-9.064 2.942-18.262 5.438-27.433 8.024-12.003 3.39-23.946 6.887-35.81 10.737-6.284 2.027-12.587 3.768-18.983 5.411-4.89 1.342-9.649 3.013-14.433 4.687-2.987.992-5.97 1.725-9.047 2.383-10.103 1.678-10.103 1.678-17.696 7.762-2.535 6.942-2.761 15.758-.437 22.762 1.14 2.353 1.14 2.353 3.125 5.363l1 3 1.938.938c2.517 1.296 3.03 2.484 4.062 5.062-4.293-.495-7.244-2.84-10-6-5.124-7.686-7.487-14.785-6-24 .955-3.262 2.33-6.048 4-9l1.25-2.46c7.418-13.7 20.856-20.737 33.75-28.54l2.48-1.513c11.872-7.24 23.887-14.221 35.995-21.06q2.48-1.401 4.957-2.811c46.639-26.545 83.773-25.168 134.317-11.319"/><path fill="#636363" d="M102.563 115.188c2.628.917 2.628.917 4.437 1.812-1.19 3.571-2.206 4.12-5.187 6.313-17.997 14.083-34.364 33.1-39.38 55.996C60.914 192.26 60.377 206.65 65 219l.96 2.848C71.933 237.918 83.778 253.29 97 264l2.418 2.074C136.394 297.37 185.501 314.877 232 326l2.532.612C259.91 332.66 286.045 336.475 312 339l3.153.316c20.492 1.942 41.035 1.868 61.597 1.872l2.118.001c23.826.016 47.214-.725 70.882-3.502l2.919-.337c14.526-1.686 28.967-3.573 43.331-6.35l3.614-.692A1671 1671 0 0 0 526 325l2.613-.546c30.691-6.527 60.93-17.38 89.387-30.454l4.707-2.125c5.518-2.521 10.98-5.025 16.168-8.184.623-.376 1.245-.753 1.886-1.142a275 275 0 0 0 4.993-3.178c5.984-2.527 11.37-.585 17.246 1.692l2.875 1.097L668 283v2c-30.424 17.315-61.668 30.252-94.926 41-2.66.865-5.31 1.759-7.957 2.664-3.89 1.3-7.805 2.297-11.804 3.211l-2.198.502q-2.347.537-4.695 1.068c-2.421.555-4.837 1.131-7.252 1.711-16.598 3.945-33.354 6.995-50.168 9.844l-2.085.355c-35.717 6.062-71.216 7.923-107.401 8.013q-3.509.011-7.016.031c-22.32.104-44.295-1.142-66.498-3.399l-3.927-.392c-23.99-2.404-47.54-6.378-71.073-11.608l-3.066-.68C168.774 324.06 98.234 300.375 60 250l-1.867-2.426C45.22 230.043 38.51 210.078 41.72 188.271c4.951-29.302 26.745-53.94 50.185-70.931 3.708-2.39 6.21-2.972 10.656-2.153"/><path fill="#d1d1d1" d="M101 399c5.449 2.944 10.868 5.922 16.224 9.031 59.687 34.34 129.527 49.435 197.54 55.665a551 551 0 0 1 8.681.894c19.769 2.074 39.697 2.068 59.555 2.41-2.381 3.859-4.334 6.649-8.23 9l-2.436 1.5-2.522 1.5q-2.46 1.499-4.917 3l-2.443 1.477c-3.282 2.039-6.46 4.217-9.633 6.421C351 491 351 491 349 491q.64 2.161 1.313 4.313l.738 2.425c1 2.385 2.093 3.512 3.949 5.262-32.638-1.817-32.638-1.817-44.437-3.062-1.141-.12-1.141-.12-2.304-.24-4.987-.562-4.987-.562-7.259-1.698a391 391 0 0 0-8.625-.875c-7.74-.746-15.254-1.932-22.86-3.54-7.778-1.295-11.726-.464-18.077 3.853l-2.077 1.35A650 650 0 0 0 243 503q-3.003 1.996-6.02 3.97a299 299 0 0 0-3.638 2.424c-1.41.93-2.872 1.777-4.342 2.606l-2-1c8.473-6.306 17.184-12.188 26-18l3-2a2015 2015 0 0 0-11.75-2.562l-3.367-.749-3.242-.693-2.984-.65c-5.354-.697-8.154 1.466-12.516 4.47l-1.665 1.14a1319 1319 0 0 0-5.226 3.606l-3.559 2.444A2727 2727 0 0 0 203 504v-3c1.481-1.363 1.481-1.363 3.543-2.742l2.256-1.543 2.388-1.59c5.048-3.393 9.682-6.638 13.813-11.125l-3.355-.777c-10.647-2.533-21.127-5.489-31.583-8.723l-3.62-1.113c-7.024-2.199-13.83-4.664-20.604-7.55-3.855-1.137-6.227-.591-9.81 1.087l-1.876 1.107-2.084 1.207-2.13 1.262q-2.108 1.24-4.223 2.469l-1.871 1.107c-1.93.967-3.737 1.48-5.844 1.924v-2c1.513-1.145 1.513-1.145 3.613-2.383l2.283-1.347 2.417-1.395 2.38-1.418C154.615 464 154.615 464 158 464v-2l-1.793-.586c-6.824-2.249-6.824-2.249-9.957-3.601-3.759-1.358-6.5-1.063-10.25.187l1-4-1.905-.975C123.479 447.067 111.942 441.141 101 434l-1 2a289 289 0 0 1-1.187-24.125l-.04-2.476c-.011-7.125-.011-7.125 2.227-10.399"/><path fill="#252424" d="M42 311c2.107 2.709 3.876 5.452 5.563 8.438C55.743 333.172 66.623 345.91 79 356l1.565 1.3C129.69 398.04 193.152 418.205 255 430l3.268.632c25.682 4.907 51.94 8.336 78.095 9.192 3.637.176 3.637.176 7.207.672 4.982.636 9.932.702 14.95.742l3.113.03c3.393.025 6.786.037 10.18.045l3.547.008c19.434.011 38.755-.794 58.14-2.134l3.704-.25c12.987-.897 25.884-2.024 38.76-3.981 13.678-2.053 13.678-2.053 20.036 2.044 4.093 4.536 5.132 6.933 5 13-17.34 3.458-34.722 5.847-52.312 7.625l-3.68.373c-14.966 1.461-29.814 2.17-44.84 2.205l-2.498.009q-6.567.022-13.134.028-5.297.007-10.595.041c-50.592.322-100.67-5.003-149.798-17.492a529 529 0 0 0-6.801-1.656c-9.522-2.272-18.781-5.091-28.051-8.232q-3.431-1.16-6.87-2.303c-7.404-2.48-14.772-5.048-22.089-7.778l-1.916-.713c-6.993-2.64-13.73-5.777-20.416-9.107l-2.167-1.077C116.511 402.226 98.283 391.286 82 377l-1.796-1.56c-16.97-14.816-36.03-36.396-38.45-59.823-.004-1.93-.004-1.93.246-4.617"/><path fill="#c3c3c3" d="m508.438 8.5 2.617.004c25.669.105 53.75 3.1 73.945 20.496 3.28 3.415 5.636 6.526 6.336 11.285-.231 6.125-3 10.54-7.336 14.715-17.573 13.633-41.515 18.033-63.328 18.238l-2.616.03c-29.027.262-60.526-.198-83.17-21.221-3.43-3.722-4.604-7.074-5.324-12.11C430.688 32.386 437.189 27.362 443 23c19.445-12.051 43.07-14.62 65.438-14.5"/><path fill="#0f0f0f" d="M91 299c3.942 1.434 7.276 3.315 10.813 5.563C112.54 311.284 123.576 317.535 135 323c-2.716 2.716-4.64 2.523-8.434 2.965l-3.904.486q-3.077.369-6.155.724c-1.982.231-3.961.48-5.94.727l-3.596.422c-3.038.691-4.251 1.105-5.971 3.676.23 2.655.23 2.655 1 5 9.983.331 19.782-.914 29.688-2a3474 3474 0 0 1 7.927-.856q2.452-.261 4.902-.534c4.525-.485 8.932-.694 13.483-.61l2 6 1-5c2.305.078 2.305.078 5 1 1.245 2.275 2.19 4.356 3.125 6.75 2.159 4.832 4.031 8.107 9 10.375q2.913 1.012 5.875 1.875l3.21 1.133c11.365 4.01 11.365 4.01 23.013 3.039 2.025-1.13 2.025-1.13 3.152-3.797L215 352c3.188-.312 3.188-.312 6 0l-1 5h3v-3c8.833.775 17.625 2.358 26.215 4.57 2.091.547 2.091.547 5.535.805 7.416.911 12.17 3.062 17.25 8.625 5.929 5.56 12.104 10.786 18.43 15.887 2.178 1.79 4.25 3.638 6.32 5.55 5.865 5.225 12.672 9.306 19.25 13.563l-1 3 3.21.184 4.165.253 2.117.12c5.281.33 5.281.33 7.508 1.443v-2h2l-1 3c-22.033 11.017-79-6.711-102.393-12.375a530 530 0 0 0-8.06-1.848c-26.893-6.18-53.41-15.44-78.547-26.777l-2.585-1.16C124.097 359.019 104.942 350.189 91 337c-1.206-3.619-1.108-6.925-1.062-10.687l.013-2.127q.02-2.594.049-5.186l5 2-2.477-1.984c-3.163-3.78-3.143-6.572-2.898-11.266l.043-2.219c.149-5.348.149-5.348 1.332-6.531"/><path fill="#cfcfcf" d="M735 332c2.391 4.238 2.58 8.242 3 13l3.21-1.969 4.165-2.531 2.117-1.3c5.281-3.2 5.281-3.2 7.508-3.2v64c-17.778-4.444-17.778-4.444-24.082-6.484-2.07-.646-2.07-.646-4.918-.516-2 2.28-2 2.28-4 5.25-16.41 22.735-39.247 39.049-64 51.75l-2.764 1.421c-12.417 6.316-25.053 11.896-38.048 16.892l-1.921.748a529 529 0 0 1-5.412 2.052l-3.136 1.181c-2.768.719-4.081.703-6.719-.294l3-2.312c15.904-13.796 24.485-36.774 28.555-56.92C632 411 632 411 633 410q3.281.215 6.563.438c8.825.275 15.174-3.018 22.64-7.4 1.632-.943 3.31-1.806 4.992-2.66 4.682-2.272 4.682-2.272 7.63-6.304.393-2.136.393-2.136.175-5.074l3.875.438c9.65-.046 16.923-8.864 23.527-15.032 2.21-2.047 4.468-3.983 6.785-5.906 10.184-8.874 21.51-23.588 25.813-36.5"/><path fill="#222" d="M617.625 353.438c8.266 6.03 10.516 14.892 12.375 24.562 3.146 30.047-5.506 60.038-24.148 83.73-5.278 6.268-11.169 12.195-19.497 13.77-5.605.269-9.073-.694-13.355-4.5-7.66-7.154-11.557-16.32-12.161-26.792-.19-13.726-.364-26.87 3.161-40.208l.809-3.29c4.843-17.693 15.097-36.949 31.191-46.71 7.36-3.244 14.432-4.829 21.625-.562"/><path fill="#282828" d="m119 119 2 2-4 3.563-2.5 2.23a263 263 0 0 1-4.562 3.945c-17.14 14.479-30.931 34.547-33.139 57.334C75.99 199.545 77.605 209.4 82 220l.845 2.04C87.32 232.487 93.243 240.755 101 249l2.328 2.57c11.907 12.595 26.363 21.96 41.476 30.225a358 358 0 0 1 5.887 3.314C201.74 313.95 263.45 324.077 321 330l3.768.398c36.482 3.66 74.777 3.453 111.232-.398l2.252-.236c24.435-2.573 48.63-6.075 72.748-10.764l3.269-.624c14.443-2.792 28.396-6.761 42.385-11.293 3.356-1.086 6.718-2.15 10.08-3.212 21.447-6.866 42.088-15.126 61.796-26.075 9.016-4.931 17.096-5.022 27.22-5.108l3.383-.088 3.351-.026 2.992-.044C669 273 669 273 680 277v107c-5-1-5-1-6-2a268 268 0 0 1-.114-9.293v-2.956c0-3.241.009-6.483.016-9.724l.005-6.721q.006-8.865.024-17.73.014-9.04.02-18.078.016-17.749.049-35.498c-3.452-1.408-6.828-2.558-10.437-3.5-3.062-.805-5.965-1.649-8.938-2.75-3.699-1.057-6.336-.362-9.784 1.275l-2.193 1.276-2.535 1.444-2.738 1.567C615.902 293.272 593.288 302.247 570 310l-3.276 1.093C523.417 325.371 476.491 333.835 431 337l-3.542.263c-15.825 1.061-31.696.96-47.55.977q-4.995.007-9.991.041c-22.504.151-44.544-.753-66.917-3.281l-2.115-.237C244.754 328.463 189.268 315.5 139 289l-2.785-1.406C123.352 280.92 110.995 272.42 100 263l-2.281-1.879C91.687 256.01 86.849 250.224 82 244l-1.617-1.918c-13.549-16.588-17.813-36.534-16.11-57.437C67.283 163.146 82.248 142.26 99 129l3.137-2.64q1.71-1.402 3.425-2.797l1.607-1.365c3.994-3.168 6.797-3.839 11.831-3.198"/><path fill="#2d2d2d" d="M737 213h1q.212 17.448.31 34.898c.032 5.404.074 10.807.143 16.211.066 5.233.1 10.465.116 15.698q.017 2.967.065 5.935c.33 20.666-4.057 38.98-15.634 56.258l-1.336 1.994C711.906 358.26 699.807 371.841 685 381h-1a3347 3347 0 0 1-.674-40.162c-.067-6.218-.16-12.433-.307-18.65a1001 1001 0 0 1-.252-18.012q-.036-3.43-.141-6.858c-.516-17.434-.516-17.434 2.613-22.21 3.405-3.59 7.45-5.724 11.761-8.108 2.146-1.702 4.114-3.51 6.125-5.375l1.688-1.558C719.065 246.321 729.996 231.648 737 213"/><path fill="#f9f9f9" d="M347 108c4.622 1.053 9.183 2.293 13.75 3.563l3.943 1.073a3478 3478 0 0 1 8.19 2.238c6.573 1.801 13.158 3.557 19.742 5.314a1202.965 1202.965 0 0 0 27.315 7.02c6.787 1.682 13.494 3.609 20.207 5.562A441 441 0 0 0 458 137.5a446 446 0 0 1 19.75 5.313c10.493 3.07 21.09 5.7 31.708 8.296a553 553 0 0 1 22.41 5.994c3.982 1.14 7.984 2.167 12.007 3.147l2.121.523q2.502.617 5.004 1.227c-1.767 5.302-7.275 7.414-12 10-3.61 1.539-7.257 2.824-11 4l-3 1c-16.441 1.657-31.328-1.339-47-6l-4.586-1.336a766 766 0 0 1-6.18-1.836c-7.087-2.134-14.265-3.875-21.449-5.644a584 584 0 0 1-27.973-7.621c-6.98-2.09-14.01-3.889-21.088-5.617-7.006-1.728-13.928-3.693-20.854-5.713-6.05-1.75-12.125-3.313-18.245-4.796-26.294-6.441-26.294-6.441-31.625-14.437-.562-2.687-.562-2.687 0-6 6.038-8.734 10.585-11.942 21-10"/><path fill="#fbfbfb" d="M42 338a110 110 0 0 1 7.688 10.563l1.824 2.816c1.32 2.325 2.171 3.986 2.488 6.621-1.744 4.747-3.461 6.845-8 9-3.397.417-3.397.417-7.234.477l-2.057.047a654 654 0 0 1-6.459.101q-3.251.054-6.502.123c-1.956.04-3.912.067-5.868.094-2.775-.169-2.775-.169-3.88 1.158-.213 5.605-.213 5.605 1 11 6.39.304 12.13-.294 18.375-1.5 15.414-2.843 15.414-2.843 20.625-1.5 1.828 1.81 2.764 3.526 3.883 5.836 3.095 5.996 9.16 9.145 15.273 11.418 5.2 1.364 10.49 1.578 15.844 1.746l-.168 1.753C87.383 412.873 87.383 412.873 86 428h-1l-.5-3.062c-1.236-4.41-3.983-6.43-7.457-9.227-2.758-2.31-4.835-4.882-7.043-7.711-4.147 1.27-7.745 2.82-11.5 4.984l-3.156 1.815L52 416.75l-1.724 1c-10.767 6.248-21.297 12.842-31.744 19.613C12.404 441.325 6.262 445.254 0 449a2185 2185 0 0 1-.674-32.442 948 948 0 0 0-.307-15.066c-.141-4.85-.219-9.698-.252-14.55q-.036-2.77-.141-5.54C-1.803 369.694-1.803 369.694 0 365c3.888-4.02 7.813-5.869 13-8 1.32-.72 2.63-1.455 3.923-2.222l3.182-1.7 3.538-1.918a980 980 0 0 1 5.385-2.889c1.78-.95 3.554-1.915 5.327-2.88l3.146-1.687c2.565-1.75 3.457-2.826 4.499-5.704"/><path fill="#d0d0d0" d="M533 451a100 100 0 0 1 3.25 6.688c3.403 7.108 6.178 11.538 13.66 14.44 3.34 1.08 6.692 1.995 10.09 2.872l3.016.875c7.62 2.119 15.098 2.787 22.984 3.125v1l-1.773.262c-8.591 1.406-16.918 3.694-25.257 6.16-1.64.481-3.292.923-4.947 1.355-4.462 1.805-8.166 4.52-12.086 7.286l-2.555 1.776a1713 1713 0 0 0-5.069 3.54c-2.99 2.096-5.995 4.17-9 6.246l-3.047 2.113a4587 4587 0 0 1-11.703 8.075l-2.009 1.383q-1.888 1.298-3.784 2.584-1.74 1.2-3.435 2.468c-1.558 1.139-1.558 1.139-4.335 2.752-2.174-.4-2.174-.4-4-1l3.227-2.273 6.75-4.76c4.1-2.894 8.19-5.8 12.264-8.73C524.383 502.664 533.688 496.33 543 490l-3.664.805c-24.758 5.37-24.758 5.37-36.336 5.195v2h3v3l-7 4-2-2-8 6-2-1c1.218-1.158 2.45-2.3 3.688-3.437l2.074-1.934c2.46-1.791 4.246-2.257 7.238-2.629v-2a19997 19997 0 0 0-16.58 1.643c-12.062.39-12.062.39-23.42 3.357l-.886-1.62q-1.99-3.63-3.989-7.255c-.46-.842-.92-1.684-1.395-2.55l-1.347-2.442-1.238-2.254c-1.13-2.022-1.13-2.022-3.145-3.879-.598-1.805-.598-1.805-1.062-3.875l-.473-2.055L446 475l-.619-1.864c-.468-2.624.04-3.945 1.057-6.386l.87-2.14L448 463l3.8-.227c23.965-1.65 47.775-6.074 71.182-11.388l2.706-.6 2.324-.535C530 450 530 450 533 451"/><path fill="#0c0c0b" d="M351.75 105.297c7.148 1.958 14.321 3.82 21.5 5.667a555 555 0 0 1 17.688 4.911c9.59 2.795 19.268 5.193 28.966 7.577a602 602 0 0 1 29.198 7.967c8.91 2.649 17.903 4.904 26.934 7.097 6.77 1.65 13.468 3.464 20.16 5.402 7.427 2.113 14.899 4.058 22.366 6.02l2.532.666c10.432 2.745 20.872 5.407 31.38 7.845 5.702 1.329 11.32 2.857 16.932 4.528 2.745.781 5.478 1.498 8.25 2.171C591.2 168.462 603.81 171.758 612 184c2.919 7.054 2.658 12.813 0 19.875-5.76 12.718-16.458 19.481-27.513 27.346a537 537 0 0 0-6.917 5.04C560.978 248.497 543.954 260.702 525 269l-1.871.821C507.624 276.518 491.624 281.073 475 284l-2.048.364c-11.013 1.838-22.13 1.84-33.264 1.886l-2.205.016c-9.322.052-18.294-.52-27.483-2.266l-1-3 2.332.219c18.855 1.523 37.957 1.753 56.668-1.219l4.504-.66c44.5-6.737 78.278-28.8 113.933-54.902l2.273-1.658c9.979-7.006 9.979-7.006 17.227-16.53l1.153-2.234c2.703-5.987 2.656-11.53.785-17.766-6.06-10.506-18.62-12.972-29.56-15.915a845 845 0 0 1-5.83-1.599c-8.64-2.38-8.64-2.38-17.485-3.736-2.616 1.409-2.616 1.409-4.812 3.625-12.844 11.182-28.074 13.436-44.623 12.617-8.31-.783-16.373-3.366-24.377-5.617q-3.025-.824-6.052-1.64a2171 2171 0 0 1-12.238-3.356 1911 1911 0 0 0-16.488-4.477 3723 3723 0 0 1-35.879-9.785c-5.915-1.647-11.836-3.267-17.781-4.804a1643 1643 0 0 1-23.037-6.192 671 671 0 0 0-15.572-4.098l-3.506-.895a539 539 0 0 0-6.717-1.667c-7.815-2.013-14.593-4.882-19.98-11.086-1.289-3.608-1.603-6.878-.938-10.625 2.41-4.462 5.76-8.121 9-12q-4.78-1.226-9.562-2.437l-2.713-.698-2.666-.674-2.428-.618C288.4 94.864 260.758 99.058 237 111l-2.144 1.065c-12.877 6.454-25.298 13.713-37.684 21.056q-3.224 1.91-6.453 3.81C178.448 144.148 166.32 151.343 155 160l-2.11 1.45c-6.316 4.653-11.69 12.79-13.303 20.53-.93 7.962.152 14.306 4.413 21.02l1 3 1.938.938c2.517 1.296 3.03 2.484 4.062 5.062-4.293-.495-7.244-2.84-10-6-5.124-7.686-7.487-14.785-6-24 .955-3.262 2.33-6.048 4-9l1.25-2.46c7.418-13.7 20.856-20.737 33.75-28.54l2.48-1.513c11.872-7.24 23.887-14.221 35.995-21.06q2.48-1.401 4.957-2.811c46.639-26.545 83.773-25.168 134.317-11.319m-20.062 6.078-2.614 2.46c-2.437 2.544-2.999 3.486-3.387 6.978.401 4.084 1.345 5.367 4.313 8.187 6.27 3.534 12.57 5.515 19.5 7.375l3.299.906c8.541 2.325 17.124 4.475 25.72 6.585 7.274 1.797 14.449 3.828 21.622 5.986 8.647 2.596 17.402 4.794 26.166 6.953 7.82 1.927 15.559 3.992 23.268 6.322 6.175 1.846 12.409 3.392 18.67 4.919 7.343 1.81 14.607 3.86 21.865 5.987l2.511.733 2.201.649c14.6 3.921 31.63 3.235 44.971-3.911 3.896-2.254 7.753-4.607 11.207-7.504v-2l-2.332-.58c-26.285-6.532-26.285-6.532-36.852-9.397a966 966 0 0 0-9.226-2.421c-8.714-2.247-17.414-4.493-26.027-7.102-7.838-2.372-15.765-4.323-23.717-6.274a356 356 0 0 1-18.774-5.19c-7.601-2.275-15.31-4.134-23.01-6.036-9.252-2.286-18.487-4.595-27.656-7.203-7.031-1.995-14.103-3.826-21.18-5.655l-2.753-.712-2.723-.7q-2.847-.756-5.676-1.577c-10.461-3.19-10.461-3.19-19.387 2.222"/><path fill="#636363" d="M600 63c7.598 1.422 14.427 3.932 21.563 6.875l3.572 1.469C654.998 83.819 682.599 99.479 706 122l2.129 1.938c15.608 14.63 28.254 36.666 29.144 58.3.714 30.033-10.784 51.175-31.293 72.719A164 164 0 0 1 693 267l-2.527 2.176c-6.008 4.767-6.008 4.767-9.785 4.914-2.36-.488-4.448-1.203-6.688-2.09q-2.53-.818-5.062-1.625-1.973-.68-3.938-1.375c2.682-2.774 5.447-5.207 8.5-7.562 15.513-12.37 27.323-25.794 36.5-43.438l1.496-2.797c8.553-17.156 9.004-37.867 3.121-55.902A88.1 88.1 0 0 0 698 131l-2.05-2.414C670.842 99.778 635.315 82.846 600 70z"/><path fill="#f7f7f7" d="M722 124c6.404.661 12.503 1.962 18.75 3.5l2.824.684Q749.292 129.572 755 131v205c-14 8-14 8-17 9a399 399 0 0 1-1-4.125l-.562-2.32c-1.11-6.485.21-11.119 2.5-17.118q.83-2.22 1.652-4.44l.746-1.964c1.353-4.14 1.791-8.074 1.811-12.417l.022-3.236.008-3.52.02-3.732c.02-4.079.031-8.158.041-12.237l.013-4.235q.029-9.962.041-19.925.015-11.437.077-22.876.044-8.877.048-17.754c.002-3.522.011-7.044.036-10.566.185-26.972-3.268-51.81-21.39-73.097C720 129 720 129 720 127h2z"/><path fill="#5d5d5d" d="m427 46 1.309 1.758C433.749 54.97 438.914 59.826 447 64l2.594 1.34c7.219 3.493 14.62 5.784 22.406 7.66l3.7.914C508.824 81.151 552.76 77.77 582 60c5.262-3.557 8.17-7.341 11-13h1c1.205 18.973 1.205 18.973-2.875 23.75-1.965 1.695-1.965 1.695-4.125 3.25l-2.129 1.805C575.396 83.276 563.261 86.246 552 90l-1 20-10 2-.184-3.648-.254-4.727-.119-2.406c-.132-4.245-.132-4.245-1.443-8.219l-1.784.02c-6.215.067-12.43.112-18.644.145q-3.464.022-6.927.061c-13.592.15-26.36-.178-39.645-3.226l-3.917-.848C453.178 85.802 435.76 79.14 427 66c-.227-2.177-.227-2.177-.195-4.668l.02-2.705.05-2.815.027-2.85q.036-3.48.098-6.962"/><path fill="#080808" d="M612 364c3.808 1.496 5.694 3.66 8 7 .75 2.313.75 2.313 1 4h2l1-3c2.968 7.11 3.475 13.536 3.375 21.188l-.029 3.358c-.282 15.338-4.548 29.319-10.346 43.454l-3-1c.683-4.063 1.929-7.71 3.375-11.562 2.33-6.398 4.13-12.8 5.625-19.438l-3.125 1c-3.36.972-6.366 1.171-9.875 1l-.262 1.836c-1.316 7.851-3.626 15.745-9.738 21.226-2.834 1.83-4.672 2.644-8 2.938l-.371 3.469c-.556 4.446-1.557 8.702-2.692 13.031l-.564 2.203q-.681 2.65-1.373 5.297l-4-1v4c-4.318-.48-6.292-2.75-9-6-3.78-6.842-5.138-13.24-5.098-21.055l.01-3.36.025-3.46.014-3.531q.018-4.298.049-8.594l2.86-.937c3.713-1.257 6.362-2.285 9.14-5.063h4l.125-2.375c1.864-7.72 6.306-14.198 12.875-18.625a57 57 0 0 1 4-1l.734-3.43 1.016-4.445.477-2.262c1.305-5.572 1.305-5.572 3.836-7.144L610 371c1.3-3.546 1.3-3.546 2-7"/><path fill="#b1b1b1" d="M586 31c5.256 6.442 5.256 6.442 4.938 11.125-.886 6.654-4.134 10.7-9.36 14.754-17.001 11.375-38.794 16.381-59.14 16.184l-3.692-.028L516 73c-3.476-11.288-5.039-22.25-6-34 3.82-2.557 7.605-2.1 12-1.937 8.31.162 16.376-.526 24.625-1.5C559.745 34.019 572.798 33.315 586 33z"/><path fill="#292829" d="M600 74c30.992 7.122 61.778 25.572 85 47l2.656 2.41C702.596 137.59 714.73 157.05 716 178l.195 2.785c.92 24.743-11.749 46.279-28.07 63.965-4.905 5.197-9.946 9.962-15.629 14.309-2.514 1.88-2.514 1.88-4.648 4.039-4.732 4.432-8.473 5.447-14.91 5.34A201 201 0 0 1 646 268c3.607-2.918 7.289-5.716 11-8.5 22.27-16.98 41.734-38.811 46-67.5 1.65-22.353-5.477-43.01-20-60-18.17-20.368-40.152-33.566-64.615-45.209C613.282 84.324 609.23 81.763 605 78c-2.712-1.305-2.712-1.305-5-2z"/><path fill="#cecfcf" d="M735 332c2.391 4.238 2.58 8.242 3 13l3.21-1.969 4.165-2.531 2.117-1.3c5.281-3.2 5.281-3.2 7.508-3.2v64c-18.388-4.597-18.388-4.597-26.969-7.234l-2.823-.858q-4.356-1.324-8.708-2.658-2.998-.913-5.996-1.824Q703.25 385.219 696 383c0-3 0-3 1.434-4.543.66-.543 1.322-1.085 2.004-1.644l2.214-1.868L704 373c12.291-10.267 25.84-25.522 31-41"/><path fill="#afafaf" d="M500 9q1.965 6.135 3.9 12.28.66 2.091 1.33 4.179c.64 1.999 1.27 4 1.899 6.002l1.158 3.65C509 38 509 38 508 40a117 117 0 0 1-8.082 1.586l-2.527.43c-2.733.462-5.468.91-8.204 1.359l-5.612.94a1269 1269 0 0 1-42.201 6.315A59 59 0 0 0 435 52c-3.75-4.719-5.42-8.885-5-15 4.477-9.972 15.323-16.025 25-20 8.284-3.086 16.602-5.302 25.313-6.812l2.133-.376C488.304 8.89 494.08 8.882 500 9"/><path fill="#3c3b3b" d="M421 67c2.148 3.222 2.294 4.278 2 8l-1 1c-.882 7.942 1.032 12.777 6 19 9.921 10.28 25.428 15.867 39 19l2.28.53a697 697 0 0 0 7.408 1.657l2.302.507c10.582 2.206 21.104 2.466 31.885 2.431l3.566.012c12.033-.014 23.651-.828 35.434-3.325l3.145-.664c8.47-1.875 16.147-4.41 23.98-8.148l3.035-1.398C587.693 101.789 595.64 96.177 599 88c.383-1.991.726-3.991 1-6 3.735.498 5.812.875 9 3 .98 4.358-.409 7.194-2.5 10.938-9.75 15.1-29.494 23.662-46.516 27.472A481 481 0 0 1 541 127l-3.266.57c-9.56 1.54-18.95 1.828-28.609 1.805h-2.449c-29.013-.076-63.781-4.899-85.613-25.875-6.513-6.956-8.866-11.393-8.594-21.195.982-6.11 4.2-10.975 8.531-15.305"/><path fill="#868686" d="M99.004 115.145 101 116c-2.682 2.774-5.447 5.207-8.5 7.563-6.123 4.85-11.813 10.09-17.5 15.437l-2.41 2.176c-11.858 11.104-24.6 30.1-25.792 46.618-.103 3.3-.12 6.592-.11 9.893l-.05 3.358c-.013 23.985 12.446 43.368 28.542 60.197 15.207 14.87 33.074 25.89 51.82 35.758l1.973 1.045C145.648 306.812 162.986 314.466 181 320q2.096.688 4.188 1.383c17.147 5.645 35 11.395 53.015 13.23 3.386.468 6.52 1.424 9.797 2.387 14.02 3.186 28.367 4.766 42.615 6.57q4.048.516 8.092 1.059c33.066 4.247 66.577 3.633 99.834 3.508 6.163-.02 12.325-.03 18.488-.04q17.985-.031 35.971-.097v1c-23.24 4.205-46.761 4.353-70.303 4.316q-4.676-.007-9.35.02c-22.614.131-44.852-1.034-67.347-3.336l-3.923-.392C278.086 347.204 254.534 343.23 231 338l-3.066-.68C168.774 324.06 98.234 300.375 60 250l-1.867-2.426C45.22 230.043 38.51 210.078 41.72 188.271c4.742-28.064 24.502-50.473 46.217-67.583l2.187-1.764c5.17-3.958 5.17-3.958 8.879-3.78"/><path fill="#555454" d="m411 92 .848 1.941c7.252 15.648 22.379 23.333 37.945 29.277 25.67 9.093 52.348 9.246 79.207 8.782-3.672 1.907-7.427 3.17-11.375 4.375l-2.129.653q-2.178.666-4.358 1.324-2.072.628-4.14 1.269c-1.85.573-3.705 1.133-5.56 1.691l-3.254.989c-7.25 1.592-12.967.14-19.872-1.988-7.07-2.104-14.142-4.075-21.312-5.813a457 457 0 0 1-20-5.375c-8.285-2.419-16.62-4.564-25-6.625-10.923-2.69-21.741-5.63-32.538-8.787-4.248-1.23-8.511-2.409-12.774-3.588A8523.31 8523.31 0 0 0 359 108c3.33-2.882 6.499-3.936 10.714-5.121l1.974-.564c2.08-.592 4.164-1.173 6.248-1.752q3.066-.866 6.13-1.736 2.019-.571 4.038-1.139c5.448-1.536 10.842-3.223 16.225-4.973C407 92 407 92 411 92"/><path fill="#646364" d="m424 35-2 5-3.256.06c-18.659.354-37.304.75-55.932 1.94l-3.984.251c-5.347.361-10.544.845-15.828 1.749-2.145.126-4.29.227-6.437.313-8.38.437-16.683 1.492-25 2.562l-3.856.49C265.877 52.857 223.09 62.002 184 78q-2.375.934-4.754 1.86c-15.605 6.113-30.536 12.67-44.74 21.635-4.698 2.863-7.839 4.178-13.506 3.505-3.438-1-3.438-1-6-2 2.543-2.902 5.394-4.44 8.793-6.223l1.74-.914q2.822-1.473 5.654-2.925l1.966-1.014A379 379 0 0 1 171 75l2.98-1.146C253.691 43.506 339.207 33.654 424 35"/><path fill="#252525" d="M103 345c3.817 1.233 7.587 2.57 11.352 3.953 12.221 4.483 24.449 8.624 36.949 12.25 5.229 1.543 10.43 3.18 15.637 4.797 7.767 2.404 15.546 4.74 23.375 6.938 8.443 2.37 16.817 4.943 25.187 7.562 29.232 9.132 58.835 16.907 88.5 24.5l2.016.569c2.392.52 4.67.629 7.117.712l2.941.114 6.125.21 2.934.114 2.684.092C330 407 330 407 332 408v-2h2l-1 3c-22.033 11.017-79-6.711-102.393-12.375a530 530 0 0 0-8.06-1.848c-26.893-6.18-53.41-15.44-78.547-26.777l-2.585-1.16C128.18 360.864 114.893 354.397 103 346z"/><path fill="#1a1a1a" d="M443 84a321 321 0 0 1 17.125 5.5c16.204 5.54 32.777 6.678 49.792 6.63q3.415-.005 6.831.007 2.21 0 4.42-.004l3.977-.004c3.968-.133 7.916-.637 11.855-1.129v18c-18.887 1.793-38.243 2.183-57-1l-3.504-.59c-6.848-1.317-13.44-3.24-20.058-5.41l-2.31-.755c-8.584-2.915-8.584-2.915-11.128-5.245-.379-2.94-.478-5.276-.312-8.187l.068-2.272c.059-1.848.148-3.695.244-5.541"/><path fill="#212020" d="M85 296h4l-.485 1.51c-.71 3.433-.718 6.835-.753 10.326l-.025 2.294q-.02 2.397-.032 4.796-.017 2.444-.062 4.887a514 514 0 0 0-.069 7.085l-.053 2.189c.022 5.122 1.276 7.962 4.479 11.913 22.241 19.004 52.816 31.16 80 41l3.353 1.214C214.169 397.087 254.122 405.084 295 410l2.991.364c8.815 1.05 17.633 1.833 26.509 2.074l2.124.104c3.455.03 5.024-.207 7.558-2.622 2.272-3.649 2.32-5.918 2.314-10.197l.005-2.088a330 330 0 0 0-.034-4.354c-.03-2.209-.021-4.414-.008-6.623-.029-9.198-.029-9.198-3.459-17.658 4.013.28 5.72.758 8.813 3.438 4.53 5.306 3.41 11.403 3.427 18.055.01 2.235.04 4.468.072 6.702q.01 2.145.016 4.29l.028 3.928c-.473 4.766-1.843 8.169-5.356 11.462-8.83 3.311-20.258.736-29.437-.125l-2.185-.203c-62.107-5.818-125.049-19.318-180.595-48.613a356 356 0 0 0-5.451-2.782c-7.228-3.679-14.072-7.794-20.832-12.277l-2.248-1.487C86.46 342.748 86.46 342.748 84 337c-.247-1.993-.247-1.993-.243-4.11l-.01-2.416.023-2.58v-2.666q.006-2.782.024-5.565c.018-2.85.02-5.7.02-8.552q.007-2.702.018-5.404l.003-2.598c.049-5.993.049-5.993 1.165-7.109"/><path fill="#d0d0d0" d="M391 476c3.47 1.665 6.604 3.656 9.805 5.781 7.565 4.2 16.62 4.508 24.965 2.578 2.114-.715 4.161-1.524 6.23-2.359 1.328-.354 2.66-.693 4-1l.813 2.438L438 486l3 1a75 75 0 0 1 2.75 7.438l.707 2.103c1.678 5.19 1.678 5.19.543 7.459h-89l4-2a151 151 0 0 0 5.25-4.687c3.317-3.07 6.638-6.114 10.063-9.063a95 95 0 0 0 6.875-6.562c2.652-2.535 4.375-3.608 7.812-4.688z"/><path fill="#2e5765" d="M291 242c2.905 1.954 5.4 3.802 7 7 .37 3.913.53 6.19-1.656 9.527-2.563 2.704-4.818 4.094-8.156 5.723l-3.02 1.516c-10.5 4.09-27.57 4.226-38.184.293-4.022-2.146-7.914-4.92-9.984-9.059-.493-3.03-.518-5.115 1.059-7.809C249.182 235.174 276.19 233.31 291 242"/><path fill="#282828" d="M617.625 353.438c8.266 6.03 10.516 14.892 12.375 24.562 3.146 30.047-5.506 60.038-24.148 83.73-5.278 6.268-11.169 12.195-19.497 13.77-5.605.269-9.073-.694-13.355-4.5-7.66-7.154-11.557-16.32-12.161-26.792-.19-13.726-.364-26.87 3.161-40.208l.809-3.29c4.843-17.693 15.097-36.949 31.191-46.71 7.36-3.244 14.432-4.829 21.625-.562m-35.36 20.89c-11.522 17.029-16.571 35.142-16.702 55.547l-.032 3.747c.11 11.355 2.118 20.51 9.469 29.378 3.464 3.228 6.12 4.273 10.75 4.563 7.425-.335 13.546-3.694 18.938-8.688 18.276-20.113 23.49-48.719 22.543-74.945-.66-8.372-4.04-16.192-10.231-21.93-4.048-2.76-7.676-3.656-12.504-3.477-9.394 1.794-16.7 8.38-22.23 15.805"/><path fill="#2a2929" d="M402.188 43.938q2.76.008 5.521.013 6.645.017 13.291.049v3l-2.99.044C391.262 47.466 364.66 48.79 338 51l-3.753.303c-15.942 1.345-31.669 3.982-47.435 6.635l-3.066.512C271.673 60.483 259.826 62.822 248 66q-2.045.531-4.09 1.058c-36.58 9.474-71.968 21.89-104.36 41.723l-1.762 1.076a79 79 0 0 0-3.74 2.556c-3.656 2.557-5.451 3.574-10.04 3.673l-3.883-.711-3.93-.664C113 114 113 114 111 113l1-7 1.977.438 2.648.562 2.602.563c7.923 1.25 11.792-.92 18.46-5 62.548-36.906 137.31-49.638 208.688-56.25l3.9-.363c17.315-1.532 34.533-2.097 51.913-2.013"/><path fill="#555454" d="M355 54v1c-.76.105-1.518.21-2.3.32-20.207 2.805-20.207 2.805-40.314 6.24-2.843.524-5.69 1.025-8.538 1.526C229.64 76.288 148.384 100.23 94 155c16.263-36.028 70.315-57.656 104.148-70.492C207.661 80.98 217.273 77.874 227 75l2.234-.677C243.61 69.978 258.293 66.983 273 64l3.824-.787c15.513-3.165 31.009-5.76 46.738-7.588l2.179-.26C335.539 54.217 345.132 53.792 355 54"/><path fill="#b4b3b2" d="M507 41q-4.201 4.276-8.423 8.533a1563 1563 0 0 0-4.233 4.299c-15.512 15.621-15.512 15.621-20.554 16.595-2.48-.067-4.427-.648-6.79-1.427l-1.808-.59C454.577 64.863 444.233 60.81 436 53v-2c10.747-2.287 21.491-4.02 32.375-5.5q4.419-.604 8.836-1.219l2.18-.3a270 270 0 0 0 11.356-1.84l2.34-.433q2.209-.417 4.414-.856c3.439-.652 6.172-1.12 9.499.148"/><path fill="#fdfdfc" d="M755 339v57c-9.003-1.125-9.003-1.125-12.21-2.156l-2.083-.66-2.082-.684-2.152-.684c-5.13-1.645-5.13-1.645-7.473-2.816.633-3.895 1.834-7.152 3.438-10.75 2.65-6.28 4.543-11.848 4.582-18.707.11-9.541.11-9.541 2.796-12.633 2.33-1.55 4.64-2.749 7.184-3.91q2.01-1.171 4-2.375c3-1.625 3-1.625 4-1.625"/><path fill="#4e4e4e" d="m668 288 1 3-2.379 1.172c-6.962 3.435-6.962 3.435-13.746 7.203C650 301 650 301 648 301v2q-2.685 1.256-5.375 2.5l-3.023 1.406C637 308 637 308 635 308v2c-18.46 8.248-36.903 16.317-56 23l-2.361.84c-14.831 5.226-30.199 8.428-45.552 11.709-2.207.477-4.41.969-6.614 1.461-11.146 2.463-22.263 4.224-33.598 5.553l-2.627.313C458.572 356.4 428.898 358.708 399 358c2.762-1.537 4.878-2.27 8.03-2.439l2.39-.143 2.584-.129 5.566-.327 2.957-.164c53.54-3.044 107.728-10.547 158.681-27.855a856 856 0 0 1 8.874-2.927c27.36-9.047 55.658-20.31 79.918-36.016"/><path fill="#515151" d="M41 224c2.816 2.816 4.218 6.27 5.938 9.813a1718 1718 0 0 0 2.09 4.269l.929 1.913c1.05 2.115 1.05 2.115 2.646 4.36 1.69 3.2 1.756 5.27 1.725 8.875l-.014 3.815q-.03 2.072-.064 4.142l-.033 4.301c-.166 18.84-.698 37.68-1.217 56.512-3.053-2.94-4.872-5.345-6.562-9.25l-1.192-2.703L44 307l-.766-1.774c-1.965-4.796-2.601-8.773-2.575-14.019v-2.22c.001-2.392.024-4.783.048-7.175q.009-2.505.013-5.01c.011-4.373.04-8.746.074-13.118.03-4.472.044-8.943.06-13.414q.05-13.136.146-26.27"/><path fill="#252425" d="M623 408c-2.345 18.983-10.154 40.744-25.5 53.063-3.689 2.419-7.149 2.708-11.5 2.937.682-6.173 1.71-12.19 3.063-18.25l.505-2.68c1.454-6.353 1.454-6.353 4.286-8.43 1.4-.66 2.823-1.28 4.263-1.85 4.18-1.753 5.994-5.89 7.883-9.79 1.55-4.282 2.843-8.597 4-13q2.687-.502 5.375-1l3.023-.562C621 408 621 408 623 408"/><path fill="#d0cfce" d="M47 377c3.188-.5 3.188-.5 7 0 1.546 1.823 2.563 3.74 3.707 5.836C61.71 389.536 68.641 393.069 76 395c4.332.57 8.634.863 13 1l-.168 1.753C87.383 412.873 87.383 412.873 86 428h-1l-.5-3.062c-1.236-4.41-3.983-6.43-7.457-9.227-2.758-2.31-4.835-4.882-7.043-7.711-4.147 1.27-7.745 2.82-11.5 4.984l-3.156 1.815L52 416.75l-1.724 1c-10.767 6.248-21.297 12.842-31.744 19.613C12.405 441.324 6.27 445.27 0 449c1.512-4.43 4.971-6.343 8.71-8.781l2.05-1.366c2.198-1.46 4.406-2.907 6.615-4.353l4.538-2.996C36.248 422.067 50.782 412.958 66 405l-2.562-2.875C56.835 394.388 51.678 386.012 47 377"/><path fill="#8f8e8e" d="M99.004 115.145 101 116c-2.682 2.774-5.447 5.207-8.5 7.563-6.123 4.85-11.813 10.09-17.5 15.437l-2.41 2.176c-11.858 11.104-24.6 30.1-25.792 46.618-.103 3.3-.12 6.592-.11 9.893l-.05 3.358c-.013 24.004 12.452 43.262 28.48 60.154C83.363 269.541 83.363 269.541 93 276l-2 4a2461 2461 0 0 1-11.337-9.59 622 622 0 0 0-4.214-3.535C69.532 261.83 64.72 256.168 60 250l-1.875-2.434c-12.902-17.538-19.614-37.486-16.404-59.295 4.742-28.064 24.502-50.473 46.217-67.583l2.187-1.764c5.17-3.958 5.17-3.958 8.879-3.78"/><path fill="#202020" d="M653 273a368 368 0 0 1 7.313-.25l2.033-.102c7.072-.132 10.237 1.655 17.654 4.352v107c-5-1-5-1-6-2a268 268 0 0 1-.114-9.293v-2.956c0-3.241.009-6.483.016-9.724l.005-6.721q.006-8.865.024-17.73.014-9.04.02-18.078.016-17.749.049-35.498c-3.452-1.408-6.828-2.558-10.437-3.5-3.907-1.04-7.747-2.16-11.563-3.5z"/><path fill="#5492ae" d="m199.313 212.625 2.474-.074c6.635-.032 11.822 1.533 16.906 5.905C220 220 220 220 220.5 222.875c-.678 4.24-2.154 5.49-5.5 8.125-5.615 2.942-10.15 3.465-16.437 3.375l-2.448.035c-6.072-.03-11.95-.786-16.8-4.807C178 228 178 228 177.375 224.687c.765-4.516 2.141-5.67 5.605-8.425 5.402-3.375 10.11-3.627 16.333-3.637"/><path fill="#1f1e1f" d="m158 333 .734 2.633 1.016 3.492.984 3.445c2.322 6.292 5.858 10.227 10.891 14.555 5.881 5.061 5.881 5.061 7.375 8.875-5.653-.322-8.525-2.705-12.312-6.625l-1.698-1.72c-5.855-6.169-9.996-13.193-13.99-20.655l-5 1c1.265 7.8 5.474 14.63 10 21-15.107-2.962-15.107-2.962-19.7-9.016a111 111 0 0 1-5.027-8.48L130 340h-4c-.198 4.264.314 7.103 2 11-10.354-2.463-20.143-5.568-28-13l1-2 1 1c9.946.487 19.816-.918 29.688-2a3474 3474 0 0 1 7.927-.856q2.452-.261 4.902-.534c4.525-.485 8.932-.694 13.483-.61"/><path fill="#cdcdcd" d="M509 40c1.886 2.83 2.32 3.87 2.781 7.063l.364 2.417.355 2.52q.357 2.438.719 4.875c.12.82.242 1.64.367 2.484C514.3 63.922 515.15 68.461 516 73c-4.437.059-8.875.094-13.312.125l-3.768.05c-7.543.04-14.56-.489-21.92-2.175v-3c1.738-1.594 1.738-1.594 4.313-3.5 7.008-5.495 13.112-11.819 19.311-18.2l2.411-2.46 2.168-2.239C507 40 507 40 509 40"/><path fill="#070706" d="M613.207 359.918c4.483 2.57 7.445 5.387 9.793 10.082.25 2.875.25 2.875 0 5h-2c-1.148-1.645-1.148-1.645-2.375-3.812-1.862-3.122-3.434-5.297-6.625-7.188l-.312 2.313c-.732 2.858-1.458 3.844-3.688 5.687-1.255-3.766-.37-5.372 1-9-9.539 1.134-15.263 4.505-21.437 11.813C579.014 386.498 573.726 398.838 571 413l9-1 1 3-11 2q-.08 6-.125 12c-.017 1.125-.034 2.25-.05 3.41-.06 10.147 1.392 18.986 7.175 27.59 3.085 2.176 3.085 2.176 6 3v-4l3-1v6c12.8-3.754 18.223-10.562 25.313-21.562C613 440 613 440 616 438c-1.072 10.034-8.266 18.215-15.852 24.441-6.043 4.385-11.834 5.602-19.148 4.559-6.401-2.831-10.249-8.685-12.827-15.038-2.523-7.322-2.675-14.397-2.61-22.087l.027-3.906c.382-21.032 7.58-42.638 22.41-58.047 6.982-6.492 15.537-12.026 25.207-8.004"/><path fill="#77cbee" d="M374 267c2.463 2.055 2.934 2.618 3.5 5.875-.678 4.24-2.154 5.49-5.5 8.125-5.727 3.017-10.516 3.52-16.937 3.5l-2.592.086c-6.414.02-10.441-1.634-15.471-5.586-1-1-1-1-1.437-4.25.437-3.75.437-3.75 2.812-6.5 10.379-7.348 24.748-7.421 35.625-1.25"/><path fill="#515150" d="m584 414-.105 2.379c-.165 6.383-.06 11.022 3.105 16.621l2 2c-.393 6.343-1.97 12.365-3.562 18.5l-.71 2.781q-.857 3.361-1.728 6.719c-4.346-.884-6.126-2.551-9-6-3.78-6.842-5.138-13.24-5.098-21.055l.01-3.36.025-3.46.014-3.531q.018-4.298.049-8.594c5.029-1.725 9.652-3 15-3"/><path fill="#2d4a57" d="M363 254q1.53 1.47 3 3c1.327.36 2.661.689 4 1 2.92 1.008 5.546 2.102 8 4 1 3.75 1 3.75 1 7h3c.298 5.073.137 7.953-3 12-5.01 5.566-9.41 9.735-17 11l-1 1c-1.52.072-3.042.084-4.562.063l-2.504-.028L352 293v-2l-6 1-2-4 1-1-1.898-.516-2.477-.734-2.46-.703C336 284 336 284 334.686 282.125c-1.03-3.187-.31-5.89.313-9.125h-2l-1 3c-1.218-5.133-1.218-5.133-1-8 4.112-4.4 8.29-6.575 14-8 4.166-1.237 8.072-2.443 11.813-4.687C359 254 359 254 363 254m-27 17c-.917 3.543-.917 3.543 0 7 4.805 4.938 9.3 6.275 15.958 6.43 12.307.14 12.307.14 23.042-5.43 2.33-3.496 2.588-4.887 2-9-4.19-4.582-9.767-6.67-15.832-7.29-9.319-.262-18.798.915-25.168 8.29"/><path fill="#1f2020" d="M91 299c3.942 1.434 7.276 3.315 10.813 5.563C112.54 311.284 123.576 317.535 135 323c-2.716 2.716-4.64 2.523-8.434 2.965l-3.904.486q-3.077.369-6.155.724c-1.982.231-3.961.48-5.94.727l-3.596.422c-3.082.701-4.122 1.185-5.971 3.676-1.176 2.1-1.176 2.1-2 4-1.391-2.782-1.076-5.21-1.125-8.312-.131-3.533-.131-3.533-.875-6.688-1.567-1.489-1.567-1.489-3.562-2.312-1.91-.973-1.91-.973-3.438-2.688-.702-5.392-.543-10.597 0-16z"/><path fill="#9a9999" d="M593 47h1c.261 3.368.357 5.402-1.398 8.344C587.607 60.793 582.56 64.614 576 68l-1.79.968c-4.826 2.54-9.554 4.21-14.835 5.532l-2.498.626A826 826 0 0 1 549 77l-2.476.612C523.259 83.247 496.358 83.39 473 78l-2.208-.504C455.866 73.934 436.87 67.304 428 54c-.125-2.687-.125-2.687 0-5l2 2.063c.47.458.938.917 1.422 1.39a111 111 0 0 1 3.094 3.156C444.276 65.194 458.947 70.053 472 73l3.676.902C508.783 81.184 552.776 77.761 582 60c5.262-3.557 8.17-7.341 11-13"/><path fill="#1d1c1c" d="M286 365c11.476-.272 11.476-.272 14.918 2.602a77 77 0 0 1 2.715 4.234c1.462 2.315 2.94 3.69 5.055 5.414 4.287 3.566 7.936 7.59 11.631 11.751 2.519 2.897 2.519 2.897 5.681 4.999-2.37-4.36-5.31-7.732-8.687-11.312l-1.605-1.72A397 397 0 0 0 303 368c1.645-.8 1.645-.8 4-1a47.5 47.5 0 0 1 5.688 4.813l1.58 1.536a447 447 0 0 1 3.188 3.152c1.4 1.359 2.879 2.634 4.364 3.897 5.876 5.397 5.876 5.397 6.455 9.598.115 4.744-.481 9.335-1.275 14.004-6.75.125-6.75.125-9-1v-2l-1.789-.844c-3.427-1.792-6.31-4.201-9.336-6.594l-1.918-1.486-1.84-1.447-1.668-1.31C300 388 300 388 298 385l.707-2.824c.67-3.368.67-3.368-1.945-6.133a118 118 0 0 0-3.075-2.856l-1.552-1.482c-1.952-1.84-3.724-3.5-6.135-4.705z"/><path fill="#4a4949" d="M601.625 393c2.944 1.24 3.754 2.258 5.375 5 1.66 10.613-.882 20.31-6.457 29.367-2.43 3.192-3.741 4.46-7.73 5.32C590 432 590 432 588.363 430.45c-3.073-5.521-2.336-13.333-1.363-19.449 2.018-6.829 6.42-18 14.625-18"/><path fill="#1e1e1e" d="M608 344c8.76-.796 17.17 2.043 23.938 7.625 7.476 7.3 10.762 16.613 11.219 26.91.04 4.012.018 8.017-.032 12.027q-.016 2.108-.027 4.213A1936 1936 0 0 1 643 405l-10-1 .08-2.225c1.201-25.142 1.201-25.142-9.482-47.236-4.666-4.495-9.587-7.208-15.598-9.539z"/><path fill="#4d4d4c" d="M612 364c5.026 2.319 7.218 5.435 9.688 10.375 2.51 6.933 2.443 13.787 2.375 21.063l-.014 2.794A1684 1684 0 0 1 624 405c-9.41 2.296-9.41 2.296-14 2l-.078-1.977c-.321-5.882-.321-5.882-3.11-10.96-2.423-4.095-1.762-6.242-.73-10.762 1.804-6.489 3.815-12.904 5.918-19.301"/><path fill="#121111" d="M96 395c1 1 1 1 1.063 3.563L97 401l3 1q.074 7.422.11 14.844.016 2.526.04 5.052c.025 2.417.036 4.835.045 7.252l.032 2.29c0 1.855-.105 3.71-.227 5.562-2 2-2 2-4.277 2.266l-2.66-.016-2.653.016C88 439 88 439 85 437c-.647-8.328.654-16.77 1.5-25.062l.434-4.358Q87.46 402.29 88 397l-12-1v-1q3.592-.293 7.188-.562l2.04-.17c3.78-.277 7.113-.309 10.772.732"/><path fill="#1b1b1b" d="M588 79c1.202 13.124 1.202 13.124-1.36 17.121-2.125 1.62-4.223 2.736-6.64 3.879l-2.746 1.57c-7.218 3.969-14.19 5.852-22.254 7.43V92l6.125-1.562C569.048 88.188 580.713 79 588 79"/><path fill="#25454d" d="M276 240v2c-.957.09-.957.09-1.934.184l-2.503.254-2.497.246c-2.053.105-2.053.105-3.066 1.316-1.52.072-3.042.084-4.562.063l-2.504-.028L257 244v2l-2.437 1.438C251.708 248.8 251.708 248.8 251 252l2 1-2 3a75 75 0 0 0-1 5c8.633 1.882 16.247 2.003 25 1q2.906-.284 5.813-.562 2.093-.217 4.187-.438v-3h2l.563-3.812.316-2.145c.26-2.246.26-2.246-.879-5.043l-2-1-2-1-1-3c4.867.453 7.442 1.645 11 5 1.57 3.139 1.352 5.539 1 9-3.885 5.39-9.902 7.89-16.176 9.59-10.358 1.504-23.843 2.523-32.824-3.59-2.418-1.939-3.391-3.226-5-6-.277-3.326.164-4.984 2.293-7.57 9.866-9.327 20.964-8.93 33.707-8.43"/><path fill="#1d1d1d" d="M223 354c8.137.714 16.017 2.328 24 4v2l-1.973.262c-4.087.996-7.666 2.77-11.464 4.55-15.01 6.862-27.954 11.165-43.977 5.305-4.823-2.15-7.063-4.492-9.586-9.117 3.782.646 7.332 1.705 10.977 2.868 10.358 3.605 10.358 3.605 21.023 3.132 5.294-3.184 8.743-7.216 11-13"/><path fill="#8c8c8c" d="M245 54c-1 2-1 2-3.414 2.882l-3.211.888-3.557.997L231 59.812q-1.933.54-3.865 1.082-3.825 1.07-7.65 2.134C205.826 66.838 192.214 70.834 179 76l-2.219.863c-6.33 2.497-12.558 5.207-18.777 7.965C155 86 155 86 152 86v2l-3.008 1.25c-8.36 3.536-16.133 7.39-23.808 12.246-3.65 1.725-6.195 1.79-10.184 1.504 2.543-2.902 5.394-4.44 8.793-6.223l1.74-.914q2.822-1.473 5.654-2.925l1.966-1.014A379 379 0 0 1 171 75l2.98-1.146c12.438-4.736 25.03-8.892 37.77-12.729l3.711-1.12C236.61 53.753 236.61 53.753 245 54"/><path fill="#0f0f0f" d="m384 470 4 1 1 4-3 2 3 2-2.18.684c-3.44 1.606-5.344 3.618-7.945 6.378-4.615 4.8-9.44 9.018-14.66 13.16-2.248 1.738-2.248 1.738-4.215 3.778-3.375 0-3.375 0-7-1-2.648-2.988-3.902-4.878-4.25-8.875L349 491l5-2-1 4c6.094-3.156 11.773-6.764 17.438-10.625l2.152-1.452 2.031-1.4 1.826-1.252c1.833-1.373 1.833-1.373 3.553-4.271h2v-2h2z"/><path fill="#b2b2b1" d="M565 18c6.313 1.343 10.796 4.248 16 8-2.935 1.605-5.634 2.492-8.902 3.184l-2.919.618-3.116.636-3.213.66a396 396 0 0 1-21.413 3.715l-2.572.374c-4.669.638-9.153.933-13.865.813 2.181-2.43 4.073-3.648 7.105-4.832l2.46-.972 2.622-1.009c1.329-.52 1.329-.52 2.683-1.052a905 905 0 0 1 19.367-7.32c3.124-.991 3.124-.991 5.763-2.815"/><path fill="#555" d="M161 334c2.305.078 2.305.078 5 1 1.245 2.275 2.19 4.356 3.125 6.75 2.159 4.832 4.031 8.107 9 10.375q2.913 1.012 5.875 1.875l3.21 1.133c11.365 4.01 11.365 4.01 23.013 3.039 2.025-1.13 2.025-1.13 3.152-3.797L215 352c3.188-.312 3.188-.312 6 0-.615 3.378-1.857 5.476-3.937 8.188l-1.59 2.105c-1.71 1.981-2.798 2.597-5.371 3.016-12.908.671-31.355-4.437-41.141-13.118C163.91 346.861 161 341.487 161 334"/><path fill="#517688" d="m212 208 2 3 3 1c1.316 1.996 1.316 1.996 2.563 4.438 1.35 2.622 2.34 4.465 4.437 6.562-.033 2.729-.564 5.297-1 8-21.25 9.342-21.25 9.342-27.312 8.79L194 239l-1-3-2-2 3.367-.043c8.695-.234 16.362-.555 23.633-5.957 1.437-2.875 1.382-4.819 1-8-4.902-5.042-10.008-6.273-16.803-6.371l-2.51-.004-2.474-.074c-6.644-.032-11.755 1.559-16.894 5.854-2.111 2.553-2.016 5.384-2.319 8.595h-1l.035-2.152.028-2.786.035-2.777c.161-2.25.161-2.25-1.098-3.285 5.087-6.696 5.087-6.696 8.438-7.812L187 209l3.188-1.062c7.113-1.75 14.647-1.345 21.812.062"/><path fill="#141413" d="M48 364h3v9l-4 1v-5H20v1l24 1v2l2 1-1 2h8v1l-2.14.26q-4.805.586-9.61 1.178l-3.367.408-3.242.4-2.984.365c-2.281.334-4.427.823-6.657 1.389q-2.624.098-5.25.063l-2.703-.028L15 381c-2.4-4.246-2.311-7.177-2-12 2.86-2.86 4.906-2.285 8.906-2.344l2.062-.044c2.916-.062 5.83-.102 8.746-.144 2.127-.033 4.253-.079 6.38-.124l3.865-.057c3.15.029 3.15.029 5.041-2.287"/><path fill="#10100f" d="M447 484c1.849.092 1.849.092 4 1 1.723 2.393 1.723 2.393 3.418 5.531l1.861 3.395q.955 1.785 1.909 3.574.97 1.788 1.943 3.574a1165 1165 0 0 1 3.534 6.533c1.127 2.276 1.127 2.276 2.335 3.393.438 2.313.438 2.313 0 5-3.362 3.034-5.333 3.957-9.875 4.25L453 520l3-1-1.355-3.008c-3.062-6.85-6.035-13.73-8.707-20.742l-1.286-3.36c-.652-2.89-.652-2.89.164-5.218C446 485 446 485 447 484"/><path fill="#262626" d="M170 338c6.033 1.217 11.762 2.832 17.563 4.875 8.373 2.878 16.815 5.128 25.437 7.125-1.25 3.653-1.671 4.78-5 7-5.968.572-10.853-.905-16.437-2.75l-2.448-.766c-13.329-4.296-13.329-4.296-17.615-9.546C170 341 170 341 170 338"/><path fill="#c4dbe1" d="M291 242c2.905 1.954 5.4 3.802 7 7 .37 3.913.53 6.19-1.656 9.527-2.563 2.704-4.818 4.094-8.156 5.723l-3.02 1.516c-10.5 4.09-27.57 4.226-38.184.293-4.022-2.146-7.914-4.92-9.984-9.059-.493-3.03-.518-5.115 1.059-7.809C249.182 235.174 276.19 233.31 291 242m-50 8c-1.488 2.923-1.488 2.923-1 6 2.848 4.91 6.343 7.406 11.672 9.305C263.453 267.766 277.05 267.27 288 262c3.574-2.503 3.574-2.503 6-6 .471-4.164.55-6.238-1.937-9.687-7.293-5.507-13.972-6.963-23-6.813-.925-.015-1.85-.03-2.803-.047-9.525.054-19.01 2.957-25.26 10.547"/><path fill="#fbfbfa" d="M726 392c9.973 1.635 19.416 4.871 29 8v10c-7.408-.548-14-2.312-21.062-4.562l-3.202-.999Q726.865 403.231 723 402c-.621-2.324-.621-2.324-1-5 1.938-2.812 1.938-2.812 4-5"/><path fill="#b1b2b2" d="m564.184 476.012 2.254.675c6.461 1.653 12.921 1.95 19.562 2.313v1l-1.773.262c-8.591 1.406-16.918 3.694-25.257 6.16-1.64.481-3.292.923-4.947 1.355-4.462 1.805-8.166 4.52-12.086 7.286l-2.555 1.776a1713 1713 0 0 0-5.069 3.54c-2.99 2.096-5.995 4.17-9 6.246l-3.047 2.113a4587 4587 0 0 1-11.703 8.075l-2.009 1.383q-1.888 1.298-3.784 2.584-1.74 1.2-3.435 2.468c-1.558 1.139-1.558 1.139-4.335 2.752-2.174-.4-2.174-.4-4-1l3.227-2.273 4.398-3.102 2.359-1.663a1278 1278 0 0 0 10.489-7.458c7.161-5.16 14.412-10.17 21.715-15.129 12.566-8.273 12.566-8.273 24.312-17.625 2.5-1.75 2.5-1.75 4.684-1.738"/><path fill="#cac8c6" d="M42 338a110 110 0 0 1 7.688 10.563l1.824 2.816c1.32 2.325 2.171 3.986 2.488 6.621-1.213 3.3-2.43 5.466-5 7.875-4.603 1.726-9.14 1.355-14 1.125v-1h9l-1-3.75c-.89-3.925-1.107-7.556-1.062-11.578l.027-3.232L42 345c-13.83 7.402-27.559 14.91-41 23l-1-3c6.606-4.162 13.238-8.206 20.105-11.922l1.768-.96q3.57-1.937 7.155-3.847c1.78-.95 3.554-1.915 5.327-2.88l3.146-1.687c2.565-1.75 3.457-2.826 4.499-5.704"/><path fill="#515150" d="M612 88c4.948 1.478 9.29 3.564 13.813 6l2.06 1.078c5.003 2.674 5.003 2.674 6.127 4.922a5392 5392 0 0 1-12.915 4.218q-2.195.714-4.388 1.434-3.163 1.037-6.33 2.063l-1.96.647A67 67 0 0 1 597 111l1.137-1.32a777 777 0 0 0 3.21-3.762 160 160 0 0 1 4.278-4.73c3.056-4.102 4.68-8.394 6.375-13.188"/><path fill="#cccbcb" d="m502 42-3.363.926c-8.947 2.498-17.841 5.114-26.684 7.957-.782.25-1.565.5-2.371.76a1810 1810 0 0 0-11.847 3.837q-2.212.712-4.426 1.422l-2.056.688c-3.406 1.081-5.882 1.843-9.253.41-2.252-1.482-4.01-3.146-6-5v-2c10.849-2.31 21.702-4.057 32.688-5.562l6.796-.945q2.193-.306 4.387-.609a310 310 0 0 0 15.722-2.63c2.444-.258 4.088-.013 6.407.746"/><path fill="#59c2de" d="M267.25 245.652c8.736-.546 8.736-.546 11.695 2.063 1.728 2.73 3.055 5.012 3.055 8.285l-2.187.313c-2.86.52-2.86.52-5.063 2.25-3.969 2.074-7.358 2.109-11.75 1.437-3.136-1.096-6.066-2.446-9-4 .573-2.867.861-3.861 3-6l-1-3c3.742-.587 7.485-.945 11.25-1.348"/><path fill="#6f6e6f" d="m287.875 44.938 2.367.027L292 45c-3.277 2.903-5.953 3.58-10.25 4.188l-3.266.48L276 50v2c-9.936 2.587-19.921 4.933-29.937 7.188l-3.48.793C236.385 61.363 230.327 62.443 224 63c2.193-3.29 2.546-3.452 6.133-4.387l2.441-.654 2.551-.647 2.574-.681A818 818 0 0 1 244 55l-2-2a29561 29561 0 0 1 19.594-3.934l7.164-1.437 2.226-.448c11.614-2.323 11.614-2.323 16.891-2.243"/><path fill="#2f7593" d="m358.25 265.625 2.566-.074c5.67-.027 8.901.634 13.184 4.449.625 3 .625 3 0 6-2.732 3.782-5.581 4.817-10 6-3.005.322-5.98.37-9 .375l-2.367.074c-5.373.027-8.349-.935-12.633-4.449l-2-2c.163-3.188.56-4.574 2.875-6.812C343 268 343 268 346 268v3h2c-.998 2.993-1.752 3.948-4 6 7.927 1.906 7.927 1.906 16 2a83 83 0 0 0 4-3h4l-1.5-2.875C365 270 365 270 365 268h-18c3.19-3.19 6.91-2.369 11.25-2.375"/><path fill="#909092" d="M593 47h1c.261 3.368.357 5.402-1.398 8.344C587.607 60.793 582.56 64.614 576 68l-1.775.966c-4.964 2.624-9.849 4.251-15.288 5.597l-2.49.633C536.305 80.239 536.305 80.239 528 80l1-2-5-1v-1l1.778-.18C560.365 72.187 560.365 72.187 589 54c1.54-2.284 2.763-4.527 4-7"/><path fill="#c8c7c5" d="M735 332c2.391 4.238 2.58 8.242 3 13l3.21-1.969 4.165-2.531 2.117-1.3c5.281-3.2 5.281-3.2 7.508-3.2-.301 1.863-.301 1.863-1 4a83 83 0 0 1-7.437 4.563q-2.316 1.307-4.63 2.62l-2.441 1.379c-4.979 2.873-9.834 5.958-14.689 9.034l-2.17 1.35-1.91 1.203C719 361 719 361 716 361l1.398-1.625c4.465-5.364 8.347-10.896 12.04-16.812l1.323-2.116c1.716-2.786 3.2-5.332 4.239-8.447"/><path fill="#454141" d="M439 464h4c-.661 5.788-3.641 9.084-8.062 12.625-6.683 4.546-14.992 6.132-22.938 5.375-7.985-1.538-14.463-4.757-19.723-11.066C391 469 391 469 391 467c4 0 4 0 6.313 2.25L400 472c5.245 3.56 9.012 4.693 15.313 4.563l2.256-.032c6.275-.24 11.456-1.495 16.431-5.531 1.858-2.237 3.383-4.575 5-7"/><path fill="#191a19" d="M91 299c4.272 1.529 7.993 3.715 11.813 6.125l1.81 1.129q2.191 1.368 4.377 2.746l-1.863 1.371c-2.879 2.195-5.503 4.362-7.137 7.629-.232 2.713-.42 5.408-.562 8.125l-.131 2.285A1637 1637 0 0 0 99 334h-1l.027-2.668c-.09-3.565-.269-6.844-1.027-10.332-1.568-1.497-1.568-1.497-3.562-2.312-1.91-.973-1.91-.973-3.438-2.688-.702-5.392-.543-10.597 0-16z"/><path fill="#060605" d="m706 283 3 1v56h-4q-.034-10.926-.052-21.853-.007-5.073-.023-10.146c-.013-3.884-.018-7.769-.023-11.653l-.015-3.697v-3.397l-.007-3.008C705 284 705 284 706 283"/><path fill="#040404" d="m714 275 3 1v56h-4q-.034-10.926-.052-21.853-.007-5.073-.023-10.146c-.013-3.884-.018-7.769-.023-11.653l-.015-3.697v-3.397l-.007-3.008C713 276 713 276 714 275"/><path fill="#070706" d="M721 266h3v57h-4q-.037-11.694-.055-23.389-.008-3.981-.02-7.962a5677 5677 0 0 1-.023-11.422l-.015-3.615v-3.336l-.007-2.947C720 268 720 268 721 266"/><path fill="#080707" d="M728 256h3v56l-4 1q-.034-10.926-.052-21.853-.007-5.073-.023-10.146c-.013-3.884-.018-7.769-.023-11.653l-.015-3.697v-3.397l-.007-3.008C727 257 727 257 728 256"/><path fill="#050504" d="M698 292h3v55l-4 1q-.037-11.722-.055-23.444-.008-3.99-.02-7.982c-.013-3.815-.018-7.63-.023-11.445l-.015-3.63v-3.337l-.007-2.954C697 293 697 293 698 292"/><path fill="#252525" d="M546 436q2.438.212 4.875.438c.905.08 1.81.162 2.742.246C556 437 556 437 558 438c.312 2.55.513 5.004.625 7.563l.117 2.154c.095 1.76.177 3.522.258 5.283-7.028-.827-14.01-1.902-21-3l-1-3 7-2z"/><path fill="#b1b1b2" d="M78 401c-5.845 4.435-11.948 8.178-18.375 11.688C43.002 421.775 26.968 431.817 11 442l-3.633 2.309A4629 4629 0 0 0 0 449c1.512-4.43 4.971-6.343 8.71-8.781l2.048-1.365c2.2-1.461 4.407-2.908 6.617-4.354l4.557-3.007C32.78 424.357 43.72 417.433 55 411l2.717-1.567c2.774-1.596 5.557-3.174 8.346-4.745l2.583-1.478 2.39-1.323 2.105-1.181C75 400 75 400 78 401"/><path fill="#d1d1d1" d="M584 28c2 2 2 2 2 5-4.136.746-8.202 1.22-12.395 1.5l-3.646.25-3.771.25c-9.566.61-9.566.61-19.102 1.559-3.895.462-7.724.542-11.649.504l-3.69-.028L529 37c3.2-2.134 4.82-2.437 8.566-2.93l3.386-.466 3.61-.479c9.052-1.252 17.952-2.657 26.792-4.994 4.526-1.134 8.095-1.19 12.646-.131"/><path fill="#292829" d="M547 414c9.875 1.875 9.875 1.875 11 3 .374 5.741-.016 11.344-1 17-4.563.212-6.55-.22-11-2z"/><path fill="#81ceed" d="m199.313 212.625 2.474-.074c6.635-.032 11.822 1.533 16.906 5.905C220 220 220 220 220.5 222.875c-.678 4.24-2.154 5.49-5.5 8.125-5.615 2.942-10.15 3.465-16.437 3.375l-2.448.035c-6.072-.03-11.95-.786-16.8-4.807C178 228 178 228 177.375 224.687c.765-4.516 2.141-5.67 5.605-8.425 5.402-3.375 10.11-3.627 16.333-3.637m-17.938 7.75c-1.538 2.512-1.538 2.512-1.562 5.188 1.759 3.611 4.565 4.907 8.187 6.437 8.228 2.511 17.141 1.166 25-2 2.47-1.526 3.34-2.511 5-5 .326-2.621.326-2.621-1-5-5.576-5.425-10.684-5.253-18.206-5.249-6.88.116-12.25.947-17.419 5.624"/><path fill="#131312" d="m434 51 3 2.5c13.171 9.837 28.895 15.047 45 17.5v3c-4.097 1.643-7.895.387-12-.625l-2.295-.557A97.3 97.3 0 0 1 449 66l-2.969-1.406C439.96 61.525 436.051 58.474 432 53z"/><path fill="#a4a4a3" d="M696 380c11.762 2.31 23.12 5.463 34.554 9.059 8.098 2.545 16.212 4.876 24.446 6.941v4c-13-3.06-25.734-6.843-38.5-10.75q-2.998-.913-5.996-1.824Q703.25 385.219 696 383z"/><path fill="#86cfea" d="M191 218a62 62 0 0 1 7.625-.187l2.14.04c1.746.036 3.49.09 5.235.147l2 5h2v2c-3.538 3.115-6.762 4.978-11.5 5.063-4.12-1.251-7.75-2.969-11.5-5.063a56.5 56.5 0 0 1 4-7"/><path fill="#292928" d="M537 452c2.001.325 4 .661 6 1 .704.12 1.409.238 2.134.36 2.358.415 4.705.868 7.053 1.327l2.444.413c5.874 1.186 5.874 1.186 8.42 4.857C564 463 564 463 564 466c-19.036-2.509-19.036-2.509-24.082-6.75-1.685-2.33-2.918-4.316-2.918-7.25"/><path fill="#242323" d="m553 394 10 1c-.921 5.681-1.963 11.34-3 17-4.25 1.417-6.719.193-11-1 .416-6.195 1.603-11.267 4-17"/><path fill="#2b2b2b" d="M149 329v1c-9.519 1.583-19.036 3.094-28.625 4.188l-2.146.253c-5.098.556-10.101.624-15.229.559.698-1.939.698-1.939 2-4 2.164-.698 2.164-.698 4.84-.977l2.974-.343 3.124-.305q3.013-.328 6.027-.664l3.023-.325c3.892-.499 7.708-1.265 11.542-2.094 4.57-.54 8.311.926 12.47 2.708"/><path fill="#30586b" d="m342 263 2 1v2a150 150 0 0 1-6 4c-1.349 1.156-1.349 1.156-1.562 4.25.165 3.642.165 3.642 2.013 5.195 5.616 3.626 10.007 4.246 16.611 3.993 1.29-.01 1.29-.01 2.604-.018 5.12-.098 9.483-.781 14.334-2.42l-1 3h-2v2c-8.171 5.002-20.318 1.852-29.137.145C337 285 337 285 335.137 282.699c-1.8-4.275-1.953-8.147-1.137-12.699 2.435-3.158 4.7-4.8 8-7"/><path fill="#1b1a1a" d="M312 367c16.1.937 16.1.937 20.063 5.375 1.548 2.137 2.021 3.019 1.656 5.648-1.011 2.781-2.35 5.358-3.719 7.977a1458 1458 0 0 1-7.824-7.86q-1.433-1.444-2.863-2.89l-1.471-1.496c-2.66-2.72-2.66-2.72-5.842-4.754z"/><path fill="#2d424b" d="M379 269h3c.298 5.073.137 7.953-3 12-5.01 5.566-9.41 9.735-17 11l-1 1c-1.52.072-3.042.084-4.562.063l-2.504-.028L352 293v-2l-6 1-2-4c5.949-1.133 11.748-1.042 17.793-.937 2.648-.052 4.705-.268 7.207-1.063v-2h2l1-3 6-1z"/><path fill="#929190" d="M164 80c-2.53 3.796-4.78 4.446-9 6h-3v2l-3.008 1.25c-8.36 3.536-16.133 7.39-23.808 12.246-3.65 1.725-6.195 1.79-10.184 1.504 2.607-3.014 5.63-4.544 9.145-6.363.606-.315 1.212-.63 1.837-.953q1.93-1 3.865-1.99a995 995 0 0 0 5.76-2.981c6.305-3.262 12.662-6.386 19.155-9.256l3.416-1.512C161 79 161 79 164 80"/><path fill="#0d1010" d="M265 235c12.166-.55 23.116-.197 33 8 2.669 3.16 3.862 5.321 4.688 9.375-.987 5.201-3.989 7.992-7.688 11.625l-3-1v-2l2.5-2.187c2.793-2.635 2.793-2.635 3.063-6.313-.678-4.216-1.395-5.64-4.563-8.5-2.912-1.591-5.89-2.848-9-4l-2.828-1.074c-3.569-1.042-6.839-1.341-10.547-1.551l-3.773-.227L264 237z"/><path fill="#414141" d="M56 361h3l-.14 1.906c-.264 6.256.175 11.073 4.14 16.094 5.606 5.437 11.352 6.79 18.984 7.48 3.307.57 5.337 1.52 8.016 3.52v2c-9.95.51-18.04-.144-25.875-6.75-4.698-4.598-7.89-7.847-8.355-14.578-.018-3.236.055-6.441.23-9.672"/><path fill="#838383" d="M171 318c7.372.936 14.263 3.312 21.302 5.602 9.117 2.929 18.387 5.18 27.698 7.398l-2 1v2c-8.642-1.202-16.756-3.232-25.062-5.875l-3.315-1.027A398 398 0 0 1 169 320z"/><path fill="#959494" d="M44 186h1l.113 3.629C45.51 200.072 46.612 209.802 49 220q.596 2.718 1.188 5.438L51 229h-4c-4.868-12.004-9.217-27.053-4.5-39.75z"/><path fill="#4e8ead" d="M200.188 214.688c6.777.034 11.19.822 16.812 4.687 1 1.625 1 1.625.938 4.063-1.152 3.146-2.265 4.54-4.938 6.562-3.25.75-3.25.75-6 1l4-8h-3l-2-4-2.52.07-3.292.055-3.27.07C194 219 194 219 191 217c2.909-2.909 5.137-2.3 9.188-2.312"/><path fill="#d1d0ce" d="m555 15 9 2v3l-2.797 1.031-3.953 1.469a374.297 374.297 0 0 0-14.625 5.715l-2.708 1.117a528 528 0 0 0-5.264 2.215l-2.45 1.012-2.167.915c-2.375.613-3.74.306-6.036-.474 5.625-3 5.625-3 9-3l1-3c2.568-1.48 5.08-2.796 7.75-4.062l2.172-1.065c3.642-1.77 7.29-3.434 11.078-4.873z"/><path fill="#0d0c0c" d="m170 341 1.375 2.188c5.67 6.075 13.543 8.269 21.313 10.625l2.158.664c4.473 1.287 8.455 1.905 13.154 1.523 2.355-1.771 2.355-1.771 4-4l2-2c3.125.375 3.125.375 6 1v1h-5l-.687 2.313c-1.712 3.504-2.63 4.334-6.313 5.687-7.004.55-13.61-1.616-20.187-3.75l-2.267-.726c-5.216-1.786-10.254-4-14.546-7.524-1.5-3.312-1.5-3.312-2-6z"/><path fill="#171716" d="M92 406h3c1.304 5.936 1.11 11.833 1.063 17.875l-.014 3.242Q96.03 431.058 96 435h-7c.441-9.798 1.086-19.354 3-29"/><path fill="#272827" d="m562 376 7 1c1.162 2.866.995 4.016.004 7.016l-1.442 3.234-1.433 3.266L565 393l-10-2c1.732-5.717 3.438-10.21 7-15"/><path fill="#161916" d="M253 238c-2.068 3.103-2.591 3.464-5.812 4.813-4.352 2.084-6.576 4.105-9.188 8.187-.872 4.186-.27 5.583 2.063 9.188 2.884 3.158 5.944 4.403 9.937 5.812v2c-4.414.662-6.7-.185-10.187-2.75-3.935-3.073-6.593-5.553-7.25-10.625.636-5.274 2.876-8.109 6.625-11.75 10.098-6.732 10.098-6.732 13.812-4.875"/><path fill="#b9cfd8" d="M294 250h1l2 8c-12.86 10.322-26.046 11.001-42 10-5.35-.886-9.32-1.907-13-6l2-2 1.645.84 2.167 1.098 2.145 1.09c9.224 4.39 22.875 3.02 32.48.284 4.673-1.709 7.784-3.143 10.563-7.312.88-3.182.88-3.182 1-6"/><path fill="#b4b5b5" d="m42 338 3 4c-3.627 3.064-7.311 5.415-11.48 7.68l-1.858 1.016a1781 1781 0 0 1-5.85 3.179q-3.836 2.085-7.667 4.18c-.615.335-1.23.67-1.862 1.016C11.105 361.912 6.028 364.902 1 368l-1-3c6.606-4.162 13.238-8.206 20.105-11.922l1.768-.96q3.57-1.937 7.155-3.847c1.78-.95 3.554-1.915 5.327-2.88l3.146-1.687c2.565-1.75 3.457-2.826 4.499-5.704"/><path fill="#2c4e57" d="m276 240 7 1 .75 2.25c1.083 2.86 1.083 2.86 3.438 4.75l1.812 2c-.214 2.926-1.071 5.214-2 8h-2v3c-6.12 1.405-11.717 2.233-18 2 2.196-2.526 3.679-3.526 7-4l3 .125c3.392-.141 4.55-.863 7-3.125-.57-3.984-1.863-6.616-4-10l-1-3h-12v-1h9z"/><path fill="#0f0f0e" d="M379 471c1 3 1 3 .09 5.336-2.934 3.74-6.504 5.83-10.527 8.289q-2.28 1.424-4.56 2.852l-2.036 1.252c-2.037 1.275-2.037 1.275-4.092 2.929C356 493 356 493 354 493l-1 3c-.812-2.187-.812-2.187-1-5 4.17-5.067 9.71-8.305 15.188-11.812l2.771-1.811C376.737 473 376.737 473 379 473z"/><path fill="#929292" d="m350.188 348.875 3.265.006c12.525.065 25.035.567 37.547 1.119v2q-9.98.038-19.958.055-3.39.008-6.78.02c-3.262.013-6.524.018-9.785.023l-3.026.015c-6.21 0-12.285-.369-18.451-1.113v-1c5.73-1.226 11.36-1.15 17.188-1.125"/><path fill="#454444" d="M445 486c3.893 1.298 4.207 2.651 6.137 6.207l1.748 3.217 1.803 3.389 1.837 3.353C461 510.486 461 510.486 461 515h-3l-9-19 2.563 6.313c2.562 6.312 2.562 6.312 1.437 9.687-3.712-8.23-6.947-16.177-9-25z"/><path fill="#30718c" d="m275 248 3 6c-4.61 2.95-7.365 4.55-13 4l-1-2 3-1 1-2h-5v3l-6-1 3-6c2.617-.414 2.617-.414 5.875-.625l3.242-.227Q272.057 248 275 248"/><path fill="#293f44" d="M282 242c4.867.453 7.442 1.645 11 5 1.57 3.139 1.352 5.539 1 9-3.05 3.946-6.398 6.14-11 8h-4v-2l6-1v-3h2l.563-3.812.316-2.145c.26-2.246.26-2.246-.879-5.043l-2-1-2-1z"/><path fill="#9e9e9c" d="M755 336c-.301 1.863-.301 1.863-1 4a83 83 0 0 1-7.437 4.563q-2.316 1.307-4.63 2.62l-2.441 1.379c-4.979 2.873-9.834 5.958-14.689 9.034l-2.17 1.35-1.91 1.203C719 361 719 361 716 361l6-8 1 2 2-1.313q4.53-2.971 9.063-5.937l3.146-2.066C752.016 336 752.016 336 755 336"/><path fill="#29292a" d="M90 319c2.96 1.074 2.96 1.074 6 3 .664 3.145.664 3.145.625 6.813.164 5.88.477 8.816 4.375 13.187l2 3c-4.856-1.472-8.545-4.35-12-8-1.206-3.619-1.108-6.925-1.062-10.687l.013-2.127q.02-2.594.049-5.186"/><path fill="#212b2d" d="m291 262 3 3a437 437 0 0 1-4.437 1.875l-2.497 1.055c-7.272 2.538-14.137 3.393-21.816 3.32l-2.496.023c-4.364-.014-7.783-.239-11.754-2.273v-1l2.06-.06c3.126-.096 6.252-.206 9.377-.315 1.07-.03 2.14-.062 3.24-.094 9.176-.336 16.997-1.634 25.323-5.531"/><path fill="#2f627a" d="M376.652 265.375c2.556 3.082 2.57 6.756 2.348 10.625a62 62 0 0 1-1 4l-6 1 2-2.125c2.18-2.73 2.18-2.73 2.625-5.937-.365-3.176-.365-3.176-3.25-5.188-8.75-4.537-17.744-4.89-27.375-2.75.563-1.937.563-1.937 2-4 9.647-2.315 20.548-1.828 28.652 4.375"/><path fill="#2e606e" d="m272.438 242.625 3.433-.148c3.129.523 3.129.523 5.457 2.886 3.771 5.948 3.771 5.948 3.547 9.762-1.208 2.589-2.361 3.516-4.875 4.875-3.25.188-3.25.188-6 0 1-3 1-3 2.875-4.25C279 255 279 255 282 256l-5-9h-15l1-3c3.296-1.099 5.968-1.273 9.438-1.375"/><path fill="#4c4b4b" d="M355 54v1a6886.024 6886.024 0 0 0-12.937 1.813l-3.857.543c-7.837 1.12-15.64 2.328-23.405 3.868-4.595.88-4.595.88-6.801-.224l1-1-4-2q7.063-.871 14.13-1.709 2.392-.286 4.785-.582C334.342 54.422 344.488 53.719 355 54"/><path fill="#474647" d="M42 311c2.29 2.941 4.237 5.975 6.125 9.188 1.7 3.085 1.7 3.085 3.875 5.812.073 2.353.084 4.708.063 7.063l-.028 3.91L52 340c-4.385-3.536-5.6-7.63-7.25-12.812l-.812-2.37C42.367 320.022 41.704 316.043 42 311"/><path fill="#828281" d="M245 54c-1 2-1 2-3.478 2.914l-3.288.926-3.64 1.033-3.844 1.065-3.703 1.052A436 436 0 0 1 203 67l-1-3q5.733-1.66 11.469-3.308 2.894-.834 5.787-1.672c18.73-5.38 18.73-5.38 25.744-5.02"/><path fill="#3e3c3c" d="M379 476h2c-.42 4.376-3.321 6.521-6.437 9.25l-1.621 1.448C359.064 499 359.064 499 356 499v-2a139 139 0 0 1 6.5-5.125l1.879-1.418A965 965 0 0 1 369 487c-4.183 1.891-7.437 4.658-10.977 7.54C356 496 356 496 354 496v-3c2.187-1.793 2.187-1.793 5.215-3.758l3.267-2.144 3.455-2.223 3.444-2.246q3.146-2.055 6.302-4.094c2.186-1.338 2.186-1.338 3.317-2.535"/><path fill="#2b2c2b" d="M273 363c6.358-.008 9.168 2.44 13.658 6.775l2.28 2.288 2.36 2.298A590 590 0 0 1 297 380l-1 4c-5.9-4.158-11.201-8.817-16.484-13.73-2.413-2.26-2.413-2.26-4.844-3.946L273 365z"/><path fill="#171716" d="M547 466q3.563.427 7.125.875l2.016.238c4.157.53 7.975 1.293 11.859 2.887l1 2h-8l-1 3c-6.21-.444-10.605-1.915-16-5z"/><path fill="#2f2f2f" d="M303 367c4.502.497 6.612 2.05 9.875 5.125l2.617 2.453L318 377l2.133 2.047c6.807 6.665 6.807 6.665 6.992 10.64L327 392c-4.47-3.648-8.299-7.373-12.023-11.77-3.173-3.58-6.614-6.886-10.036-10.226C303 368 303 368 303 367"/><path fill="#c1c2c2" d="M272 482v2a155 155 0 0 1-7.625 5.25l-2.401 1.576A1684 1684 0 0 1 254 496l-2.931 1.901a2595 2595 0 0 1-8.881 5.724c-1.405.905-1.405.905-2.837 1.83l-2.683 1.71-2.366 1.513c-2.37 1.362-4.743 2.369-7.302 3.322 4.364-4.826 9.443-8.15 14.875-11.687l5.637-3.711 2.806-1.84c4.433-2.913 8.834-5.872 13.238-8.83C269.441 482 269.441 482 272 482"/><path fill="#c4c5c5" d="m246 469 2 1c-13.55 13.257-29.178 23.662-45 34v-3a114 114 0 0 1 7.438-5.375 1550 1550 0 0 0 4.683-3.223l2.445-1.688c3.89-2.74 7.666-5.622 11.434-8.526l2.146-1.653q2.93-2.264 5.854-4.535l3.066-2.375A1666 1666 0 0 0 246 469"/><path fill="#c4c3c3" d="M586 479v1l-1.773.262c-7.215 1.18-14.13 3.035-21.12 5.149-5.787 1.696-5.787 1.696-9.107.589 8.609-10.868 19.486-8.471 32-7"/><path fill="#1f201f" d="m573 362 7 2c-2.15 3.857-4.235 7.543-7 11-6.75-.75-6.75-.75-9-3z"/><path fill="#555454" d="M391 467c4 0 4 0 6.313 2.25L400 472c5.456 3.744 10.494 5.005 17 6l-1 3c-8.207.684-13.186-1.288-19.812-6-2.063-1.886-3.694-3.64-5.188-6z"/><path fill="#212121" d="M254 368v3c-3.753 2.737-7.903 4.82-12 7l-2.52 1.379c-5.303 2.666-8.678 2.887-14.48 1.621 1-2 1-2 3.266-2.824l2.984-.863c6.207-1.955 11.409-4.676 17.035-7.922C251 368 251 368 254 368"/><path fill="#6ac4e7" d="M347 269c2.939-.135 5.872-.234 8.813-.312l2.525-.127c2.32-.047 4.389-.036 6.662.439 2.107 2.433 3 3.776 3 7l-2.312.875c-2.838 1.088-2.838 1.088-5.688 3.125-5.52.114-10.876-.977-16-3v-2h14v3c2.573-1.21 2.573-1.21 5-3v-4l-16-1z"/><path fill="#253031" d="m256 243-1.426 1.102c-3.996 3.226-6.838 5.908-8.574 10.898.147 2.173.147 2.173 1 4l1 3c-3.02-.323-4.063-1.06-6.312-3.187C240 256 240 256 239.813 253.063c1.924-4.962 5.747-7.542 10.167-10.297 2.432-.922 3.61-.627 6.02.234"/><path fill="#7a7979" d="M292 45c-3.277 2.903-5.953 3.58-10.25 4.188l-3.266.48L276 50v2l-11 1v-2h-6c4.145-2.763 8.277-3.224 13.125-4.125.913-.182 1.825-.364 2.766-.55 5.805-1.1 11.202-1.506 17.109-1.325"/><path fill="#b0b0b0" d="M705 101c9.633.501 18.891 1.664 28.375 3.438l3.652.658c6.053 1.106 12.027 2.318 17.973 3.904v2a231 231 0 0 1-18.086-2.559l-2.496-.452q-2.584-.47-5.168-.945c-2.638-.484-5.278-.956-7.918-1.429l-5.043-.924-2.386-.423c-3.537-.661-5.87-1.246-8.903-3.268"/><path fill="#b2b2b1" d="M726 388c9.679 2.622 19.34 5.311 29 8v4c-10.067-2.458-20.055-5.079-30-8l2-1z"/><path fill="#1d1c1c" d="M448 495c3.245 2.716 4.859 6.274 6.688 10l.97 1.906c1.435 2.888 2.342 4.826 2.342 8.094l7-2c-.25 2.375-.25 2.375-1 5-3.296 2.662-6.933 2.156-11 2l3-1-.875-1.5c-1.207-2.682-1.819-5.347-2.484-8.203-.982-3.52-2.411-6.835-3.836-10.195C448 497 448 497 448 495"/><path fill="#919191" d="M299 346c7.241-.112 14.457-.012 21.688.375l2.105.094c4.972.296 4.972.296 7.207 2.531-4.765 1.213-9.43 1.184-14.312 1.188l-2.475.037c-5.407.013-10.02-.713-15.213-2.225z"/><path fill="#578ba3" d="m215 230 1 3c-3.73 2.427-7.316 3.931-11.562 5.25l-3.38 1.078c-2.908.64-4.388.954-7.058-.328l-1-3-2-2 3.473-.113q2.295-.099 4.59-.2l2.279-.068c5.206-.248 8.983-1.303 13.658-3.619"/><path fill="#7ec8e9" d="m199.625 212.75 2.602-.023 2.5.007 2.268.007C209 213 209 213 212 215c-3.759 1.23-7.264.995-11.187.875-7.318-.103-13.354.53-19.313 5-1.694 2.4-2.178 4.225-2.5 7.125h-1c-.437-3.125-.437-3.125 0-7 5.826-7.291 12.816-8.33 21.625-8.25"/><path fill="#696869" d="M265 51v2l2-1c2.333-.04 4.667-.043 7 0v1q-5.654 1.256-11.312 2.5l-3.249.723-3.115.683-2.872.635C251 58 251 58 248 58l.938-1.812C250.102 53.91 250.102 53.91 251 51c5.023-1.13 8.979-.78 14 0"/><path fill="#747474" d="M347 348v1l-8 1c3.714 1.116 7.392 1.312 11.25 1.563l3.828.253L357 352v1c-14.4.397-28.658-.816-43-2v-1c11.075-1.67 21.805-2.25 33-2"/><path fill="#393938" d="M44 371v3c-3.374.507-6.75 1.004-10.125 1.5l-2.883.434C26.288 376.62 21.77 377.193 17 377v-2l8-1h-8v-2c9.021-.757 17.947-1.135 27-1"/><path fill="#434242" d="M443 356v1c-14.63 1.415-29.32 1.096-44 1 3.812-2.082 7.219-2.432 11.5-2.625l2.155-.113c10.2-.497 20.179-.271 30.345.738"/><path fill="#7acaed" d="M344.375 266.188 346 267l-2.937 1.688c-3.253 1.992-3.253 1.992-3.938 5.062L339 276c7.004 6.18 14.006 6.447 23 7v1c-18.065.924-18.065.924-25-5-1-1-1-1-1.437-4.25.448-3.842.513-4.352 3.187-6.75 3.25-2 3.25-2 5.625-1.812"/><path fill="#4f4f4f" d="M434 77c2.48.988 2.48.988 5 3 .379 2.94.478 5.276.313 8.188l-.069 2.271A279 279 0 0 1 439 96c-3.875-1.875-3.875-1.875-5-3a210 210 0 0 1-.062-8.062l.013-2.3q.02-2.818.049-5.638"/><path fill="#317d9c" d="M357.75 269.688c1.751.08 3.502.176 5.25.312l1 5c-3.75 3-3.75 3-6 3v-3h-10c2.51-4.782 4.622-5.345 9.75-5.312"/><path fill="#536b75" d="m196.285 206.902 2.778.036 2.785.027L204 207l2 4-3.691.148-4.871.227-2.424.094c-8.538.36-8.538.36-15.952 4.156L178 217l-2-1c2.766-3.508 5.196-6.557 9.656-7.652a88 88 0 0 1 5.305-.278c2.56-.088 2.682-1.055 5.324-1.168"/><path fill="#b7b7b8" d="m30 426 2 1v2c-1.753 1.31-1.753 1.31-4.207 2.793l-2.704 1.652-2.901 1.743q-2.892 1.76-5.782 3.523l-2.824 1.714C9.01 443.214 4.502 446.1 0 449c1.51-4.284 4.683-6.161 8.32-8.547l1.875-1.26a1080 1080 0 0 1 5.93-3.943l4.02-2.691A2234 2234 0 0 1 30 426"/><path fill="#8e8f8f" d="M453 348v1c-8.663 1.752-16.926 2.255-25.75 2.125l-3.594-.027q-4.327-.036-8.656-.098l1-2c12.35-.896 24.62-1.115 37-1"/><path fill="#2c5a71" d="m370 281 2 1-1 2h-2v2c-3.477 2.143-6.212 2.213-10.25 2.125l-3.266-.055L353 288l-1-3-2-1 3.105-.148 4.082-.227c.674-.03 1.348-.062 2.042-.094 4.006-.234 7.096-.986 10.771-2.531"/><path fill="#273435" d="M260 232c2.701.09 5.37.237 8.063.438l2.298.158q2.82.196 5.639.404v1l-11 1v1l13 1v1l-1.74.076q-3.943.177-7.885.362l-2.738.119c-4.62.219-9.089.544-13.637 1.443 1.459-3.846 3.439-5.082 7-7z"/><path fill="#75daf0" d="M274.625 245.438c3.091.732 3.493 1.812 5.188 4.437C282 253.631 282 253.631 282 256l-2.187.313c-2.876.521-2.876.521-5.125 2.312-3.901 1.996-6.432 1.169-10.688.375v-1l3.125-.25c4.405-.853 6.36-2.092 9.875-4.75l-2-5h-10v-1c4.829-.692 4.829-.692 9.625-1.562"/><path fill="#528197" d="M182 212h29v2l-1.8-.063a682 682 0 0 0-8.2-.187l-2.832-.102c-7.113-.099-12.33 1.133-17.844 5.757-2.118 2.551-2.02 5.381-2.324 8.595h-1v-10h2l.938-1.875z"/><path fill="#b2b1b0" d="M724 400c7.033 1.27 13.801 3.012 20.625 5.125l2.754.84q3.312 1.01 6.621 2.035v2c-10.505-1.195-20.09-4.498-30-8z"/><path fill="#1a1a18" d="M96 395c1 1 1 1 1.063 3.563L97 401l-8 3v-8H76v-1q3.592-.293 7.188-.562l2.04-.17c3.78-.277 7.113-.309 10.772.732"/><path fill="#272727" d="M432 465h2c-1.849 4.627-4.632 5.964-9.012 8.012-6.797 2.248-14.143 2.235-20.675-.825C401 470 401 470 399 467c2.591.498 4.381 1.214 6.71 2.52 3.702 1.666 6.25 1.882 10.29 1.855l3.563.023c3.743-.433 6.16-1.597 9.437-3.398h2z"/><path fill="#282826" d="M48 364h3v9l-4 1v-5l-32-1v-1l2.814-.06q5.16-.118 10.32-.257 2.235-.058 4.47-.105c2.14-.045 4.28-.103 6.42-.164l3.903-.095c3.178-.004 3.178-.004 5.073-2.319"/><path fill="#222122" d="M428 465c-2.3 3.45-3.1 3.898-7 5-6.009.485-9.632-.316-15-3v-1c7.344-.578 14.631-1.147 22-1"/><path fill="#b6b8b8" d="M29 419c-1.254 3.762-2.406 4.129-5.77 6.102l-2.943 1.734-3.1 1.789-3.064 1.813C5.881 435.253 5.881 435.253 2 436c4.027-4.468 8.408-7.245 13.625-10.187l4.54-2.606 2.013-1.141C27.42 419 27.42 419 29 419"/><path fill="#599bbb" d="m205 220 2 5c-3.634 2.326-6.77 2.163-11 2l4-4-2.187 1c-2.83 1.006-4.842 1.17-7.813 1v-2c2.994-1.996 4.072-2.316 7.5-2.625l2.344-.227c1.715-.118 3.437-.148 5.156-.148"/><path fill="#b4b4b4" d="M722 124c6.404.661 12.503 1.962 18.75 3.5l2.824.684Q749.292 129.57 755 131l-1 3a3209 3209 0 0 1-12.708-3.308q-2.16-.565-4.324-1.123a1258 1258 0 0 1-6.21-1.624l-3.777-.984C724 126 724 126 722 124"/><path fill="#2f6e8a" d="M346 268v3h2l-1 3-2 1c-.652 2.025-.652 2.025-1 4-2.867-.573-3.861-.861-6-3 .163-3.188.56-4.574 2.875-6.812C343 268 343 268 346 268"/><path fill="#d7e7e9" d="M247 243c-1.148 2.582-2.248 4.27-4.187 6.375-2.136 2.515-2.136 2.515-1.625 5.688L242 258l.563 2.375L243 262c-3.161-1.37-3.993-1.99-6-5-.584-3.213-.564-5.154 1.273-7.91C243.4 243 243.4 243 247 243"/><path fill="#242424" d="M149 340h2l.996 2.055c3.746 7.33 8.265 13.066 14.004 18.945l-3 1c-6.499-5.89-13.103-13.042-14-22"/><path fill="#58aed2" d="m354.688 264.438 2.126.158q2.595.196 5.186.404v1l-13 1 16 1v1l-2.703.043-3.547.144-3.516.106c-4.022.88-5.049 2.316-7.234 5.707l-3-1 3-3h-2l-2-6c3.693-1.231 6.88-.872 10.688-.562"/><path fill="#bbced2" d="M294 250h1l2 8c-11.554 9.273-11.554 9.273-18.937 8.688L275 266v-1l2.668-.7c8.934-2.24 8.934-2.24 15.332-8.3.88-3.182.88-3.182 1-6"/><path fill="#212c2e" d="M291 247h2c1.57 3.139 1.352 5.539 1 9-3.05 3.946-6.398 6.14-11 8h-4v-2l3.25-1.312c4.279-1.757 4.279-1.757 7.75-4.688.285-2.717.133-5.256 0-8z"/><path fill="#312f2f" d="M76 387c9.74-.573 9.74-.573 14 3v2q-2.594.04-5.187.063l-2.918.035c-2.75-.093-5.22-.477-7.895-1.098z"/><path fill="#232323" d="M588.75 352.813 591 354l-8 8-6-2c8.055-8.28 8.055-8.28 11.75-7.187"/><path fill="#242525" d="M333 385h1v18h-4c-.333-6.816-.242-11.921 3-18"/><path fill="#424244" d="M92 406h3c1.304 5.936 1.11 11.833 1.063 17.875l-.014 3.242Q96.03 431.058 96 435h-2v-26h-2z"/><path fill="#5f5d5d" d="m134 99 1 2c-4.92 3.213-7.945 4.685-14 4-2.437-1-2.437-1-4-2l2.625-.812c3.402-1.094 3.402-1.094 6.438-2.876 3.27-1.461 4.615-1.546 7.937-.312"/><path fill="#b9bbbb" d="m422 511 1 2a1150 1150 0 0 1-9.75 6.563l-2.79 1.904-2.694 1.787-2.476 1.666c-2.29 1.08-2.29 1.08-4.588.752L399 525q3.78-2.377 7.563-4.75l2.134-1.344A325 325 0 0 1 422 511"/><path fill="#323030" d="M439 464h4c-.504 4.41-1.962 6.788-5 10-2.25 1.313-2.25 1.313-4 2l-2-4 2.375-2.312c2.698-2.597 2.698-2.597 4.625-5.688"/><path fill="#a2a2a3" d="M562 476q3.012.43 6 1c-.535.235-1.07.47-1.621.71-3.653 1.98-6.797 4.61-10.045 7.188C552.321 488 552.321 488 549 488c1.494-3.867 3.654-5.427 7.063-7.687 3.117-1.97 3.117-1.97 5.937-4.313"/><path fill="#b3b4b3" d="M755 336c-.137 1.758-.137 1.758-1 4-2.582 1.992-2.582 1.992-5.812 3.875l-3.208 1.93c-2.98 1.195-2.98 1.195-5.367.39L738 345q3.683-2.257 7.375-4.5l2.117-1.3c5.281-3.2 5.281-3.2 7.508-3.2"/><path fill="#0d100e" d="M253 238c-2.042 3.063-2.703 3.564-5.875 5-2.398 1.128-4.311 2.141-6.437 3.75C239 248 239 248 236 248c2.37-5.71 7.522-7.815 12.875-10.375C251 237 251 237 253 238"/><path fill="#263b43" d="m279 262 1 3c-4.283 1.056-8.43 1.117-12.812 1.063l-2.1-.014q-2.544-.02-5.088-.049v-2q3.624-.505 7.25-1l2.066-.29c3.278-.445 6.368-.71 9.684-.71"/><path fill="#12110f" d="M104 308c2.625.375 2.625.375 5 1l-1.75 1.25c-2.898 2.254-5.592 4.434-7.25 7.75-.232 2.713-.42 5.408-.562 8.125l-.131 2.285A1637 1637 0 0 0 99 334h-1q-.252-3.156-.5-6.312l-.281-3.551c-.31-4.44-.247-6.483 2.156-10.2l1.336-2.097C102 310 102 310 104 308"/><path fill="#29576c" d="M365 261v2l-19 2 2-4c4.895-1.175 12.349-2.326 17 0"/><path fill="#a5c2c6" d="M274 239v1l-3.113.078c-8.632.318-15.91 1.288-23.887 4.922l-1-3c9.736-4.296 17.703-4.202 28-3"/><path fill="#ababab" d="m246 469 2 1q-2.806 2.632-5.625 5.25l-1.582 1.488C231.87 485 231.87 485 228 485c1.119-3.357 1.799-3.866 4.563-5.883l2.164-1.597 2.273-1.645q2.22-1.627 4.438-3.258l1.996-1.45c1.525-1.078 1.525-1.078 2.566-2.167"/><path fill="#2c4148" d="m344 288 2.852.438 3.773.562 3.727.563c3.265.391 6.365.518 9.648.437-1.708 2.106-2.521 2.938-5.262 3.293l-2.425-.106-2.45-.082L352 293v-2l-6 1z"/><path fill="#2c414a" d="M363 254q1.53 1.47 3 3c2.103.714 2.103.714 4 1v2l-2.5-.5c-6.673-.953-12.876-.446-19.5.5 2.861-2.331 5.544-3.727 9-5 2-1 2-1 6-1"/><path fill="#aaabab" d="M156 442c-1.547 4.357-4.931 6.587-8.5 9.25l-1.8 1.39c-4.43 3.36-4.43 3.36-6.7 3.36 1.547-4.357 4.931-6.587 8.5-9.25l1.8-1.39c4.43-3.36 4.43-3.36 6.7-3.36"/><path fill="#243c40" d="m256 243-1.39 1.031c-4.848 3.829-7.168 7.303-9.61 12.969h-1c-.25-5.625-.25-5.625 2-9v-3c5.893-3.348 5.893-3.348 10-2"/><path fill="#a7a7a8" d="m523.25 76.938 3.828.027L530 77l-2 3a70 70 0 0 1-8.125.188l-2.285-.042A476 476 0 0 1 512 80v-2c3.754-1.204 7.332-1.099 11.25-1.062"/><path fill="#b1b2b3" d="M308 508c-11.429 10-11.429 10-16 10 1.507-4.021 3.866-5.56 7.438-7.812l2.933-1.895C305 507 305 507 308 508"/><path fill="#363435" d="m445 486 3 1 .043 1.766c.384 6.598 2.181 11.703 4.996 17.668C454 509 454 509 453 512c-3.712-8.23-6.947-16.177-9-25z"/><path fill="#bebfc0" d="M104 451c-1.39 4.17-4.278 5.182-7.937 7.188l-1.96 1.115C89.285 462 89.285 462 87 462c1.496-4.45 4.475-5.667 8.5-7.75l3.531-1.86C102 451 102 451 104 451"/><path fill="#292929" d="M547 466q3.563.427 7.125.875l2.016.238c4.157.53 7.975 1.293 11.859 2.887l1 2c-17.052-1.052-17.052-1.052-22-6"/><path fill="#5a9fbf" d="m210 223 1 3c-3.925 5.607-3.925 5.607-6.848 6.676-2.498.376-4.876.42-7.402.387l-2.703-.028L192 233v-1l3.313-.375c4.24-.719 6.25-2.322 9.75-4.75C208 225 208 225 210 225z"/><path fill="#494849" d="m108 137 2 1c-1.472 3.535-3.41 5.474-6.312 7.938-3.374 2.91-6.59 5.863-9.688 9.062 1.606-3.671 3.89-6.487 6.438-9.562l2.37-2.88c1.67-1.949 3.338-3.788 5.192-5.558"/><path fill="#babbbc" d="M157 466c-15.397 10-15.397 10-19 10v-2q3.896-2.298 7.813-4.562l2.236-1.327 2.158-1.24 1.984-1.158C154 465 154 465 157 466"/><path fill="#333" d="M591 74h3q.079 2.874.125 5.75l.07 3.234c-.19 2.94-.668 4.54-2.195 7.016h-1z"/><path fill="#5e5d5d" d="M227 63v1l-16 4v-4c5.899-1.79 9.932-2.084 16-1"/><path fill="#1f201e" d="M274 381c-1.982 4.492-4.92 7.32-9 10-2.937.375-2.937.375-5 0v-2c1.863-1.437 1.863-1.437 4.313-3l2.425-1.562L269 383c3-2 3-2 5-2"/><path fill="#68bcde" d="m373 276 2 3c-8.509 5.786-15.18 5.322-25 4v-1l2.816-.113c11.05-.334 11.05-.334 20.184-5.887"/><path fill="#6e6d6e" d="m271.25 48.938 2.703.59L276 50v2l-11 1v-2h-6c4.503-3.002 7.001-3.237 12.25-2.062"/><path fill="#3f4041" d="M91 415h1v20h-3q.21-4.157.438-8.312l.119-2.381.127-2.295.11-2.11C90 418 90 418 91 415"/><path fill="#222022" d="m61 366 .75 1.625c4.521 8.59 9.243 12.322 18.25 15.375v1c-6.025-.377-10.356-2.071-15-6-2.5-3.068-3.91-5.934-4.25-9.937z"/><path fill="#111110" d="M448 495c2.929 2.55 4.447 5.429 6.188 8.875l1.605 3.117c1.188 2.962 1.468 4.862 1.207 8.008-3.466-2.737-4.658-6.57-6.187-10.562l-.827-2.077C448 497.288 448 497.288 448 495"/><path fill="#2c4c5a" d="M347 287h20c-2 3-2 3-5.5 3.813-5.012.479-9.655-.612-14.5-1.813z"/><path fill="#70c1e1" d="M190 213c3.104-.058 6.208-.094 9.313-.125.88-.017 1.762-.034 2.67-.05l2.568-.02 2.364-.032C209 213 209 213 212 215c-3.734 1.242-7.106.964-11 .688l-3.687-.239c-3.03-.41-4.69-1.027-7.313-2.449"/><path fill="#3b4f58" d="m218 234-2.75 1.813c-3.154 1.984-3.154 1.984-5.187 4.062C208 241 208 241 204.25 240.188L201 239c2.973-1.524 5.98-2.9 9.063-4.187l2.597-1.106C215 233 215 233 218 234"/><path fill="#4f7283" d="M193 235c8.571-.286 8.571-.286 12 2-3.265 1.884-6.281 2.493-10 3z"/><path fill="#aeacad" d="M272 482v2c-2.52 1.98-2.52 1.98-5.812 4.188l-3.27 2.23L260 492l-3-1q2.12-1.693 4.25-3.375l2.39-1.898C268.734 482 268.734 482 272 482"/><path fill="#1f1f1f" d="m369 485 2 1c-5.052 4.72-9.826 8.847-16 12l-1-2 2.266-1.645c.984-.715 1.97-1.43 2.984-2.168l2.953-2.144A540 540 0 0 0 369 485"/><path fill="#c0c1c1" d="m15 436 3 1c-3.427 2.828-6.927 5.323-10.687 7.688-.953.601-1.906 1.203-2.887 1.824C2 448 2 448 0 449c1.521-4.324 4.8-6.343 8.438-8.812l1.775-1.272c1.72-1.186 1.72-1.186 4.787-2.916"/><path fill="#a7a8a7" d="M645 494c-1.255 3.764-2.526 4.25-5.875 6.25l-2.68 1.64C634 503 634 503 631 502q2.437-1.72 4.875-3.437l2.742-1.934C642.463 494 642.463 494 645 494"/><path fill="#bbbcbd" d="M730 415c5.569.48 10.67 1.3 16 3v2c-5.38.414-10.126-.763-15-3z"/><path fill="#474646" d="M463 353q2.997.52 6 1v1c-2.937.248-5.873.474-8.812.688l-2.526.22-2.432.166-2.237.175c-2.563-.32-3.381-1.298-4.993-3.249q2.625-.292 5.25-.562l2.953-.317c2.6-.112 4.339.13 6.797.879"/><path fill="#101314" d="m251 268 22 1v1a857 857 0 0 1-8.187.625l-2.33.195c-4.364.3-7.494.275-11.483-1.82z"/><path fill="#53707e" d="m222 222 2 1c-.347 5.377-.347 5.377-1 8-2.522 2.018-3.751 2-7 2 .25-1.812.25-1.812 1-4l4-3c.796-2.094.796-2.094 1-4"/><path fill="#222122" d="m602 347 2 2c-1.412.534-2.83 1.052-4.25 1.563l-2.39.878c-2.551.604-3.913.406-6.36-.441v-2c3.814-1.795 6.786-2.375 11-2"/><path fill="#1b1f1f" d="m291 262 3 3q-2.435 1.005-4.875 2l-2.742 1.125C284 269 284 269 282 269v-3z"/><path fill="#222121" d="M600 74c4.5 1.068 8.75 2.14 13 4l-1 5-1.863-1.277-2.45-1.66-2.425-1.653c-2.288-1.548-2.288-1.548-5.262-2.41z"/><path fill="#0d0d0d" d="m586 446 1 3h2l-2 11-3-1a438 438 0 0 1 2-13"/><path fill="#284f5c" d="M257 244h6l-1 3h-7v3c-2.5 1.688-2.5 1.688-5 3 .558-3.235 1.372-4.979 4-7h3z"/><path fill="#514f50" d="M456 505c3.08 2.773 4.688 5.063 6 9l-4 1-3-9z"/><path fill="#1d1c1d" d="M432 465h2c-1.843 4.704-4.849 5.994-9.246 8.094-4.283 1.41-7.382.823-11.754-.094v-1l2.668-.367 3.52-.508 3.48-.492c3.06-.581 5.575-1.192 8.332-2.633z"/><path fill="#acadad" d="m722 353 1 2 5-2 1 2a675 675 0 0 1-5.375 3.563l-3.023 2.003L718 362l-2-1z"/><path fill="#161616" d="m332 106 4 2c-2.578 2.648-4.916 4.944-8 7l-1-2c3.875-5.875 3.875-5.875 5-7"/><path fill="#7ed9fa" d="M347 269c2.939-.135 5.872-.234 8.813-.312l2.525-.127c2.32-.047 4.389-.036 6.662.439 2.137 2.395 2.137 2.395 3 5l-1 2c-1.708-1.634-2.935-2.87-4-5-2.714-.312-5.34-.513-8.062-.625l-2.3-.117c-1.878-.095-3.758-.177-5.638-.258z"/><path fill="#527788" d="m182 212 4 1-3 2a113 113 0 0 0-3 5l-1 1a236 236 0 0 0-1 7h-1v-10h2l.938-1.875z"/><path fill="#3f3e3e" d="m93 394 4 2v5h-5z"/><path fill="#212122" d="M128 342a46.6 46.6 0 0 1 5.688 6.563l1.324 1.816C136 352 136 352 136 354c-4.215-1.506-5.86-4.18-8-8z"/><path fill="#c4dadc" d="M247 243c-1.555 3.817-4.036 6.192-7 9l-2-1c1.526-3.885 4.502-8 9-8"/><path fill="#5b5959" d="M250 54h14c-3.714 1.857-6.216 2.511-10.25 3.125l-3.266.508L248 58z"/><path fill="#afafaf" d="M255 475v2a92 92 0 0 1-5.5 3.625l-3.094 1.914L244 484v-3c1.898-1.605 1.898-1.605 4.375-3.187l2.46-1.606C253 475 253 475 255 475"/><path fill="#2c667d" d="M260 250h3c1 3 1 3 0 6l-6-1c1.875-3.875 1.875-3.875 3-5"/><path fill="#969696" d="M138 92v2c-6.75 4-6.75 4-9 4 1.457-4.615 1.457-4.615 3.938-6.375C135 91 135 91 138 92"/><path fill="#979594" d="M428 49c2.648 2.578 4.944 4.916 7 8l-3 2c-3.938-4.308-3.938-4.308-4.25-7.812z"/><path fill="#343330" d="m384 470 4 1 1 4-5 1c-1.125-3.75-1.125-3.75 0-6"/><path fill="#494646" d="M391 467h4c2.25 2.5 2.25 2.5 4 5l-3 3c-5-5.75-5-5.75-5-8"/><path fill="#b0afaf" d="M367 467h16l-4 6h-2l1-4-11-1z"/><path fill="#c2c3c4" d="m12 336-1 3c-2.285.95-2.285.95-5.062 1.688l-2.786.761L1 342c1-3 1-3 3.813-4.687C8 336 8 336 12 336"/><path fill="#2d4d5c" d="M334 275c4.923 4.308 4.923 4.308 5.313 7.813L339 285c-3-1-3-1-4.187-2.75-.921-2.55-.962-4.56-.813-7.25"/><path fill="#d6d6d6" d="m373 519 2 1c-3.083 4.228-3.083 4.228-5 6-2.812.375-2.812.375-5 0 2.578-2.648 4.916-4.944 8-7"/><path fill="#aeadae" d="M565.375 476.188 568 477l-1.625.75c-2.94 1.547-5.633 3.38-8.375 5.25l-2-2c5.17-5.046 5.17-5.046 9.375-4.812"/><path fill="#1c2626" d="M291 247h2c1.507 3.013 1.178 5.683 1 9l-2 2q-.54-2.466-1.062-4.937l-.598-2.778L290 248z"/><path fill="#535354" d="m362 488 2 1a640 640 0 0 1-3.875 3.5l-2.18 1.969C356 496 356 496 354 496v-3c1.68-1.422 1.68-1.422 3.875-2.75l2.18-1.36z"/><path fill="#3e3d3c" d="M441 476h2c2 3 2 3 1.625 5.188L444 483c-1.937-.812-1.937-.812-4-2l-1-3z"/><path fill="#313030" d="M56 361h3l-2 13h-1z"/><path fill="#5cc1dc" d="M263 253h5c-1 3-1 3-3 5l2 2-7-1 2-3z"/><path fill="#324145" d="M263.793 231.926q2.2.17 4.394.387c.75.06 1.5.122 2.272.185 1.848.153 3.695.326 5.541.502v1l-19 1c3-3 3-3 6.793-3.074"/><path fill="#a9a9a9" d="M504 467v2c-1.898 1.508-1.898 1.508-4.375 3.125l-2.46 1.633C495 475 495 475 493 475c1.164-3.491 1.89-3.852 4.938-5.687l2.152-1.325C502 467 502 467 504 467"/><path fill="#0f0f0d" d="M535 452h2l3 6h-3l-1 2c-1.43-2.354-2.087-3.48-1.625-6.25z"/><path fill="#a7a6a6" d="M78 401c-1.071.87-2.157 1.72-3.25 2.563l-1.828 1.44C71 406 71 406 68.766 405.654L67 405a265 265 0 0 1 3.813-2.562l2.144-1.442C75 400 75 400 78 401"/><path fill="#314d56" d="m250 261 12 2-2 1v2h-5v-3l-5-1z"/><path fill="#70daf4" d="m255 252 3 1-1 2 6 2v1c-6.75-.875-6.75-.875-9-2z"/><path fill="#696868" d="m136 94 3 1-3 5-5-2c2.313-2.062 2.313-2.062 5-4"/><path fill="#999899" d="M570.313 67.313 572 68c-1.625 2-1.625 2-4 4-3.25.25-3.25.25-6 0 1.68-3.36 4.548-5.196 8.313-4.687"/><path fill="#b0b2b2" d="M556 514a805 805 0 0 1-4.375 2.5l-2.46 1.406C547 519 547 519 545 519v-2c6.964-4.42 6.964-4.42 11-3"/><path fill="#b7b7b6" d="M744 406c3.532.321 6.634.878 10 2v2l-12-2z"/><path fill="#2d424a" d="M334 265c1.316 2.633.748 3.802.063 6.625l-.59 2.477L333 276h-1c-.969-5.373-.969-5.373-1-8 1.438-2 1.438-2 3-3"/><path fill="#181e1f" d="m283 236 7 2-1 3-9-2z"/><path fill="#79cbe7" d="M201 218h5l2 5h2v2l-5 1 2-1c-1.804-3.265-2.834-4.89-6-7"/><path fill="#878788" d="M593 47h1c.25 2.75.25 2.75 0 6-2 2.375-2 2.375-4 4l-2-2a809 809 0 0 1 2.438-4l1.37-2.25z"/><path fill="#bebfbf" d="m497 500 2 1-10 8-2-1a1457 1457 0 0 1 3.875-3.437l2.18-1.934C495 501 495 501 497 500"/><path fill="#454344" d="m374 480 1 2-10 7-2-2z"/><path fill="#3a7993" d="M350 284h15l-2 3-1.703-.465c-2.355-.549-4.642-.85-7.047-1.098l-2.422-.253L350 285z"/><path fill="#2c5262" d="M280 260v1c-8.429 2.286-8.429 2.286-13 2 4.446-4.648 6.853-3.892 13-3"/><path fill="#8e8e8e" d="m245 54-1 2c-2.75.917-4.36 1.109-7.187 1.063L233 57c3.518-3.518 7.193-3.11 12-3"/><path fill="#cbcdcd" d="m422 511 1 2-10 6-2-2z"/><path fill="#141413" d="M208 357v3l-11-1c4.216-2.108 6.398-2.177 11-2"/><path fill="#aaaaa9" d="M747 342v2l-6 3-3-2c3.44-2.294 4.723-3 9-3"/><path fill="#2c4c5c" d="m375 280 2 1a231 231 0 0 1-3.312 3.063l-1.864 1.722L370 287l-3-1h2v-2h2l1-3z"/><path fill="#cde0e4" d="m294 248 4 1v7l-3-1z"/><path fill="#939496" d="M590 56c-1.393 3.367-2.979 4.986-6 7l-2-1c4.625-6 4.625-6 8-6"/><path fill="#aaabab" d="M539 494c-.312 1.875-.312 1.875-1 4l-3 2-3-1c4.75-5 4.75-5 7-5"/><path fill="#bdc0c0" d="m44 453 3 1a483 483 0 0 1-3.375 3l-1.898 1.688C40 460 40 460 38 460c1.38-3.335 2.85-5.186 6-7"/><path fill="#2e596e" d="M378 271h1l-1 9-6 1 2.438-2.75c1.973-2.353 3.2-4.12 3.562-7.25"/><path fill="#7ee8fa" d="M277 246v4h-2v-2h-10v-1c4.041-.634 7.907-1.124 12-1"/><path fill="#1c3034" d="M256 243c-6.75 4-6.75 4-9 4 1-3 1-3 2.813-4.25 2.526-.866 3.71-.635 6.187.25"/><path fill="#8cd8f0" d="M207 227c-3.086 2.269-4.422 3.055-8.312 2.688L196 229v-1c7.429-2.429 7.429-2.429 11-1"/><path fill="#1b1a1a" d="m77 121 2 1c-1.293 2.884-2.66 4.872-5 7l-2-3z"/><path fill="#adaeaf" d="M733 105c2.383.023 2.383.023 5.125.375l2.758.336L743 106c-3.353 2.236-3.907 2.173-7.687 1.625l-2.45-.336L731 107z"/><path fill="#868685" d="M197 69c-2.918 1.945-4.625 2.453-8 3v-2l-2-1c3.694-1.231 6.206-.644 10 0"/><path fill="#868788" d="m583 59 2 1c-2.625 4.875-2.625 4.875-6 6v-2l-2-1z"/><path fill="#7a7979" d="m268 49-1 4h-2v-2h-6c3.435-2.29 4.985-2.178 9-2"/><path fill="#24343a" d="m279 262 1 3h-8v-2c3-1 3-1 7-1"/><path fill="#afc1c5" d="M294 250h1l2 8-3 2c-1.238-3.576-.75-6.337 0-10"/><path fill="#356577" d="m278 255 3 2c-1.25 1.5-1.25 1.5-3 3h-4c1-3 1-3 4-5"/><path fill="#838283" d="m149 84 2 1-1 1 2 2-6 2 1-3-2-1c1.875-1.062 1.875-1.062 4-2"/><path fill="#989798" d="M477.25 74.313 479 75l-2 3-6-1c3.446-3.077 3.446-3.077 6.25-2.687"/><path fill="#7f7f80" d="m567 69-4 2 1 2-5 1v-4c5.75-2.125 5.75-2.125 8-1"/><path fill="#312f2f" d="m372 483 3 1c-2.578 2.648-4.916 4.944-8 7 1.372-2.954 2.989-5.44 5-8"/><path fill="#343536" d="M92 406h3l1 9h-2v-6h-2z"/><path fill="#9d9e9c" d="m712 385 7 1v2h-7z"/><path fill="#314246" d="m247 259 1.75 1.438c2.176 1.51 3.676 2.102 6.25 2.562v2c-5.75-.75-5.75-.75-8-3z"/><path fill="#080907" d="M235 251h1l1 8h-3q-.061-3.5 0-7z"/><path fill="#615f5f" d="m398 472 4 2-1 3-4-2z"/><path fill="#bab9b9" d="M68.25 405.875 70 407l-7 3-1-3c3.446-2.215 3.446-2.215 6.25-1.125"/><path fill="#434242" d="M57 371h2l2 6-3 1z"/><path fill="#2f697c" d="m255 247 1 2 2 1-5 5-1-4 3-1z"/><path fill="#285864" d="M257 244h6l-1 3h-6z"/></svg>