<svg xmlns="http://www.w3.org/2000/svg" width="812" height="692"><path fill="#a0cdd8" d="M0 0h812v692H0z"/><path fill="#fafbfa" d="M0 0h812v692H0zm201.504 29.734c-1.676 2.526-2.021 3.889-2.129 6.891-.234 3.6-.585 7.076-1.25 10.625l-.43 2.328C197 52 197 52 195.555 54.855c-2.192 4.433-3.25 9.036-4.493 13.805-1.01 3.174-2.298 5.54-4.062 8.34-.34 1.665-.676 3.332-1 5l-2 1c-.607 2.174-.956 4.354-1.34 6.578-.778 2.856-2.092 4.919-3.66 7.422-1.3 2.691-2.51 5.414-3.727 8.145a296 296 0 0 1-2.484 5.43l-1.101 2.362-.989 2.09c-.922 2.253-.922 2.253-.699 5.973h-2v5h-3c-1.498 3.371-2 5.204-2 9h-2c-3.361 7.308-3.361 7.308-6.562 14.688-1.09 2.51-2.24 4.89-3.5 7.312-1.302 2.549-2.111 4.636-2.875 7.438-.912 3.057-1.83 5.004-3.438 7.687-2.678 4.614-4.054 9.295-5.523 14.402-1.556 4.905-3.636 9.531-5.72 14.23-1.471 3.452-2.62 6.923-3.734 10.5C129 213 129 213 127.438 215c-1.555 2.163-1.82 3.416-2.313 6-.981 5.102-2.968 9.583-5.102 14.3-1.26 2.842-1.26 2.842-1.023 6.7h-2l-.513 1.759c-2.029 6.864-4.26 13.648-6.55 20.429-2.664 7.799-2.664 7.799-5.058 15.683-.856 3.047-1.842 6.015-2.879 9.004-1.49 4.399-2.674 8.718-3.508 13.285C98 304 98 304 96 307c-.23 1.942-.458 3.883-.66 5.828-.563 3.596-1.991 6.81-3.34 10.172-2.114 5.645-3.467 11.152-4.469 17.094-1.107 6.056-2.45 12.175-4.719 17.906-1.333 4.923-.96 9.93-.812 15h-2l-.078 1.758c-.41 5.648-1.678 8.523-4.922 13.242-1.724 5.26-2.287 10.756-2.754 16.25C72 406 72 406 71 407c-.15 1.485-.26 2.975-.352 4.465-.497 5.453-2.045 10.026-4.023 15.098-2.858 7.718-4.703 15.117-5.941 23.234-.708 4.602-1.733 9.113-2.809 13.64l-.518 2.208c-1.22 5.083-1.22 5.083-2.357 7.355-.04 2.333-.043 4.667 0 7h-2q-.69 2.03-1.375 4.063l-.773 2.285c-1.24 3.858-2.32 7.758-3.415 11.66-4.25 15.09-4.25 15.09-7.527 21.949a54.8 54.8 0 0 0-4.347 15.543c-.638 3.967-1.975 7.21-3.524 10.898-1.315 3.294-2.28 6.642-3.262 10.047-.81 2.665-1.742 5.258-2.715 7.867A227 227 0 0 0 18 591h-2l-1 7 5 1v3c4.328 5.856 12.377 7.96 19 10l3.64 1.227 4.047 1.336 3.762 1.253c13.172 3.745 27.094 3.728 40.677 4.213 21.982.81 21.982.81 29.874 3.971 1.812 3.25 1.812 3.25 3 7a49 49 0 0 0 8 7h2v2c8.98 3.227 17.946 6.357 27.102 9.059 2.691.874 5.147 1.94 7.71 3.129 11.406 4.667 26.65 3.047 38.875 3.062l2.427.006c12.93.008 25.753-.616 38.636-1.693l2.456-.205c8.152-.243 8.152-.243 15.794-2.358 16.398-3.29 34.226-4.044 50.234 1.125 2.76 1.026 2.76 1.026 5.766.875l1 3c1.953 1.208 1.953 1.208 4.313 2.125l2.363 1.008A47.5 47.5 0 0 0 337 661v2c4.296 1.52 8.535 2.6 13 3.5 3.355.677 6.545 1.333 9.76 2.51 10.714 3.274 23.589 2.152 34.741 2.12q3.393-.005 6.784.007c15.644.318 15.644.318 30.715-3.137 1.66-.361 3.326-.705 5-1v-2l2.438.063c2.496.233 2.496.233 3.562-1.063l3.191-.328c4.19-.74 6.286-2.003 9.747-4.422 9.641-6.36 20.567-9.457 32.062-10.25l2-1a162 162 0 0 1 7.16-.133l2.137-.003q2.235 0 4.47.006 3.435.005 6.868-.007 2.169 0 4.338.004l2.086-.006c4.826.024 4.826.024 5.941 1.139 33.35 7.161 68.863 7.676 102.75 5.188l3.082-.213c5.939-.5 10.678-1.667 16.168-3.975a217 217 0 0 1 5.375-1.625c2.343-.675 4.445-1.285 6.625-2.375v-2l1.746-.324c2.573-.772 4.184-1.865 6.317-3.489l2.035-1.519c3.346-2.934 5.072-5.306 5.652-9.73.477-2.106.477-2.106 1.25-3.938 2.577-1.546 4.193-2.271 7-3l3.617-1.049c4.798-1.183 9.461-1.266 14.383-1.295l5.847-.086 3.051-.034c17.113-.198 34.08-.65 51.102-2.536v-2l3.875-.812a197 197 0 0 0 10.438-2.625l2.425-.684c2.47-.96 4.162-2.283 6.262-3.879 1.965-.738 1.965-.738 3.938-1.312 4.569-1.649 6.507-3.536 9.062-7.688 1.219-6.907-1.934-13.988-5.074-20.086-1.227-2.537-1.703-5.07-2.266-7.816-.59-2.188-.59-2.188-2.004-4.22-2.374-4.126-3.738-8.49-5.218-13.003l-.942-2.844c-2.043-6.299-3.575-12.47-4.496-19.031a142 142 0 0 0-1-4h-2l-.367-1.906A273 273 0 0 0 768 509h-2l-.488-6.152c-.451-2.51-1.091-4.64-1.93-7.036-1.968-5.704-2.978-11.512-4.043-17.439-1.02-5.418-2.472-10.26-4.539-15.373-2.388-6.424-3.99-12.95-5.513-19.62a227 227 0 0 0-3.174-12.38c-1.32-4.665-1.847-9.18-2.313-14l-1-1a232 232 0 0 1-.621-5.992c-.302-2.315-.302-2.315-2.379-5.008-.718-3.42-1.303-6.834-1.855-10.283-.638-4.298-.638-4.298-3.145-7.717-.414-2.383-.414-2.383-.625-5.125l-.227-2.758L734 377h-2l-.148-2.16c-.434-5.554-1.09-10.555-2.852-15.84l-1-3h-2l.188-3.437c.007-4.165-.966-7.498-2.391-11.383-.74-2.024-1.353-4.04-1.922-6.118-.74-2.946-.74-2.946-1.875-5.062-.28-3.211-.447-6.422-.621-9.64-.383-3.396-1.077-6.204-2.379-9.36l-2-1c-.35-1.925-.603-3.867-.812-5.812-.828-5.996-2.503-10.92-4.958-16.426-2.673-6-4.324-12.042-5.73-18.45-1.005-4.53-2.262-8.226-4.5-12.312-.769-2.316-1.385-4.636-2-7h-2l-.25-3.312c-.665-5.53-2.715-10.538-4.75-15.688h-2l-.148-1.793c-.417-4.398-.902-8.176-2.852-12.207h-2l-.344-2.59c-.686-3.565-1.791-6.612-3.156-9.972-1.546-3.816-2.833-7.37-3.5-11.438h-2l-.312-2.625c-.52-3.35-.52-3.35-2.063-6-2.364-4.91-3.417-10.079-4.625-15.375h-2l-2-10h-3l-.625-3.75c-1.362-6.197-4.131-11.82-7.375-17.25l-2-1c-.895-2.117-.895-2.117-1.812-4.875-1.756-5.055-3.842-9.851-6.098-14.7-1.238-2.753-2.154-5.556-3.09-8.425a365 365 0 0 0-4-9h-2l-.805-2.91c-1.301-4.556-2.808-9.038-4.32-13.528l-.84-2.505L625 75h-2v-4h-2l-.375-2.75c-.442-3.112-.442-3.112-1.605-5.172-1.094-2.229-1.53-4.137-1.957-6.578-.734-3.942-1.622-7.805-2.625-11.687-.854-3.303-1.587-6.483-1.938-9.876-.556-3.263-.911-4-3.5-5.937-2.397-.43-2.397-.43-5.078-.328l-3.02.015-3.152.063-3.105.016c-4.055.041-7.956.132-11.973.73-4.034.554-7.962.71-12.027.785l-2.373.056q-3.73.086-7.46.163c-9.31.196-18.565.395-27.842 1.264-6.102.485-12.227.574-18.345.736-7.414.197-14.805.403-22.2.996-9.94.752-19.898.881-29.863 1.066l-3.288.064c-37.66.705-75.366.803-113.024-.063l-2.65-.06c-7.965-.185-15.876-.455-23.806-1.269-6.185-.518-12.403-.578-18.606-.734-8.94-.226-17.837-.584-26.756-1.268-5.867-.397-11.742-.514-17.62-.67-8.36-.246-16.632-.614-24.937-1.625a189 189 0 0 0-19.312-1.312l-2.425-.078c-3.526-.012-5.703.15-8.634 2.187"/><path fill="#0e1010" d="m212.563 27.625 2.564.041c6.394.156 12.686.777 19.03 1.55 8.732 1.003 17.485 1.21 26.266 1.442 5.833.158 11.634.392 17.452.838 8.457.643 16.917.843 25.392 1.056 13.176.338 13.176.338 19.08.944 7.945.79 15.926.888 23.903 1.066l2.746.064c37.84.842 75.726.663 113.567-.063l3.188-.06c10.006-.192 19.964-.469 29.943-1.269 7.625-.54 15.276-.637 22.915-.84 5.744-.165 11.454-.358 17.176-.894 9.153-.83 18.354-.861 27.538-1.052q3.66-.08 7.322-.167l2.228-.04c4.45-.107 8.718-.585 13.127-1.241 3.916-.22 7.828-.23 11.75-.25l3.152-.062 3.02-.016 2.737-.028C609 29 609 29 610.762 30.279c2.142 2.978 2.296 6.605 2.8 10.159.938 6.52.938 6.52 3.438 12.562.58 2.51 1.004 5.024 1.438 7.563.458 2.443.458 2.443 1.625 4.5C621 67 621 67 621 71h2v4h2q1.44 4.28 2.875 8.563l.816 2.423C630.246 90.63 631.695 95.28 633 100h2c2.9 5.491 5.409 10.853 7.254 16.785 1.04 3.086 2.41 5.988 3.773 8.942 1.301 3.04 2.248 6.153 3.164 9.328.928 2.231 2.09 3.269 3.809 4.945 3.696 6.076 5.763 12.027 7 19h3c1.316 3.62 2 6.096 2 10h2l.77 3.07 1.043 4.055.501 2.016C670.425 182.415 672 186.043 674 190v3h2l.77 2.852 1.043 3.773 1.019 3.727c1.061 3.651 1.061 3.651 2.805 6.859C683 213 683 213 683 217h2c2.04 4.93 3.407 8.58 3 14h2a879 879 0 0 1 2.5 6.688l.723 1.896c1.318 3.598 2.07 6.581 1.777 10.416h2l.77 2.344c2.305 6.996 2.305 6.996 4.855 13.906 1.142 3.113 1.958 6.132 2.715 9.352 1.936 7.035 4.629 13.908 7.41 20.648 1.335 4.005 1.73 7.553 1.941 11.746L715 310l2 1c2.204 5.329 2.394 10.382 2.656 16.074.142 3.114.142 3.114 2.344 5.926a118 118 0 0 1 1.563 6c.723 3.058 1.443 6.018 2.437 9 .128 2.674.044 5.321 0 8h2l.402 1.934.535 2.503.528 2.497c.343 2.043.343 2.043 1.535 3.066.234 1.849.413 3.705.563 5.563l.253 3.066L732 377h2l.148 2.117.227 2.758c.07.905.14 1.81.21 2.742.21 2.562.21 2.562 2.415 4.383a144 144 0 0 1 1.5 7.938c.89 5.818.89 5.818 3.5 11.062.379 2.008.379 2.008.563 4.125.004 3.65.004 3.65 1.437 4.875.286 1.577.526 3.163.75 4.75 1.387 8.72 3.553 17.253 5.658 25.823.518 2.123 1.02 4.248 1.514 6.376l.765 3.238.637 2.731c.564 2.272.564 2.272 2.676 4.082a127 127 0 0 1 1.875 7.5l.515 2.265c.916 4.046 1.8 8.1 2.688 12.153l.532 2.418q.503 2.298.995 4.598c.696 3.2 1.45 6.23 2.512 9.336C766 505 766 505 766 509h2q.722 2.812 1.438 5.625l.808 3.164c.719 3.06 1.274 6.106 1.754 9.211h2c1.215 3.906 2.106 7.639 2.688 11.688.997 5.77 2.827 11.173 4.75 16.687l.91 2.632c1.54 4.316 3.21 8.096 5.652 11.993.483 1.933.964 3.868 1.398 5.813.881 3.203 2.273 6.116 3.7 9.109 1.893 4.36 2.393 8.327 1.902 13.078-3.172 5.392-6.669 7.048-12.5 9.043-2.558.89-2.558.89-4.898 2.434-3.001 1.757-5.9 2.712-9.227 3.71l-3.414 1.043C762 615 762 615 759 615v2a365 365 0 0 1-35.344 2.215l-3.04.045q-7.62.108-15.241.134c-15.57.105-15.57.105-30.375 4.606-2.172 2.89-2.172 2.89-2.812 6.313-2.107 6.54-6.291 10.354-12.188 13.687h-3v2c-5.375 2.565-10.723 4.013-16.523 5.352-2.403.406-2.403.406-3.477 1.648-17.45 2.64-35.41 2.336-53 2l-3.397-.059A344 344 0 0 1 535 651l-2.137-.318c-9.617-1.436-9.617-1.436-10.863-2.682-2.352-.1-4.675-.14-7.027-.133l-2.134-.003q-2.238 0-4.476.006-3.43.005-6.861-.007-2.171 0-4.342.004l-2.08-.006c-3.663-.028-3.663-.028-7.08 1.139l-3.625.25c-10.061 1.058-20.476 4.277-28.578 10.418-4.129 3.06-7.726 3.662-12.797 4.332l-1 1c-1.666.04-3.334.043-5 0v2l-2.152.402-2.786.535-2.777.528c-2.238.312-2.238.312-3.285 1.535-8.907 1.313-17.998 1.156-26.98 1.13q-3.379-.005-6.758.007c-27.136.017-27.136.017-39.489-4.223-3.232-1.065-6.401-1.501-9.773-1.914a124 124 0 0 1-6-2v-2l-1.672-.34c-2.729-.774-5.056-1.928-7.578-3.222l-2.703-1.38L323 655v-2l-1.906-.367-2.594-.508-2.531-.492c-2.228-.475-4.433-1.056-6.621-1.688-5.118-1.289-10.16-1.244-15.41-1.195l-3.052.014c-13.29-.16-13.29-.16-25.886 3.236-5.397.695-10.828 1.112-16.25 1.563l-2.47.206c-12.87 1.05-25.68 1.513-38.592 1.481l-2.35-.003c-8.03-.023-16.052-.206-24.072-.622l-3.808-.195c-4.535-.564-8.162-2.097-12.263-4.035-3.843-1.678-7.726-2.824-11.757-3.957-6.596-1.868-13.04-3.964-19.438-6.438v-2l-1.773-.828c-2.176-1.145-3.953-2.366-5.852-3.922-.59-.47-1.18-.938-1.79-1.422C123 630 123 630 122.24 626.998c-.926-3.16-.926-3.16-3.595-4.203-10.004-1.977-19.908-2.494-30.082-2.857-29.907-1.134-29.907-1.134-43-5.938a2540 2540 0 0 0-4.433-1.562l-2.104-.75c-1.92-.652-3.873-1.207-5.826-1.754C28.322 608.51 23.104 606.2 20 602v-3l-5-1 1-7h2l.55-2.309c1.33-5.458 2.724-10.833 4.567-16.14 1.597-4.613 3.085-9.263 4.602-13.903 1.279-3.642 2.741-7.11 4.281-10.648 1.945-5.17 3.336-10.347 4.473-15.746 1.381-5.905 3.628-11.562 5.773-17.223 2.076-5.593 3.839-11.194 5.223-16.996.783-3 1.797-5.914 2.8-8.848 1.014-3.036 1.878-6.102 2.731-9.187h2l-.113-3.055c.115-4.02.814-7.216 1.925-11.07q.556-1.98 1.106-3.96l.556-1.988a198 198 0 0 0 4.464-20.615c.805-4.65 2.28-8.711 4.113-13.046 2.383-5.688 3.252-11.132 3.703-17.227C71 407 71 407 72 406c.187-1.328.324-2.664.438-4 1.272-12.123 1.272-12.123 4.624-17 2.544-3.938 2.733-7.397 2.938-12h2l-.105-2.344c-.151-5.791-.019-10.37 2.316-15.683 1.196-2.991 1.677-6.062 2.266-9.22C91.694 318.307 91.694 318.307 95 315l.375-3.687c.451-3.999 1.819-6.701 3.625-10.313 1.442-4.98 2.548-10.045 3.715-15.094 1.32-5.54 2.9-10.688 5.11-15.933 1.583-4.005 2.943-8.074 4.3-12.16l.769-2.306A296 296 0 0 0 117 242h2l.348-2.07c.756-3.399 1.885-6.538 3.09-9.805 1.324-3.597 2.559-7.112 3.535-10.82C127 216 127 216 128.473 214.039c2.19-2.924 2.972-6.2 3.964-9.664 1.88-6.28 4.023-12.328 6.563-18.375q1.002-2.562 2-5.125c1.22-3.068 2.538-6.01 4.063-8.937 1.818-3.517 3.03-7.085 4.226-10.852.97-2.845 2.324-5.422 3.711-8.086 1.365-2.986 2.679-5.994 4-9l2.25-5.062 1.016-2.286L161 135h2l.438-2.812C164 129 164 129 165 126h3v-5h2l.313-3.125c.702-3.962 1.79-6.351 3.687-9.875 1.258-2.764 2.49-5.54 3.719-8.316C179 97 179 97 180.589 94.457c1.428-2.487 1.989-4.401 2.474-7.207.41-2.36.41-2.36.937-4.25l2-1c.77-1.776.77-1.776 1.375-3.937 1.068-3.409 2.257-6.7 3.625-10 1.762-4.307 3.136-8.65 4.387-13.13C196 53 196 53 197 52c1.519-5.873 2.244-11.72 2.46-17.773 1.67-6.893 7.034-6.798 13.102-6.602M210 38l-.608 1.826-.806 2.42-.795 2.389q-1.076 3.215-2.166 6.428a259 259 0 0 0-2.75 8.71c-2.077 6.954-4.222 13.44-7.687 19.852-1.335 2.67-2.289 5.363-3.25 8.188-1.106 3.212-1.81 5.04-4.063 7.624-3.12 4.264-3.25 9.41-3.875 14.563l-3 1c-.955 1.928-.955 1.928-1.562 4.25l-.75 2.453L178 120c-1.722 4.86-1.722 4.86-4 6-1.804 3.764-3.184 7.523-4.437 11.5-.964 3.014-2.089 5.559-3.75 8.25-1.786 3.201-2.246 4.68-1.813 8.25h-2c-2.13 4.869-3.482 9.95-4.371 15.184L157 171l-3 1a119 119 0 0 0-2 7l-.965 1.844c-1.756 3.657-2.376 7.63-3.254 11.574L147 195l-2 1-.5 2.5-.5 2.5-2 1v7h-2c-.182.545-.364 1.09-.55 1.652l-1.602 4.797a552 552 0 0 0-1.54 4.696c-2.48 7.642-5.366 15.146-8.43 22.574-.973 2.315-.973 2.315-1.378 5.031L126 250l-2 1c-.738 2.402-.738 2.402-1.312 5.313-1.276 5.419-3.088 10.265-5.293 15.363-4.277 10.195-7.634 20.402-9.754 31.265-.695 3.316-1.684 6.391-2.82 9.575-1.512 4.578-2.65 9.267-3.856 13.933a121 121 0 0 1-1.988 6.613c-1.358 4.084-2.3 8.242-3.293 12.426C95 348 95 348 94 349c-.483 2.07-.958 4.14-1.398 6.219-.654 3.022-1.38 6.024-2.102 9.031a151 151 0 0 0-2.5 13.5c-.666 4.683-1.775 8.813-3.402 13.238-.918 3.088-.802 5.814-.598 9.012h-2l-.411 2.092c-.626 3.158-1.264 6.314-1.901 9.47l-.647 3.292c-1.849 9.078-1.849 9.078-3.65 13.04-1.43 3.191-1.935 5.773-2.329 9.231-.796 5.797-2.235 11.1-4.05 16.652-1.32 4.207-2.322 8.465-3.301 12.762C65 469 65 469 63 472c-1.668 4.82-2.208 8.91-2 14h-2l-.516 3.184c-1.2 7.062-2.39 13.474-5.64 19.925-1.276 2.86-1.48 5.804-1.844 8.891l-.922 1.832c-1.306 2.627-1.987 5.2-2.703 8.043l-.79 3.055c-.59 3.1-.688 5.922-.585 9.07h-2l-.84 2.809-1.097 3.629-1.09 3.62C40 553 40 553 39 554a100 100 0 0 0 0 5h-2l-.297 1.652C34.07 573.93 34.07 573.93 30 578l-.375 3.25C29 585.002 27.927 586.817 26 590c-.917 2.5-.917 2.5 0 5 5.53 4.945 13.229 7.802 20.563 8.188L49 603v2l2.152.402 2.785.535 2.778.528C59 607 59 607 60 608c1.571.166 3.15.267 4.728.341l3.057.153 3.336.154 6.963.36q5.5.278 11 .539c3.534.169 7.067.353 10.6.539l3.28.142c6.009.328 11.292 1.18 16.989 3.148 2.169.77 2.169.77 5.047.624l1 3 2.313 2.313C131 622 131 622 132.813 624.938c3.67 5.138 9.024 9.35 15.187 11.062h4v2c4.035 1.168 8.08 2.305 12.125 3.438l3.402.986c12.816 3.552 25.541 3.746 38.75 3.706q3.135-.005 6.27.007c9.518.004 18.962-.44 28.453-1.137v-2l2.762-.332 3.925-.48 2.178-.262c3.97-.488 7.913-1.041 11.854-1.727 20.617-3.5 44.07-6.088 63.281 3.801a82 82 0 0 1 4 4l3 1 1.625 1.938c2.748 2.386 5.028 2.848 8.555 3.5 3.466.69 6.852 1.624 10.257 2.562 13.884 3.755 27.056 5.233 41.438 5.25l2.072.004c13.744-.006 26.927-.936 39.949-5.578 2.132-.685 4.21-1.114 6.416-1.489 5.991-1.24 11.461-4.064 16.688-7.187l1-2c8.219-3.863 15.852-5.562 24.941-5.762 3.015-.072 3.015-.072 5.425-1.236 2.809-1.069 4.846-1.26 7.837-1.268l2.973-.007 3.074.023 3.027-.023c5.465.014 10.398.466 15.695 1.8 2.971.693 5.925.866 8.966 1.035 5.859.336 5.859.336 8.062 1.438 2.107.282 4.22.512 6.336.719l3.918.386 4.121.395 4.004.395c3.873.378 7.747.742 11.621 1.105l3.075.31c7.738.733 15.45.876 23.215.875 2.141.002 4.282.02 6.423.04 10.785.044 21.02-.717 31.287-4.225a70 70 0 0 1 4.813-.562c2.89-.044 2.89-.044 5.187-1.438l3-.187c5.836-.736 10.236-4.641 14.73-8.172 1.77-2.287 1.648-4.158 1.832-7.016.545-3.608.796-5.11 3.68-7.422 3.51-1.73 7.052-2.968 10.758-4.203v-3c7.67-.925 15.268-1.19 22.988-1.281l3.698-.056q5.812-.086 11.626-.163 7.65-.103 15.301-.219l3.48-.04c15.565-.172 15.565-.172 30.72-3.303l3.582-1.098L772 603v-2l1.828-.55c6.028-1.87 6.028-1.87 11.172-5.45-.692-6.506-2.447-12.438-5.062-18.437-.92-2.512-1.358-4.808-1.813-7.438-.909-4.829-2.538-7.97-5.125-12.125-2.328-4.747-3.522-9.172-4.477-14.32-1.375-7.042-3.211-13.46-6.617-19.782-1.234-2.585-1.8-5.188-2.406-7.976-.512-2.213-.512-2.213-2.062-5.235-1.304-3.344-1.64-5.296-1.825-8.785-.465-5.726-1.912-10.65-3.863-16.027q-.955-2.74-1.902-5.484l-.95-2.733c-1.345-3.98-2.543-7.998-3.71-12.033l-.59-2.032a572 572 0 0 1-2.142-7.586c-.707-3.273-.707-3.273-2.456-6.007a357 357 0 0 1-1.807-10.098c-.624-3.554-1.164-5.859-3.193-8.902-.379-2.445-.379-2.445-.562-5.125.017-3.244.017-3.244-1.438-5.875a89 89 0 0 1-.937-4.125 87 87 0 0 0-2.036-8.047c-1.469-5.475-2.135-11.01-2.882-16.621-.615-4.383-1.37-8.123-3.145-12.207-.309-2.14-.309-2.14-.437-4.25-.443-4.873-1.848-9.188-3.563-13.75h-2l.098-6.152c.108-1.865.108-1.865-1.098-2.848l-.375-3c-.485-3.766-1.607-7.138-2.86-10.71-1.132-3.386-1.944-6.817-2.765-10.29h-2l.098-6.152c.108-1.865.108-1.865-1.098-2.848a236 236 0 0 1-1-7h-2l-.312-1.937c-.736-3.277-1.775-6.348-2.864-9.52-1.182-3.647-2.13-7.349-3.078-11.063-.658-2.45-.658-2.45-1.75-4.464-1.207-2.442-1.759-4.8-2.371-7.454-1.356-5.63-2.982-11.136-4.723-16.66A170 170 0 0 1 688 253.25c-1.31-4.255-3.118-8.22-5-12.25h-2l-.312-3.062c-.579-3.312-1.394-5.761-2.797-8.774-1.638-3.979-2.73-8.145-3.926-12.273-.874-3.038-.874-3.038-2.965-5.891l-.375-3.062c-.795-5.007-2.622-9.307-4.625-13.938h-2l-.812-3.187c-1.085-3.483-2.325-5.731-4.188-8.813-1.058-2.476-2.039-4.975-3.016-7.484-1.254-3.206-2.611-6.359-3.984-9.516h-2l.188-2.937c.028-4.679-1.54-8.738-3.188-13.063h-2l-.125-2.812c-.644-4.701-3.057-8.295-5.39-12.352-1.79-3.419-2.776-6.788-3.778-10.496-1.114-3.686-2.88-6.964-4.707-10.34-3.232-6.033-5.631-12.18-7.894-18.629C621.96 90.465 621.96 90.465 619 88a128 128 0 0 1-2.437-6.75c-1.613-4.946-1.613-4.946-4-9.531-2.434-4.234-3.684-8.82-5.125-13.469l-.92-2.883A177 177 0 0 1 602 38c-4-.03-8-.047-12-.062l-3.41-.026c-5.18-.015-10.158.077-15.293.836-6.604.724-13.323.64-19.964.804q-3.075.08-6.15.167l-3.67.092c-3.505.134-3.505.134-6.912.689-4.152.577-8.209.708-12.394.781l-2.507.056q-3.943.086-7.888.163-3.915.077-7.834.163-2.425.054-4.852.097c-4.196.093-8.337.34-12.515.743-7.076.599-14.115.645-21.212.642l-4.28.01q-5.773.014-11.547.012l-7.29.006q-12.828.013-25.657.012-10.474 0-20.948.02c-67.188.133-67.188.133-94.806-1.154l-2.81-.131a1216 1216 0 0 1-7.571-.391l-2.168-.116c-3.225-.194-6.21-.549-9.322-1.413a186 186 0 0 0-6.68-.281l-1.967-.056q-3.114-.087-6.228-.163-4.06-.104-8.117-.219l-2.037-.058c-4.403-.138-8.782-.407-13.174-.75-6.57-.504-13.087-.59-19.672-.535l-3.277.013q-3.924.018-7.848.049"/><path fill="#6696a8" d="M329 280c7.28 6.387 7.493 20.02 8.147 29.028.203 3.329.371 6.655.51 9.988.26 3.015.669 5.585 1.335 8.504 1.448 6.91 1.485 13.887 1.633 20.918l.055 2.272c.138 5.763.238 11.526.32 17.29l.036 2.537c.299 22.055-.023 44.05-.974 66.088l-.131 3.069q-.191 4.329-.396 8.658l-.117 2.56c-.196 3.936-.478 7.832-.938 11.746-.45 3.829-.633 7.606-.69 11.463l-.08 4.031-.041 2.113c-.259 12.794-.916 25.494-2.106 38.235l-.203 2.174q-.494 5.265-1 10.53c-1.782 18.795-2.867 37.64-3.985 56.484l-.208 3.475q-.294 4.955-.581 9.911l-.18 3.021c-.228 3.982-.437 7.935-.384 11.924-.024 3.2-.728 5.088-2.022 7.981a104 104 0 0 0-1 5h-1c-.34-9.82.712-19.29 2-29h-2c-.774-13.442-1.4-26.65.165-40.047.957-8.316 1.25-16.622 1.493-24.986.137-4.492.286-8.935.838-13.397.877-7.13.897-14.33 1.11-21.504l.113-3.402.092-3.08C329 491 329 491 330 488c.138-1.98.225-3.962.281-5.945l.114-3.512.21-7.36.114-3.503.092-3.227C331 462 331 462 332 461c.158-2.07.251-4.147.316-6.223l.127-3.818.12-4.022.13-4.033q.16-4.951.307-9.904l2-1-.531-3.246c-.698-5.633-.267-11.165.031-16.817.614-13.928.432-27.814.125-41.75l-.065-3.149q-.097-4.497-.208-8.995l-.06-2.712c-.142-5.18-.6-10.195-1.292-15.331q-.278-3.24-.5-6.484l-.25-3.586-.25-3.68c-1.103-17.918-1.103-17.918-3.695-35.656-.3-2.553-.114-4.179.695-6.594h-2z"/><path fill="#6699ab" d="m433 317 3 1-1 2 2 1v36l1-39h1a44982 44982 0 0 1 .573 24.025q.106 4.394.208 8.788l.067 2.725c.092 3.982.163 7.96.154 11.944-.002 2.777.11 5.393.435 8.143 1.259 11.77 1.78 23.55 2.17 35.375l.112 3.047.092 2.745c.056 2.249.056 2.249 1.189 4.208.13 1.625.202 3.254.246 4.883l.1 3.043q.09 3.117.172 6.234c.22 6.6.831 13.055 1.702 19.6.922 7.051 1.46 14.117 1.985 21.206a1099 1099 0 0 0 3.92 41.846l.261 2.312c.685 6.023 1.378 12.045 2.15 18.058.337 2.769.618 5.474.745 8.255l.114 2.274.21 4.578c.247 4.95.73 9.8 1.395 14.711 1.024 8.015 1.105 15.924 1 24h-1l-1-10q-.04 4.094-.062 8.188l-.026 2.33c-.017 3.998.24 7.562 1.088 11.482q.097 2.906.063 5.813l-.028 2.957L457 613l2 1-.035 2.344c-.088 6.91-.088 6.91.535 13.781.6 4.653.586 9.192.5 13.875l2-2 2-1 2 1v-2h8c-3.066 3.066-6.953 3.606-11.055 4.805-3.196 1.297-4.575 2.75-6.945 5.195-6.954 3.69-14.24 5.85-22 7v-2c2.709-1.354 5.01-1.065 8-1v-2l2.809-.805 3.628-1.07 3.622-1.055c3.058-.73 3.058-.73 3.941-3.07h2l-.469-2.645c-1.114-7.038-1.431-14.173-1.781-21.285l-.127-2.571q-.121-2.525-.23-5.05l-.112-2.36-.092-2.097c-.138-1.998-.138-1.998-.678-3.914-.61-2.483-.796-4.867-.976-7.418l-.233-3.193-.24-3.404c-.64-8.674-1.315-17.341-2.125-26l-.24-2.65c-.313-3.293-.647-6.264-1.697-9.413a102 102 0 0 1-.54-4.262l-.284-2.604-.297-2.822-.318-2.944q-.503-4.683-.998-9.368l-.659-6.125Q444.945 516.938 444 508l-.29-2.736a4542 4542 0 0 1-3.499-34.117q-.276-2.802-.559-5.604c-.357-3.675-.658-7.223-.59-10.918-.055-3.217-.44-5.971-1-9.125-1.217-7.372-1.478-14.729-1.72-22.19l-.096-2.857-.072-2.526a122 122 0 0 0-.656-7.13c-.573-4.99-.838-9.972-1.053-14.988l-.13-2.933q-.206-4.719-.397-9.438l-.136-3.253c-.866-21.068-1.033-42.103-.802-63.185"/><path fill="#6ca1b2" d="M622 356c2.593 2.701 2.995 3.843 3.125 7.688L625 367l1 1c.217 1.89.372 3.789.5 5.688l.254 3.59q.234 3.55.46 7.1c.672 10.17 1.555 20.394 3.267 30.448.532 3.25.937 6.496 1.316 9.768 1.695 14.165 3.686 28.037 7.152 41.902 1.027 4.16 1.572 8.247 2.051 12.504q.46 2.508 1 5l.832 4.012c1.046 4.998 2.105 9.993 3.168 14.988l.481 2.274c2.15 10.121 4.643 20.118 7.305 30.116 1.816 6.888 3.35 13.793 4.747 20.776 1.062 5.197 2.401 10.249 3.904 15.334C666.066 583.878 670 598.069 670 611h4l4 2-11 4-1-10-4-1-.375-3.031c-1.453-10.708-3.773-21.13-6.437-31.594l-.534-2.095q-1.066-4.183-2.14-8.364c-5.356-20.856-9.98-41.87-14.514-62.916h-1l-.367-2.824A959 959 0 0 0 633 470l-2 1 .105-3.484c-.004-4.4-.814-8.492-1.793-12.766-5.88-27.566-9.375-56.33-9.562-84.5l-.029-3.27.013-3.027.007-2.682C620 359 620 359 622 356"/><path fill="#6799ab" d="M172 377c2.012 3.299 2.134 5.326 1.61 9.121l-.4 3.056-.46 3.26q-.447 3.382-.887 6.766l-.45 3.44c-.72 5.861-1.217 11.743-1.678 17.63-.39 4.556-1.186 8.394-2.735 12.727-.387 2.074-.717 4.16-1 6.25l-.496 3.656c-.683 5.4-1.261 10.813-1.807 16.228-.59 5.652-.59 5.652-1.697 7.866h-2l-.332 3.41c-2.488 24.506-2.488 24.506-6.137 33.016-2.534 6.522-2.84 13.729-3.594 20.637q-.359 3.236-.733 6.47a1074 1074 0 0 0-.657 5.862c-.714 4.709-2.044 9.096-3.547 13.605-1.933 6.312-3.338 12.3-3.691 18.906C141 571 141 571 139 574a180 180 0 0 0-2.125 7.688A1113.595 1113.595 0 0 0 135 589l-2-.001.125 2.563c-.138 3.78-1.046 6.819-2.125 10.437-.924 5.084-1.086 9.856-1 15v3a105 105 0 0 1-5-4v-2l-2.082-.402-2.73-.535-2.708-.528C115 612 115 612 112 611c-1.701-.17-3.407-.294-5.114-.389l-3.154-.182-3.4-.183-3.485-.197q-5.517-.31-11.034-.611l-7.475-.42Q69.169 608.502 60 608v-1q8.401-.037 16.803-.055 2.85-.008 5.7-.02c10.551-.048 20.99-.011 31.497 1.075v2l2.188-.625c3.28-.437 4.834.314 7.812 1.625l.078-1.809c.844-12.903 4.676-25.374 7.993-37.817 2.277-8.585 4.314-17.224 6.338-25.871a895 895 0 0 1 1.724-7.151c1.793-7.374 3.365-14.68 4.277-22.227.492-2.604 1.137-4.792 2.02-7.272 1.52-4.5 2.487-8.95 3.289-13.623l.436-2.43c.455-2.537.9-5.074 1.345-7.613q.883-5.01 1.781-10.019l.436-2.433c1-5.47 2.254-10.835 3.667-16.216.881-3.604 1.333-7.143 1.741-10.832.557-4.91 1.153-9.798 1.875-14.687l.454-3.079q.803-5.43 1.608-10.858l.565-3.807L165 404l2 2h1v-8h-1a1180 1180 0 0 1-.062-6.25l-.036-3.516c.15-4.959.15-4.959 1.098-7.234l3-1z"/><path fill="#7fb0bf" d="M329 280c7.28 6.387 7.493 20.02 8.147 29.028.203 3.329.371 6.655.51 9.988.26 3.015.669 5.585 1.335 8.504 1.448 6.91 1.485 13.887 1.633 20.918l.055 2.272c.138 5.763.238 11.526.32 17.29l.036 2.537c.299 22.055-.023 44.05-.974 66.088l-.131 3.069q-.191 4.329-.396 8.658l-.117 2.56c-.196 3.936-.478 7.832-.938 11.746-.45 3.829-.633 7.606-.69 11.463l-.08 4.031-.041 2.113c-.33 16.332-1.539 32.492-3.106 48.747-.646 6.74-1.18 13.486-1.688 20.238l-.241 3.195A3865 3865 0 0 0 331 575h-1c-.03-3.333-.047-6.667-.062-10l-.026-2.832c-.014-4.127.01-8.168.565-12.262.6-4.477.791-8.896.96-13.406.312-7.4.82-14.751 1.5-22.125 1.192-13.2 1.73-26.428 2.278-39.667q.11-2.607.223-5.216l.115-2.721c.232-5.125.546-10.234.95-15.349 1.629-20.878 1.74-41.636 1.634-62.567-.02-4.627-.03-9.255-.04-13.882Q338.067 361.487 338 348h-2v47h-1l-.031-1.73q-.164-8.955-.341-17.911-.065-3.338-.125-6.675-.088-4.81-.187-9.622l-.05-2.99A138 138 0 0 0 333 340q-.278-3.24-.5-6.484l-.25-3.586-.25-3.68c-1.103-17.918-1.103-17.918-3.695-35.656-.3-2.553-.114-4.179.695-6.594h-2z"/><path fill="#6a9cad" d="M438 318h1a44982 44982 0 0 1 .573 24.025q.106 4.394.208 8.788l.067 2.725c.092 3.982.163 7.96.154 11.944-.002 2.777.11 5.393.435 8.143.691 6.448 1.173 12.902 1.563 19.375l.141 2.313c1.083 18.555.963 37.109.859 55.687-2.292-2.292-2.308-2.887-2.598-5.992l-.24-2.387-.224-2.496q-.233-2.434-.473-4.867l-.2-2.183c-.216-2.065-.216-2.065-.779-3.984-.61-2.627-.668-5.102-.732-7.798l-.1-3.475q-.088-3.519-.172-7.039a290 290 0 0 0-1.23-19.753c-1.308-13.517-1.487-26.893-1.377-40.464q.016-3.31.027-6.623.033-7.97.098-15.939l2-1v30z"/><path fill="#83b4c4" d="m433 317 3 1-1 2 2 1-.49 2.344c-.66 4.735-.672 9.377-.678 14.152l-.01 3.105q-.007 3.261-.007 6.523c-.002 3.243-.02 6.486-.04 9.73a371 371 0 0 0 1.755 37c.742 7.744.886 15.486 1.036 23.261.17 6.387.704 12.475 1.916 18.751.719 4.349 1.08 8.749 1.518 13.134v-32c2.512 2.512 2.271 3.405 2.344 6.883l.086 3.017.07 3.225c.297 9.745 1.04 19.235 2.5 28.875l-2 1v-6l-2 1c-.219 9.605.08 18.9 1.284 28.437.837 6.881.917 13.629.716 20.563h-1c-1.553-10.905-2.745-21.824-3.789-32.789-.18-1.895-.369-3.79-.559-5.684-.358-3.67-.658-7.212-.59-10.902-.055-3.217-.44-5.971-1-9.125-1.217-7.372-1.478-14.729-1.72-22.19l-.096-2.857-.072-2.526a122 122 0 0 0-.656-7.13c-.573-4.99-.838-9.972-1.053-14.988l-.13-2.933q-.206-4.719-.397-9.438l-.136-3.253c-.866-21.068-1.033-42.103-.802-63.185"/><path fill="#6396a9" d="M647 520c2 2 2 2 2 5h2c2.806 10.269 5.383 20.521 7.482 30.958 1.082 5.266 2.431 10.389 3.956 15.542C666.065 583.878 670 598.069 670 611h4l4 2-11 4c-.929-4.572-1.848-9.14-2.66-13.734-1.37-7.748-3.1-15.194-5.363-22.743-1.378-4.97-2.328-9.982-3.266-15.05-.729-3.56-1.687-6.987-2.711-10.473-6.482-24.385-6.482-24.385-6-35"/><path fill="#627f85" d="m590 37.938 3.504.013q4.248.018 8.496.049.758 2.873 1.5 5.75l.844 3.234C605 50 605 50 605 54h-2l-2-12c-4.172-.834-6.339-1.02-10.375-.562-4.315.42-8.526.6-12.86.539-11.888-.045-23.762.508-35.64.96l-7.11.264q-6.682.248-13.366.502l-3.505.13c-3.16.123-6.32.269-9.48.42-16.288.752-32.551.882-48.853.848-3.633-.006-7.266-.006-10.899-.008q-10.252-.005-20.503-.021-11.7-.016-23.4-.022Q381.006 45.034 357 45v-1l1.887-.013q22.801-.155 45.603-.326 11.026-.084 22.053-.158 9.62-.065 19.237-.14 5.085-.04 10.172-.072 5.697-.037 11.395-.086l3.354-.017a220 220 0 0 0 18.647-.958c4.034-.35 8.062-.44 12.109-.511l5.12-.114 7.892-.157q3.87-.08 7.738-.167l2.362-.04c4.556-.104 8.915-.577 13.431-1.241a249 249 0 0 1 7.184-.281l1.997-.056q3.129-.086 6.256-.163c9.892-.114 9.892-.114 19.723-1.027 5.614-.691 11.19-.578 16.84-.535"/><path fill="#6fa1b3" d="M622 356c2.593 2.701 2.995 3.843 3.125 7.688L625 367l1 1c.217 1.89.372 3.789.5 5.688l.254 3.59q.234 3.55.46 7.1a378 378 0 0 0 2.126 22.025c.359 2.89.66 5.681.66 8.597h-2c-1.727-9.004-2.526-17.86-3-27-.2 8.882-.122 17.606.938 26.438l.263 2.202c.469 3.8.469 3.8 1.799 7.36.327 2.834.614 5.66.875 8.5.726 7.495 1.748 14.874 3.16 22.271.938 5.144 1.078 10 .965 15.229l-2 1 .105-3.484c-.004-4.4-.814-8.492-1.793-12.766-5.88-27.566-9.375-56.33-9.562-84.5l-.029-3.27.013-3.027.007-2.682C620 359 620 359 622 356"/><path fill="#98bdc5" d="M361 45h136l-1 2c-5.427.861-10.666 1.092-16.152.938-2.485.054-4.843.276-7.309.56-5.683.578-11.307.63-17.016.6l-3.185-.005c-3.321-.005-6.642-.018-9.963-.03q-3.4-.008-6.8-.014Q427.286 49.032 419 49v-1l-3.063-.076C378.928 47 378.928 47 361 46z"/><path fill="#689aaa" d="M328 519h1v29l2-20h1q.04 4.25.063 8.5l.025 2.398.01 2.383.016 2.158c-.127 2.847-.507 5.635-.877 8.458-.375 3.324-.452 6.652-.518 9.994l-.055 2.226a2271 2271 0 0 0-.11 4.704c-.073 3.293-.159 6.585-.244 9.878l-.19 7.494-.06 2.442q-.059 2.301-.115 4.602c-.115 4.588-.245 9.175-.382 13.763l-.083 3.481-.101 3.207-.076 2.761c-.333 2.804-1.185 4.97-2.303 7.551a104 104 0 0 0-1 5h-1c-.34-9.82.712-19.29 2-29h-2c-.774-13.44-1.403-26.648.165-40.042.965-8.376 1.252-16.743 1.493-25.167.162-5.344.433-10.52 1.342-15.791"/><path fill="#bcdfe7" d="M311 45q10.104-.038 20.209-.055 3.422-.008 6.844-.02c13-.05 25.935.116 38.916.819 8.442.452 16.893.616 25.344.819l5.205.13q6.24.157 12.482.307l-1 2c-18.085.903-36.133 1.158-54.239 1.127-2.725-.003-5.451.002-8.177.007-3.283.004-6.566.001-9.85-.001l-3.66.006-3.395-.01-2.968-.002c-2.671-.125-5.1-.579-7.711-1.127h-3.187C323 49 323 49 321 48a95 95 0 0 0-5.125-.062l-2.758.027L311 48z"/><path fill="#72a3b4" d="M329 280c2.416 1.854 2.964 2.786 3.477 5.848l.148 3.214c.096 4.123.096 4.123 1.375 7.938.07 2.207.084 4.417.063 6.625l-.028 3.602L334 310h2c2.199 23.065 3.47 45.826 3 69h-1v-31h-2v47h-1l-.031-1.73q-.164-8.955-.341-17.911-.065-3.338-.125-6.675-.088-4.81-.187-9.622l-.05-2.99A138 138 0 0 0 333 340q-.278-3.24-.5-6.484l-.25-3.586-.25-3.68c-1.103-17.918-1.103-17.918-3.695-35.656-.3-2.553-.114-4.179.695-6.594h-2z"/><path fill="#7db1c0" d="M444 505h2a709 709 0 0 1 3.247 26.867c.53 5.16 1.141 10.303 1.815 15.446.807 6.259 1.333 12.496 1.692 18.796.15 2.74.15 2.74.73 4.73.609 2.55.818 5.012 1.016 7.626l.25 3.174.25 3.298q.245 3.233.5 6.465l.219 2.89c.272 2.62.756 5.129 1.281 7.708q.097 2.906.063 5.813l-.028 2.957L457 613l2 1-.035 2.344c-.088 6.91-.088 6.91.535 13.781.6 4.653.586 9.192.5 13.875l2-2 2-1 2 1v-2h8c-3.066 3.066-6.953 3.606-11.055 4.805-3.196 1.297-4.575 2.75-6.945 5.195-6.954 3.69-14.24 5.85-22 7v-2c2.709-1.354 5.01-1.065 8-1v-2l2.809-.805 3.628-1.07 3.622-1.055c3.058-.73 3.058-.73 3.941-3.07h2l-.469-2.645c-1.114-7.038-1.431-14.173-1.781-21.285l-.127-2.571q-.121-2.525-.23-5.05l-.112-2.36-.092-2.097c-.138-1.998-.138-1.998-.678-3.914-.61-2.483-.796-4.867-.976-7.418l-.233-3.193-.24-3.404c-.64-8.674-1.315-17.341-2.125-26l-.24-2.65c-.313-3.293-.647-6.264-1.697-9.413-.223-1.5-.41-3.007-.573-4.516l-.303-2.76-.315-2.974-.332-3.06q-.346-3.202-.689-6.405-.526-4.908-1.06-9.816l-.67-6.219-.321-2.974-.294-2.76-.26-2.43C444 508 444 508 444 505"/><path fill="#6e9eb0" d="M172 377c2.012 3.299 2.134 5.326 1.61 9.121l-.4 3.056-.46 3.26q-.447 3.382-.887 6.766l-.45 3.44c-.72 5.861-1.217 11.743-1.678 17.63-.39 4.556-1.186 8.394-2.735 12.727-.387 2.074-.717 4.16-1 6.25l-.5 3.656a355 355 0 0 0-1 8.938l-.254 2.468a453 453 0 0 0-.46 4.822c-.566 5.646-.566 5.646-2.786 7.866-.125-7.509-.125-7.509.473-9.855.975-3.968.987-8.082 1.246-12.149C163 442 163 442 164 439c.069-1.895.085-3.792.063-5.687l-.028-3.012L164 428l-1 7-2-1q.714-6.094 1.438-12.187l.408-3.487.4-3.369.365-3.094c.36-2.652.832-5.247 1.389-7.863l2 2h1v-8h-1a1180 1180 0 0 1-.062-6.25l-.036-3.516c.15-4.959.15-4.959 1.098-7.234l3-1z"/><path fill="#a2a2a0" d="m495.08 646.748 2.08.022h2.137q2.235.006 4.47.024c2.29.018 4.579.02 6.868.02l4.338.018 2.086.003c4.825.049 4.825.049 5.941 1.165 33.35 7.161 68.863 7.676 102.75 5.188l3.082-.213c4.498-.38 8.422-.912 12.621-2.612 3.577-1.374 4.168-1.475 7.547-.363-3 2-3 2-5.625 2.5L641 653l-1 2c-10.273 3.44-22.319 2.267-32.974 2.206-3.282-.019-6.564-.02-9.846-.02q-3.16-.007-6.32-.018l-2.943-.003A121 121 0 0 1 572 656c-1.737-.1-3.476-.173-5.215-.21-28.854-.824-28.854-.824-36.785-4.79-13.958-2.271-27.896-2.233-42-2 2.44-2.44 3.749-2.236 7.08-2.252"/><path fill="#638289" d="m299.188 634.75 2.258.28c7.14.943 14.479 1.92 20.554 5.97h4l-1 3-2.918-1.312c-23.847-9.794-50.487-4.355-75.08-.147C244 643 244 643 241 643v2c-10.19.75-20.32 1.161-30.537 1.13q-3.142-.005-6.283.007c-23.68.013-23.68.013-34.18-3.137v-1l3.75-.062 2.11-.036c2.14.098 2.14.098 3.96.594 2.46.569 4.676.645 7.201.665l3.027.03 3.26.012 3.388.017q3.555.014 7.108.02c3.589.01 7.176.04 10.764.072 11.246.052 21.62.055 32.432-3.312 4.405-.77 8.53-1.109 13-1v-2l7 1v-2l3.727-.184 4.898-.254 2.45-.119c3.4-.18 6.648-.39 10-1.025 3.792-.542 7.341-.153 11.113.332"/><path fill="#50504e" d="M550 31c-5.83 3.644-13.662 3.155-20.348 3.281l-2.346.056q-3.684.086-7.369.163c-10.054.216-20.056.537-30.09 1.264-8.333.512-16.687.61-25.033.788q-3.587.08-7.173.167l-2.138.04a153 153 0 0 0-11.75.75c-6.152.587-12.26.635-18.437.624l-3.566.003q-3.71 0-7.42-.006c-3.753-.005-7.507 0-11.262.007q-3.625 0-7.252-.004l-3.353.006c-7.2-.021-14.298-.434-21.463-1.139v-1l1.741-.028q21.062-.345 42.125-.702 10.185-.174 20.372-.34 9.843-.161 19.685-.33 3.743-.064 7.484-.124c16.976-.25 16.976-.25 33.918-1.254 3.47-.288 6.921-.411 10.402-.503l3.937-.114 7.945-.21c6.975-.202 13.896-.526 20.843-1.188 3.53-.287 7.009-.275 10.548-.207"/><path fill="#78adbc" d="M640 502c2.482 4.61 4 8.73 4 14l2-1c.656-2.527.656-2.527 1-5h1c.365 1.748.716 3.498 1.063 5.25l.597 2.953c.324 2.665.195 4.286-.66 6.797l-1-3c.99 10.06 2.944 19.862 5 29.75l.503 2.437c.983 4.67 2.155 9.23 3.497 13.813q.464 2.026.875 4.063c.832 3.91 1.953 7.679 3.125 11.5 2.266 7.737 3.21 15.442 4 23.437l-3-1-.375-3.031c-1.936-14.267-5.524-28.087-9.102-42.008-2.39-9.308-4.62-18.654-6.826-28.007q-.716-3.03-1.437-6.06c-.719-3.025-1.428-6.053-2.135-9.082l-.653-2.736c-1.026-4.451-1.728-8.472-1.472-13.076"/><path fill="#647d85" d="M210 38c3.708-.03 7.417-.047 11.125-.062l3.113-.026c6.735-.02 13.372.312 20.085.836 3.894.267 7.784.423 11.685.533l2.023.058q4.094.112 8.192.213 3.048.08 6.097.167l3.602.092c2.568.158 4.615.554 7.078 1.189 1.95.146 3.905.247 5.86.316l3.378.127 3.512.12 3.559.13q4.346.159 8.691.307v1q-9.036.074-18.073.11-3.058.015-6.117.04c-13.311.113-26.312-.487-39.544-1.918-5.245-.537-10.5-.809-15.766-1.044l-3.2-.194c-5.86-.27-5.86-.27-11.437 1.295-2.482 2.28-3.074 4.483-3.863 7.711h-2l.188 3.313c-.215 4.228-.482 3.981-3.188 6.687-.578 2.675-.776 5.262-1 8h-3c1.567-5.944 3.198-11.837 5.197-17.652.81-2.37 1.606-4.745 2.397-7.121l.802-2.412z"/><path fill="#5f5e5d" d="m293.625 646.688 3.626-.053c6.645.004 11.71.54 17.749 3.365-2 1-2 1-5.434.078-5.212-1.395-10.26-1.378-15.628-1.328l-3.052.014c-13.29-.16-13.29-.16-25.886 3.236-5.397.695-10.828 1.112-16.25 1.563l-2.47.206c-12.87 1.05-25.68 1.513-38.592 1.481l-2.35-.003c-28.966-.083-28.966-.083-37.338-3.247v-1l3.813-.062 2.144-.036C176 651 176 651 179 652c1.914.099 3.83.138 5.746.145l3.585.02 24.987.04C237.798 653.9 237.798 653.9 261 649c10.81-1.838 21.676-2.232 32.625-2.312"/><path fill="#83a1a5" d="M95 348c1.43 2.86.673 4.743.125 7.875C94.075 362.239 93.44 368.567 93 375h-3l.688 2.688C91 381 91 381 89.62 383.223c-1.979 3.39-2.6 6.713-3.246 10.527-1.264 7.139-1.264 7.139-2.375 8.25a271 271 0 0 0-.5 8.438c-.366 8.293-.366 8.293-1.5 10.562h-3v6l-3 1 .14 2.527c.241 7.5-.358 12.94-4.14 19.473-1.125-3.75-1.125-3.75 0-6 .488-3.175.897-6.357 1.305-9.543C74 431 74 431 75.473 427.57c1.652-3.862 2.416-7.392 3.09-11.507.947-5.42 1.998-10.75 3.437-16.063h2l-.187-2.937c0-2.961.476-5.23 1.5-8 1.776-4.887 2.655-9.867 3.557-14.967.938-5.244 2.157-10.37 3.505-15.526.55-2.258.952-4.455 1.25-6.757C94 349 94 349 95 348"/><path fill="#6397aa" d="m636 470 2 1v3h2c2.876 9.244 4.16 18.785 5.535 28.348.329 2.618.329 2.618 1.465 4.652.134 2.672.043 5.323 0 8l-3 1c-2.67-8.324-4.649-16.664-6.25-25.25l-.53-2.756c-1.09-6.056-1.429-11.847-1.22-17.994"/><path fill="#698b93" d="M200 69c1.714 2.97 2.066 3.662 1.375 7.188-1.215 3.685-2.822 7.191-4.473 10.699-.868 2.033-1.385 3.97-1.902 6.113-2.49 5.66-2.49 5.66-6 8-1.127 2.169-1.127 2.169-2 4.688-1.16 3.098-2.35 6.127-3.75 9.124-1.192 3.04-1.542 4.973-1.25 8.188l-1.875.188c-2.396.63-2.396.63-3.25 3.312L176 129l-2 1v-4l2-1c2.554-4.739 4.42-9.864 6-15h2l.297-2.45.453-3.237.422-3.2c.955-3.592 2.5-5.25 4.828-8.113 1.189-2.54 2.09-5.162 3-7.812 2.009-5.614 4.154-10.934 7-16.188"/><path fill="#7fb3c2" d="M620 359h1l.184 3.29.254 4.335.119 2.16c.182 3.05.401 5.987.955 8.996.76 5.008.733 10.036.863 15.094.201 15.971.201 15.971 4.625 31.125.327 2.834.614 5.66.875 8.5.726 7.495 1.748 14.874 3.16 22.271.938 5.144 1.078 10 .965 15.229l-2 1 .105-3.484c-.004-4.4-.814-8.492-1.793-12.766A426.4 426.4 0 0 1 620 359"/><path fill="#6c9fb0" d="M442 417c2.512 2.512 2.271 3.405 2.344 6.883l.086 3.017.07 3.225c.297 9.745 1.04 19.235 2.5 28.875l-2 1v-6l-2 1c-.219 9.605.08 18.9 1.284 28.437.837 6.881.917 13.629.716 20.563h-1c-1.556-10.923-2.744-21.858-3.784-32.841-.174-1.74-.381-3.475-.599-5.21-1.088-8.972-.222-17.963.383-26.949h1l1 10z"/><path fill="#233338" d="m39 602 10 1v2l3.25-.125C56 605 56 605 57.92 605.98c2.487 1.22 4.34 1.343 7.101 1.459l3.027.142 3.26.13q3.447.167 6.893.336 5.41.25 10.821.48c25.8 1.115 25.8 1.115 35.978 5.473v2l-13-2-1-3-3.677.048c-4.587.055-9.174.089-13.76.117q-2.955.022-5.909.061C75.075 611.39 63.3 610.731 51 608v-2l-2.062.188C45.08 605.94 42.489 604.642 39 603z"/><path fill="#7ea3ac" d="M511.063 635.375q2.322.087 4.646.172 5.646.21 11.291.453v2l2.168-.559c3.06-.477 5.14-.184 8.144.496l2.676.59L542 639v2l2.746-.07c7.116-.106 13.388.176 20.254 2.07v1c-5.714.097-11.207-.236-16.875-.937l-2.297-.264c-5.568-.669-5.568-.669-7.828-1.799-3.113-.281-6.227-.447-9.348-.621a53 53 0 0 1-7.851-1.399c-5.514-1.285-10.913-1.274-16.551-1.23l-3.074-.023-2.973.007-2.667.007c-2.814.287-4.935 1.179-7.536 2.259-3.55.195-3.55.195-7.312.125l-3.801-.055L474 640c1.273-1.496 1.273-1.496 3-3 1.936-.033 3.873-.052 5.807.029 2.481.06 2.481.06 5.9-1.049 7.313-1.712 14.91-.926 22.356-.605"/><path fill="#4f6d75" d="M765 606c-4.515 1.669-8.89 2.572-13.656 3.09l-2.321.254c-11.8 1.16-23.678 1.09-35.523 1.218q-5.458.066-10.917.143-3.37.049-6.737.08l-3.04.041-2.675.03c-2.184.01-2.184.01-4.131 1.144-2.672.134-5.323.043-8 0v-3c7.67-.925 15.268-1.19 22.988-1.281l3.698-.056q5.812-.086 11.626-.163 7.65-.103 15.301-.219l3.48-.04c8.872-.135 21.792-3.76 29.907-1.241"/><path fill="#6395a7" d="M624 381h1l.136 1.718c1.234 15.277 3.082 30.305 6.052 45.344.948 5.001 1.01 9.863.812 14.938h-3l-.367-3.84-.508-5.098-.238-2.517c-.414-4.09-.945-8.047-1.895-12.049-2.092-8.973-2.127-17.947-2.054-27.121l.013-3.332q.018-4.021.049-8.043"/><path fill="#b4dae3" d="m370 46 50 1-1 2c-18.03.893-36.012 1.126-54.062 1.063q-3.804-.008-7.608-.014-9.165-.017-18.33-.049l1-2 30-1z"/><path fill="#89bac8" d="M172 377c2.012 3.299 2.134 5.326 1.61 9.121l-.4 3.056-.46 3.26q-.447 3.382-.887 6.766l-.45 3.44c-.72 5.861-1.217 11.743-1.678 17.63-.388 4.527-1.07 8.45-2.735 12.727h-1c-.125-7.625-.125-7.625 1-11 .149-1.845.248-3.694.316-5.543l.127-3.252.12-3.392.13-3.428q.16-4.192.307-8.385h-1a1180 1180 0 0 1-.062-6.25l-.036-3.516c.15-4.959.15-4.959 1.098-7.234l3-1z"/><path fill="#949492" d="M346 665c4.304.391 7.979.912 12 2.5 11.117 3.9 24.808 2.664 36.501 2.63q3.393-.005 6.784.007c9.967.005 19.931-.042 29.715-2.137-2 3-2 3-5.184 3.73q-2.124.257-4.253.457l-2.375.24c-22.563 1.998-48.385 2.606-70.188-4.427v-2z"/><path fill="#6a8f9c" d="M60 607q8.401-.037 16.803-.055 2.85-.008 5.7-.02c10.551-.048 20.99-.011 31.497 1.075v2l5-1 1 3h5l2-4c.91 3.073 1.089 5.801 1 9l-3-1v-2l-2.082-.402-2.73-.535-2.708-.528C115 612 115 612 112 611c-1.701-.17-3.407-.294-5.114-.389l-3.154-.182-3.4-.183-3.485-.197q-5.517-.31-11.034-.611l-7.475-.42Q69.169 608.502 60 608z"/><path fill="#6395a8" d="M443 454h2c1.171 6.457 1.6 12.94 2.04 19.478.148 2.149.31 4.296.474 6.444q.141 2.059.279 4.117l.266 3.756c-.057 3.11-.394 4.633-2.059 7.205-2.017-4.306-2.635-8.57-3.125-13.25l-.255-2.363c-.56-5.653-.801-11.27-.808-16.95l-.002-2.217c.055-5.085.055-5.085 1.19-6.22"/><path fill="#7ab" d="m457 613 2 1-.035 2.344c-.088 6.91-.088 6.91.535 13.781.6 4.653.586 9.192.5 13.875l2-2 2-1 2 1v-2h8c-3.066 3.066-6.953 3.606-11.055 4.805-3.196 1.297-4.575 2.75-6.945 5.195-6.954 3.69-14.24 5.85-22 7v-2c2.709-1.354 5.01-1.065 8-1v-2l2.809-.805 3.628-1.07 3.622-1.055c3.058-.73 3.058-.73 3.941-3.07h2l-.494-2.594c-.5-3.363-.62-6.501-.604-9.898l.01-3.633.026-3.75.013-3.82q.018-4.653.049-9.305"/><path fill="#5b8b9d" d="M332 495h1a770 770 0 0 1-4 66h-1c-.345-16.715-.08-33.218 1.438-49.875l.204-2.285c1.148-12.63 1.148-12.63 2.358-13.84"/><path fill="#2e4950" d="m294.063 636.5 3.558-.018c6.738.1 12.112 1.024 18.379 3.518v1c-6.678-.935-6.678-.935-9.59-1.523-4.627-.647-9.182-.661-13.848-.664l-2.775-.038c-5.347-.011-9.643.645-14.787 2.225-3.155.48-6.322.774-9.5 1.063q-2.454.234-4.906.472l-2.365.227c-2.021.216-4.034.5-6.045.793-3.8.531-7.355.512-11.184.445 5.314-3.543 12.129-3.702 18.375-4.625l2.284-.34c10.82-1.582 21.462-2.516 32.404-2.535"/><path fill="#83b5c3" d="M148 526c2.212 8.15-.408 16.223-3 24-1.933 6.312-3.338 12.3-3.691 18.906C141 571 141 571 139 574a180 180 0 0 0-2.125 7.688A1113.595 1113.595 0 0 0 135 589c-1.088-3.31-.886-5.489-.074-8.853l.666-2.832.72-2.941q.683-2.863 1.364-5.727l.682-2.848c.62-2.704 1.164-5.412 1.685-8.136.718-3.686 1.747-7.106 2.957-10.664.932-3.612 1.778-7.243 2.625-10.875l.695-2.953q.844-3.584 1.68-7.172"/><path fill="#c6c5c2" d="m768 614-4 1v2c-2.707.902-4.238 1.119-7.012 1.098l-2.295-.01-2.38-.025-2.417-.014q-2.947-.02-5.896-.049v2l-1.999.031q-10.268.163-20.535.341-3.836.066-7.671.125-5.503.088-11.006.187l-3.482.05-3.215.06-2.84.048c-2.287.016-2.287.016-4.252 1.158-2.672.134-5.323.043-8 0v-1c6.292-1.84 12.026-2.32 18.563-2.379l3.002-.051c3.145-.053 6.29-.094 9.435-.133q4.717-.065 9.435-.142 2.925-.048 5.85-.08c5.324-.08 10.441-.498 15.715-1.215a76 76 0 0 1 4.281-.098l2.11.01 2.109.025 2.203.014q2.648.02 5.297.049v-2c6.75-2.125 6.75-2.125 9-1"/><path fill="#88b8c7" d="M332 287c4.984 9.969 5.2 21.007 5.656 32.016.266 3.084.699 5.777 1.367 8.773 1.158 5.48 1.204 10.754 1.102 16.336l-.027 2.898A879 879 0 0 1 340 354h-1q-.654-6.023-1.282-12.048-.214-2.04-.436-4.078c-1.018-9.353-1.48-18.472-1.282-27.874h-2c-.09-1.373-.09-1.373-.184-2.773l-.253-3.602-.247-3.586c-.127-2.954-.127-2.954-1.316-5.039-.134-2.672-.043-5.323 0-8"/><path fill="#5f90a2" d="M439 402h1l.184 2.773.253 3.602.247 3.586c.127 2.954.127 2.954 1.316 5.039 1.08 7.37 1.118 14.625 1.063 22.063l-.014 3.49q-.018 4.223-.049 8.447c-2.768-2.768-2.723-5.578-3.125-9.312l-.257-2.309c-1.197-12.404-.784-24.934-.618-37.379"/><path fill="#556c73" d="m644 639 3 1c-6.566 3.44-12.628 5.323-19.992 6.117l-2.351.256c-9.914.976-19.832.843-29.782.752q-2.912-.016-5.824-.027A3299 3299 0 0 1 575 647l-1-2a3291.016 3291.016 0 0 0 16.803.11q2.85.015 5.7.04c12.964.117 25.088.06 37.497-4.15a70 70 0 0 1 4.813-.562c2.89-.044 2.89-.044 5.187-1.438"/><path fill="#d2d2d2" d="M649 650c-3 2-3 2-5.625 2.5L641 653l-1 2c-7.739 2.095-15.708 2.279-23.672 2.195l-3.177-.008c-3.3-.011-6.6-.036-9.901-.062q-3.387-.016-6.773-.027-8.24-.034-16.477-.098v-1l47-1v-2l1.906-.113c4.44-.341 8.333-.803 12.469-2.512 3.626-1.375 4.216-1.501 7.625-.375"/><path fill="#7cafbf" d="M436 390h1c1.173 9.026 1.355 18.044 1.605 27.135l.114 3.666.092 3.317c.162 2.47.58 4.504 1.189 6.882.079 1.587.108 3.177.098 4.766l-.01 2.695-.026 2.789-.013 2.836q-.018 3.458-.049 6.914h-1c-3.948-19.97-3.167-40.745-3-61"/><path fill="#82b3c2" d="M329 577h1c.05 9.53-.067 19.037-.375 28.563l-.094 3.728-.117 3.588-.095 3.205c-.327 2.986-1.112 5.183-2.319 7.916a104 104 0 0 0-1 5h-1c-.093-6.14-.087-12.14.715-18.23.501-4.869.678-9.763.892-14.651.286-5.906.286-5.906 1.393-8.119.228-1.87.41-3.747.563-5.625l.253-3.04z"/><path fill="#3e5055" d="M338 653c4.922.613 9.523 1.597 14.313 2.938 13.787 3.774 26.977 5.18 41.25 5.625l3.923.13q4.757.159 9.514.307v1c-32.823.582-32.823.582-48-3a142 142 0 0 0-5.625-.562c-3.7-.3-6.898-1.066-10.375-2.438v-2l-5-1z"/><path fill="#bde3eb" d="m497 45-1 2c-5.541.88-10.879 1.042-16.477.965-2.49.035-4.866.282-7.336.597-6.109.702-12.092.059-18.187-.562l1-2c14.004-1.079 27.96-1.11 42-1"/><path fill="#a5c5c7" d="M82 408h1q.039 2.688.063 5.375l.035 3.023C83 419 83 419 82 421h-3v6l-3 1 .14 2.527c.241 7.5-.358 12.94-4.14 19.473-1.125-3.75-1.125-3.75 0-6 .317-2.059.604-4.122.875-6.187.753-5.108 2.05-9.083 4.125-13.813 1.13-4.641 2.083-9.312 3-14h2z"/><path fill="#80a8b4" d="M210 38a901 901 0 0 1 7.813-.125c.737-.017 1.475-.034 2.236-.05 3.863-.036 5.66-.019 8.951 2.175l-2.45-.105-3.238-.083-3.199-.105c-3.53.332-5.32 1.139-8.113 3.293-1.36 3.076-1.36 3.076-2 6h-2l.188 3.313c-.215 4.228-.482 3.981-3.188 6.687-.578 2.675-.776 5.262-1 8h-3c1.78-6.754 3.729-13.396 6-20q.846-2.53 1.688-5.062z"/><path fill="#86b7c6" d="M160 467h1c.26 7.169-.689 13.564-2.187 20.563l-.678 3.25q-.703 3.374-1.416 6.746a929 929 0 0 0-2.094 10.375l-1.312 6.566-.613 3.147-.587 2.884-.506 2.55L151 525l-2 1c.232-2.773.485-5.542.75-8.312l.188-2.323c.445-4.475 1.316-8.3 2.968-12.49 2.7-6.992 3.718-14.197 4.844-21.562q.333-2.094.668-4.186.807-5.061 1.582-10.127"/><path fill="#263c42" d="m498.344 636.77 3.027.005 3.129.038 3.129.001c4.612.027 8.857.166 13.371 1.186v1l-2.156-.032a1960 1960 0 0 0-9.657-.093l-3.392-.05-3.252-.02-3-.032c-2.787.044-2.787.044-5.543 2.227-2.897.276-5.722.464-8.625.563-5.092-.266-5.092-.266-9.375 1.437-2.33.358-4.664.688-7 1-1.67.32-3.337.647-5 1 6.178-5.227 12.89-5.319 20.66-5.656 3.252-.17 3.252-.17 5.715-1.351 2.852-1.079 4.932-1.237 7.969-1.223"/><path fill="#8a8a8a" d="M653 142c4.419 4.724 7 10.497 7 17h3c1.316 3.62 2 6.096 2 10h2l3 14h-2l-.805-2.703-1.07-3.547-1.055-3.516c-.944-3.124-.944-3.124-2.203-5.468C662 166 662 166 662 163h-2c-1.858-3.135-2.201-5.375-2-9h-2a345 345 0 0 1-1.5-3.75l-.844-2.11C653 146 653 146 653 142"/><path fill="#afb0ad" d="m293.625 646.688 3.626-.053c6.645.004 11.71.54 17.749 3.365-2 1-2 1-5.434.078-5.212-1.395-10.26-1.378-15.628-1.328l-3.052.014c-13.29-.16-13.29-.16-25.886 3.236-1.54.07-3.083.085-4.625.063l-2.477-.028L256 652c10.112-6.741 25.937-5.226 37.625-5.312"/><path fill="#80b4c3" d="M440 451h1q.869 7.946 1.709 15.894.286 2.694.582 5.387c1.162 10.624 2.03 21.018 1.709 31.719h-1c-1.553-10.905-2.743-21.823-3.784-32.789-.185-1.896-.39-3.79-.599-5.684-.547-5.097-.625-9.489.383-14.527"/><path fill="#799ba4" d="M173 130h1v9l-4 2 .688 2.813c.312 3.187.312 3.187-1 4.812L168 150c-1.29 2.338-2.339 4.752-3.437 7.188C163 160 163 160 160 161l2-7h2l-.25-2.062c.278-3.262 1.396-5.15 3.098-7.899 1.787-3.162 3.019-6.518 4.32-9.902C172 132 172 132 173 130"/><path fill="#76abbb" d="M655 562h1l.516 2.79c1.244 6.5 2.595 12.812 4.547 19.148 2.271 7.598 3.16 15.198 3.937 23.062l-3-1-.516-3.594c-1.204-8.125-2.53-16.095-4.672-24.031-1.509-5.606-2.227-10.564-1.812-16.375"/><path fill="#6798a9" d="M334 486h1c.377 13.083-.784 25.983-2 39h-1v-29l-1 10h-1q-.04-2.594-.062-5.187l-.036-2.918c.093-2.75.477-5.22 1.098-7.895l2 2z"/><path fill="#435157" d="M778 569c1.676 3.252 3.139 6.568 4.563 9.938l1.316 3.09c1.893 5.02 2.519 9.602 2.121 14.972-2.162 2.812-4.692 3.942-7.937 5.25l-2.59 1.078c-2.644.719-3.932.592-6.473-.328h3v-2l1.863-.805 2.45-1.07 2.425-1.055c2.458-1.096 2.458-1.096 5.262-3.07-.706-6.632-2.545-12.63-5.187-18.75-.918-2.541-.966-4.568-.813-7.25"/><path fill="#434240" d="M49 614h8v2l2.08-.016q4.647-.029 9.295-.047l3.273-.025 3.125-.01 2.889-.016C80 616 80 616 82 617c1.704.226 3.413.409 5.125.563l2.758.253L92 618v1c-30.252.508-30.252.508-43-4z"/><path fill="#537078" d="M188 96c1.28 3.84.39 6.349-1 10q-1.008 1.95-2.062 3.875c-2.254 4.273-2.717 8.347-2.938 13.125l-1.93.344L178 124c-1.155 2.471-1.155 2.471-2 5l-2 1v-4l2-1c2.554-4.739 4.42-9.864 6-15h2l.367-2.555.508-3.32.492-3.305C186 98 186 98 188 96"/><path fill="#69929e" d="m299.188 634.75 2.258.28c7.14.943 14.479 1.92 20.554 5.97h4l-1 3-3.129-1.277c-12.616-4.83-24.43-5.748-37.871-5.723l1-2c4.816-1.269 9.312-.877 14.188-.25"/><path fill="#d3d3d2" d="M255 652c-2 3-2 3-3.846 3.432l-2.29.08-2.647.107-2.905.068-3.004.102c-13.762.404-27.541.3-41.308.211v-1l2.329-.06c14.57-.393 29.015-.954 43.51-2.538A77 77 0 0 1 255 652"/><path fill="#b9d5d8" d="M50 523h3c.75 1.563.75 1.563 1 4-.98 1.733-1.969 3.463-3.023 5.152C49.5 534.945 49.429 537.888 49 541c-1.185 3.074-2.557 6.04-4 9h-1v-10h2v-4h2a438 438 0 0 0 2-13"/><path fill="#4d6972" d="M138 215c0 9.24-5.68 19.248-9.082 27.684-1.085 2.738-2.006 5.516-2.918 8.316h-2c.917-7.15 3.184-12.752 6.547-19.102 1.635-3.26 2.734-6.506 3.797-9.984.87-2.54 2.155-4.698 3.656-6.914"/><path fill="#6da2b3" d="M640 502c2.482 4.61 4 8.73 4 14l2-1c.656-2.527.656-2.527 1-5h1c.365 1.748.716 3.498 1.063 5.25l.597 2.953c.324 2.665.195 4.286-.66 6.797l-1-3-2 4-1-6h-2a688 688 0 0 1-1.5-5.625l-.844-3.164c-.647-3.168-.772-5.988-.656-9.211"/><path fill="#b6b4b0" d="M85 346h1c.31 4.965-.316 8.007-2.266 12.668-1.456 4.624-1.501 9.516-1.734 14.332h-2l.105 1.898.082 2.477.106 2.46L80 382l-3 2c-.043-2-.04-4 0-6l1-1 .5-3.5c.5-3.5.5-3.5 1.5-4.5.159-1.893.277-3.79.375-5.687.355-4.83 1.154-8.092 3.625-12.313.7-2.736.7-2.736 1-5"/><path fill="#759093" d="M40 553c1.617 3.234.009 6.306-.937 9.625l-.592 2.14A912 912 0 0 1 37 570h-2l-.187 2.688c-.694 5.05-2.757 9.625-4.657 14.324A51 51 0 0 0 28 594l-1 2-1-1c.38-4.098.693-6.54 3-10l.438-3.375c.576-3.716 1.529-5.534 3.562-8.625 2.112-4.473 3.013-9.181 4-14h2l-.062-2.437C39 554 39 554 40 553"/><path fill="#82a8b1" d="m716 351 2 1v8h2c2.293 5.897 3.345 10.666 3 17-2.313-2.313-2.496-3.479-3.125-6.625l-.508-2.477L719 366h-3z"/><path fill="#c7e8f0" d="M311 45c14.019-.19 27.996.397 42 1v1l-42 1z"/><path fill="#729ca6" d="M512 636v1l-3.98.148-5.207.227c-.865.03-1.73.062-2.62.094-4.574.21-7.943.774-12.193 2.531-3.55.195-3.55.195-7.312.125l-3.801-.055L474 640c1.273-1.496 1.273-1.496 3-3 1.932-.033 3.866-.052 5.797.031 2.252-.032 3.93-.45 6.078-1.093 7.458-1.888 15.546-.543 23.125.062"/><path fill="#959595" d="M794 589c1.484 1.277 1.484 1.277 3 3 .43 6.138.43 6.138-1 9l-4 2-1.375 1.563c-2.329 2.06-4.6 2.1-7.625 2.437v2a415 415 0 0 1-4.687 2l-2.637 1.125c-2.733.894-4.823 1.04-7.676.875 2.938-1.528 5.942-2.85 8.992-4.137 3.053-1.312 6.07-2.706 9.09-4.093C788 604 788 604 790 604l.875-1.875C792 600 792 600 794 598c.243-2.21.243-2.21.125-4.625l-.055-2.477z"/><path fill="#9c9a97" d="M719 322h1l.813 3a77 77 0 0 0 2.687 7.813c1.48 3.846 2.289 7.678 3.023 11.726.45 2.321 1.03 4.56 1.664 6.836.765 3.41.79 4.478-.187 7.625v-3h-2l-.332-1.984c-1.761-12.583-1.761-12.583-6.668-24.016-.258-2.695-.089-5.285 0-8"/><path fill="#b5d2d7" d="M76 432h2q.57 3.49 1 7l-1 1-.375 3.813c-.405 3.612-1.224 5.402-3.625 8.187a88 88 0 0 0-2 5h-1c-.469-5.51.642-8.714 3.043-13.645 1.524-3.751 1.702-7.332 1.957-11.355"/><path fill="#78aaba" d="m168 381 3 1c.137 7.728-.248 15.309-1 23h-1l-1-7h-1a1180 1180 0 0 1-.062-6.25l-.036-3.516c.08-2.644.312-4.732 1.098-7.234"/><path fill="#c6e1e6" d="M65 476h1c.41 7.259-.715 14.43-4 21h-2c-.501-8.023 1.19-13.967 5-21"/><path fill="#7fa0aa" d="M149 189c1.29 2.579.966 4.145.688 7l-.239 2.688C149 201 149 201 147 203h-3l-.25 3.188c-.803 4.082-1.943 5.824-4.75 8.812l1-6h2v-7l2-1 .5-2.5.5-2.5 2-1c.727-1.979 1.398-3.98 2-6"/><path fill="#c0bfbf" d="M427 668c2.063.438 2.063.438 4 1-2.79 2.79-5.673 2.724-9.437 3.125l-2.324.257c-11.7 1.132-23.5.788-35.239.618v-1l2.133-.06c21.46 1.227 21.46 1.227 40.867-3.94"/><path fill="#718f93" d="M65 469c1.608 4.041.338 7.151-.875 11.188l-1.117 3.792C62 487 62 487 61 488a327 327 0 0 0-1.807 9.629c-.335 1.803-.758 3.59-1.193 5.371l-2 1c.585-6.142 1.54-12.007 3-18h2l-.187-3c-.021-5.107 1.934-9.494 4.187-14"/><path fill="#b3d5db" d="M89 383c1.188 1.625 1.188 1.625 2 4-1.375 3.25-1.375 3.25-3 6h-1c-.25-6.625-.25-6.625 2-10m-3 10h1c.386 6.822-.991 12.496-3 19h-1c-.393-6.977.369-12.517 3-19"/><path fill="#517179" d="M650 160c2.358 2.807 3.74 5.624 5.113 9.008 1.014 2.276 2.209 4.394 3.45 6.554 1.935 3.407 3.3 6.676 4.437 10.438l1.188 2.125c1.027 2.371.52 3.453-.188 5.875-3.371-6.54-6.56-13.046-9.14-19.941-.885-2.304-.885-2.304-2.86-5.059v-4h-2z"/><path fill="#202d32" d="M429 660h-2v2c-8.778 2.044-17.039 2.218-26 2v-1c5.568-1.367 11.136-2.39 16.813-3.187l3.832-.543c2.874-.231 4.68-.22 7.355.73"/><path fill="#42433f" d="M95 315c1.312 2.623.896 4.23.563 7.125l-.31 2.758L95 327h-2l-.25 3.938C92.197 336.14 90.353 340.37 88 345c-3.217-6.433 3.836-22.254 6-29z"/><path fill="#739ba6" d="M612 73c2.76 1.38 2.913 3.217 3.855 6.016l1.29 3.968c1.019 3.718 1.019 3.718 3.855 6.016 1.955 3.984 3 6.523 3 11h-2l-1-7-3-1c-3.358-5.457-6-12.54-6-19"/><path fill="#172b31" d="m700.625 609.875 3.332.027q4.021.036 8.043.098v1h-22v2l-2.16.113c-6.585.42-6.585.42-12.778 2.512-3.28 1.473-3.842 1.418-7.062.375a337 337 0 0 1 4.375-1.875l2.46-1.055c8.584-2.903 16.78-3.337 25.79-3.195"/><path fill="#9c9f98" d="M776 538c2 3 2 3 3 5.625.76 2.526.76 2.526 3 3.375.834 2.61 1.544 5.156 2.188 7.813l.576 2.197c.922 3.721 1.368 6.333.236 9.99-2.477-5.881-4.697-11.835-6.75-17.875l-.675-1.946c-1.1-3.29-1.575-5.657-1.575-9.179"/><path fill="#6393a5" d="M164 427h1c.263 8.243-.394 15.912-2 24h-2c-.247-7.86.033-15.348 2-23z"/><path fill="#bfdbdd" d="M37 567h2c-.782 4.847-2.398 9.377-4 14h-2l.125 2.375C33 586 33 586 31 588a89 89 0 0 0-2 4c-.307-4.285.686-7.109 2.438-11 1.648-3.682 2.924-7.009 3.562-11h2z"/><path fill="#5c7c84" d="M698 286c2 1 2 1 2.852 3.504l.773 3.058c.26 1.012.52 2.024.79 3.067L703 298h2l1 13c-3.785-5.677-5.589-10.734-6.687-17.375l-.393-2.23A716 716 0 0 1 698 286"/><path fill="#868784" d="M58 459c1.185 3.435.793 5.411-.375 8.813-1.33 4.098-2.16 7.91-2.625 12.187h-2l-.375 3.375C52 487 52 487 50 489c.547-5.878 2.23-11.213 4.016-16.828a126 126 0 0 0 2.172-7.86C57 461 57 461 58 459"/><path fill="#77a9b9" d="M165 433h1a574 574 0 0 1-1.937 23.75l-.227 2.382c-.604 5.636-.604 5.636-2.836 7.868-.125-7.507-.125-7.507.477-9.879.683-2.769.794-5.463.96-8.308.383-5.467 1.214-10.508 2.563-15.813"/><path fill="#8d8e8b" d="M72 399h1q.061 3.5 0 7l-1 1c-.11 1.394-.186 2.79-.25 4.188-.6 7.013-3.21 13.308-5.75 19.812-1.4-3.75-.537-5.907.875-9.562 1.812-5.077 2.64-9.593 2.852-14.965.306-2.768 1.14-4.941 2.273-7.473"/><path fill="#92b6bd" d="M128 241h1v12l-3 1c-1.194 3.343-1.194 3.343-2 7l-.625 2.438L123 265h-2c.448-2.315.909-4.627 1.375-6.937l.773-3.903L124 251l2-1c.687-2.118.687-2.118 1.125-4.562l.508-2.504z"/><path fill="#b6d8e2" d="M102 330h1c.537 7.115-1.303 12.45-4 19h-2c.538-4.126 1.183-8.22 1.938-12.312l.464-2.551C100 332 100 332 102 330"/><path fill="#31434a" d="m610 65 1 2h2c6.884 12.62 6.884 12.62 5.543 19.266L618 88l-.988-2.887-1.324-3.8-1.301-3.762c-1.247-3.504-1.247-3.504-3.055-6.258C610 69 610 69 610 65"/><path fill="#6d8e99" d="m458 645 2 1c-6.527 7.27-16.623 9.61-26 11v-2c2.709-1.354 5.01-1.065 8-1v-2l2.738-.77 3.575-1.043 3.55-1.019c2.898-1.079 4.252-1.793 6.137-4.168"/><path fill="#688688" d="M54 506h1v8h-2l-.437 3.938c-.438 3.937-.438 3.937-1.563 5.062a93 93 0 0 0-1 4.313c-.616 2.911-1.261 5.804-2 8.687h-2q.962-4.22 1.938-8.437l.552-2.432c1.397-6.018 1.397-6.018 2.51-7.131l.438-3.25c.49-3.272 1.204-5.763 2.562-8.75"/><path fill="#6c929d" d="M628 110c4.712 4.712 7 8.273 7 15l-4-1v-2h-2z"/><path fill="#969694" d="M194 56c1.58 3.158.209 5.495-.75 8.813l-1.047 3.707c-1.102 3.187-2.406 5.65-4.203 8.48a125 125 0 0 0-2 6c-1.468-2.937-.459-4.746.375-7.875l.836-3.18L188 69l.512-2.297C189 65 189 65 190.437 63.625c2.164-2.25 2.708-4.666 3.563-7.625"/><path fill="#213339" d="M97 610c10.225-.51 18.304.337 28 4v2l-13-2-1-3H97z"/><path fill="#6191a4" d="M149 511h1q.039 2.625.063 5.25l.035 2.953c-.086 2.455-.39 4.459-1.098 6.797h-3c-.18-5.198-.026-9.113 2-14z"/><path fill="#c3c4bf" d="M100 287h3a954 954 0 0 1-1.812 8.313l-.502 2.38-.518 2.295-.46 2.11c-.83 2.228-1.936 3.35-3.708 4.902q.212-2.688.438-5.375l.246-3.023C97 296 97 296 98 294h2z"/><path fill="#749093" d="M76 426c2.185 4.371.717 10.316 0 15-1.065 3.17-2.377 6.079-4 9-1.125-3.75-1.125-3.75 0-6 .526-3.24.961-6.487 1.402-9.738.55-3.002 1.354-5.488 2.598-8.262"/><path fill="#adacab" d="m768 614-4 1v2c-3.175 1.058-5.643 1.202-8.98 1.316l-3.526.127-3.682.12-3.716.13q-4.548.16-9.096.307v-1c7.975-1.33 15.942-1.088 24-1v-2c6.75-2.125 6.75-2.125 9-1"/><path fill="#8ebbc9" d="M133 589h1c.295 9-.796 17.531-4 26h-1c.425-8.958 1.742-17.322 4-26"/><path fill="#76abbb" d="M625 415h1c2.34 8.58 2.614 17.16 3 26-5.133-7.7-4.136-17.043-4-26"/><path fill="#5b7476" d="M746 472c2.425 2.425 2.901 4.305 3.938 7.563a297 297 0 0 0 4.644 13.5c.494 2.29.141 3.734-.582 5.937-1.947-2.92-2.584-5.173-3.36-8.543-1.039-3.986-2.458-7.842-3.835-11.723C746 476 746 476 746 472"/><path fill="#7da5b2" d="M605 54c2.612 2.612 3.071 4.972 4.125 8.5l1.07 3.531C611 69 611 69 611 71h-2l-1 2-1-6h-2z"/><path fill="#3f3c3b" d="M727 356c4.27 6.406 4.485 13.501 5 21h2v8c-2.882-5.558-4.518-10.901-5.625-17.062l-.406-2.143c-.616-3.346-.969-6.38-.969-9.795"/><path fill="#686766" d="M706 280h1l.516 1.582c1.79 5.44 3.74 10.794 5.812 16.133C714 300 714 300 713 302l-.312-1.937L712 298l-3-1-1-9h-2z"/><path fill="#364e54" d="M681 237h2c3 6.5 3 6.5 3 11l3 1 2 14-2-1c-.61-2.731-.959-5.467-1.34-8.238-.71-2.973-1.778-4.407-3.66-6.762-.687-3.25-.687-3.25-1-6h-2z"/><path fill="#c1c1bf" d="m487 649-1.875.875c-2.258 1.062-2.258 1.062-4.125 3.125-2.734.306-5.383.511-8.125.625l-2.285.117c-1.863.095-3.726.177-5.59.258v-1c14.597-4.592 14.597-4.592 22-4"/><path fill="#6a8c94" d="M158 167c1.395 2.79.58 4.12-.312 7.063l-.801 2.722C156 179 156 179 154 180a161 161 0 0 0-3 7c-.687-1.687-.687-1.687-1-4 .96-1.69 1.966-3.354 3-5 .722-2.317 1.4-4.648 2-7h2z"/><path fill="#86adb7" d="M167 147h1c.409 5.731-.642 8.988-3.5 13.938l-1.969 3.464L161 167h-2l2-7h2l.313-2c.88-3.838 2.257-7.331 3.687-11"/><path fill="#676665" d="M653 142c3.404 3.819 5.102 7.36 6.75 12.188l1.297 3.73C662 161 662 161 662 163h-2c-1.858-3.135-2.201-5.375-2-9h-2a345 345 0 0 1-1.5-3.75l-.844-2.11C653 146 653 146 653 142"/><path fill="#878784" d="M182 88c.688 1.688.688 1.688 1 4a194 194 0 0 1-3 5c-1.322 2.871-2.57 5.767-3.816 8.672C175 108 175 108 173 109l1-7h2l1-7h2c1.206-2.332 2.165-4.496 3-7"/><path fill="#83a0a9" d="M772 602c-6.89 4.593-14.902 5.398-23 5 3.963-2.642 6.61-3.344 11.313-4.062l3.425-.536A54 54 0 0 1 772 602"/><path fill="#7cb0bf" d="M660 587c3.456 3.598 3.73 7.495 4.188 12.25l.248 2.258c.199 1.83.383 3.66.564 5.492l-3-1q-.506-3.343-1-6.687l-.562-3.762c-.359-2.91-.527-5.628-.438-8.551"/><path fill="#b6d6d9" d="M70 459h1c.487 6.002-1.301 11.317-3 17h-3c1.167-5.929 2.755-11.388 5-17"/><path fill="#4d534a" d="M76 387c.967 3.122.99 5.52.563 8.75l-.31 2.422L76 400h-2l.125 3.125c-.12 3.743-.774 6.412-2.125 9.875h-1c-.043-2-.04-4 0-6l1-1c.187-1.328.324-2.664.438-4 1.284-12.722 1.284-12.722 3.562-15"/><path fill="#37454b" d="M786 595c-1.043 2.864-1.826 3.892-4.46 5.52-.963.426-1.924.853-2.915 1.293l-2.898 1.332c-2.824.886-4.013.903-6.727-.145h3v-2l1.863-.805 2.45-1.07 2.425-1.055C785.226 595 785.226 595 786 595"/><path fill="#4c6b73" d="M168 142c.871 2.447 1.104 3.677.293 6.184l-1.106 2.254c-1.213 2.522-2.313 4.918-3.25 7.562l-.937 2-3 1 2-7h2l-.25-2.062c.35-4.107 2.068-6.461 4.25-9.938"/><path fill="#25353a" d="M644 146h3c5.556 11.337 5.556 11.337 6 18-3.643-1.821-4.683-6.307-6-10-.25-3.062-.25-3.062 0-5h-2z"/><path fill="#5b7f8b" d="M635 125c2 1 2 1 2.71 2.82.22.76.44 1.521.665 2.305.985 3.194 2.096 5.86 3.875 8.688C644 142 644 142 643.75 144.438L643 146v-3l-3-1v-5h-2c-3.429-7.286-3.429-7.286-3-12"/><path fill="#678a94" d="M181 115c.976 2.928 1.082 4.956 1 8l-1.875.188c-2.396.63-2.396.63-3.25 3.312L176 129l-2 1v-4l2-1a87 87 0 0 0 2.625-5.062l1.352-2.786z"/><path fill="#b8dde4" d="M472 45h25l-1 2c-2.066.414-2.066.414-4.562.625l-2.504.227L487 48v-2h-15z"/><path fill="#4c666d" d="M691 264c2.776 3.253 3.958 6.362 5.188 10.438l1.042 3.37c.697 2.89.93 5.242.77 8.192-2.695-3.146-3.695-5.858-4.625-9.875l-.727-3.055A180 180 0 0 1 691 264"/><path fill="#5e5e5a" d="M146 170c.688 1.625.688 1.625 1 4a100 100 0 0 1-3 6l-1 3.125c-.977 2.808-2.094 4.622-4 6.875.43-6.307 2.429-15.429 7-20"/><path fill="#5d8ea0" d="M133 579h1c-.445 5.273-1.084 10.018-3 15h-2v-7h2l.438-3.437C132 580 132 580 133 579"/><path fill="#334549" d="M101 323c1.29 2.58.792 3.403.004 6.133l-.693 2.441-.749 2.551A1095.112 1095.112 0 0 1 97 343c-.916-3.318-.97-5.817-.562-9.25l.308-2.703L97 329l3-1z"/><path fill="#6c6d67" d="M81 367h1v6h-2l.105 1.898.082 2.477.106 2.46L80 382l-3 2c-.043-2-.04-4 0-6l1-1 .438-3.375C79 370 79 370 81 367"/><path fill="#82a2ab" d="m686 250 2 1c.563 2.293.563 2.293 1 5.188.532 3.283 1.114 6.15 2.188 9.312C692 268 692 268 691 271h-2l.125-3.25c.146-3.549.146-3.549-1.094-5.656-1.234-2.506-1.437-4.568-1.656-7.344l-.227-2.703z"/><path fill="#90bac5" d="M140 213c1.434 4.301.578 7.798-1 12-2.625 2.563-2.625 2.563-5 4 2.89-11.706 2.89-11.706 6-16"/><path fill="#799daa" d="M210 38a901 901 0 0 1 7.813-.125c.737-.017 1.475-.034 2.236-.05 3.863-.036 5.66-.019 8.951 2.175l-2.414-.105C218.32 39.667 218.32 39.667 211 43l1-3z"/><path fill="#8e8f8d" d="M145 644c5.813.785 11.369 2.407 17 4v1h-11v-2l-6-2z"/><path fill="#577f8b" d="m479.918 636.926 3.27.386 3.292.364L489 638l-1 2h-14c3-3 3-3 5.918-3.074"/><path fill="#6a92a2" d="m674 611 4 2-11 4v-4c3-2 3-2 7-2"/><path fill="#8aafb8" d="m194 90 2 2c-1.963 3.534-4.04 6.245-7 9-1-2-1-2-.312-4.937 1.374-3.208 2.374-4.3 5.312-6.063"/><path fill="#9d9d99" d="M324 656c4.626 1.028 8.804 2.824 13 5v2h5l1 2-7-1v-2l-1.562-.375L332 661l-3.687-.875L325 659z"/><path fill="#5f7b7f" d="M719 360c3.646 3.646 4.125 8.45 4.125 13.438L723 377c-2.48-2.48-2.547-3.954-3.125-7.375l-.508-2.898C719 364 719 364 719 360"/><path fill="#7298a0" d="M706 311h1l.438 3.438c.174 3.37.174 3.37 1.562 4.562.141 2.67.042 5.324 0 8h2l-1 4-2-1c-1.776-6.238-2.243-12.55-2-19"/><path fill="#7bacbc" d="M329 280c1.563 1.25 1.563 1.25 3 3a62 62 0 0 1-1 4 175 175 0 0 0-.562 5.25l-.254 2.703L330 297h-1a380 380 0 0 1-.562-4.25l-.317-2.39c-.121-2.365.183-4.111.879-6.36h-2z"/><path fill="#9c9c9b" d="M649 650c-3.45 2.3-5.941 2.474-10 3l-1 1c-1.853.072-3.708.084-5.562.063l-3.067-.028L627 654v-1l1.906-.113c4.44-.341 8.333-.803 12.469-2.512 3.626-1.375 4.216-1.501 7.625-.375"/><path fill="#5f8896" d="M466 640h8c-2.022 2.022-3.259 2.676-5.875 3.688l-2.055.824c-2.381.561-3.774.255-6.07-.512 2-2 2-2 4-3l2 1z"/><path fill="#567179" d="m39 602 10 1v2l3.313-.125C56 605 56 605 59 607c-13.633-.595-13.633-.595-20-4z"/><path fill="#2a3f46" d="M128 237c1.023 3.194.963 5.422.25 8.688l-.484 2.386L127 250l-3 1q.428-2.377.875-4.75l.492-2.672c.601-2.447 1.413-4.384 2.633-6.578"/><path fill="#7a7b79" d="M168 651c6.865-.264 13.258.742 20 2v1q-3.312.079-6.625.125l-3.727.07c-3.591-.192-6.315-.892-9.648-2.195z"/><path fill="#626260" d="M689 231c2.496 2.496 3.076 4.66 4.188 8l1.105 3.25C695 245 695 245 694 247c-4.164-4.542-5-10.022-5-16"/><path fill="#2d3e44" d="M127 617c3.31 3.131 5.725 6.07 8 10 1.582 1.751 1.582 1.751 3 3-3.88-1.258-5.941-2.424-8-6v-3h-2z"/><path fill="#99b9c1" d="m131 234 1 3h2l-2 6h-2l-1 2c.875-7.625.875-7.625 2-11"/><path fill="#395159" d="M149 187c0 3.38-.875 5.835-2 9h-2v5l-2 1c.385-6.165 2.47-9.986 6-15"/><path fill="#6d6d69" d="m155 150 1 4h-2v5l-2 1-1 3h-2c2.89-9.595 2.89-9.595 6-13"/><path fill="#c4dfe3" d="m772 559 2 1c.414 2.504.414 2.504.625 5.563l.227 3.066L775 571h-2a824 824 0 0 1-1.062-5.437l-.598-3.06L771 560z"/><path fill="#465758" d="m757 507 1 3h2a311 311 0 0 1 1.063 4.25l.597 2.39c.355 2.464.109 4.016-.66 6.36l-.621-2.152-.817-2.785-.808-2.778c-.544-2.225-.544-2.225-1.754-3.285a100 100 0 0 1 0-5"/><path fill="#b7d4d9" d="m59 495 2 2c-.425 3.828-1.736 7.376-3 11h-1q.212-2.688.438-5.375l.246-3.023C58 497 58 497 59 495"/><path fill="#82847e" d="m754 463 2 1c.887 3.09.887 3.09 1.688 6.938l.824 3.84C759 478 759 478 758 480c-2.397-5.733-3.584-10.805-4-17"/><path fill="#93bac6" d="M178 124h2c-.783 3.916-2.392 7.364-4 11l-2-1c.563-3.941 1.68-6.75 4-10"/><path fill="#89b5c0" d="M187 105h3c-4.018 8.345-4.018 8.345-8 11 1.45-3.791 3.152-7.387 5-11"/><path fill="#8aa8b0" d="M422 657c2.82-.293 2.82-.293 6.125-.187l3.32.082L434 657v1c-9.41 2.296-9.41 2.296-14 2z"/><path fill="#63848e" d="M525 639h17v2l2 1-19-2z"/><path fill="#5d90a2" d="M137 557h2l-1 11h-3z"/><path fill="#badae1" d="M718 369h2c1.316 3.62 2 6.096 2 10h-3z"/><path fill="#80a7b0" d="M120 266c1.746 2.62 2.387 4.038 3 7l-3 1-2-1c.875-5.875.875-5.875 2-7"/><path fill="#7097a1" d="M624 101c2 1 2 1 2.633 2.848l.492 2.215.508 2.222L628 110l-4-1c-.8-3.287-1.097-4.71 0-8"/><path fill="#969696" d="M445 663c-1 3-1 3-3.125 4.188-3.39.957-6.37.95-9.875.812v-1h5v-2c5.75-2 5.75-2 8-2"/><path fill="#556e6f" d="M65 469c1.6 4.002.293 7.046-1 11h-2l-1 3c.865-4.76 1.827-9.654 4-14"/><path fill="#6e6f6d" d="M719 322h1l.938 3.375c.885 3.42.885 3.42 2.062 5.625.134 2.672.043 5.323 0 8h-1l-.937-3.375c-.886-3.42-.886-3.42-2.063-5.625-.134-2.672-.043-5.323 0-8"/><path fill="#688c95" d="M327 645c3.342.597 5.464 1.736 8 4v2h3v2c-4.875-1.75-4.875-1.75-6-4a78 78 0 0 0-5-2z"/><path fill="#2b444c" d="M478 641c-2.785 2.785-5.145 2.543-9 3-1.67.32-3.337.647-5 1 4.108-3.476 8.656-6.056 14-4"/><path fill="#c6c6c1" d="m121 624 .688 1.688c1.669 2.941 3.899 4.96 6.312 7.312l1 2c-2.59-.35-4.577-.738-6.812-2.125-1.827-2.884-1.376-5.552-1.188-8.875"/><path fill="#7699a3" d="M662 621h2c-.087 1.46-.195 2.918-.312 4.375l-.176 2.46C663 630 663 630 660 632v-5h2z"/><path fill="#2f4249" d="M667 617c0 3.2-.632 5.615-1.5 8.688l-.844 3.011L664 631l-2-1c.255-1.794.53-3.585.813-5.375l.457-3.023C664 619 664 619 667 617"/><path fill="#84b5c3" d="M162 455h2c-.114 1.626-.242 3.25-.375 4.875-.07.905-.14 1.81-.21 2.742C163 465 163 465 161 467c-.143-8.571-.143-8.571 1-12"/><path fill="#5f92a3" d="M159 460h1l-1 11h-2c-.25-7.625-.25-7.625 2-11"/><path fill="#7bafbf" d="M440 451h1c.847 5.08 1.09 9.848 1 15-2.65-2.65-2.65-4.295-3-8 .264-2.342.582-4.68 1-7"/><path fill="#5f7c85" d="m206 52 1 2-.875 2.125C204.694 59.783 204.397 63.096 204 67h-3q.68-2.626 1.375-5.25l.773-2.953A34.6 34.6 0 0 1 206 52"/><path fill="#87b5c5" d="M665 607c2 2 2 2 2.195 4.164l-.07 2.461-.055 2.477L667 618l-3 1 .5-2.062c.57-3.354.567-6.542.5-9.938"/><path fill="#939392" d="M21 577c1.283 2.566.851 3.665.25 6.438l-.484 2.37c-.846 2.42-1.837 3.544-3.766 5.192.539-5.277 1.773-9.256 4-14"/><path fill="#a3a5a0" d="M46 502c1 2 1 2 .441 4.164l-.879 2.461-.87 2.477L44 513h-1c-.37-7.508-.37-7.508 1.5-10z"/><path fill="#5c8ea2" d="M642 496c2.68 4.019 2.156 6.242 2 11l-2-1c-.45-2.031-.45-2.031-.687-4.5l-.262-2.469L641 497z"/><path fill="#c1c2c1" d="m737 390 .938 1.938c.897 1.998.897 1.998 2.062 3.062.072 1.686.084 3.375.063 5.063l-.028 2.785L740 405h-1c-1.263-5.075-2.27-9.728-2-15"/><path fill="#32464b" d="m702 296 1 2h2l1 13c-1.743-2.615-2.416-4.005-3.125-6.937l-.508-2.028C702 300 702 300 702 296"/><path fill="#9dc5ce" d="M682 244h2l1 9h-2c-1.478-2.957-1.06-5.742-1-9"/><path fill="#33474e" d="m442 656-5 1v2h-8v-1q2.119-.799 4.25-1.562l2.39-.88c2.551-.603 3.913-.405 6.36.442"/><path fill="#b5d7dd" d="M56 512c.688 1.688.688 1.688 1 4-1.375 2.75-1.375 2.75-3 5h-1c-.187-3.375-.187-3.375 0-7z"/><path fill="#b1b3af" d="M761 487c2.18 1.759 2.937 2.694 3.512 5.48l.176 2.707.199 2.731L765 500l-2-1c-1.268-4.296-2-7.51-2-12"/><path fill="#bec2bd" d="M72 399h1c.212 5.192-.409 9.127-2 14h-1c-.369-9.41-.369-9.41 2-14"/><path fill="#6d949c" d="M124 251h1c.369 9.41.369 9.41-2 14h-2z"/><path fill="#cbcccb" d="m138 188 1 2c-.777 2.164-.777 2.164-1.937 4.625l-1.153 2.477L135 199h-1v-7h2z"/><path fill="#446169" d="M619 89h2c3 6.5 3 6.5 3 11h-2z"/><path fill="#18262c" d="M193 83c1 3 1 3 .223 5.043l-1.16 2.144-1.153 2.168L190 94h-1c.875-6.75.875-6.75 2-9h2z"/><path fill="#666460" d="m202 29 2 1-3 10h-1c-.25-7.625-.25-7.625 2-11"/><path fill="#484746" d="M49 614h8v2h6v1c-5.22.18-9.073-.03-14-2z"/><path fill="#b1d1da" d="m771 595 2 2c3.083.167 3.083.167 6 0l-2 3c-3.625.188-3.625.188-7 0z"/><path fill="#dadcd9" d="M60 445h1l-2 14h-1v-11h2z"/><path fill="#c0dce3" d="M79 421h2c.25 2.75.25 2.75 0 6-2 2.375-2 2.375-4 4z"/><path fill="#585855" d="M727 356c2.558 3.837 4.345 7.757 3.625 12.438L730 370c-2.19-3.285-2.353-4.831-2.625-8.687l-.227-3.012z"/><path fill="#86b1bc" d="m200 73 2 1c-2.75 6.75-2.75 6.75-5 9 .507-3.719 1.116-6.735 3-10"/><path fill="#1b272c" d="m34 600 5 1v2l6 1c-2.17.955-3.563 1.144-5.824.398-1.744-.757-3.462-1.574-5.176-2.398z"/><path fill="#a8c5c9" d="M43 544h1c.25 7.625.25 7.625-2 11-1.026-4.41-1.037-6.926 1-11"/><path fill="#c3e0e6" d="M47 540c1 2 1 2 .441 3.945l-.879 2.18-.87 2.195L45 550h-1c-.37-5.415-.37-5.415 1.5-8.375z"/><path fill="#70736e" d="M38 527h1v8h-2l-1 3c-.196-4.219.198-7.17 2-11"/><path fill="#b2d3d7" d="M727 407h2c1.354 2.709 1.065 5.01 1 8h-2z"/><path fill="#172226" d="M665 191c2.19 2.19 2.722 3.599 3.688 6.5l.824 2.406C670 202 670 202 669 204a742 742 0 0 1-2-4.812l-1.125-2.708C665 194 665 194 665 191"/><path fill="#97bec8" d="m152 183 3 1c-2.75 5.875-2.75 5.875-5 7 .523-2.763 1.109-5.326 2-8"/><path fill="#273a3f" d="M159 161c.688 1.625.688 1.625 1 4-1.437 3.25-1.437 3.25-3 6h-1c-.37-6.523-.37-6.523 1.5-8.937z"/><path fill="#83817f" d="M23 604c4.515.531 7.347 2.366 11 5l-3 1c-2.5-1.812-2.5-1.812-5-4z"/><path fill="#363737" d="M84 355h1c.37 7.385.37 7.385-1.5 10.5L82 367c-.213-4.468.409-7.823 2-12"/><path fill="#827e78" d="M716 311c2.12 3.534 2.532 6.944 3 11-1.5-1-1.5-1-3-3-.273-2.718-.135-5.257 0-8"/><path fill="#bcbcbb" d="m162 649 6 2v2h-5z"/><path fill="#96b8c0" d="M243 641c-3.435 2.29-4.985 2.178-9 2 1-2 1-2 2.813-2.687 2.375-.34 3.92-.042 6.187.687"/><path fill="#84b6c5" d="M662 599h2l1 8-3-1z"/><path fill="#172427" d="M67 458h1c-.468 4.056-.88 7.466-3 11v-8h2z"/><path fill="#aeadac" d="M734 378h1c2.429 7.429 2.429 7.429 1 11-2-2-2-2-2.195-4.164l.07-2.461.055-2.477z"/><path fill="#aca9a6" d="M731 367h1c1.316 3.62 2 6.096 2 10h-2c-1.607-3.215-1.057-6.436-1-10"/><path fill="#3a3935" d="M711 298c2.354 2.55 2.983 3.71 3.188 7.25L714 308l-1-3h-2z"/><path fill="#3f3e3c" d="M120 237c1.6 3.2.032 5.723-1 9h-2v-4h2z"/><path fill="#7e7f7a" d="M146 170c.688 1.688.688 1.688 1 4-1.312 2.75-1.312 2.75-3 5h-2c1.199-3.083 2.477-6.063 4-9"/><path fill="#7ea3ad" d="M170 138c1.525 3.05 1.236 5.642 1 9-1.516 1.723-1.516 1.723-3 3q.21-2.72.438-5.437c.08-1.01.162-2.02.246-3.06C169 139 169 139 170 138"/></svg>